%TF.GenerationSoftware,KiCad,Pcbnew,7.0.1*%
%TF.CreationDate,2023-04-07T20:05:45+02:00*%
%TF.ProjectId,at90s8535,61743930-7338-4353-9335-2e6b69636164,V1.0*%
%TF.SameCoordinates,Original*%
%TF.FileFunction,Drillmap*%
%TF.FilePolarity,Positive*%
%FSLAX45Y45*%
G04 Gerber Fmt 4.5, Leading zero omitted, Abs format (unit mm)*
G04 Created by KiCad (PCBNEW 7.0.1) date 2023-04-07 20:05:45*
%MOMM*%
%LPD*%
G01*
G04 APERTURE LIST*
%ADD10C,0.050000*%
%ADD11C,0.200000*%
%ADD12C,0.350000*%
G04 APERTURE END LIST*
D10*
X-4953000Y4953000D02*
X4953000Y4953000D01*
X4953000Y-4953000D02*
X-4953000Y-4953000D01*
X-4953000Y-4953000D02*
X-4953000Y4953000D01*
X4953000Y4953000D02*
X4953000Y-4953000D01*
D11*
D12*
X-3604000Y4762000D02*
X-3254000Y4412000D01*
X-3254000Y4762000D02*
X-3604000Y4412000D01*
D11*
X-4707881Y-5268024D02*
X-4707881Y-5068024D01*
X-4707881Y-5068024D02*
X-4660262Y-5068024D01*
X-4660262Y-5068024D02*
X-4631690Y-5077548D01*
X-4631690Y-5077548D02*
X-4612643Y-5096595D01*
X-4612643Y-5096595D02*
X-4603119Y-5115643D01*
X-4603119Y-5115643D02*
X-4593595Y-5153738D01*
X-4593595Y-5153738D02*
X-4593595Y-5182310D01*
X-4593595Y-5182310D02*
X-4603119Y-5220405D01*
X-4603119Y-5220405D02*
X-4612643Y-5239452D01*
X-4612643Y-5239452D02*
X-4631690Y-5258500D01*
X-4631690Y-5258500D02*
X-4660262Y-5268024D01*
X-4660262Y-5268024D02*
X-4707881Y-5268024D01*
X-4507881Y-5268024D02*
X-4507881Y-5134690D01*
X-4507881Y-5172786D02*
X-4498357Y-5153738D01*
X-4498357Y-5153738D02*
X-4488833Y-5144214D01*
X-4488833Y-5144214D02*
X-4469786Y-5134690D01*
X-4469786Y-5134690D02*
X-4450738Y-5134690D01*
X-4384071Y-5268024D02*
X-4384071Y-5134690D01*
X-4384071Y-5068024D02*
X-4393595Y-5077548D01*
X-4393595Y-5077548D02*
X-4384071Y-5087071D01*
X-4384071Y-5087071D02*
X-4374548Y-5077548D01*
X-4374548Y-5077548D02*
X-4384071Y-5068024D01*
X-4384071Y-5068024D02*
X-4384071Y-5087071D01*
X-4260262Y-5268024D02*
X-4279310Y-5258500D01*
X-4279310Y-5258500D02*
X-4288833Y-5239452D01*
X-4288833Y-5239452D02*
X-4288833Y-5068024D01*
X-4155500Y-5268024D02*
X-4174548Y-5258500D01*
X-4174548Y-5258500D02*
X-4184071Y-5239452D01*
X-4184071Y-5239452D02*
X-4184071Y-5068024D01*
X-3926928Y-5268024D02*
X-3926928Y-5068024D01*
X-3926928Y-5068024D02*
X-3860262Y-5210881D01*
X-3860262Y-5210881D02*
X-3793595Y-5068024D01*
X-3793595Y-5068024D02*
X-3793595Y-5268024D01*
X-3612643Y-5268024D02*
X-3612643Y-5163262D01*
X-3612643Y-5163262D02*
X-3622167Y-5144214D01*
X-3622167Y-5144214D02*
X-3641214Y-5134690D01*
X-3641214Y-5134690D02*
X-3679309Y-5134690D01*
X-3679309Y-5134690D02*
X-3698357Y-5144214D01*
X-3612643Y-5258500D02*
X-3631690Y-5268024D01*
X-3631690Y-5268024D02*
X-3679309Y-5268024D01*
X-3679309Y-5268024D02*
X-3698357Y-5258500D01*
X-3698357Y-5258500D02*
X-3707881Y-5239452D01*
X-3707881Y-5239452D02*
X-3707881Y-5220405D01*
X-3707881Y-5220405D02*
X-3698357Y-5201357D01*
X-3698357Y-5201357D02*
X-3679309Y-5191833D01*
X-3679309Y-5191833D02*
X-3631690Y-5191833D01*
X-3631690Y-5191833D02*
X-3612643Y-5182310D01*
X-3517405Y-5134690D02*
X-3517405Y-5334690D01*
X-3517405Y-5144214D02*
X-3498357Y-5134690D01*
X-3498357Y-5134690D02*
X-3460262Y-5134690D01*
X-3460262Y-5134690D02*
X-3441214Y-5144214D01*
X-3441214Y-5144214D02*
X-3431690Y-5153738D01*
X-3431690Y-5153738D02*
X-3422167Y-5172786D01*
X-3422167Y-5172786D02*
X-3422167Y-5229929D01*
X-3422167Y-5229929D02*
X-3431690Y-5248976D01*
X-3431690Y-5248976D02*
X-3441214Y-5258500D01*
X-3441214Y-5258500D02*
X-3460262Y-5268024D01*
X-3460262Y-5268024D02*
X-3498357Y-5268024D01*
X-3498357Y-5268024D02*
X-3517405Y-5258500D01*
X-3336452Y-5248976D02*
X-3326928Y-5258500D01*
X-3326928Y-5258500D02*
X-3336452Y-5268024D01*
X-3336452Y-5268024D02*
X-3345976Y-5258500D01*
X-3345976Y-5258500D02*
X-3336452Y-5248976D01*
X-3336452Y-5248976D02*
X-3336452Y-5268024D01*
X-3336452Y-5144214D02*
X-3326928Y-5153738D01*
X-3326928Y-5153738D02*
X-3336452Y-5163262D01*
X-3336452Y-5163262D02*
X-3345976Y-5153738D01*
X-3345976Y-5153738D02*
X-3336452Y-5144214D01*
X-3336452Y-5144214D02*
X-3336452Y-5163262D01*
X-5155500Y-5495500D02*
X-4955500Y-5695500D01*
X-4955500Y-5495500D02*
X-5155500Y-5695500D01*
X-4726929Y-5488024D02*
X-4603119Y-5488024D01*
X-4603119Y-5488024D02*
X-4669786Y-5564214D01*
X-4669786Y-5564214D02*
X-4641214Y-5564214D01*
X-4641214Y-5564214D02*
X-4622167Y-5573738D01*
X-4622167Y-5573738D02*
X-4612643Y-5583262D01*
X-4612643Y-5583262D02*
X-4603119Y-5602309D01*
X-4603119Y-5602309D02*
X-4603119Y-5649928D01*
X-4603119Y-5649928D02*
X-4612643Y-5668976D01*
X-4612643Y-5668976D02*
X-4622167Y-5678500D01*
X-4622167Y-5678500D02*
X-4641214Y-5688024D01*
X-4641214Y-5688024D02*
X-4698357Y-5688024D01*
X-4698357Y-5688024D02*
X-4717405Y-5678500D01*
X-4717405Y-5678500D02*
X-4726929Y-5668976D01*
X-4517405Y-5668976D02*
X-4507881Y-5678500D01*
X-4507881Y-5678500D02*
X-4517405Y-5688024D01*
X-4517405Y-5688024D02*
X-4526929Y-5678500D01*
X-4526929Y-5678500D02*
X-4517405Y-5668976D01*
X-4517405Y-5668976D02*
X-4517405Y-5688024D01*
X-4326929Y-5488024D02*
X-4422167Y-5488024D01*
X-4422167Y-5488024D02*
X-4431690Y-5583262D01*
X-4431690Y-5583262D02*
X-4422167Y-5573738D01*
X-4422167Y-5573738D02*
X-4403119Y-5564214D01*
X-4403119Y-5564214D02*
X-4355500Y-5564214D01*
X-4355500Y-5564214D02*
X-4336452Y-5573738D01*
X-4336452Y-5573738D02*
X-4326929Y-5583262D01*
X-4326929Y-5583262D02*
X-4317405Y-5602309D01*
X-4317405Y-5602309D02*
X-4317405Y-5649928D01*
X-4317405Y-5649928D02*
X-4326929Y-5668976D01*
X-4326929Y-5668976D02*
X-4336452Y-5678500D01*
X-4336452Y-5678500D02*
X-4355500Y-5688024D01*
X-4355500Y-5688024D02*
X-4403119Y-5688024D01*
X-4403119Y-5688024D02*
X-4422167Y-5678500D01*
X-4422167Y-5678500D02*
X-4431690Y-5668976D01*
X-4193595Y-5488024D02*
X-4174547Y-5488024D01*
X-4174547Y-5488024D02*
X-4155500Y-5497548D01*
X-4155500Y-5497548D02*
X-4145976Y-5507071D01*
X-4145976Y-5507071D02*
X-4136452Y-5526119D01*
X-4136452Y-5526119D02*
X-4126928Y-5564214D01*
X-4126928Y-5564214D02*
X-4126928Y-5611833D01*
X-4126928Y-5611833D02*
X-4136452Y-5649928D01*
X-4136452Y-5649928D02*
X-4145976Y-5668976D01*
X-4145976Y-5668976D02*
X-4155500Y-5678500D01*
X-4155500Y-5678500D02*
X-4174547Y-5688024D01*
X-4174547Y-5688024D02*
X-4193595Y-5688024D01*
X-4193595Y-5688024D02*
X-4212643Y-5678500D01*
X-4212643Y-5678500D02*
X-4222167Y-5668976D01*
X-4222167Y-5668976D02*
X-4231690Y-5649928D01*
X-4231690Y-5649928D02*
X-4241214Y-5611833D01*
X-4241214Y-5611833D02*
X-4241214Y-5564214D01*
X-4241214Y-5564214D02*
X-4231690Y-5526119D01*
X-4231690Y-5526119D02*
X-4222167Y-5507071D01*
X-4222167Y-5507071D02*
X-4212643Y-5497548D01*
X-4212643Y-5497548D02*
X-4193595Y-5488024D01*
X-4003119Y-5488024D02*
X-3984071Y-5488024D01*
X-3984071Y-5488024D02*
X-3965024Y-5497548D01*
X-3965024Y-5497548D02*
X-3955500Y-5507071D01*
X-3955500Y-5507071D02*
X-3945976Y-5526119D01*
X-3945976Y-5526119D02*
X-3936452Y-5564214D01*
X-3936452Y-5564214D02*
X-3936452Y-5611833D01*
X-3936452Y-5611833D02*
X-3945976Y-5649928D01*
X-3945976Y-5649928D02*
X-3955500Y-5668976D01*
X-3955500Y-5668976D02*
X-3965024Y-5678500D01*
X-3965024Y-5678500D02*
X-3984071Y-5688024D01*
X-3984071Y-5688024D02*
X-4003119Y-5688024D01*
X-4003119Y-5688024D02*
X-4022167Y-5678500D01*
X-4022167Y-5678500D02*
X-4031690Y-5668976D01*
X-4031690Y-5668976D02*
X-4041214Y-5649928D01*
X-4041214Y-5649928D02*
X-4050738Y-5611833D01*
X-4050738Y-5611833D02*
X-4050738Y-5564214D01*
X-4050738Y-5564214D02*
X-4041214Y-5526119D01*
X-4041214Y-5526119D02*
X-4031690Y-5507071D01*
X-4031690Y-5507071D02*
X-4022167Y-5497548D01*
X-4022167Y-5497548D02*
X-4003119Y-5488024D01*
X-3850738Y-5688024D02*
X-3850738Y-5554690D01*
X-3850738Y-5573738D02*
X-3841214Y-5564214D01*
X-3841214Y-5564214D02*
X-3822167Y-5554690D01*
X-3822167Y-5554690D02*
X-3793595Y-5554690D01*
X-3793595Y-5554690D02*
X-3774547Y-5564214D01*
X-3774547Y-5564214D02*
X-3765024Y-5583262D01*
X-3765024Y-5583262D02*
X-3765024Y-5688024D01*
X-3765024Y-5583262D02*
X-3755500Y-5564214D01*
X-3755500Y-5564214D02*
X-3736452Y-5554690D01*
X-3736452Y-5554690D02*
X-3707881Y-5554690D01*
X-3707881Y-5554690D02*
X-3688833Y-5564214D01*
X-3688833Y-5564214D02*
X-3679309Y-5583262D01*
X-3679309Y-5583262D02*
X-3679309Y-5688024D01*
X-3584071Y-5688024D02*
X-3584071Y-5554690D01*
X-3584071Y-5573738D02*
X-3574547Y-5564214D01*
X-3574547Y-5564214D02*
X-3555500Y-5554690D01*
X-3555500Y-5554690D02*
X-3526928Y-5554690D01*
X-3526928Y-5554690D02*
X-3507881Y-5564214D01*
X-3507881Y-5564214D02*
X-3498357Y-5583262D01*
X-3498357Y-5583262D02*
X-3498357Y-5688024D01*
X-3498357Y-5583262D02*
X-3488833Y-5564214D01*
X-3488833Y-5564214D02*
X-3469786Y-5554690D01*
X-3469786Y-5554690D02*
X-3441214Y-5554690D01*
X-3441214Y-5554690D02*
X-3422166Y-5564214D01*
X-3422166Y-5564214D02*
X-3412643Y-5583262D01*
X-3412643Y-5583262D02*
X-3412643Y-5688024D01*
X-3022166Y-5478500D02*
X-3193595Y-5735643D01*
X-2765024Y-5488024D02*
X-2745976Y-5488024D01*
X-2745976Y-5488024D02*
X-2726928Y-5497548D01*
X-2726928Y-5497548D02*
X-2717405Y-5507071D01*
X-2717405Y-5507071D02*
X-2707881Y-5526119D01*
X-2707881Y-5526119D02*
X-2698357Y-5564214D01*
X-2698357Y-5564214D02*
X-2698357Y-5611833D01*
X-2698357Y-5611833D02*
X-2707881Y-5649928D01*
X-2707881Y-5649928D02*
X-2717405Y-5668976D01*
X-2717405Y-5668976D02*
X-2726928Y-5678500D01*
X-2726928Y-5678500D02*
X-2745976Y-5688024D01*
X-2745976Y-5688024D02*
X-2765024Y-5688024D01*
X-2765024Y-5688024D02*
X-2784071Y-5678500D01*
X-2784071Y-5678500D02*
X-2793595Y-5668976D01*
X-2793595Y-5668976D02*
X-2803119Y-5649928D01*
X-2803119Y-5649928D02*
X-2812643Y-5611833D01*
X-2812643Y-5611833D02*
X-2812643Y-5564214D01*
X-2812643Y-5564214D02*
X-2803119Y-5526119D01*
X-2803119Y-5526119D02*
X-2793595Y-5507071D01*
X-2793595Y-5507071D02*
X-2784071Y-5497548D01*
X-2784071Y-5497548D02*
X-2765024Y-5488024D01*
X-2612643Y-5668976D02*
X-2603119Y-5678500D01*
X-2603119Y-5678500D02*
X-2612643Y-5688024D01*
X-2612643Y-5688024D02*
X-2622166Y-5678500D01*
X-2622166Y-5678500D02*
X-2612643Y-5668976D01*
X-2612643Y-5668976D02*
X-2612643Y-5688024D01*
X-2412643Y-5688024D02*
X-2526928Y-5688024D01*
X-2469786Y-5688024D02*
X-2469786Y-5488024D01*
X-2469786Y-5488024D02*
X-2488833Y-5516595D01*
X-2488833Y-5516595D02*
X-2507881Y-5535643D01*
X-2507881Y-5535643D02*
X-2526928Y-5545167D01*
X-2345976Y-5488024D02*
X-2222166Y-5488024D01*
X-2222166Y-5488024D02*
X-2288833Y-5564214D01*
X-2288833Y-5564214D02*
X-2260262Y-5564214D01*
X-2260262Y-5564214D02*
X-2241214Y-5573738D01*
X-2241214Y-5573738D02*
X-2231690Y-5583262D01*
X-2231690Y-5583262D02*
X-2222166Y-5602309D01*
X-2222166Y-5602309D02*
X-2222166Y-5649928D01*
X-2222166Y-5649928D02*
X-2231690Y-5668976D01*
X-2231690Y-5668976D02*
X-2241214Y-5678500D01*
X-2241214Y-5678500D02*
X-2260262Y-5688024D01*
X-2260262Y-5688024D02*
X-2317405Y-5688024D01*
X-2317405Y-5688024D02*
X-2336452Y-5678500D01*
X-2336452Y-5678500D02*
X-2345976Y-5668976D01*
X-2155500Y-5488024D02*
X-2022166Y-5488024D01*
X-2022166Y-5488024D02*
X-2107881Y-5688024D01*
X-1917404Y-5573738D02*
X-1936452Y-5564214D01*
X-1936452Y-5564214D02*
X-1945976Y-5554690D01*
X-1945976Y-5554690D02*
X-1955500Y-5535643D01*
X-1955500Y-5535643D02*
X-1955500Y-5526119D01*
X-1955500Y-5526119D02*
X-1945976Y-5507071D01*
X-1945976Y-5507071D02*
X-1936452Y-5497548D01*
X-1936452Y-5497548D02*
X-1917404Y-5488024D01*
X-1917404Y-5488024D02*
X-1879309Y-5488024D01*
X-1879309Y-5488024D02*
X-1860262Y-5497548D01*
X-1860262Y-5497548D02*
X-1850738Y-5507071D01*
X-1850738Y-5507071D02*
X-1841214Y-5526119D01*
X-1841214Y-5526119D02*
X-1841214Y-5535643D01*
X-1841214Y-5535643D02*
X-1850738Y-5554690D01*
X-1850738Y-5554690D02*
X-1860262Y-5564214D01*
X-1860262Y-5564214D02*
X-1879309Y-5573738D01*
X-1879309Y-5573738D02*
X-1917404Y-5573738D01*
X-1917404Y-5573738D02*
X-1936452Y-5583262D01*
X-1936452Y-5583262D02*
X-1945976Y-5592786D01*
X-1945976Y-5592786D02*
X-1955500Y-5611833D01*
X-1955500Y-5611833D02*
X-1955500Y-5649928D01*
X-1955500Y-5649928D02*
X-1945976Y-5668976D01*
X-1945976Y-5668976D02*
X-1936452Y-5678500D01*
X-1936452Y-5678500D02*
X-1917404Y-5688024D01*
X-1917404Y-5688024D02*
X-1879309Y-5688024D01*
X-1879309Y-5688024D02*
X-1860262Y-5678500D01*
X-1860262Y-5678500D02*
X-1850738Y-5668976D01*
X-1850738Y-5668976D02*
X-1841214Y-5649928D01*
X-1841214Y-5649928D02*
X-1841214Y-5611833D01*
X-1841214Y-5611833D02*
X-1850738Y-5592786D01*
X-1850738Y-5592786D02*
X-1860262Y-5583262D01*
X-1860262Y-5583262D02*
X-1879309Y-5573738D01*
X-1765023Y-5488024D02*
X-1765023Y-5526119D01*
X-1688833Y-5488024D02*
X-1688833Y-5526119D01*
X-1393595Y-5764214D02*
X-1403119Y-5754690D01*
X-1403119Y-5754690D02*
X-1422166Y-5726119D01*
X-1422166Y-5726119D02*
X-1431690Y-5707071D01*
X-1431690Y-5707071D02*
X-1441214Y-5678500D01*
X-1441214Y-5678500D02*
X-1450738Y-5630881D01*
X-1450738Y-5630881D02*
X-1450738Y-5592786D01*
X-1450738Y-5592786D02*
X-1441214Y-5545167D01*
X-1441214Y-5545167D02*
X-1431690Y-5516595D01*
X-1431690Y-5516595D02*
X-1422166Y-5497548D01*
X-1422166Y-5497548D02*
X-1403119Y-5468976D01*
X-1403119Y-5468976D02*
X-1393595Y-5459452D01*
X-1212643Y-5688024D02*
X-1326928Y-5688024D01*
X-1269785Y-5688024D02*
X-1269785Y-5488024D01*
X-1269785Y-5488024D02*
X-1288833Y-5516595D01*
X-1288833Y-5516595D02*
X-1307881Y-5535643D01*
X-1307881Y-5535643D02*
X-1326928Y-5545167D01*
X-974547Y-5688024D02*
X-974547Y-5488024D01*
X-888833Y-5688024D02*
X-888833Y-5583262D01*
X-888833Y-5583262D02*
X-898357Y-5564214D01*
X-898357Y-5564214D02*
X-917404Y-5554690D01*
X-917404Y-5554690D02*
X-945976Y-5554690D01*
X-945976Y-5554690D02*
X-965023Y-5564214D01*
X-965023Y-5564214D02*
X-974547Y-5573738D01*
X-765023Y-5688024D02*
X-784071Y-5678500D01*
X-784071Y-5678500D02*
X-793595Y-5668976D01*
X-793595Y-5668976D02*
X-803119Y-5649928D01*
X-803119Y-5649928D02*
X-803119Y-5592786D01*
X-803119Y-5592786D02*
X-793595Y-5573738D01*
X-793595Y-5573738D02*
X-784071Y-5564214D01*
X-784071Y-5564214D02*
X-765023Y-5554690D01*
X-765023Y-5554690D02*
X-736452Y-5554690D01*
X-736452Y-5554690D02*
X-717404Y-5564214D01*
X-717404Y-5564214D02*
X-707880Y-5573738D01*
X-707880Y-5573738D02*
X-698357Y-5592786D01*
X-698357Y-5592786D02*
X-698357Y-5649928D01*
X-698357Y-5649928D02*
X-707880Y-5668976D01*
X-707880Y-5668976D02*
X-717404Y-5678500D01*
X-717404Y-5678500D02*
X-736452Y-5688024D01*
X-736452Y-5688024D02*
X-765023Y-5688024D01*
X-584071Y-5688024D02*
X-603119Y-5678500D01*
X-603119Y-5678500D02*
X-612642Y-5659452D01*
X-612642Y-5659452D02*
X-612642Y-5488024D01*
X-431690Y-5678500D02*
X-450738Y-5688024D01*
X-450738Y-5688024D02*
X-488833Y-5688024D01*
X-488833Y-5688024D02*
X-507880Y-5678500D01*
X-507880Y-5678500D02*
X-517404Y-5659452D01*
X-517404Y-5659452D02*
X-517404Y-5583262D01*
X-517404Y-5583262D02*
X-507880Y-5564214D01*
X-507880Y-5564214D02*
X-488833Y-5554690D01*
X-488833Y-5554690D02*
X-450738Y-5554690D01*
X-450738Y-5554690D02*
X-431690Y-5564214D01*
X-431690Y-5564214D02*
X-422166Y-5583262D01*
X-422166Y-5583262D02*
X-422166Y-5602309D01*
X-422166Y-5602309D02*
X-517404Y-5621357D01*
X-355499Y-5764214D02*
X-345976Y-5754690D01*
X-345976Y-5754690D02*
X-326928Y-5726119D01*
X-326928Y-5726119D02*
X-317404Y-5707071D01*
X-317404Y-5707071D02*
X-307881Y-5678500D01*
X-307881Y-5678500D02*
X-298357Y-5630881D01*
X-298357Y-5630881D02*
X-298357Y-5592786D01*
X-298357Y-5592786D02*
X-307881Y-5545167D01*
X-307881Y-5545167D02*
X-317404Y-5516595D01*
X-317404Y-5516595D02*
X-326928Y-5497548D01*
X-326928Y-5497548D02*
X-345976Y-5468976D01*
X-345976Y-5468976D02*
X-355499Y-5459452D01*
X6405Y-5764214D02*
X-3119Y-5754690D01*
X-3119Y-5754690D02*
X-22166Y-5726119D01*
X-22166Y-5726119D02*
X-31690Y-5707071D01*
X-31690Y-5707071D02*
X-41214Y-5678500D01*
X-41214Y-5678500D02*
X-50738Y-5630881D01*
X-50738Y-5630881D02*
X-50738Y-5592786D01*
X-50738Y-5592786D02*
X-41214Y-5545167D01*
X-41214Y-5545167D02*
X-31690Y-5516595D01*
X-31690Y-5516595D02*
X-22166Y-5497548D01*
X-22166Y-5497548D02*
X-3119Y-5468976D01*
X-3119Y-5468976D02*
X6405Y-5459452D01*
X82596Y-5554690D02*
X82596Y-5688024D01*
X82596Y-5573738D02*
X92119Y-5564214D01*
X92119Y-5564214D02*
X111167Y-5554690D01*
X111167Y-5554690D02*
X139739Y-5554690D01*
X139739Y-5554690D02*
X158786Y-5564214D01*
X158786Y-5564214D02*
X168310Y-5583262D01*
X168310Y-5583262D02*
X168310Y-5688024D01*
X292119Y-5688024D02*
X273072Y-5678500D01*
X273072Y-5678500D02*
X263548Y-5668976D01*
X263548Y-5668976D02*
X254024Y-5649928D01*
X254024Y-5649928D02*
X254024Y-5592786D01*
X254024Y-5592786D02*
X263548Y-5573738D01*
X263548Y-5573738D02*
X273072Y-5564214D01*
X273072Y-5564214D02*
X292119Y-5554690D01*
X292119Y-5554690D02*
X320691Y-5554690D01*
X320691Y-5554690D02*
X339739Y-5564214D01*
X339739Y-5564214D02*
X349262Y-5573738D01*
X349262Y-5573738D02*
X358786Y-5592786D01*
X358786Y-5592786D02*
X358786Y-5649928D01*
X358786Y-5649928D02*
X349262Y-5668976D01*
X349262Y-5668976D02*
X339739Y-5678500D01*
X339739Y-5678500D02*
X320691Y-5688024D01*
X320691Y-5688024D02*
X292119Y-5688024D01*
X415929Y-5554690D02*
X492119Y-5554690D01*
X444500Y-5488024D02*
X444500Y-5659452D01*
X444500Y-5659452D02*
X454024Y-5678500D01*
X454024Y-5678500D02*
X473072Y-5688024D01*
X473072Y-5688024D02*
X492119Y-5688024D01*
X711167Y-5554690D02*
X711167Y-5754690D01*
X711167Y-5564214D02*
X730215Y-5554690D01*
X730215Y-5554690D02*
X768310Y-5554690D01*
X768310Y-5554690D02*
X787358Y-5564214D01*
X787358Y-5564214D02*
X796881Y-5573738D01*
X796881Y-5573738D02*
X806405Y-5592786D01*
X806405Y-5592786D02*
X806405Y-5649928D01*
X806405Y-5649928D02*
X796881Y-5668976D01*
X796881Y-5668976D02*
X787358Y-5678500D01*
X787358Y-5678500D02*
X768310Y-5688024D01*
X768310Y-5688024D02*
X730215Y-5688024D01*
X730215Y-5688024D02*
X711167Y-5678500D01*
X920691Y-5688024D02*
X901643Y-5678500D01*
X901643Y-5678500D02*
X892119Y-5659452D01*
X892119Y-5659452D02*
X892119Y-5488024D01*
X1082596Y-5688024D02*
X1082596Y-5583262D01*
X1082596Y-5583262D02*
X1073072Y-5564214D01*
X1073072Y-5564214D02*
X1054024Y-5554690D01*
X1054024Y-5554690D02*
X1015929Y-5554690D01*
X1015929Y-5554690D02*
X996881Y-5564214D01*
X1082596Y-5678500D02*
X1063548Y-5688024D01*
X1063548Y-5688024D02*
X1015929Y-5688024D01*
X1015929Y-5688024D02*
X996881Y-5678500D01*
X996881Y-5678500D02*
X987358Y-5659452D01*
X987358Y-5659452D02*
X987358Y-5640405D01*
X987358Y-5640405D02*
X996881Y-5621357D01*
X996881Y-5621357D02*
X1015929Y-5611833D01*
X1015929Y-5611833D02*
X1063548Y-5611833D01*
X1063548Y-5611833D02*
X1082596Y-5602309D01*
X1149262Y-5554690D02*
X1225453Y-5554690D01*
X1177834Y-5488024D02*
X1177834Y-5659452D01*
X1177834Y-5659452D02*
X1187358Y-5678500D01*
X1187358Y-5678500D02*
X1206405Y-5688024D01*
X1206405Y-5688024D02*
X1225453Y-5688024D01*
X1368310Y-5678500D02*
X1349262Y-5688024D01*
X1349262Y-5688024D02*
X1311167Y-5688024D01*
X1311167Y-5688024D02*
X1292120Y-5678500D01*
X1292120Y-5678500D02*
X1282596Y-5659452D01*
X1282596Y-5659452D02*
X1282596Y-5583262D01*
X1282596Y-5583262D02*
X1292120Y-5564214D01*
X1292120Y-5564214D02*
X1311167Y-5554690D01*
X1311167Y-5554690D02*
X1349262Y-5554690D01*
X1349262Y-5554690D02*
X1368310Y-5564214D01*
X1368310Y-5564214D02*
X1377834Y-5583262D01*
X1377834Y-5583262D02*
X1377834Y-5602309D01*
X1377834Y-5602309D02*
X1282596Y-5621357D01*
X1549262Y-5688024D02*
X1549262Y-5488024D01*
X1549262Y-5678500D02*
X1530215Y-5688024D01*
X1530215Y-5688024D02*
X1492119Y-5688024D01*
X1492119Y-5688024D02*
X1473072Y-5678500D01*
X1473072Y-5678500D02*
X1463548Y-5668976D01*
X1463548Y-5668976D02*
X1454024Y-5649928D01*
X1454024Y-5649928D02*
X1454024Y-5592786D01*
X1454024Y-5592786D02*
X1463548Y-5573738D01*
X1463548Y-5573738D02*
X1473072Y-5564214D01*
X1473072Y-5564214D02*
X1492119Y-5554690D01*
X1492119Y-5554690D02*
X1530215Y-5554690D01*
X1530215Y-5554690D02*
X1549262Y-5564214D01*
X1625453Y-5764214D02*
X1634977Y-5754690D01*
X1634977Y-5754690D02*
X1654024Y-5726119D01*
X1654024Y-5726119D02*
X1663548Y-5707071D01*
X1663548Y-5707071D02*
X1673072Y-5678500D01*
X1673072Y-5678500D02*
X1682596Y-5630881D01*
X1682596Y-5630881D02*
X1682596Y-5592786D01*
X1682596Y-5592786D02*
X1673072Y-5545167D01*
X1673072Y-5545167D02*
X1663548Y-5516595D01*
X1663548Y-5516595D02*
X1654024Y-5497548D01*
X1654024Y-5497548D02*
X1634977Y-5468976D01*
X1634977Y-5468976D02*
X1625453Y-5459452D01*
M02*
