M48
; DRILL file {KiCad 7.0.1} date Fri Apr  7 20:05:45 2023
; FORMAT={-:-/ absolute / metric / decimal}
; #@! TF.CreationDate,2023-04-07T20:05:45+02:00
; #@! TF.GenerationSoftware,Kicad,Pcbnew,7.0.1
; #@! TF.FileFunction,Plated,1,2,PTH
FMAT,2
METRIC
; #@! TA.AperFunction,Plated,PTH,ViaDrill
T1C0.400
; #@! TA.AperFunction,Plated,PTH,ComponentDrill
T2C0.500
; #@! TA.AperFunction,Plated,PTH,ComponentDrill
T3C0.800
; #@! TA.AperFunction,Plated,PTH,ComponentDrill
T4C0.900
; #@! TA.AperFunction,Plated,PTH,ComponentDrill
T5C1.000
; #@! TA.AperFunction,Plated,PTH,ComponentDrill
T6C1.100
; #@! TA.AperFunction,Plated,PTH,ComponentDrill
T7C3.200
%
G90
G05
T1
X-38.608Y27.051
X-38.1Y41.91
X-38.1Y39.37
X-38.1Y36.83
X-36.195Y40.64
X-36.195Y38.1
X-36.195Y35.56
X-35.306Y26.924
X-34.29Y41.91
X-34.29Y39.37
X-34.29Y36.83
X-33.528Y26.924
X-32.385Y40.64
X-32.385Y38.1
X-32.385Y35.56
X-30.48Y41.91
X-30.48Y39.37
X-30.48Y36.83
X-30.48Y-11.43
X-29.21Y-8.89
X-26.67Y3.81
X-26.67Y-5.08
X-25.4Y19.05
X-25.4Y-19.05
X-17.78Y3.81
X-15.621Y-25.781
X-15.24Y-22.86
X-13.97Y-29.21
X-12.7Y-22.86
X-12.7Y-25.4
X-12.7Y-27.94
X-11.303Y-16.891
X-10.795Y-5.08
X-10.668Y-0.254
X-10.541Y-7.747
X-10.16Y-26.035
X-10.16Y-29.21
X-8.509Y7.62
X-8.509Y5.08
X-8.509Y-10.217
X-7.239Y-30.988
X-6.407Y15.24
X-6.407Y5.08
X-6.35Y-44.577
X-6.223Y-42.037
X-5.08Y19.05
X-4.699Y7.874
X-4.699Y2.159
X-4.572Y6.345
X-4.191Y-0.889
X-3.81Y20.32
X-3.81Y9.398
X-3.81Y-12.7
X-3.81Y-15.24
X-3.81Y-17.78
X-3.81Y-20.574
X-3.81Y-24.384
X-2.54Y19.05
X-2.54Y17.78
X-1.397Y-35.814
X-1.27Y19.05
X-1.27Y-26.854
X0.0Y16.51
X0.0Y-22.86
X0.0Y-27.051
X0.254Y-24.638
X0.254Y-30.734
X0.762Y-34.798
X1.016Y13.97
X1.27Y15.24
X2.54Y-35.56
X3.556Y-33.782
X4.064Y21.59
X4.122Y15.24
X4.191Y11.557
X4.191Y-0.127
X4.191Y-2.54
X4.191Y-9.271
X4.191Y-15.494
X4.318Y-17.78
X4.514Y2.286
X4.572Y-21.59
X5.08Y-16.51
X5.08Y-20.32
X5.08Y-24.638
X5.08Y-29.21
X5.121Y15.24
X6.35Y-12.7
X6.35Y-27.94
X6.35Y-29.464
X6.604Y7.62
X8.636Y-22.86
X8.89Y-34.29
X9.144Y16.637
X9.144Y11.811
X9.271Y14.097
X9.398Y21.59
X9.398Y6.477
X9.525Y19.05
X10.16Y-20.32
X10.922Y-29.21
X11.049Y-13.589
X11.303Y23.749
X11.303Y-11.176
X11.811Y16.764
X11.811Y-16.891
X11.938Y-19.05
X12.192Y-42.164
X12.319Y-44.196
X12.7Y-11.176
X12.827Y13.97
X12.954Y16.764
X12.954Y-14.097
X12.954Y-16.256
X12.954Y-25.019
X13.531Y12.539
X13.531Y11.049
X13.531Y7.366
X13.97Y-11.684
X13.97Y-13.97
X14.224Y-5.461
X14.859Y-30.988
X15.055Y-29.845
X15.24Y1.218
X15.621Y15.494
X15.621Y3.556
X15.822Y12.388
X15.87Y8.522
X15.87Y6.881
X15.875Y24.13
X15.875Y21.59
X15.875Y-3.81
X16.129Y18.796
X16.51Y-31.496
X16.891Y4.064
X16.891Y-23.495
X16.891Y-28.067
X17.272Y-8.382
X17.329Y10.987
X17.526Y0.127
X17.526Y-6.096
X18.669Y6.731
X19.05Y2.54
X19.685Y22.86
X19.812Y27.94
X20.193Y3.556
X20.193Y0.254
X20.32Y-6.096
X20.32Y-8.636
X20.447Y8.636
X20.963Y27.948
X21.405Y0.001
X21.59Y11.43
X21.844Y-13.97
X22.098Y19.939
X22.225Y8.89
X22.352Y25.527
X22.352Y-12.827
X22.716Y13.801
X22.86Y19.05
X22.86Y-32.639
X23.114Y-21.59
X23.246Y8.086
X23.275Y-19.905
X23.31Y18.12
X23.31Y14.605
X23.368Y20.32
X23.495Y-25.4
X24.13Y24.13
X24.13Y11.43
X24.13Y-22.86
X24.188Y7.62
X24.188Y-1.27
X24.188Y-2.54
X24.188Y-5.08
X24.188Y-6.35
X24.188Y-19.05
X25.019Y3.937
X25.146Y-13.716
X25.4Y16.383
X25.4Y-30.48
X25.654Y-11.176
X25.908Y-31.496
X26.035Y3.81
X26.035Y-26.543
X26.543Y16.764
X26.67Y0.0
X26.67Y-17.78
X26.956Y12.287
X27.305Y25.4
X27.374Y-21.437
X27.559Y-6.35
X27.94Y-16.51
X28.194Y-20.32
X28.194Y-24.13
X28.571Y1.218
X28.575Y26.64
X28.575Y24.13
X28.575Y12.7
X28.575Y5.08
X28.575Y-2.54
X28.702Y18.034
X28.702Y7.62
X28.829Y20.574
X28.853Y10.661
X29.845Y-31.553
X30.48Y15.24
X30.48Y-27.94
X30.861Y2.921
X31.75Y-10.795
X31.75Y-13.97
X31.877Y-3.175
X32.131Y21.971
X32.258Y-18.415
X32.385Y15.494
X32.385Y7.62
X32.512Y-19.812
X32.512Y-24.892
X32.831Y-14.859
X33.02Y20.32
X33.782Y2.54
X33.909Y5.334
X34.036Y20.574
X34.29Y18.034
X34.544Y8.128
X34.609Y-2.691
X34.671Y24.765
X34.671Y11.43
X34.671Y-24.13
X34.798Y27.813
X34.798Y15.24
X34.863Y2.032
X34.925Y4.445
X35.248Y-5.08
X35.502Y18.034
X35.941Y-10.922
X35.941Y-13.208
X36.38Y25.4
X36.703Y0.381
X36.88Y-0.823
X37.084Y22.86
X37.592Y-23.114
X37.688Y-19.749
X39.116Y-13.335
X40.005Y-12.065
T2
X-46.85Y44.45
X-46.85Y-44.45
X-46.147Y46.147
X-46.147Y42.753
X-46.147Y-42.753
X-46.147Y-46.147
X-44.45Y46.85
X-44.45Y42.05
X-44.45Y-42.05
X-44.45Y-46.85
X-42.753Y46.147
X-42.753Y42.753
X-42.753Y-42.753
X-42.753Y-46.147
X-42.05Y44.45
X-42.05Y-44.45
X42.05Y44.45
X42.05Y-44.45
X42.753Y46.147
X42.753Y42.753
X42.753Y-42.753
X42.753Y-46.147
X44.45Y46.85
X44.45Y42.05
X44.45Y-42.05
X44.45Y-46.85
X46.147Y46.147
X46.147Y42.753
X46.147Y-42.753
X46.147Y-46.147
X46.85Y44.45
X46.85Y-44.45
T3
X-44.45Y34.25
X-44.45Y31.75
X-24.13Y34.25
X-24.13Y31.75
X-20.28Y-2.54
X-20.28Y-7.62
X-17.78Y-2.54
X-17.78Y-7.62
X-15.24Y34.338
X-15.24Y31.838
X-12.7Y-2.65
X-12.7Y-7.53
X-7.625Y24.125
X-7.625Y21.585
X-7.625Y19.045
X-7.625Y16.505
X-7.625Y13.965
X-7.625Y11.425
X-7.625Y8.885
X-7.625Y6.345
X-7.625Y3.805
X-7.625Y1.265
X-7.625Y-1.275
X-7.625Y-3.815
X-7.625Y-6.355
X-7.625Y-8.895
X-7.625Y-11.435
X-7.625Y-13.975
X-7.625Y-16.515
X-7.625Y-19.055
X-7.625Y-21.595
X-7.625Y-24.135
X7.615Y24.125
X7.615Y21.585
X7.615Y19.045
X7.615Y16.505
X7.615Y13.965
X7.615Y11.425
X7.615Y8.885
X7.615Y6.345
X7.615Y3.805
X7.615Y1.265
X7.615Y-1.275
X7.615Y-3.815
X7.615Y-6.355
X7.615Y-8.895
X7.615Y-11.435
X7.615Y-13.975
X7.615Y-16.515
X7.615Y-19.055
X7.615Y-21.595
X7.615Y-24.135
X11.43Y6.35
X11.43Y3.85
X11.43Y0.04
X11.43Y-2.46
T4
X-13.97Y24.13
X-11.43Y24.13
T5
X-38.957Y6.35
X-38.957Y3.81
X-38.957Y1.27
X-38.957Y-1.27
X-38.957Y-3.81
X-38.957Y-6.35
X-38.957Y-16.51
X-38.957Y-19.05
X-38.957Y-21.59
X-38.957Y-24.13
X-38.957Y-26.67
X-38.957Y-29.21
X-17.78Y-38.957
X-15.24Y-38.957
X-12.7Y-38.957
X-10.16Y-38.957
X-7.62Y-38.957
X-5.08Y-38.957
X5.08Y-38.957
X7.62Y-38.957
X10.16Y-38.957
X12.7Y-38.957
X15.24Y-38.957
X17.78Y20.32
X17.78Y17.78
X17.78Y15.24
X17.78Y-10.16
X17.78Y-12.7
X17.78Y-15.24
X17.78Y-17.78
X17.78Y-20.32
X17.78Y-38.957
X20.32Y20.32
X20.32Y17.78
X20.32Y15.24
X20.32Y-10.16
X20.32Y-12.7
X20.32Y-15.24
X20.32Y-17.78
X20.32Y-20.32
X36.417Y-16.51
X36.417Y-19.05
X36.417Y-21.59
X36.417Y-24.13
X36.417Y-26.67
X36.417Y-29.21
X38.957Y29.21
X38.957Y26.67
X38.957Y24.13
X38.957Y21.59
X38.957Y19.05
X38.957Y16.51
X38.957Y6.35
X38.957Y3.81
X38.957Y1.27
X38.957Y-1.27
X38.957Y-3.81
X38.957Y-6.35
X38.957Y-16.51
X38.957Y-19.05
X38.957Y-21.59
X38.957Y-24.13
X38.957Y-26.67
X38.957Y-29.21
T6
X-36.83Y29.21
X-34.29Y29.21
X-31.75Y29.21
X-27.94Y26.416
X-27.94Y16.256
X-22.57Y24.915
X-22.57Y18.415
X-18.07Y24.915
X-18.07Y18.415
T7
X-44.45Y44.45
X-44.45Y-44.45
X44.45Y44.45
X44.45Y-44.45
T5
X-39.02Y22.59G85X-39.02Y20.59
G05
X-37.02Y16.89G85X-35.02Y16.89
G05
X-33.02Y22.59G85X-33.02Y20.59
G05
T0
M30
