%TF.GenerationSoftware,KiCad,Pcbnew,7.0.10*%
%TF.CreationDate,2024-01-13T10:24:14+01:00*%
%TF.ProjectId,at90s8535,61743930-7338-4353-9335-2e6b69636164,V1.0*%
%TF.SameCoordinates,Original*%
%TF.FileFunction,Drillmap*%
%TF.FilePolarity,Positive*%
%FSLAX45Y45*%
G04 Gerber Fmt 4.5, Leading zero omitted, Abs format (unit mm)*
G04 Created by KiCad (PCBNEW 7.0.10) date 2024-01-13 10:24:14*
%MOMM*%
%LPD*%
G01*
G04 APERTURE LIST*
%ADD10C,0.050000*%
%ADD11C,0.200000*%
%ADD12C,0.350000*%
G04 APERTURE END LIST*
D10*
X-4953000Y4953000D02*
X4953000Y4953000D01*
X4953000Y-4953000D02*
X-4953000Y-4953000D01*
X-4953000Y-4953000D02*
X-4953000Y4953000D01*
X4953000Y4953000D02*
X4953000Y-4953000D01*
D11*
D12*
X-3604000Y4762000D02*
X-3254000Y4412000D01*
X-3254000Y4762000D02*
X-3604000Y4412000D01*
D11*
X-4694723Y-5266984D02*
X-4694723Y-5066984D01*
X-4694723Y-5066984D02*
X-4647104Y-5066984D01*
X-4647104Y-5066984D02*
X-4618533Y-5076508D01*
X-4618533Y-5076508D02*
X-4599485Y-5095555D01*
X-4599485Y-5095555D02*
X-4589961Y-5114603D01*
X-4589961Y-5114603D02*
X-4580437Y-5152698D01*
X-4580437Y-5152698D02*
X-4580437Y-5181270D01*
X-4580437Y-5181270D02*
X-4589961Y-5219365D01*
X-4589961Y-5219365D02*
X-4599485Y-5238412D01*
X-4599485Y-5238412D02*
X-4618533Y-5257460D01*
X-4618533Y-5257460D02*
X-4647104Y-5266984D01*
X-4647104Y-5266984D02*
X-4694723Y-5266984D01*
X-4494723Y-5266984D02*
X-4494723Y-5133650D01*
X-4494723Y-5171746D02*
X-4485199Y-5152698D01*
X-4485199Y-5152698D02*
X-4475676Y-5143174D01*
X-4475676Y-5143174D02*
X-4456628Y-5133650D01*
X-4456628Y-5133650D02*
X-4437580Y-5133650D01*
X-4370914Y-5266984D02*
X-4370914Y-5133650D01*
X-4370914Y-5066984D02*
X-4380437Y-5076508D01*
X-4380437Y-5076508D02*
X-4370914Y-5086031D01*
X-4370914Y-5086031D02*
X-4361390Y-5076508D01*
X-4361390Y-5076508D02*
X-4370914Y-5066984D01*
X-4370914Y-5066984D02*
X-4370914Y-5086031D01*
X-4247104Y-5266984D02*
X-4266152Y-5257460D01*
X-4266152Y-5257460D02*
X-4275676Y-5238412D01*
X-4275676Y-5238412D02*
X-4275676Y-5066984D01*
X-4142342Y-5266984D02*
X-4161390Y-5257460D01*
X-4161390Y-5257460D02*
X-4170914Y-5238412D01*
X-4170914Y-5238412D02*
X-4170914Y-5066984D01*
X-3913771Y-5266984D02*
X-3913771Y-5066984D01*
X-3913771Y-5066984D02*
X-3847104Y-5209841D01*
X-3847104Y-5209841D02*
X-3780437Y-5066984D01*
X-3780437Y-5066984D02*
X-3780437Y-5266984D01*
X-3599485Y-5266984D02*
X-3599485Y-5162222D01*
X-3599485Y-5162222D02*
X-3609009Y-5143174D01*
X-3609009Y-5143174D02*
X-3628056Y-5133650D01*
X-3628056Y-5133650D02*
X-3666152Y-5133650D01*
X-3666152Y-5133650D02*
X-3685199Y-5143174D01*
X-3599485Y-5257460D02*
X-3618533Y-5266984D01*
X-3618533Y-5266984D02*
X-3666152Y-5266984D01*
X-3666152Y-5266984D02*
X-3685199Y-5257460D01*
X-3685199Y-5257460D02*
X-3694723Y-5238412D01*
X-3694723Y-5238412D02*
X-3694723Y-5219365D01*
X-3694723Y-5219365D02*
X-3685199Y-5200317D01*
X-3685199Y-5200317D02*
X-3666152Y-5190793D01*
X-3666152Y-5190793D02*
X-3618533Y-5190793D01*
X-3618533Y-5190793D02*
X-3599485Y-5181270D01*
X-3504247Y-5133650D02*
X-3504247Y-5333650D01*
X-3504247Y-5143174D02*
X-3485199Y-5133650D01*
X-3485199Y-5133650D02*
X-3447104Y-5133650D01*
X-3447104Y-5133650D02*
X-3428056Y-5143174D01*
X-3428056Y-5143174D02*
X-3418533Y-5152698D01*
X-3418533Y-5152698D02*
X-3409009Y-5171746D01*
X-3409009Y-5171746D02*
X-3409009Y-5228889D01*
X-3409009Y-5228889D02*
X-3418533Y-5247936D01*
X-3418533Y-5247936D02*
X-3428056Y-5257460D01*
X-3428056Y-5257460D02*
X-3447104Y-5266984D01*
X-3447104Y-5266984D02*
X-3485199Y-5266984D01*
X-3485199Y-5266984D02*
X-3504247Y-5257460D01*
X-3323294Y-5247936D02*
X-3313771Y-5257460D01*
X-3313771Y-5257460D02*
X-3323294Y-5266984D01*
X-3323294Y-5266984D02*
X-3332818Y-5257460D01*
X-3332818Y-5257460D02*
X-3323294Y-5247936D01*
X-3323294Y-5247936D02*
X-3323294Y-5266984D01*
X-3323294Y-5143174D02*
X-3313771Y-5152698D01*
X-3313771Y-5152698D02*
X-3323294Y-5162222D01*
X-3323294Y-5162222D02*
X-3332818Y-5152698D01*
X-3332818Y-5152698D02*
X-3323294Y-5143174D01*
X-3323294Y-5143174D02*
X-3323294Y-5162222D01*
X-5155500Y-5495500D02*
X-4955500Y-5695500D01*
X-4955500Y-5495500D02*
X-5155500Y-5695500D01*
X-4713771Y-5486984D02*
X-4589961Y-5486984D01*
X-4589961Y-5486984D02*
X-4656628Y-5563174D01*
X-4656628Y-5563174D02*
X-4628056Y-5563174D01*
X-4628056Y-5563174D02*
X-4609009Y-5572698D01*
X-4609009Y-5572698D02*
X-4599485Y-5582222D01*
X-4599485Y-5582222D02*
X-4589961Y-5601269D01*
X-4589961Y-5601269D02*
X-4589961Y-5648888D01*
X-4589961Y-5648888D02*
X-4599485Y-5667936D01*
X-4599485Y-5667936D02*
X-4609009Y-5677460D01*
X-4609009Y-5677460D02*
X-4628056Y-5686984D01*
X-4628056Y-5686984D02*
X-4685199Y-5686984D01*
X-4685199Y-5686984D02*
X-4704247Y-5677460D01*
X-4704247Y-5677460D02*
X-4713771Y-5667936D01*
X-4504247Y-5667936D02*
X-4494723Y-5677460D01*
X-4494723Y-5677460D02*
X-4504247Y-5686984D01*
X-4504247Y-5686984D02*
X-4513771Y-5677460D01*
X-4513771Y-5677460D02*
X-4504247Y-5667936D01*
X-4504247Y-5667936D02*
X-4504247Y-5686984D01*
X-4313771Y-5486984D02*
X-4409009Y-5486984D01*
X-4409009Y-5486984D02*
X-4418533Y-5582222D01*
X-4418533Y-5582222D02*
X-4409009Y-5572698D01*
X-4409009Y-5572698D02*
X-4389961Y-5563174D01*
X-4389961Y-5563174D02*
X-4342342Y-5563174D01*
X-4342342Y-5563174D02*
X-4323295Y-5572698D01*
X-4323295Y-5572698D02*
X-4313771Y-5582222D01*
X-4313771Y-5582222D02*
X-4304247Y-5601269D01*
X-4304247Y-5601269D02*
X-4304247Y-5648888D01*
X-4304247Y-5648888D02*
X-4313771Y-5667936D01*
X-4313771Y-5667936D02*
X-4323295Y-5677460D01*
X-4323295Y-5677460D02*
X-4342342Y-5686984D01*
X-4342342Y-5686984D02*
X-4389961Y-5686984D01*
X-4389961Y-5686984D02*
X-4409009Y-5677460D01*
X-4409009Y-5677460D02*
X-4418533Y-5667936D01*
X-4180437Y-5486984D02*
X-4161390Y-5486984D01*
X-4161390Y-5486984D02*
X-4142342Y-5496508D01*
X-4142342Y-5496508D02*
X-4132818Y-5506031D01*
X-4132818Y-5506031D02*
X-4123294Y-5525079D01*
X-4123294Y-5525079D02*
X-4113771Y-5563174D01*
X-4113771Y-5563174D02*
X-4113771Y-5610793D01*
X-4113771Y-5610793D02*
X-4123294Y-5648888D01*
X-4123294Y-5648888D02*
X-4132818Y-5667936D01*
X-4132818Y-5667936D02*
X-4142342Y-5677460D01*
X-4142342Y-5677460D02*
X-4161390Y-5686984D01*
X-4161390Y-5686984D02*
X-4180437Y-5686984D01*
X-4180437Y-5686984D02*
X-4199485Y-5677460D01*
X-4199485Y-5677460D02*
X-4209009Y-5667936D01*
X-4209009Y-5667936D02*
X-4218533Y-5648888D01*
X-4218533Y-5648888D02*
X-4228056Y-5610793D01*
X-4228056Y-5610793D02*
X-4228056Y-5563174D01*
X-4228056Y-5563174D02*
X-4218533Y-5525079D01*
X-4218533Y-5525079D02*
X-4209009Y-5506031D01*
X-4209009Y-5506031D02*
X-4199485Y-5496508D01*
X-4199485Y-5496508D02*
X-4180437Y-5486984D01*
X-3989961Y-5486984D02*
X-3970913Y-5486984D01*
X-3970913Y-5486984D02*
X-3951866Y-5496508D01*
X-3951866Y-5496508D02*
X-3942342Y-5506031D01*
X-3942342Y-5506031D02*
X-3932818Y-5525079D01*
X-3932818Y-5525079D02*
X-3923294Y-5563174D01*
X-3923294Y-5563174D02*
X-3923294Y-5610793D01*
X-3923294Y-5610793D02*
X-3932818Y-5648888D01*
X-3932818Y-5648888D02*
X-3942342Y-5667936D01*
X-3942342Y-5667936D02*
X-3951866Y-5677460D01*
X-3951866Y-5677460D02*
X-3970913Y-5686984D01*
X-3970913Y-5686984D02*
X-3989961Y-5686984D01*
X-3989961Y-5686984D02*
X-4009009Y-5677460D01*
X-4009009Y-5677460D02*
X-4018533Y-5667936D01*
X-4018533Y-5667936D02*
X-4028056Y-5648888D01*
X-4028056Y-5648888D02*
X-4037580Y-5610793D01*
X-4037580Y-5610793D02*
X-4037580Y-5563174D01*
X-4037580Y-5563174D02*
X-4028056Y-5525079D01*
X-4028056Y-5525079D02*
X-4018533Y-5506031D01*
X-4018533Y-5506031D02*
X-4009009Y-5496508D01*
X-4009009Y-5496508D02*
X-3989961Y-5486984D01*
X-3837580Y-5686984D02*
X-3837580Y-5553650D01*
X-3837580Y-5572698D02*
X-3828056Y-5563174D01*
X-3828056Y-5563174D02*
X-3809009Y-5553650D01*
X-3809009Y-5553650D02*
X-3780437Y-5553650D01*
X-3780437Y-5553650D02*
X-3761390Y-5563174D01*
X-3761390Y-5563174D02*
X-3751866Y-5582222D01*
X-3751866Y-5582222D02*
X-3751866Y-5686984D01*
X-3751866Y-5582222D02*
X-3742342Y-5563174D01*
X-3742342Y-5563174D02*
X-3723294Y-5553650D01*
X-3723294Y-5553650D02*
X-3694723Y-5553650D01*
X-3694723Y-5553650D02*
X-3675675Y-5563174D01*
X-3675675Y-5563174D02*
X-3666152Y-5582222D01*
X-3666152Y-5582222D02*
X-3666152Y-5686984D01*
X-3570913Y-5686984D02*
X-3570913Y-5553650D01*
X-3570913Y-5572698D02*
X-3561390Y-5563174D01*
X-3561390Y-5563174D02*
X-3542342Y-5553650D01*
X-3542342Y-5553650D02*
X-3513771Y-5553650D01*
X-3513771Y-5553650D02*
X-3494723Y-5563174D01*
X-3494723Y-5563174D02*
X-3485199Y-5582222D01*
X-3485199Y-5582222D02*
X-3485199Y-5686984D01*
X-3485199Y-5582222D02*
X-3475675Y-5563174D01*
X-3475675Y-5563174D02*
X-3456628Y-5553650D01*
X-3456628Y-5553650D02*
X-3428056Y-5553650D01*
X-3428056Y-5553650D02*
X-3409009Y-5563174D01*
X-3409009Y-5563174D02*
X-3399485Y-5582222D01*
X-3399485Y-5582222D02*
X-3399485Y-5686984D01*
X-3009009Y-5477460D02*
X-3180437Y-5734603D01*
X-2751866Y-5486984D02*
X-2732818Y-5486984D01*
X-2732818Y-5486984D02*
X-2713771Y-5496508D01*
X-2713771Y-5496508D02*
X-2704247Y-5506031D01*
X-2704247Y-5506031D02*
X-2694723Y-5525079D01*
X-2694723Y-5525079D02*
X-2685199Y-5563174D01*
X-2685199Y-5563174D02*
X-2685199Y-5610793D01*
X-2685199Y-5610793D02*
X-2694723Y-5648888D01*
X-2694723Y-5648888D02*
X-2704247Y-5667936D01*
X-2704247Y-5667936D02*
X-2713771Y-5677460D01*
X-2713771Y-5677460D02*
X-2732818Y-5686984D01*
X-2732818Y-5686984D02*
X-2751866Y-5686984D01*
X-2751866Y-5686984D02*
X-2770913Y-5677460D01*
X-2770913Y-5677460D02*
X-2780437Y-5667936D01*
X-2780437Y-5667936D02*
X-2789961Y-5648888D01*
X-2789961Y-5648888D02*
X-2799485Y-5610793D01*
X-2799485Y-5610793D02*
X-2799485Y-5563174D01*
X-2799485Y-5563174D02*
X-2789961Y-5525079D01*
X-2789961Y-5525079D02*
X-2780437Y-5506031D01*
X-2780437Y-5506031D02*
X-2770913Y-5496508D01*
X-2770913Y-5496508D02*
X-2751866Y-5486984D01*
X-2599485Y-5667936D02*
X-2589961Y-5677460D01*
X-2589961Y-5677460D02*
X-2599485Y-5686984D01*
X-2599485Y-5686984D02*
X-2609009Y-5677460D01*
X-2609009Y-5677460D02*
X-2599485Y-5667936D01*
X-2599485Y-5667936D02*
X-2599485Y-5686984D01*
X-2399485Y-5686984D02*
X-2513771Y-5686984D01*
X-2456628Y-5686984D02*
X-2456628Y-5486984D01*
X-2456628Y-5486984D02*
X-2475675Y-5515555D01*
X-2475675Y-5515555D02*
X-2494723Y-5534603D01*
X-2494723Y-5534603D02*
X-2513771Y-5544127D01*
X-2332818Y-5486984D02*
X-2209009Y-5486984D01*
X-2209009Y-5486984D02*
X-2275675Y-5563174D01*
X-2275675Y-5563174D02*
X-2247104Y-5563174D01*
X-2247104Y-5563174D02*
X-2228056Y-5572698D01*
X-2228056Y-5572698D02*
X-2218532Y-5582222D01*
X-2218532Y-5582222D02*
X-2209009Y-5601269D01*
X-2209009Y-5601269D02*
X-2209009Y-5648888D01*
X-2209009Y-5648888D02*
X-2218532Y-5667936D01*
X-2218532Y-5667936D02*
X-2228056Y-5677460D01*
X-2228056Y-5677460D02*
X-2247104Y-5686984D01*
X-2247104Y-5686984D02*
X-2304247Y-5686984D01*
X-2304247Y-5686984D02*
X-2323294Y-5677460D01*
X-2323294Y-5677460D02*
X-2332818Y-5667936D01*
X-2142342Y-5486984D02*
X-2009009Y-5486984D01*
X-2009009Y-5486984D02*
X-2094723Y-5686984D01*
X-1904247Y-5572698D02*
X-1923294Y-5563174D01*
X-1923294Y-5563174D02*
X-1932818Y-5553650D01*
X-1932818Y-5553650D02*
X-1942342Y-5534603D01*
X-1942342Y-5534603D02*
X-1942342Y-5525079D01*
X-1942342Y-5525079D02*
X-1932818Y-5506031D01*
X-1932818Y-5506031D02*
X-1923294Y-5496508D01*
X-1923294Y-5496508D02*
X-1904247Y-5486984D01*
X-1904247Y-5486984D02*
X-1866151Y-5486984D01*
X-1866151Y-5486984D02*
X-1847104Y-5496508D01*
X-1847104Y-5496508D02*
X-1837580Y-5506031D01*
X-1837580Y-5506031D02*
X-1828056Y-5525079D01*
X-1828056Y-5525079D02*
X-1828056Y-5534603D01*
X-1828056Y-5534603D02*
X-1837580Y-5553650D01*
X-1837580Y-5553650D02*
X-1847104Y-5563174D01*
X-1847104Y-5563174D02*
X-1866151Y-5572698D01*
X-1866151Y-5572698D02*
X-1904247Y-5572698D01*
X-1904247Y-5572698D02*
X-1923294Y-5582222D01*
X-1923294Y-5582222D02*
X-1932818Y-5591746D01*
X-1932818Y-5591746D02*
X-1942342Y-5610793D01*
X-1942342Y-5610793D02*
X-1942342Y-5648888D01*
X-1942342Y-5648888D02*
X-1932818Y-5667936D01*
X-1932818Y-5667936D02*
X-1923294Y-5677460D01*
X-1923294Y-5677460D02*
X-1904247Y-5686984D01*
X-1904247Y-5686984D02*
X-1866151Y-5686984D01*
X-1866151Y-5686984D02*
X-1847104Y-5677460D01*
X-1847104Y-5677460D02*
X-1837580Y-5667936D01*
X-1837580Y-5667936D02*
X-1828056Y-5648888D01*
X-1828056Y-5648888D02*
X-1828056Y-5610793D01*
X-1828056Y-5610793D02*
X-1837580Y-5591746D01*
X-1837580Y-5591746D02*
X-1847104Y-5582222D01*
X-1847104Y-5582222D02*
X-1866151Y-5572698D01*
X-1751866Y-5486984D02*
X-1751866Y-5525079D01*
X-1675675Y-5486984D02*
X-1675675Y-5525079D01*
X-1380437Y-5763174D02*
X-1389961Y-5753650D01*
X-1389961Y-5753650D02*
X-1409008Y-5725079D01*
X-1409008Y-5725079D02*
X-1418532Y-5706031D01*
X-1418532Y-5706031D02*
X-1428056Y-5677460D01*
X-1428056Y-5677460D02*
X-1437580Y-5629841D01*
X-1437580Y-5629841D02*
X-1437580Y-5591746D01*
X-1437580Y-5591746D02*
X-1428056Y-5544127D01*
X-1428056Y-5544127D02*
X-1418532Y-5515555D01*
X-1418532Y-5515555D02*
X-1409008Y-5496508D01*
X-1409008Y-5496508D02*
X-1389961Y-5467936D01*
X-1389961Y-5467936D02*
X-1380437Y-5458412D01*
X-1199485Y-5686984D02*
X-1313770Y-5686984D01*
X-1256628Y-5686984D02*
X-1256628Y-5486984D01*
X-1256628Y-5486984D02*
X-1275675Y-5515555D01*
X-1275675Y-5515555D02*
X-1294723Y-5534603D01*
X-1294723Y-5534603D02*
X-1313770Y-5544127D01*
X-961389Y-5686984D02*
X-961389Y-5486984D01*
X-875675Y-5686984D02*
X-875675Y-5582222D01*
X-875675Y-5582222D02*
X-885199Y-5563174D01*
X-885199Y-5563174D02*
X-904246Y-5553650D01*
X-904246Y-5553650D02*
X-932818Y-5553650D01*
X-932818Y-5553650D02*
X-951866Y-5563174D01*
X-951866Y-5563174D02*
X-961389Y-5572698D01*
X-751866Y-5686984D02*
X-770913Y-5677460D01*
X-770913Y-5677460D02*
X-780437Y-5667936D01*
X-780437Y-5667936D02*
X-789961Y-5648888D01*
X-789961Y-5648888D02*
X-789961Y-5591746D01*
X-789961Y-5591746D02*
X-780437Y-5572698D01*
X-780437Y-5572698D02*
X-770913Y-5563174D01*
X-770913Y-5563174D02*
X-751866Y-5553650D01*
X-751866Y-5553650D02*
X-723294Y-5553650D01*
X-723294Y-5553650D02*
X-704246Y-5563174D01*
X-704246Y-5563174D02*
X-694723Y-5572698D01*
X-694723Y-5572698D02*
X-685199Y-5591746D01*
X-685199Y-5591746D02*
X-685199Y-5648888D01*
X-685199Y-5648888D02*
X-694723Y-5667936D01*
X-694723Y-5667936D02*
X-704246Y-5677460D01*
X-704246Y-5677460D02*
X-723294Y-5686984D01*
X-723294Y-5686984D02*
X-751866Y-5686984D01*
X-570913Y-5686984D02*
X-589961Y-5677460D01*
X-589961Y-5677460D02*
X-599485Y-5658412D01*
X-599485Y-5658412D02*
X-599485Y-5486984D01*
X-418532Y-5677460D02*
X-437580Y-5686984D01*
X-437580Y-5686984D02*
X-475675Y-5686984D01*
X-475675Y-5686984D02*
X-494723Y-5677460D01*
X-494723Y-5677460D02*
X-504246Y-5658412D01*
X-504246Y-5658412D02*
X-504246Y-5582222D01*
X-504246Y-5582222D02*
X-494723Y-5563174D01*
X-494723Y-5563174D02*
X-475675Y-5553650D01*
X-475675Y-5553650D02*
X-437580Y-5553650D01*
X-437580Y-5553650D02*
X-418532Y-5563174D01*
X-418532Y-5563174D02*
X-409008Y-5582222D01*
X-409008Y-5582222D02*
X-409008Y-5601269D01*
X-409008Y-5601269D02*
X-504246Y-5620317D01*
X-342342Y-5763174D02*
X-332818Y-5753650D01*
X-332818Y-5753650D02*
X-313770Y-5725079D01*
X-313770Y-5725079D02*
X-304247Y-5706031D01*
X-304247Y-5706031D02*
X-294723Y-5677460D01*
X-294723Y-5677460D02*
X-285199Y-5629841D01*
X-285199Y-5629841D02*
X-285199Y-5591746D01*
X-285199Y-5591746D02*
X-294723Y-5544127D01*
X-294723Y-5544127D02*
X-304247Y-5515555D01*
X-304247Y-5515555D02*
X-313770Y-5496508D01*
X-313770Y-5496508D02*
X-332818Y-5467936D01*
X-332818Y-5467936D02*
X-342342Y-5458412D01*
X19563Y-5763174D02*
X10039Y-5753650D01*
X10039Y-5753650D02*
X-9008Y-5725079D01*
X-9008Y-5725079D02*
X-18532Y-5706031D01*
X-18532Y-5706031D02*
X-28056Y-5677460D01*
X-28056Y-5677460D02*
X-37580Y-5629841D01*
X-37580Y-5629841D02*
X-37580Y-5591746D01*
X-37580Y-5591746D02*
X-28056Y-5544127D01*
X-28056Y-5544127D02*
X-18532Y-5515555D01*
X-18532Y-5515555D02*
X-9008Y-5496508D01*
X-9008Y-5496508D02*
X10039Y-5467936D01*
X10039Y-5467936D02*
X19563Y-5458412D01*
X95753Y-5553650D02*
X95753Y-5686984D01*
X95753Y-5572698D02*
X105277Y-5563174D01*
X105277Y-5563174D02*
X124325Y-5553650D01*
X124325Y-5553650D02*
X152896Y-5553650D01*
X152896Y-5553650D02*
X171944Y-5563174D01*
X171944Y-5563174D02*
X181468Y-5582222D01*
X181468Y-5582222D02*
X181468Y-5686984D01*
X305277Y-5686984D02*
X286230Y-5677460D01*
X286230Y-5677460D02*
X276706Y-5667936D01*
X276706Y-5667936D02*
X267182Y-5648888D01*
X267182Y-5648888D02*
X267182Y-5591746D01*
X267182Y-5591746D02*
X276706Y-5572698D01*
X276706Y-5572698D02*
X286230Y-5563174D01*
X286230Y-5563174D02*
X305277Y-5553650D01*
X305277Y-5553650D02*
X333849Y-5553650D01*
X333849Y-5553650D02*
X352896Y-5563174D01*
X352896Y-5563174D02*
X362420Y-5572698D01*
X362420Y-5572698D02*
X371944Y-5591746D01*
X371944Y-5591746D02*
X371944Y-5648888D01*
X371944Y-5648888D02*
X362420Y-5667936D01*
X362420Y-5667936D02*
X352896Y-5677460D01*
X352896Y-5677460D02*
X333849Y-5686984D01*
X333849Y-5686984D02*
X305277Y-5686984D01*
X429087Y-5553650D02*
X505277Y-5553650D01*
X457658Y-5486984D02*
X457658Y-5658412D01*
X457658Y-5658412D02*
X467182Y-5677460D01*
X467182Y-5677460D02*
X486230Y-5686984D01*
X486230Y-5686984D02*
X505277Y-5686984D01*
X724325Y-5553650D02*
X724325Y-5753650D01*
X724325Y-5563174D02*
X743372Y-5553650D01*
X743372Y-5553650D02*
X781468Y-5553650D01*
X781468Y-5553650D02*
X800515Y-5563174D01*
X800515Y-5563174D02*
X810039Y-5572698D01*
X810039Y-5572698D02*
X819563Y-5591746D01*
X819563Y-5591746D02*
X819563Y-5648888D01*
X819563Y-5648888D02*
X810039Y-5667936D01*
X810039Y-5667936D02*
X800515Y-5677460D01*
X800515Y-5677460D02*
X781468Y-5686984D01*
X781468Y-5686984D02*
X743372Y-5686984D01*
X743372Y-5686984D02*
X724325Y-5677460D01*
X933849Y-5686984D02*
X914801Y-5677460D01*
X914801Y-5677460D02*
X905277Y-5658412D01*
X905277Y-5658412D02*
X905277Y-5486984D01*
X1095754Y-5686984D02*
X1095754Y-5582222D01*
X1095754Y-5582222D02*
X1086230Y-5563174D01*
X1086230Y-5563174D02*
X1067182Y-5553650D01*
X1067182Y-5553650D02*
X1029087Y-5553650D01*
X1029087Y-5553650D02*
X1010039Y-5563174D01*
X1095754Y-5677460D02*
X1076706Y-5686984D01*
X1076706Y-5686984D02*
X1029087Y-5686984D01*
X1029087Y-5686984D02*
X1010039Y-5677460D01*
X1010039Y-5677460D02*
X1000515Y-5658412D01*
X1000515Y-5658412D02*
X1000515Y-5639365D01*
X1000515Y-5639365D02*
X1010039Y-5620317D01*
X1010039Y-5620317D02*
X1029087Y-5610793D01*
X1029087Y-5610793D02*
X1076706Y-5610793D01*
X1076706Y-5610793D02*
X1095754Y-5601269D01*
X1162420Y-5553650D02*
X1238611Y-5553650D01*
X1190992Y-5486984D02*
X1190992Y-5658412D01*
X1190992Y-5658412D02*
X1200515Y-5677460D01*
X1200515Y-5677460D02*
X1219563Y-5686984D01*
X1219563Y-5686984D02*
X1238611Y-5686984D01*
X1381468Y-5677460D02*
X1362420Y-5686984D01*
X1362420Y-5686984D02*
X1324325Y-5686984D01*
X1324325Y-5686984D02*
X1305277Y-5677460D01*
X1305277Y-5677460D02*
X1295754Y-5658412D01*
X1295754Y-5658412D02*
X1295754Y-5582222D01*
X1295754Y-5582222D02*
X1305277Y-5563174D01*
X1305277Y-5563174D02*
X1324325Y-5553650D01*
X1324325Y-5553650D02*
X1362420Y-5553650D01*
X1362420Y-5553650D02*
X1381468Y-5563174D01*
X1381468Y-5563174D02*
X1390992Y-5582222D01*
X1390992Y-5582222D02*
X1390992Y-5601269D01*
X1390992Y-5601269D02*
X1295754Y-5620317D01*
X1562420Y-5686984D02*
X1562420Y-5486984D01*
X1562420Y-5677460D02*
X1543373Y-5686984D01*
X1543373Y-5686984D02*
X1505277Y-5686984D01*
X1505277Y-5686984D02*
X1486230Y-5677460D01*
X1486230Y-5677460D02*
X1476706Y-5667936D01*
X1476706Y-5667936D02*
X1467182Y-5648888D01*
X1467182Y-5648888D02*
X1467182Y-5591746D01*
X1467182Y-5591746D02*
X1476706Y-5572698D01*
X1476706Y-5572698D02*
X1486230Y-5563174D01*
X1486230Y-5563174D02*
X1505277Y-5553650D01*
X1505277Y-5553650D02*
X1543373Y-5553650D01*
X1543373Y-5553650D02*
X1562420Y-5563174D01*
X1638611Y-5763174D02*
X1648134Y-5753650D01*
X1648134Y-5753650D02*
X1667182Y-5725079D01*
X1667182Y-5725079D02*
X1676706Y-5706031D01*
X1676706Y-5706031D02*
X1686230Y-5677460D01*
X1686230Y-5677460D02*
X1695753Y-5629841D01*
X1695753Y-5629841D02*
X1695753Y-5591746D01*
X1695753Y-5591746D02*
X1686230Y-5544127D01*
X1686230Y-5544127D02*
X1676706Y-5515555D01*
X1676706Y-5515555D02*
X1667182Y-5496508D01*
X1667182Y-5496508D02*
X1648134Y-5467936D01*
X1648134Y-5467936D02*
X1638611Y-5458412D01*
M02*
