G04 #@! TF.GenerationSoftware,KiCad,Pcbnew,(5.1.9)-1*
G04 #@! TF.CreationDate,2021-04-11T14:42:06+02:00*
G04 #@! TF.ProjectId,at90s2323,61743930-7332-4333-9233-2e6b69636164,V1.0*
G04 #@! TF.SameCoordinates,Original*
G04 #@! TF.FileFunction,Soldermask,Bot*
G04 #@! TF.FilePolarity,Negative*
%FSLAX46Y46*%
G04 Gerber Fmt 4.6, Leading zero omitted, Abs format (unit mm)*
G04 Created by KiCad (PCBNEW (5.1.9)-1) date 2021-04-11 14:42:06*
%MOMM*%
%LPD*%
G01*
G04 APERTURE LIST*
%ADD10R,0.800000X0.900000*%
%ADD11C,1.800000*%
%ADD12C,0.100000*%
%ADD13O,1.600000X1.600000*%
%ADD14C,1.600000*%
%ADD15O,2.400000X2.400000*%
%ADD16R,2.400000X2.400000*%
%ADD17O,1.600000X2.400000*%
%ADD18R,1.600000X2.400000*%
%ADD19R,1.600000X1.600000*%
%ADD20O,1.700000X1.700000*%
%ADD21R,1.700000X1.700000*%
%ADD22C,2.000000*%
%ADD23C,0.800000*%
%ADD24C,6.400000*%
%ADD25C,1.500000*%
%ADD26O,1.905000X2.000000*%
%ADD27R,1.905000X2.000000*%
%ADD28O,3.500000X3.500000*%
%ADD29R,3.500000X3.500000*%
%ADD30C,1.700000*%
G04 APERTURE END LIST*
D10*
X17780000Y29480000D03*
X18730000Y31480000D03*
X16830000Y31480000D03*
G36*
G01*
X17380000Y39820001D02*
X17380000Y38919999D01*
G75*
G02*
X17130001Y38670000I-249999J0D01*
G01*
X16429999Y38670000D01*
G75*
G02*
X16180000Y38919999I0J249999D01*
G01*
X16180000Y39820001D01*
G75*
G02*
X16429999Y40070000I249999J0D01*
G01*
X17130001Y40070000D01*
G75*
G02*
X17380000Y39820001I0J-249999D01*
G01*
G37*
G36*
G01*
X19380000Y39820001D02*
X19380000Y38919999D01*
G75*
G02*
X19130001Y38670000I-249999J0D01*
G01*
X18429999Y38670000D01*
G75*
G02*
X18180000Y38919999I0J249999D01*
G01*
X18180000Y39820001D01*
G75*
G02*
X18429999Y40070000I249999J0D01*
G01*
X19130001Y40070000D01*
G75*
G02*
X19380000Y39820001I0J-249999D01*
G01*
G37*
X17780000Y34560000D03*
X18730000Y36560000D03*
X16830000Y36560000D03*
D11*
X38998026Y-46618026D03*
D12*
G36*
X35929182Y-44821974D02*
G01*
X37201974Y-43549182D01*
X38474766Y-44821974D01*
X37201974Y-46094766D01*
X35929182Y-44821974D01*
G37*
D11*
X33918026Y-46618026D03*
D12*
G36*
X30849182Y-44821974D02*
G01*
X32121974Y-43549182D01*
X33394766Y-44821974D01*
X32121974Y-46094766D01*
X30849182Y-44821974D01*
G37*
D11*
X28838026Y-46618026D03*
D12*
G36*
X25769182Y-44821974D02*
G01*
X27041974Y-43549182D01*
X28314766Y-44821974D01*
X27041974Y-46094766D01*
X25769182Y-44821974D01*
G37*
D11*
X23758026Y-46618026D03*
D12*
G36*
X20689182Y-44821974D02*
G01*
X21961974Y-43549182D01*
X23234766Y-44821974D01*
X21961974Y-46094766D01*
X20689182Y-44821974D01*
G37*
D11*
X18678026Y-46618026D03*
D12*
G36*
X15609182Y-44821974D02*
G01*
X16881974Y-43549182D01*
X18154766Y-44821974D01*
X16881974Y-46094766D01*
X15609182Y-44821974D01*
G37*
D11*
X13598026Y-46618026D03*
D12*
G36*
X10529182Y-44821974D02*
G01*
X11801974Y-43549182D01*
X13074766Y-44821974D01*
X11801974Y-46094766D01*
X10529182Y-44821974D01*
G37*
D11*
X8518026Y-46618026D03*
D12*
G36*
X5449182Y-44821974D02*
G01*
X6721974Y-43549182D01*
X7994766Y-44821974D01*
X6721974Y-46094766D01*
X5449182Y-44821974D01*
G37*
D11*
X3438026Y-46618026D03*
D12*
G36*
X369182Y-44821974D02*
G01*
X1641974Y-43549182D01*
X2914766Y-44821974D01*
X1641974Y-46094766D01*
X369182Y-44821974D01*
G37*
D11*
X-1641974Y-46618026D03*
D12*
G36*
X-4710818Y-44821974D02*
G01*
X-3438026Y-43549182D01*
X-2165234Y-44821974D01*
X-3438026Y-46094766D01*
X-4710818Y-44821974D01*
G37*
D11*
X-6721974Y-46618026D03*
D12*
G36*
X-9790818Y-44821974D02*
G01*
X-8518026Y-43549182D01*
X-7245234Y-44821974D01*
X-8518026Y-46094766D01*
X-9790818Y-44821974D01*
G37*
D11*
X-11801974Y-46618026D03*
D12*
G36*
X-14870818Y-44821974D02*
G01*
X-13598026Y-43549182D01*
X-12325234Y-44821974D01*
X-13598026Y-46094766D01*
X-14870818Y-44821974D01*
G37*
D11*
X-16881974Y-46618026D03*
D12*
G36*
X-19950818Y-44821974D02*
G01*
X-18678026Y-43549182D01*
X-17405234Y-44821974D01*
X-18678026Y-46094766D01*
X-19950818Y-44821974D01*
G37*
D11*
X-21961974Y-46618026D03*
D12*
G36*
X-25030818Y-44821974D02*
G01*
X-23758026Y-43549182D01*
X-22485234Y-44821974D01*
X-23758026Y-46094766D01*
X-25030818Y-44821974D01*
G37*
D11*
X-27041974Y-46618026D03*
D12*
G36*
X-30110818Y-44821974D02*
G01*
X-28838026Y-43549182D01*
X-27565234Y-44821974D01*
X-28838026Y-46094766D01*
X-30110818Y-44821974D01*
G37*
D11*
X-32121974Y-46618026D03*
D12*
G36*
X-35190818Y-44821974D02*
G01*
X-33918026Y-43549182D01*
X-32645234Y-44821974D01*
X-33918026Y-46094766D01*
X-35190818Y-44821974D01*
G37*
D11*
X-37201974Y-46618026D03*
D12*
G36*
X-40270818Y-44821974D02*
G01*
X-38998026Y-43549182D01*
X-37725234Y-44821974D01*
X-38998026Y-46094766D01*
X-40270818Y-44821974D01*
G37*
D11*
X38998026Y-41538026D03*
D12*
G36*
X35929182Y-39741974D02*
G01*
X37201974Y-38469182D01*
X38474766Y-39741974D01*
X37201974Y-41014766D01*
X35929182Y-39741974D01*
G37*
D11*
X33918026Y-41538026D03*
D12*
G36*
X30849182Y-39741974D02*
G01*
X32121974Y-38469182D01*
X33394766Y-39741974D01*
X32121974Y-41014766D01*
X30849182Y-39741974D01*
G37*
D11*
X28838026Y-41538026D03*
D12*
G36*
X25769182Y-39741974D02*
G01*
X27041974Y-38469182D01*
X28314766Y-39741974D01*
X27041974Y-41014766D01*
X25769182Y-39741974D01*
G37*
D11*
X23758026Y-41538026D03*
D12*
G36*
X20689182Y-39741974D02*
G01*
X21961974Y-38469182D01*
X23234766Y-39741974D01*
X21961974Y-41014766D01*
X20689182Y-39741974D01*
G37*
D11*
X18678026Y-41538026D03*
D12*
G36*
X15609182Y-39741974D02*
G01*
X16881974Y-38469182D01*
X18154766Y-39741974D01*
X16881974Y-41014766D01*
X15609182Y-39741974D01*
G37*
D11*
X13598026Y-41538026D03*
D12*
G36*
X10529182Y-39741974D02*
G01*
X11801974Y-38469182D01*
X13074766Y-39741974D01*
X11801974Y-41014766D01*
X10529182Y-39741974D01*
G37*
D11*
X8518026Y-41538026D03*
D12*
G36*
X5449182Y-39741974D02*
G01*
X6721974Y-38469182D01*
X7994766Y-39741974D01*
X6721974Y-41014766D01*
X5449182Y-39741974D01*
G37*
D11*
X3438026Y-41538026D03*
D12*
G36*
X369182Y-39741974D02*
G01*
X1641974Y-38469182D01*
X2914766Y-39741974D01*
X1641974Y-41014766D01*
X369182Y-39741974D01*
G37*
D11*
X-1641974Y-41538026D03*
D12*
G36*
X-4710818Y-39741974D02*
G01*
X-3438026Y-38469182D01*
X-2165234Y-39741974D01*
X-3438026Y-41014766D01*
X-4710818Y-39741974D01*
G37*
D11*
X-6721974Y-41538026D03*
D12*
G36*
X-9790818Y-39741974D02*
G01*
X-8518026Y-38469182D01*
X-7245234Y-39741974D01*
X-8518026Y-41014766D01*
X-9790818Y-39741974D01*
G37*
D11*
X-11801974Y-41538026D03*
D12*
G36*
X-14870818Y-39741974D02*
G01*
X-13598026Y-38469182D01*
X-12325234Y-39741974D01*
X-13598026Y-41014766D01*
X-14870818Y-39741974D01*
G37*
D11*
X-16881974Y-41538026D03*
D12*
G36*
X-19950818Y-39741974D02*
G01*
X-18678026Y-38469182D01*
X-17405234Y-39741974D01*
X-18678026Y-41014766D01*
X-19950818Y-39741974D01*
G37*
D11*
X-21961974Y-41538026D03*
D12*
G36*
X-25030818Y-39741974D02*
G01*
X-23758026Y-38469182D01*
X-22485234Y-39741974D01*
X-23758026Y-41014766D01*
X-25030818Y-39741974D01*
G37*
D11*
X-27041974Y-41538026D03*
D12*
G36*
X-30110818Y-39741974D02*
G01*
X-28838026Y-38469182D01*
X-27565234Y-39741974D01*
X-28838026Y-41014766D01*
X-30110818Y-39741974D01*
G37*
D11*
X-32121974Y-41538026D03*
D12*
G36*
X-35190818Y-39741974D02*
G01*
X-33918026Y-38469182D01*
X-32645234Y-39741974D01*
X-33918026Y-41014766D01*
X-35190818Y-39741974D01*
G37*
D11*
X-37201974Y-41538026D03*
D12*
G36*
X-40270818Y-39741974D02*
G01*
X-38998026Y-38469182D01*
X-37725234Y-39741974D01*
X-38998026Y-41014766D01*
X-40270818Y-39741974D01*
G37*
D11*
X38998026Y-36458026D03*
D12*
G36*
X35929182Y-34661974D02*
G01*
X37201974Y-33389182D01*
X38474766Y-34661974D01*
X37201974Y-35934766D01*
X35929182Y-34661974D01*
G37*
D11*
X33918026Y-36458026D03*
D12*
G36*
X30849182Y-34661974D02*
G01*
X32121974Y-33389182D01*
X33394766Y-34661974D01*
X32121974Y-35934766D01*
X30849182Y-34661974D01*
G37*
D11*
X28838026Y-36458026D03*
D12*
G36*
X25769182Y-34661974D02*
G01*
X27041974Y-33389182D01*
X28314766Y-34661974D01*
X27041974Y-35934766D01*
X25769182Y-34661974D01*
G37*
D11*
X23758026Y-36458026D03*
D12*
G36*
X20689182Y-34661974D02*
G01*
X21961974Y-33389182D01*
X23234766Y-34661974D01*
X21961974Y-35934766D01*
X20689182Y-34661974D01*
G37*
D11*
X18678026Y-36458026D03*
D12*
G36*
X15609182Y-34661974D02*
G01*
X16881974Y-33389182D01*
X18154766Y-34661974D01*
X16881974Y-35934766D01*
X15609182Y-34661974D01*
G37*
D11*
X13598026Y-36458026D03*
D12*
G36*
X10529182Y-34661974D02*
G01*
X11801974Y-33389182D01*
X13074766Y-34661974D01*
X11801974Y-35934766D01*
X10529182Y-34661974D01*
G37*
D11*
X8518026Y-36458026D03*
D12*
G36*
X5449182Y-34661974D02*
G01*
X6721974Y-33389182D01*
X7994766Y-34661974D01*
X6721974Y-35934766D01*
X5449182Y-34661974D01*
G37*
D11*
X3438026Y-36458026D03*
D12*
G36*
X369182Y-34661974D02*
G01*
X1641974Y-33389182D01*
X2914766Y-34661974D01*
X1641974Y-35934766D01*
X369182Y-34661974D01*
G37*
D11*
X-1641974Y-36458026D03*
D12*
G36*
X-4710818Y-34661974D02*
G01*
X-3438026Y-33389182D01*
X-2165234Y-34661974D01*
X-3438026Y-35934766D01*
X-4710818Y-34661974D01*
G37*
D11*
X-6721974Y-36458026D03*
D12*
G36*
X-9790818Y-34661974D02*
G01*
X-8518026Y-33389182D01*
X-7245234Y-34661974D01*
X-8518026Y-35934766D01*
X-9790818Y-34661974D01*
G37*
D11*
X-11801974Y-36458026D03*
D12*
G36*
X-14870818Y-34661974D02*
G01*
X-13598026Y-33389182D01*
X-12325234Y-34661974D01*
X-13598026Y-35934766D01*
X-14870818Y-34661974D01*
G37*
D11*
X-16881974Y-36458026D03*
D12*
G36*
X-19950818Y-34661974D02*
G01*
X-18678026Y-33389182D01*
X-17405234Y-34661974D01*
X-18678026Y-35934766D01*
X-19950818Y-34661974D01*
G37*
D11*
X-21961974Y-36458026D03*
D12*
G36*
X-25030818Y-34661974D02*
G01*
X-23758026Y-33389182D01*
X-22485234Y-34661974D01*
X-23758026Y-35934766D01*
X-25030818Y-34661974D01*
G37*
D11*
X-27041974Y-36458026D03*
D12*
G36*
X-30110818Y-34661974D02*
G01*
X-28838026Y-33389182D01*
X-27565234Y-34661974D01*
X-28838026Y-35934766D01*
X-30110818Y-34661974D01*
G37*
D11*
X-32121974Y-36458026D03*
D12*
G36*
X-35190818Y-34661974D02*
G01*
X-33918026Y-33389182D01*
X-32645234Y-34661974D01*
X-33918026Y-35934766D01*
X-35190818Y-34661974D01*
G37*
D11*
X-37201974Y-36458026D03*
D12*
G36*
X-40270818Y-34661974D02*
G01*
X-38998026Y-33389182D01*
X-37725234Y-34661974D01*
X-38998026Y-35934766D01*
X-40270818Y-34661974D01*
G37*
D11*
X38998026Y-31378026D03*
D12*
G36*
X35929182Y-29581974D02*
G01*
X37201974Y-28309182D01*
X38474766Y-29581974D01*
X37201974Y-30854766D01*
X35929182Y-29581974D01*
G37*
D11*
X33918026Y-31378026D03*
D12*
G36*
X30849182Y-29581974D02*
G01*
X32121974Y-28309182D01*
X33394766Y-29581974D01*
X32121974Y-30854766D01*
X30849182Y-29581974D01*
G37*
D11*
X28838026Y-31378026D03*
D12*
G36*
X25769182Y-29581974D02*
G01*
X27041974Y-28309182D01*
X28314766Y-29581974D01*
X27041974Y-30854766D01*
X25769182Y-29581974D01*
G37*
D11*
X23758026Y-31378026D03*
D12*
G36*
X20689182Y-29581974D02*
G01*
X21961974Y-28309182D01*
X23234766Y-29581974D01*
X21961974Y-30854766D01*
X20689182Y-29581974D01*
G37*
D11*
X18678026Y-31378026D03*
D12*
G36*
X15609182Y-29581974D02*
G01*
X16881974Y-28309182D01*
X18154766Y-29581974D01*
X16881974Y-30854766D01*
X15609182Y-29581974D01*
G37*
D11*
X13598026Y-31378026D03*
D12*
G36*
X10529182Y-29581974D02*
G01*
X11801974Y-28309182D01*
X13074766Y-29581974D01*
X11801974Y-30854766D01*
X10529182Y-29581974D01*
G37*
D11*
X8518026Y-31378026D03*
D12*
G36*
X5449182Y-29581974D02*
G01*
X6721974Y-28309182D01*
X7994766Y-29581974D01*
X6721974Y-30854766D01*
X5449182Y-29581974D01*
G37*
D11*
X3438026Y-31378026D03*
D12*
G36*
X369182Y-29581974D02*
G01*
X1641974Y-28309182D01*
X2914766Y-29581974D01*
X1641974Y-30854766D01*
X369182Y-29581974D01*
G37*
D11*
X-1641974Y-31378026D03*
D12*
G36*
X-4710818Y-29581974D02*
G01*
X-3438026Y-28309182D01*
X-2165234Y-29581974D01*
X-3438026Y-30854766D01*
X-4710818Y-29581974D01*
G37*
D11*
X-6721974Y-31378026D03*
D12*
G36*
X-9790818Y-29581974D02*
G01*
X-8518026Y-28309182D01*
X-7245234Y-29581974D01*
X-8518026Y-30854766D01*
X-9790818Y-29581974D01*
G37*
D11*
X-11801974Y-31378026D03*
D12*
G36*
X-14870818Y-29581974D02*
G01*
X-13598026Y-28309182D01*
X-12325234Y-29581974D01*
X-13598026Y-30854766D01*
X-14870818Y-29581974D01*
G37*
D11*
X-16881974Y-31378026D03*
D12*
G36*
X-19950818Y-29581974D02*
G01*
X-18678026Y-28309182D01*
X-17405234Y-29581974D01*
X-18678026Y-30854766D01*
X-19950818Y-29581974D01*
G37*
D11*
X-21961974Y-31378026D03*
D12*
G36*
X-25030818Y-29581974D02*
G01*
X-23758026Y-28309182D01*
X-22485234Y-29581974D01*
X-23758026Y-30854766D01*
X-25030818Y-29581974D01*
G37*
D11*
X-27041974Y-31378026D03*
D12*
G36*
X-30110818Y-29581974D02*
G01*
X-28838026Y-28309182D01*
X-27565234Y-29581974D01*
X-28838026Y-30854766D01*
X-30110818Y-29581974D01*
G37*
D11*
X-32121974Y-31378026D03*
D12*
G36*
X-35190818Y-29581974D02*
G01*
X-33918026Y-28309182D01*
X-32645234Y-29581974D01*
X-33918026Y-30854766D01*
X-35190818Y-29581974D01*
G37*
D11*
X-37201974Y-31378026D03*
D12*
G36*
X-40270818Y-29581974D02*
G01*
X-38998026Y-28309182D01*
X-37725234Y-29581974D01*
X-38998026Y-30854766D01*
X-40270818Y-29581974D01*
G37*
D11*
X38998026Y-26298026D03*
D12*
G36*
X35929182Y-24501974D02*
G01*
X37201974Y-23229182D01*
X38474766Y-24501974D01*
X37201974Y-25774766D01*
X35929182Y-24501974D01*
G37*
D11*
X33918026Y-26298026D03*
D12*
G36*
X30849182Y-24501974D02*
G01*
X32121974Y-23229182D01*
X33394766Y-24501974D01*
X32121974Y-25774766D01*
X30849182Y-24501974D01*
G37*
D11*
X28838026Y-26298026D03*
D12*
G36*
X25769182Y-24501974D02*
G01*
X27041974Y-23229182D01*
X28314766Y-24501974D01*
X27041974Y-25774766D01*
X25769182Y-24501974D01*
G37*
D11*
X23758026Y-26298026D03*
D12*
G36*
X20689182Y-24501974D02*
G01*
X21961974Y-23229182D01*
X23234766Y-24501974D01*
X21961974Y-25774766D01*
X20689182Y-24501974D01*
G37*
D11*
X18678026Y-26298026D03*
D12*
G36*
X15609182Y-24501974D02*
G01*
X16881974Y-23229182D01*
X18154766Y-24501974D01*
X16881974Y-25774766D01*
X15609182Y-24501974D01*
G37*
D11*
X13598026Y-26298026D03*
D12*
G36*
X10529182Y-24501974D02*
G01*
X11801974Y-23229182D01*
X13074766Y-24501974D01*
X11801974Y-25774766D01*
X10529182Y-24501974D01*
G37*
D11*
X8518026Y-26298026D03*
D12*
G36*
X5449182Y-24501974D02*
G01*
X6721974Y-23229182D01*
X7994766Y-24501974D01*
X6721974Y-25774766D01*
X5449182Y-24501974D01*
G37*
D11*
X3438026Y-26298026D03*
D12*
G36*
X369182Y-24501974D02*
G01*
X1641974Y-23229182D01*
X2914766Y-24501974D01*
X1641974Y-25774766D01*
X369182Y-24501974D01*
G37*
D11*
X-1641974Y-26298026D03*
D12*
G36*
X-4710818Y-24501974D02*
G01*
X-3438026Y-23229182D01*
X-2165234Y-24501974D01*
X-3438026Y-25774766D01*
X-4710818Y-24501974D01*
G37*
D11*
X-6721974Y-26298026D03*
D12*
G36*
X-9790818Y-24501974D02*
G01*
X-8518026Y-23229182D01*
X-7245234Y-24501974D01*
X-8518026Y-25774766D01*
X-9790818Y-24501974D01*
G37*
D11*
X-11801974Y-26298026D03*
D12*
G36*
X-14870818Y-24501974D02*
G01*
X-13598026Y-23229182D01*
X-12325234Y-24501974D01*
X-13598026Y-25774766D01*
X-14870818Y-24501974D01*
G37*
D11*
X-16881974Y-26298026D03*
D12*
G36*
X-19950818Y-24501974D02*
G01*
X-18678026Y-23229182D01*
X-17405234Y-24501974D01*
X-18678026Y-25774766D01*
X-19950818Y-24501974D01*
G37*
D11*
X-21961974Y-26298026D03*
D12*
G36*
X-25030818Y-24501974D02*
G01*
X-23758026Y-23229182D01*
X-22485234Y-24501974D01*
X-23758026Y-25774766D01*
X-25030818Y-24501974D01*
G37*
D11*
X-27041974Y-26298026D03*
D12*
G36*
X-30110818Y-24501974D02*
G01*
X-28838026Y-23229182D01*
X-27565234Y-24501974D01*
X-28838026Y-25774766D01*
X-30110818Y-24501974D01*
G37*
D11*
X-32121974Y-26298026D03*
D12*
G36*
X-35190818Y-24501974D02*
G01*
X-33918026Y-23229182D01*
X-32645234Y-24501974D01*
X-33918026Y-25774766D01*
X-35190818Y-24501974D01*
G37*
D11*
X-37201974Y-26298026D03*
D12*
G36*
X-40270818Y-24501974D02*
G01*
X-38998026Y-23229182D01*
X-37725234Y-24501974D01*
X-38998026Y-25774766D01*
X-40270818Y-24501974D01*
G37*
D11*
X38998026Y-21218026D03*
D12*
G36*
X35929182Y-19421974D02*
G01*
X37201974Y-18149182D01*
X38474766Y-19421974D01*
X37201974Y-20694766D01*
X35929182Y-19421974D01*
G37*
D11*
X33918026Y-21218026D03*
D12*
G36*
X30849182Y-19421974D02*
G01*
X32121974Y-18149182D01*
X33394766Y-19421974D01*
X32121974Y-20694766D01*
X30849182Y-19421974D01*
G37*
D11*
X28838026Y-21218026D03*
D12*
G36*
X25769182Y-19421974D02*
G01*
X27041974Y-18149182D01*
X28314766Y-19421974D01*
X27041974Y-20694766D01*
X25769182Y-19421974D01*
G37*
D11*
X23758026Y-21218026D03*
D12*
G36*
X20689182Y-19421974D02*
G01*
X21961974Y-18149182D01*
X23234766Y-19421974D01*
X21961974Y-20694766D01*
X20689182Y-19421974D01*
G37*
D11*
X18678026Y-21218026D03*
D12*
G36*
X15609182Y-19421974D02*
G01*
X16881974Y-18149182D01*
X18154766Y-19421974D01*
X16881974Y-20694766D01*
X15609182Y-19421974D01*
G37*
D11*
X13598026Y-21218026D03*
D12*
G36*
X10529182Y-19421974D02*
G01*
X11801974Y-18149182D01*
X13074766Y-19421974D01*
X11801974Y-20694766D01*
X10529182Y-19421974D01*
G37*
D11*
X8518026Y-21218026D03*
D12*
G36*
X5449182Y-19421974D02*
G01*
X6721974Y-18149182D01*
X7994766Y-19421974D01*
X6721974Y-20694766D01*
X5449182Y-19421974D01*
G37*
D11*
X3438026Y-21218026D03*
D12*
G36*
X369182Y-19421974D02*
G01*
X1641974Y-18149182D01*
X2914766Y-19421974D01*
X1641974Y-20694766D01*
X369182Y-19421974D01*
G37*
D11*
X-1641974Y-21218026D03*
D12*
G36*
X-4710818Y-19421974D02*
G01*
X-3438026Y-18149182D01*
X-2165234Y-19421974D01*
X-3438026Y-20694766D01*
X-4710818Y-19421974D01*
G37*
D11*
X-6721974Y-21218026D03*
D12*
G36*
X-9790818Y-19421974D02*
G01*
X-8518026Y-18149182D01*
X-7245234Y-19421974D01*
X-8518026Y-20694766D01*
X-9790818Y-19421974D01*
G37*
D11*
X-11801974Y-21218026D03*
D12*
G36*
X-14870818Y-19421974D02*
G01*
X-13598026Y-18149182D01*
X-12325234Y-19421974D01*
X-13598026Y-20694766D01*
X-14870818Y-19421974D01*
G37*
D11*
X-16881974Y-21218026D03*
D12*
G36*
X-19950818Y-19421974D02*
G01*
X-18678026Y-18149182D01*
X-17405234Y-19421974D01*
X-18678026Y-20694766D01*
X-19950818Y-19421974D01*
G37*
D11*
X-21961974Y-21218026D03*
D12*
G36*
X-25030818Y-19421974D02*
G01*
X-23758026Y-18149182D01*
X-22485234Y-19421974D01*
X-23758026Y-20694766D01*
X-25030818Y-19421974D01*
G37*
D11*
X-27041974Y-21218026D03*
D12*
G36*
X-30110818Y-19421974D02*
G01*
X-28838026Y-18149182D01*
X-27565234Y-19421974D01*
X-28838026Y-20694766D01*
X-30110818Y-19421974D01*
G37*
D11*
X-32121974Y-21218026D03*
D12*
G36*
X-35190818Y-19421974D02*
G01*
X-33918026Y-18149182D01*
X-32645234Y-19421974D01*
X-33918026Y-20694766D01*
X-35190818Y-19421974D01*
G37*
D11*
X-37201974Y-21218026D03*
D12*
G36*
X-40270818Y-19421974D02*
G01*
X-38998026Y-18149182D01*
X-37725234Y-19421974D01*
X-38998026Y-20694766D01*
X-40270818Y-19421974D01*
G37*
D11*
X38998026Y-16138026D03*
D12*
G36*
X35929182Y-14341974D02*
G01*
X37201974Y-13069182D01*
X38474766Y-14341974D01*
X37201974Y-15614766D01*
X35929182Y-14341974D01*
G37*
D11*
X33918026Y-16138026D03*
D12*
G36*
X30849182Y-14341974D02*
G01*
X32121974Y-13069182D01*
X33394766Y-14341974D01*
X32121974Y-15614766D01*
X30849182Y-14341974D01*
G37*
D11*
X28838026Y-16138026D03*
D12*
G36*
X25769182Y-14341974D02*
G01*
X27041974Y-13069182D01*
X28314766Y-14341974D01*
X27041974Y-15614766D01*
X25769182Y-14341974D01*
G37*
D11*
X23758026Y-16138026D03*
D12*
G36*
X20689182Y-14341974D02*
G01*
X21961974Y-13069182D01*
X23234766Y-14341974D01*
X21961974Y-15614766D01*
X20689182Y-14341974D01*
G37*
D11*
X18678026Y-16138026D03*
D12*
G36*
X15609182Y-14341974D02*
G01*
X16881974Y-13069182D01*
X18154766Y-14341974D01*
X16881974Y-15614766D01*
X15609182Y-14341974D01*
G37*
D11*
X13598026Y-16138026D03*
D12*
G36*
X10529182Y-14341974D02*
G01*
X11801974Y-13069182D01*
X13074766Y-14341974D01*
X11801974Y-15614766D01*
X10529182Y-14341974D01*
G37*
D11*
X8518026Y-16138026D03*
D12*
G36*
X5449182Y-14341974D02*
G01*
X6721974Y-13069182D01*
X7994766Y-14341974D01*
X6721974Y-15614766D01*
X5449182Y-14341974D01*
G37*
D11*
X3438026Y-16138026D03*
D12*
G36*
X369182Y-14341974D02*
G01*
X1641974Y-13069182D01*
X2914766Y-14341974D01*
X1641974Y-15614766D01*
X369182Y-14341974D01*
G37*
D11*
X-1641974Y-16138026D03*
D12*
G36*
X-4710818Y-14341974D02*
G01*
X-3438026Y-13069182D01*
X-2165234Y-14341974D01*
X-3438026Y-15614766D01*
X-4710818Y-14341974D01*
G37*
D11*
X-6721974Y-16138026D03*
D12*
G36*
X-9790818Y-14341974D02*
G01*
X-8518026Y-13069182D01*
X-7245234Y-14341974D01*
X-8518026Y-15614766D01*
X-9790818Y-14341974D01*
G37*
D11*
X-11801974Y-16138026D03*
D12*
G36*
X-14870818Y-14341974D02*
G01*
X-13598026Y-13069182D01*
X-12325234Y-14341974D01*
X-13598026Y-15614766D01*
X-14870818Y-14341974D01*
G37*
D11*
X-16881974Y-16138026D03*
D12*
G36*
X-19950818Y-14341974D02*
G01*
X-18678026Y-13069182D01*
X-17405234Y-14341974D01*
X-18678026Y-15614766D01*
X-19950818Y-14341974D01*
G37*
D11*
X-21961974Y-16138026D03*
D12*
G36*
X-25030818Y-14341974D02*
G01*
X-23758026Y-13069182D01*
X-22485234Y-14341974D01*
X-23758026Y-15614766D01*
X-25030818Y-14341974D01*
G37*
D11*
X-27041974Y-16138026D03*
D12*
G36*
X-30110818Y-14341974D02*
G01*
X-28838026Y-13069182D01*
X-27565234Y-14341974D01*
X-28838026Y-15614766D01*
X-30110818Y-14341974D01*
G37*
D11*
X-32121974Y-16138026D03*
D12*
G36*
X-35190818Y-14341974D02*
G01*
X-33918026Y-13069182D01*
X-32645234Y-14341974D01*
X-33918026Y-15614766D01*
X-35190818Y-14341974D01*
G37*
D11*
X-37201974Y-16138026D03*
D12*
G36*
X-40270818Y-14341974D02*
G01*
X-38998026Y-13069182D01*
X-37725234Y-14341974D01*
X-38998026Y-15614766D01*
X-40270818Y-14341974D01*
G37*
D11*
X38998026Y-11058026D03*
D12*
G36*
X35929182Y-9261974D02*
G01*
X37201974Y-7989182D01*
X38474766Y-9261974D01*
X37201974Y-10534766D01*
X35929182Y-9261974D01*
G37*
D11*
X33918026Y-11058026D03*
D12*
G36*
X30849182Y-9261974D02*
G01*
X32121974Y-7989182D01*
X33394766Y-9261974D01*
X32121974Y-10534766D01*
X30849182Y-9261974D01*
G37*
D11*
X28838026Y-11058026D03*
D12*
G36*
X25769182Y-9261974D02*
G01*
X27041974Y-7989182D01*
X28314766Y-9261974D01*
X27041974Y-10534766D01*
X25769182Y-9261974D01*
G37*
D11*
X23758026Y-11058026D03*
D12*
G36*
X20689182Y-9261974D02*
G01*
X21961974Y-7989182D01*
X23234766Y-9261974D01*
X21961974Y-10534766D01*
X20689182Y-9261974D01*
G37*
D11*
X18678026Y-11058026D03*
D12*
G36*
X15609182Y-9261974D02*
G01*
X16881974Y-7989182D01*
X18154766Y-9261974D01*
X16881974Y-10534766D01*
X15609182Y-9261974D01*
G37*
D11*
X13598026Y-11058026D03*
D12*
G36*
X10529182Y-9261974D02*
G01*
X11801974Y-7989182D01*
X13074766Y-9261974D01*
X11801974Y-10534766D01*
X10529182Y-9261974D01*
G37*
D11*
X8518026Y-11058026D03*
D12*
G36*
X5449182Y-9261974D02*
G01*
X6721974Y-7989182D01*
X7994766Y-9261974D01*
X6721974Y-10534766D01*
X5449182Y-9261974D01*
G37*
D11*
X3438026Y-11058026D03*
D12*
G36*
X369182Y-9261974D02*
G01*
X1641974Y-7989182D01*
X2914766Y-9261974D01*
X1641974Y-10534766D01*
X369182Y-9261974D01*
G37*
D11*
X-1641974Y-11058026D03*
D12*
G36*
X-4710818Y-9261974D02*
G01*
X-3438026Y-7989182D01*
X-2165234Y-9261974D01*
X-3438026Y-10534766D01*
X-4710818Y-9261974D01*
G37*
D11*
X-6721974Y-11058026D03*
D12*
G36*
X-9790818Y-9261974D02*
G01*
X-8518026Y-7989182D01*
X-7245234Y-9261974D01*
X-8518026Y-10534766D01*
X-9790818Y-9261974D01*
G37*
D11*
X-11801974Y-11058026D03*
D12*
G36*
X-14870818Y-9261974D02*
G01*
X-13598026Y-7989182D01*
X-12325234Y-9261974D01*
X-13598026Y-10534766D01*
X-14870818Y-9261974D01*
G37*
D11*
X-16881974Y-11058026D03*
D12*
G36*
X-19950818Y-9261974D02*
G01*
X-18678026Y-7989182D01*
X-17405234Y-9261974D01*
X-18678026Y-10534766D01*
X-19950818Y-9261974D01*
G37*
D11*
X-21961974Y-11058026D03*
D12*
G36*
X-25030818Y-9261974D02*
G01*
X-23758026Y-7989182D01*
X-22485234Y-9261974D01*
X-23758026Y-10534766D01*
X-25030818Y-9261974D01*
G37*
D11*
X-27041974Y-11058026D03*
D12*
G36*
X-30110818Y-9261974D02*
G01*
X-28838026Y-7989182D01*
X-27565234Y-9261974D01*
X-28838026Y-10534766D01*
X-30110818Y-9261974D01*
G37*
D11*
X-32121974Y-11058026D03*
D12*
G36*
X-35190818Y-9261974D02*
G01*
X-33918026Y-7989182D01*
X-32645234Y-9261974D01*
X-33918026Y-10534766D01*
X-35190818Y-9261974D01*
G37*
D11*
X-37201974Y-11058026D03*
D12*
G36*
X-40270818Y-9261974D02*
G01*
X-38998026Y-7989182D01*
X-37725234Y-9261974D01*
X-38998026Y-10534766D01*
X-40270818Y-9261974D01*
G37*
D13*
X38100000Y-5080000D03*
D14*
X38100000Y-2540000D03*
D13*
X33020000Y-5080000D03*
D14*
X33020000Y-2540000D03*
D13*
X27940000Y-5080000D03*
D14*
X27940000Y-2540000D03*
D13*
X22860000Y-5080000D03*
D14*
X22860000Y-2540000D03*
D13*
X17780000Y-5080000D03*
D14*
X17780000Y-2540000D03*
D13*
X12700000Y-5080000D03*
D14*
X12700000Y-2540000D03*
D13*
X7620000Y-5080000D03*
D14*
X7620000Y-2540000D03*
D13*
X2540000Y-5080000D03*
D14*
X2540000Y-2540000D03*
D13*
X-2540000Y-5080000D03*
D14*
X-2540000Y-2540000D03*
D13*
X-7620000Y-5080000D03*
D14*
X-7620000Y-2540000D03*
D13*
X-12700000Y-5080000D03*
D14*
X-12700000Y-2540000D03*
D13*
X-17780000Y-5080000D03*
D14*
X-17780000Y-2540000D03*
D13*
X-22860000Y-5080000D03*
D14*
X-22860000Y-2540000D03*
D13*
X-27940000Y-5080000D03*
D14*
X-27940000Y-2540000D03*
D13*
X-33020000Y-5080000D03*
D14*
X-33020000Y-2540000D03*
D13*
X-38100000Y-5080000D03*
D14*
X-38100000Y-2540000D03*
D15*
X-27940000Y19050000D03*
D16*
X-27940000Y24130000D03*
D14*
X-10795000Y5160000D03*
X-10795000Y10160000D03*
X15875000Y5160000D03*
X15875000Y10160000D03*
D17*
X-38100000Y11430000D03*
X-15240000Y3810000D03*
X-35560000Y11430000D03*
X-17780000Y3810000D03*
X-33020000Y11430000D03*
X-20320000Y3810000D03*
X-30480000Y11430000D03*
X-22860000Y3810000D03*
X-27940000Y11430000D03*
X-25400000Y3810000D03*
X-25400000Y11430000D03*
X-27940000Y3810000D03*
X-22860000Y11430000D03*
X-30480000Y3810000D03*
X-20320000Y11430000D03*
X-33020000Y3810000D03*
X-17780000Y11430000D03*
X-35560000Y3810000D03*
X-15240000Y11430000D03*
D18*
X-38100000Y3810000D03*
D13*
X20320000Y11430000D03*
X38100000Y3810000D03*
X22860000Y11430000D03*
X35560000Y3810000D03*
X25400000Y11430000D03*
X33020000Y3810000D03*
X27940000Y11430000D03*
X30480000Y3810000D03*
X30480000Y11430000D03*
X27940000Y3810000D03*
X33020000Y11430000D03*
X25400000Y3810000D03*
X35560000Y11430000D03*
X22860000Y3810000D03*
X38100000Y11430000D03*
D19*
X20320000Y3810000D03*
D13*
X-6350000Y11430000D03*
X11430000Y3810000D03*
X-3810000Y11430000D03*
X8890000Y3810000D03*
X-1270000Y11430000D03*
X6350000Y3810000D03*
X1270000Y11430000D03*
X3810000Y3810000D03*
X3810000Y11430000D03*
X1270000Y3810000D03*
X6350000Y11430000D03*
X-1270000Y3810000D03*
X8890000Y11430000D03*
X-3810000Y3810000D03*
X11430000Y11430000D03*
D19*
X-6350000Y3810000D03*
D13*
X25400000Y35560000D03*
D14*
X25400000Y25400000D03*
D13*
X3810000Y25400000D03*
X-3810000Y17780000D03*
X3810000Y22860000D03*
X-3810000Y20320000D03*
X3810000Y20320000D03*
X-3810000Y22860000D03*
X3810000Y17780000D03*
D19*
X-3810000Y25400000D03*
D20*
X8890000Y25400000D03*
X8890000Y22860000D03*
X8890000Y20320000D03*
D21*
X8890000Y17780000D03*
D20*
X-8890000Y17780000D03*
X-8890000Y20320000D03*
X-8890000Y22860000D03*
D21*
X-8890000Y25400000D03*
D22*
X-22860000Y24915000D03*
X-18360000Y24915000D03*
X-22860000Y18415000D03*
X-18360000Y18415000D03*
D23*
X-42752944Y-42752944D03*
X-44450000Y-42050000D03*
X-46147056Y-42752944D03*
X-46850000Y-44450000D03*
X-46147056Y-46147056D03*
X-44450000Y-46850000D03*
X-42752944Y-46147056D03*
X-42050000Y-44450000D03*
D24*
X-44450000Y-44450000D03*
D23*
X46147056Y-42752944D03*
X44450000Y-42050000D03*
X42752944Y-42752944D03*
X42050000Y-44450000D03*
X42752944Y-46147056D03*
X44450000Y-46850000D03*
X46147056Y-46147056D03*
X46850000Y-44450000D03*
D24*
X44450000Y-44450000D03*
D23*
X46147056Y46147056D03*
X44450000Y46850000D03*
X42752944Y46147056D03*
X42050000Y44450000D03*
X42752944Y42752944D03*
X44450000Y42050000D03*
X46147056Y42752944D03*
X46850000Y44450000D03*
D24*
X44450000Y44450000D03*
D23*
X-42752944Y46147056D03*
X-44450000Y46850000D03*
X-46147056Y46147056D03*
X-46850000Y44450000D03*
X-46147056Y42752944D03*
X-44450000Y42050000D03*
X-42752944Y42752944D03*
X-42050000Y44450000D03*
D24*
X-44450000Y44450000D03*
D14*
X-24130000Y34250000D03*
D19*
X-24130000Y31750000D03*
D14*
X-44450000Y34250000D03*
D19*
X-44450000Y31750000D03*
D25*
X2340000Y31710000D03*
X-2540000Y31710000D03*
D26*
X-31750000Y29210000D03*
X-34290000Y29210000D03*
D27*
X-36830000Y29210000D03*
D28*
X-34290000Y45870000D03*
G36*
G01*
X-37770000Y16015000D02*
X-37770000Y17765000D01*
G75*
G02*
X-36895000Y18640000I875000J0D01*
G01*
X-35145000Y18640000D01*
G75*
G02*
X-34270000Y17765000I0J-875000D01*
G01*
X-34270000Y16015000D01*
G75*
G02*
X-35145000Y15140000I-875000J0D01*
G01*
X-36895000Y15140000D01*
G75*
G02*
X-37770000Y16015000I0J875000D01*
G01*
G37*
G36*
G01*
X-40520000Y20590000D02*
X-40520000Y22590000D01*
G75*
G02*
X-39770000Y23340000I750000J0D01*
G01*
X-38270000Y23340000D01*
G75*
G02*
X-37520000Y22590000I0J-750000D01*
G01*
X-37520000Y20590000D01*
G75*
G02*
X-38270000Y19840000I-750000J0D01*
G01*
X-39770000Y19840000D01*
G75*
G02*
X-40520000Y20590000I0J750000D01*
G01*
G37*
D29*
X-33020000Y21590000D03*
D30*
X35560000Y25400000D03*
X35560000Y27940000D03*
X35560000Y30480000D03*
X35560000Y33020000D03*
X35560000Y35560000D03*
X33020000Y25400000D03*
X33020000Y27940000D03*
X33020000Y30480000D03*
X33020000Y33020000D03*
G36*
G01*
X32170000Y34960000D02*
X32170000Y36160000D01*
G75*
G02*
X32420000Y36410000I250000J0D01*
G01*
X33620000Y36410000D01*
G75*
G02*
X33870000Y36160000I0J-250000D01*
G01*
X33870000Y34960000D01*
G75*
G02*
X33620000Y34710000I-250000J0D01*
G01*
X32420000Y34710000D01*
G75*
G02*
X32170000Y34960000I0J250000D01*
G01*
G37*
D14*
X17780000Y20400000D03*
X17780000Y25400000D03*
X8890000Y29250000D03*
X8890000Y34250000D03*
X-8890000Y29250000D03*
X-8890000Y34250000D03*
M02*
