G04 #@! TF.GenerationSoftware,KiCad,Pcbnew,(5.1.9)-1*
G04 #@! TF.CreationDate,2021-04-11T14:42:06+02:00*
G04 #@! TF.ProjectId,at90s2323,61743930-7332-4333-9233-2e6b69636164,V1.0*
G04 #@! TF.SameCoordinates,Original*
G04 #@! TF.FileFunction,Legend,Bot*
G04 #@! TF.FilePolarity,Positive*
%FSLAX46Y46*%
G04 Gerber Fmt 4.6, Leading zero omitted, Abs format (unit mm)*
G04 Created by KiCad (PCBNEW (5.1.9)-1) date 2021-04-11 14:42:06*
%MOMM*%
%LPD*%
G01*
G04 APERTURE LIST*
%ADD10C,0.150000*%
%ADD11C,0.120000*%
%ADD12R,0.800000X0.900000*%
%ADD13C,1.800000*%
%ADD14C,0.100000*%
%ADD15O,1.600000X1.600000*%
%ADD16C,1.600000*%
%ADD17O,2.400000X2.400000*%
%ADD18R,2.400000X2.400000*%
%ADD19O,1.600000X2.400000*%
%ADD20R,1.600000X2.400000*%
%ADD21R,1.600000X1.600000*%
%ADD22O,1.700000X1.700000*%
%ADD23R,1.700000X1.700000*%
%ADD24C,2.000000*%
%ADD25C,0.800000*%
%ADD26C,6.400000*%
%ADD27C,1.500000*%
%ADD28O,1.905000X2.000000*%
%ADD29R,1.905000X2.000000*%
%ADD30O,3.500000X3.500000*%
%ADD31R,3.500000X3.500000*%
%ADD32C,1.700000*%
G04 APERTURE END LIST*
D10*
X27890952Y45695238D02*
X27748095Y45647619D01*
X27510000Y45647619D01*
X27414761Y45695238D01*
X27367142Y45742857D01*
X27319523Y45838095D01*
X27319523Y45933333D01*
X27367142Y46028571D01*
X27414761Y46076190D01*
X27510000Y46123809D01*
X27700476Y46171428D01*
X27795714Y46219047D01*
X27843333Y46266666D01*
X27890952Y46361904D01*
X27890952Y46457142D01*
X27843333Y46552380D01*
X27795714Y46600000D01*
X27700476Y46647619D01*
X27462380Y46647619D01*
X27319523Y46600000D01*
X26890952Y45647619D02*
X26890952Y46647619D01*
X26462380Y45647619D02*
X26462380Y46171428D01*
X26510000Y46266666D01*
X26605238Y46314285D01*
X26748095Y46314285D01*
X26843333Y46266666D01*
X26890952Y46219047D01*
X25986190Y45647619D02*
X25986190Y46647619D01*
X25557619Y45647619D02*
X25557619Y46171428D01*
X25605238Y46266666D01*
X25700476Y46314285D01*
X25843333Y46314285D01*
X25938571Y46266666D01*
X25986190Y46219047D01*
X25081428Y45647619D02*
X25081428Y46647619D01*
X24652857Y45647619D02*
X24652857Y46171428D01*
X24700476Y46266666D01*
X24795714Y46314285D01*
X24938571Y46314285D01*
X25033809Y46266666D01*
X25081428Y46219047D01*
X24176666Y45647619D02*
X24176666Y46647619D01*
X23748095Y45647619D02*
X23748095Y46171428D01*
X23795714Y46266666D01*
X23890952Y46314285D01*
X24033809Y46314285D01*
X24129047Y46266666D01*
X24176666Y46219047D01*
X23271904Y45647619D02*
X23271904Y46647619D01*
X22843333Y45647619D02*
X22843333Y46171428D01*
X22890952Y46266666D01*
X22986190Y46314285D01*
X23129047Y46314285D01*
X23224285Y46266666D01*
X23271904Y46219047D01*
X22319523Y45695238D02*
X22319523Y45647619D01*
X22367142Y45552380D01*
X22414761Y45504761D01*
X20986190Y45647619D02*
X21081428Y45695238D01*
X21129047Y45790476D01*
X21129047Y46647619D01*
X20224285Y45695238D02*
X20319523Y45647619D01*
X20510000Y45647619D01*
X20605238Y45695238D01*
X20652857Y45790476D01*
X20652857Y46171428D01*
X20605238Y46266666D01*
X20510000Y46314285D01*
X20319523Y46314285D01*
X20224285Y46266666D01*
X20176666Y46171428D01*
X20176666Y46076190D01*
X20652857Y45980952D01*
X19890952Y46314285D02*
X19510000Y46314285D01*
X19748095Y46647619D02*
X19748095Y45790476D01*
X19700476Y45695238D01*
X19605238Y45647619D01*
X19510000Y45647619D01*
X19129047Y46647619D02*
X19224285Y46457142D01*
X18748095Y45695238D02*
X18652857Y45647619D01*
X18462380Y45647619D01*
X18367142Y45695238D01*
X18319523Y45790476D01*
X18319523Y45838095D01*
X18367142Y45933333D01*
X18462380Y45980952D01*
X18605238Y45980952D01*
X18700476Y46028571D01*
X18748095Y46123809D01*
X18748095Y46171428D01*
X18700476Y46266666D01*
X18605238Y46314285D01*
X18462380Y46314285D01*
X18367142Y46266666D01*
X17129047Y45647619D02*
X17129047Y46647619D01*
X16700476Y45647619D02*
X16700476Y46171428D01*
X16748095Y46266666D01*
X16843333Y46314285D01*
X16986190Y46314285D01*
X17081428Y46266666D01*
X17129047Y46219047D01*
X16224285Y45647619D02*
X16224285Y46314285D01*
X16224285Y46647619D02*
X16271904Y46600000D01*
X16224285Y46552380D01*
X16176666Y46600000D01*
X16224285Y46647619D01*
X16224285Y46552380D01*
X15319523Y45647619D02*
X15319523Y46647619D01*
X15319523Y45695238D02*
X15414761Y45647619D01*
X15605238Y45647619D01*
X15700476Y45695238D01*
X15748095Y45742857D01*
X15795714Y45838095D01*
X15795714Y46123809D01*
X15748095Y46219047D01*
X15700476Y46266666D01*
X15605238Y46314285D01*
X15414761Y46314285D01*
X15319523Y46266666D01*
X14462380Y45695238D02*
X14557619Y45647619D01*
X14748095Y45647619D01*
X14843333Y45695238D01*
X14890952Y45790476D01*
X14890952Y46171428D01*
X14843333Y46266666D01*
X14748095Y46314285D01*
X14557619Y46314285D01*
X14462380Y46266666D01*
X14414761Y46171428D01*
X14414761Y46076190D01*
X14890952Y45980952D01*
X13271904Y45695238D02*
X13176666Y45647619D01*
X12986190Y45647619D01*
X12890952Y45695238D01*
X12843333Y45790476D01*
X12843333Y45838095D01*
X12890952Y45933333D01*
X12986190Y45980952D01*
X13129047Y45980952D01*
X13224285Y46028571D01*
X13271904Y46123809D01*
X13271904Y46171428D01*
X13224285Y46266666D01*
X13129047Y46314285D01*
X12986190Y46314285D01*
X12890952Y46266666D01*
X12271904Y45647619D02*
X12367142Y45695238D01*
X12414761Y45742857D01*
X12462380Y45838095D01*
X12462380Y46123809D01*
X12414761Y46219047D01*
X12367142Y46266666D01*
X12271904Y46314285D01*
X12129047Y46314285D01*
X12033809Y46266666D01*
X11986190Y46219047D01*
X11938571Y46123809D01*
X11938571Y45838095D01*
X11986190Y45742857D01*
X12033809Y45695238D01*
X12129047Y45647619D01*
X12271904Y45647619D01*
X11510000Y45647619D02*
X11510000Y46314285D01*
X11510000Y46219047D02*
X11462380Y46266666D01*
X11367142Y46314285D01*
X11224285Y46314285D01*
X11129047Y46266666D01*
X11081428Y46171428D01*
X11081428Y45647619D01*
X11081428Y46171428D02*
X11033809Y46266666D01*
X10938571Y46314285D01*
X10795714Y46314285D01*
X10700476Y46266666D01*
X10652857Y46171428D01*
X10652857Y45647619D01*
X9795714Y45695238D02*
X9890952Y45647619D01*
X10081428Y45647619D01*
X10176666Y45695238D01*
X10224285Y45790476D01*
X10224285Y46171428D01*
X10176666Y46266666D01*
X10081428Y46314285D01*
X9890952Y46314285D01*
X9795714Y46266666D01*
X9748095Y46171428D01*
X9748095Y46076190D01*
X10224285Y45980952D01*
X8605238Y45695238D02*
X8462380Y45647619D01*
X8224285Y45647619D01*
X8129047Y45695238D01*
X8081428Y45742857D01*
X8033809Y45838095D01*
X8033809Y45933333D01*
X8081428Y46028571D01*
X8129047Y46076190D01*
X8224285Y46123809D01*
X8414761Y46171428D01*
X8510000Y46219047D01*
X8557619Y46266666D01*
X8605238Y46361904D01*
X8605238Y46457142D01*
X8557619Y46552380D01*
X8510000Y46600000D01*
X8414761Y46647619D01*
X8176666Y46647619D01*
X8033809Y46600000D01*
X7605238Y45647619D02*
X7605238Y46647619D01*
X7271904Y45933333D01*
X6938571Y46647619D01*
X6938571Y45647619D01*
X6462380Y45647619D02*
X6462380Y46647619D01*
X6224285Y46647619D01*
X6081428Y46600000D01*
X5986190Y46504761D01*
X5938571Y46409523D01*
X5890952Y46219047D01*
X5890952Y46076190D01*
X5938571Y45885714D01*
X5986190Y45790476D01*
X6081428Y45695238D01*
X6224285Y45647619D01*
X6462380Y45647619D01*
X26367142Y44045238D02*
X26462380Y43997619D01*
X26652857Y43997619D01*
X26748095Y44045238D01*
X26795714Y44092857D01*
X26843333Y44188095D01*
X26843333Y44473809D01*
X26795714Y44569047D01*
X26748095Y44616666D01*
X26652857Y44664285D01*
X26462380Y44664285D01*
X26367142Y44616666D01*
X25795714Y43997619D02*
X25890952Y44045238D01*
X25938571Y44092857D01*
X25986190Y44188095D01*
X25986190Y44473809D01*
X25938571Y44569047D01*
X25890952Y44616666D01*
X25795714Y44664285D01*
X25652857Y44664285D01*
X25557619Y44616666D01*
X25510000Y44569047D01*
X25462380Y44473809D01*
X25462380Y44188095D01*
X25510000Y44092857D01*
X25557619Y44045238D01*
X25652857Y43997619D01*
X25795714Y43997619D01*
X25033809Y43997619D02*
X25033809Y44664285D01*
X25033809Y44569047D02*
X24986190Y44616666D01*
X24890952Y44664285D01*
X24748095Y44664285D01*
X24652857Y44616666D01*
X24605238Y44521428D01*
X24605238Y43997619D01*
X24605238Y44521428D02*
X24557619Y44616666D01*
X24462380Y44664285D01*
X24319523Y44664285D01*
X24224285Y44616666D01*
X24176666Y44521428D01*
X24176666Y43997619D01*
X23700476Y44664285D02*
X23700476Y43664285D01*
X23700476Y44616666D02*
X23605238Y44664285D01*
X23414761Y44664285D01*
X23319523Y44616666D01*
X23271904Y44569047D01*
X23224285Y44473809D01*
X23224285Y44188095D01*
X23271904Y44092857D01*
X23319523Y44045238D01*
X23414761Y43997619D01*
X23605238Y43997619D01*
X23700476Y44045238D01*
X22652857Y43997619D02*
X22748095Y44045238D01*
X22795714Y44092857D01*
X22843333Y44188095D01*
X22843333Y44473809D01*
X22795714Y44569047D01*
X22748095Y44616666D01*
X22652857Y44664285D01*
X22510000Y44664285D01*
X22414761Y44616666D01*
X22367142Y44569047D01*
X22319523Y44473809D01*
X22319523Y44188095D01*
X22367142Y44092857D01*
X22414761Y44045238D01*
X22510000Y43997619D01*
X22652857Y43997619D01*
X21890952Y44664285D02*
X21890952Y43997619D01*
X21890952Y44569047D02*
X21843333Y44616666D01*
X21748095Y44664285D01*
X21605238Y44664285D01*
X21510000Y44616666D01*
X21462380Y44521428D01*
X21462380Y43997619D01*
X20605238Y44045238D02*
X20700476Y43997619D01*
X20890952Y43997619D01*
X20986190Y44045238D01*
X21033809Y44140476D01*
X21033809Y44521428D01*
X20986190Y44616666D01*
X20890952Y44664285D01*
X20700476Y44664285D01*
X20605238Y44616666D01*
X20557619Y44521428D01*
X20557619Y44426190D01*
X21033809Y44330952D01*
X20129047Y44664285D02*
X20129047Y43997619D01*
X20129047Y44569047D02*
X20081428Y44616666D01*
X19986190Y44664285D01*
X19843333Y44664285D01*
X19748095Y44616666D01*
X19700476Y44521428D01*
X19700476Y43997619D01*
X19367142Y44664285D02*
X18986190Y44664285D01*
X19224285Y44997619D02*
X19224285Y44140476D01*
X19176666Y44045238D01*
X19081428Y43997619D01*
X18986190Y43997619D01*
X18700476Y44045238D02*
X18605238Y43997619D01*
X18414761Y43997619D01*
X18319523Y44045238D01*
X18271904Y44140476D01*
X18271904Y44188095D01*
X18319523Y44283333D01*
X18414761Y44330952D01*
X18557619Y44330952D01*
X18652857Y44378571D01*
X18700476Y44473809D01*
X18700476Y44521428D01*
X18652857Y44616666D01*
X18557619Y44664285D01*
X18414761Y44664285D01*
X18319523Y44616666D01*
X16938571Y43997619D02*
X17033809Y44045238D01*
X17081428Y44092857D01*
X17129047Y44188095D01*
X17129047Y44473809D01*
X17081428Y44569047D01*
X17033809Y44616666D01*
X16938571Y44664285D01*
X16795714Y44664285D01*
X16700476Y44616666D01*
X16652857Y44569047D01*
X16605238Y44473809D01*
X16605238Y44188095D01*
X16652857Y44092857D01*
X16700476Y44045238D01*
X16795714Y43997619D01*
X16938571Y43997619D01*
X16176666Y44664285D02*
X16176666Y43997619D01*
X16176666Y44569047D02*
X16129047Y44616666D01*
X16033809Y44664285D01*
X15890952Y44664285D01*
X15795714Y44616666D01*
X15748095Y44521428D01*
X15748095Y43997619D01*
X14652857Y44664285D02*
X14271904Y44664285D01*
X14510000Y44997619D02*
X14510000Y44140476D01*
X14462380Y44045238D01*
X14367142Y43997619D01*
X14271904Y43997619D01*
X13938571Y43997619D02*
X13938571Y44997619D01*
X13510000Y43997619D02*
X13510000Y44521428D01*
X13557619Y44616666D01*
X13652857Y44664285D01*
X13795714Y44664285D01*
X13890952Y44616666D01*
X13938571Y44569047D01*
X12652857Y44045238D02*
X12748095Y43997619D01*
X12938571Y43997619D01*
X13033809Y44045238D01*
X13081428Y44140476D01*
X13081428Y44521428D01*
X13033809Y44616666D01*
X12938571Y44664285D01*
X12748095Y44664285D01*
X12652857Y44616666D01*
X12605238Y44521428D01*
X12605238Y44426190D01*
X13081428Y44330952D01*
X11414761Y43997619D02*
X11414761Y44997619D01*
X11414761Y44616666D02*
X11319523Y44664285D01*
X11129047Y44664285D01*
X11033809Y44616666D01*
X10986190Y44569047D01*
X10938571Y44473809D01*
X10938571Y44188095D01*
X10986190Y44092857D01*
X11033809Y44045238D01*
X11129047Y43997619D01*
X11319523Y43997619D01*
X11414761Y44045238D01*
X10367142Y43997619D02*
X10462380Y44045238D01*
X10510000Y44092857D01*
X10557619Y44188095D01*
X10557619Y44473809D01*
X10510000Y44569047D01*
X10462380Y44616666D01*
X10367142Y44664285D01*
X10224285Y44664285D01*
X10129047Y44616666D01*
X10081428Y44569047D01*
X10033809Y44473809D01*
X10033809Y44188095D01*
X10081428Y44092857D01*
X10129047Y44045238D01*
X10224285Y43997619D01*
X10367142Y43997619D01*
X9748095Y44664285D02*
X9367142Y44664285D01*
X9605238Y44997619D02*
X9605238Y44140476D01*
X9557619Y44045238D01*
X9462380Y43997619D01*
X9367142Y43997619D01*
X9176666Y44664285D02*
X8795714Y44664285D01*
X9033809Y44997619D02*
X9033809Y44140476D01*
X8986190Y44045238D01*
X8890952Y43997619D01*
X8795714Y43997619D01*
X8319523Y43997619D02*
X8414761Y44045238D01*
X8462380Y44092857D01*
X8510000Y44188095D01*
X8510000Y44473809D01*
X8462380Y44569047D01*
X8414761Y44616666D01*
X8319523Y44664285D01*
X8176666Y44664285D01*
X8081428Y44616666D01*
X8033809Y44569047D01*
X7986190Y44473809D01*
X7986190Y44188095D01*
X8033809Y44092857D01*
X8081428Y44045238D01*
X8176666Y43997619D01*
X8319523Y43997619D01*
X7557619Y43997619D02*
X7557619Y44664285D01*
X7557619Y44569047D02*
X7510000Y44616666D01*
X7414761Y44664285D01*
X7271904Y44664285D01*
X7176666Y44616666D01*
X7129047Y44521428D01*
X7129047Y43997619D01*
X7129047Y44521428D02*
X7081428Y44616666D01*
X6986190Y44664285D01*
X6843333Y44664285D01*
X6748095Y44616666D01*
X6700476Y44521428D01*
X6700476Y43997619D01*
X6224285Y44092857D02*
X6176666Y44045238D01*
X6224285Y43997619D01*
X6271904Y44045238D01*
X6224285Y44092857D01*
X6224285Y43997619D01*
X23105238Y42347619D02*
X23105238Y43347619D01*
X22533809Y42347619D01*
X22533809Y43347619D01*
X21914761Y42347619D02*
X22010000Y42395238D01*
X22057619Y42442857D01*
X22105238Y42538095D01*
X22105238Y42823809D01*
X22057619Y42919047D01*
X22010000Y42966666D01*
X21914761Y43014285D01*
X21771904Y43014285D01*
X21676666Y42966666D01*
X21629047Y42919047D01*
X21581428Y42823809D01*
X21581428Y42538095D01*
X21629047Y42442857D01*
X21676666Y42395238D01*
X21771904Y42347619D01*
X21914761Y42347619D01*
X21152857Y42347619D02*
X21152857Y43347619D01*
X21152857Y42966666D02*
X21057619Y43014285D01*
X20867142Y43014285D01*
X20771904Y42966666D01*
X20724285Y42919047D01*
X20676666Y42823809D01*
X20676666Y42538095D01*
X20724285Y42442857D01*
X20771904Y42395238D01*
X20867142Y42347619D01*
X21057619Y42347619D01*
X21152857Y42395238D01*
X20105238Y42347619D02*
X20200476Y42395238D01*
X20248095Y42442857D01*
X20295714Y42538095D01*
X20295714Y42823809D01*
X20248095Y42919047D01*
X20200476Y42966666D01*
X20105238Y43014285D01*
X19962380Y43014285D01*
X19867142Y42966666D01*
X19819523Y42919047D01*
X19771904Y42823809D01*
X19771904Y42538095D01*
X19819523Y42442857D01*
X19867142Y42395238D01*
X19962380Y42347619D01*
X20105238Y42347619D01*
X18914761Y42347619D02*
X18914761Y43347619D01*
X18914761Y42395238D02*
X19010000Y42347619D01*
X19200476Y42347619D01*
X19295714Y42395238D01*
X19343333Y42442857D01*
X19390952Y42538095D01*
X19390952Y42823809D01*
X19343333Y42919047D01*
X19295714Y42966666D01*
X19200476Y43014285D01*
X19010000Y43014285D01*
X18914761Y42966666D01*
X18533809Y43014285D02*
X18295714Y42347619D01*
X18057619Y43014285D02*
X18295714Y42347619D01*
X18390952Y42109523D01*
X18438571Y42061904D01*
X18533809Y42014285D01*
X17010000Y43014285D02*
X16819523Y42347619D01*
X16629047Y42823809D01*
X16438571Y42347619D01*
X16248095Y43014285D01*
X15867142Y42347619D02*
X15867142Y43014285D01*
X15867142Y43347619D02*
X15914761Y43300000D01*
X15867142Y43252380D01*
X15819523Y43300000D01*
X15867142Y43347619D01*
X15867142Y43252380D01*
X15248095Y42347619D02*
X15343333Y42395238D01*
X15390952Y42490476D01*
X15390952Y43347619D01*
X14724285Y42347619D02*
X14819523Y42395238D01*
X14867142Y42490476D01*
X14867142Y43347619D01*
X13581428Y42347619D02*
X13581428Y43347619D01*
X13486190Y42728571D02*
X13200476Y42347619D01*
X13200476Y43014285D02*
X13581428Y42633333D01*
X12771904Y43014285D02*
X12771904Y42347619D01*
X12771904Y42919047D02*
X12724285Y42966666D01*
X12629047Y43014285D01*
X12486190Y43014285D01*
X12390952Y42966666D01*
X12343333Y42871428D01*
X12343333Y42347619D01*
X11724285Y42347619D02*
X11819523Y42395238D01*
X11867142Y42442857D01*
X11914761Y42538095D01*
X11914761Y42823809D01*
X11867142Y42919047D01*
X11819523Y42966666D01*
X11724285Y43014285D01*
X11581428Y43014285D01*
X11486190Y42966666D01*
X11438571Y42919047D01*
X11390952Y42823809D01*
X11390952Y42538095D01*
X11438571Y42442857D01*
X11486190Y42395238D01*
X11581428Y42347619D01*
X11724285Y42347619D01*
X11057619Y43014285D02*
X10867142Y42347619D01*
X10676666Y42823809D01*
X10486190Y42347619D01*
X10295714Y43014285D01*
X9914761Y42442857D02*
X9867142Y42395238D01*
X9914761Y42347619D01*
X9962380Y42395238D01*
X9914761Y42442857D01*
X9914761Y42347619D01*
D11*
X19360000Y29720000D02*
X18430000Y29720000D01*
X16200000Y29720000D02*
X17130000Y29720000D01*
X16200000Y29720000D02*
X16200000Y31880000D01*
X19360000Y29720000D02*
X19360000Y31180000D01*
X18007064Y40105000D02*
X17552936Y40105000D01*
X18007064Y38635000D02*
X17552936Y38635000D01*
X19360000Y34800000D02*
X18430000Y34800000D01*
X16200000Y34800000D02*
X17130000Y34800000D01*
X16200000Y34800000D02*
X16200000Y36960000D01*
X19360000Y34800000D02*
X19360000Y36260000D01*
D10*
X14944404Y31027619D02*
X14944404Y30218095D01*
X14896785Y30122857D01*
X14849166Y30075238D01*
X14753928Y30027619D01*
X14563452Y30027619D01*
X14468214Y30075238D01*
X14420595Y30122857D01*
X14372976Y30218095D01*
X14372976Y31027619D01*
X13468214Y31027619D02*
X13658690Y31027619D01*
X13753928Y30980000D01*
X13801547Y30932380D01*
X13896785Y30789523D01*
X13944404Y30599047D01*
X13944404Y30218095D01*
X13896785Y30122857D01*
X13849166Y30075238D01*
X13753928Y30027619D01*
X13563452Y30027619D01*
X13468214Y30075238D01*
X13420595Y30122857D01*
X13372976Y30218095D01*
X13372976Y30456190D01*
X13420595Y30551428D01*
X13468214Y30599047D01*
X13563452Y30646666D01*
X13753928Y30646666D01*
X13849166Y30599047D01*
X13896785Y30551428D01*
X13944404Y30456190D01*
X14332976Y38917619D02*
X14666309Y39393809D01*
X14904404Y38917619D02*
X14904404Y39917619D01*
X14523452Y39917619D01*
X14428214Y39870000D01*
X14380595Y39822380D01*
X14332976Y39727142D01*
X14332976Y39584285D01*
X14380595Y39489047D01*
X14428214Y39441428D01*
X14523452Y39393809D01*
X14904404Y39393809D01*
X13380595Y38917619D02*
X13952023Y38917619D01*
X13666309Y38917619D02*
X13666309Y39917619D01*
X13761547Y39774761D01*
X13856785Y39679523D01*
X13952023Y39631904D01*
X12809166Y39489047D02*
X12904404Y39536666D01*
X12952023Y39584285D01*
X12999642Y39679523D01*
X12999642Y39727142D01*
X12952023Y39822380D01*
X12904404Y39870000D01*
X12809166Y39917619D01*
X12618690Y39917619D01*
X12523452Y39870000D01*
X12475833Y39822380D01*
X12428214Y39727142D01*
X12428214Y39679523D01*
X12475833Y39584285D01*
X12523452Y39536666D01*
X12618690Y39489047D01*
X12809166Y39489047D01*
X12904404Y39441428D01*
X12952023Y39393809D01*
X12999642Y39298571D01*
X12999642Y39108095D01*
X12952023Y39012857D01*
X12904404Y38965238D01*
X12809166Y38917619D01*
X12618690Y38917619D01*
X12523452Y38965238D01*
X12475833Y39012857D01*
X12428214Y39108095D01*
X12428214Y39298571D01*
X12475833Y39393809D01*
X12523452Y39441428D01*
X12618690Y39489047D01*
X14904404Y35107619D02*
X14904404Y36107619D01*
X14666309Y36107619D01*
X14523452Y36060000D01*
X14428214Y35964761D01*
X14380595Y35869523D01*
X14332976Y35679047D01*
X14332976Y35536190D01*
X14380595Y35345714D01*
X14428214Y35250476D01*
X14523452Y35155238D01*
X14666309Y35107619D01*
X14904404Y35107619D01*
X13380595Y35107619D02*
X13952023Y35107619D01*
X13666309Y35107619D02*
X13666309Y36107619D01*
X13761547Y35964761D01*
X13856785Y35869523D01*
X13952023Y35821904D01*
X13047261Y36107619D02*
X12428214Y36107619D01*
X12761547Y35726666D01*
X12618690Y35726666D01*
X12523452Y35679047D01*
X12475833Y35631428D01*
X12428214Y35536190D01*
X12428214Y35298095D01*
X12475833Y35202857D01*
X12523452Y35155238D01*
X12618690Y35107619D01*
X12904404Y35107619D01*
X12999642Y35155238D01*
X13047261Y35202857D01*
X11809166Y36107619D02*
X11713928Y36107619D01*
X11618690Y36060000D01*
X11571071Y36012380D01*
X11523452Y35917142D01*
X11475833Y35726666D01*
X11475833Y35488571D01*
X11523452Y35298095D01*
X11571071Y35202857D01*
X11618690Y35155238D01*
X11713928Y35107619D01*
X11809166Y35107619D01*
X11904404Y35155238D01*
X11952023Y35202857D01*
X11999642Y35298095D01*
X12047261Y35488571D01*
X12047261Y35726666D01*
X11999642Y35917142D01*
X11952023Y36012380D01*
X11904404Y36060000D01*
X11809166Y36107619D01*
%LPC*%
D12*
X17780000Y29480000D03*
X18730000Y31480000D03*
X16830000Y31480000D03*
G36*
G01*
X17380000Y39820001D02*
X17380000Y38919999D01*
G75*
G02*
X17130001Y38670000I-249999J0D01*
G01*
X16429999Y38670000D01*
G75*
G02*
X16180000Y38919999I0J249999D01*
G01*
X16180000Y39820001D01*
G75*
G02*
X16429999Y40070000I249999J0D01*
G01*
X17130001Y40070000D01*
G75*
G02*
X17380000Y39820001I0J-249999D01*
G01*
G37*
G36*
G01*
X19380000Y39820001D02*
X19380000Y38919999D01*
G75*
G02*
X19130001Y38670000I-249999J0D01*
G01*
X18429999Y38670000D01*
G75*
G02*
X18180000Y38919999I0J249999D01*
G01*
X18180000Y39820001D01*
G75*
G02*
X18429999Y40070000I249999J0D01*
G01*
X19130001Y40070000D01*
G75*
G02*
X19380000Y39820001I0J-249999D01*
G01*
G37*
X17780000Y34560000D03*
X18730000Y36560000D03*
X16830000Y36560000D03*
D13*
X38998026Y-46618026D03*
D14*
G36*
X35929182Y-44821974D02*
G01*
X37201974Y-43549182D01*
X38474766Y-44821974D01*
X37201974Y-46094766D01*
X35929182Y-44821974D01*
G37*
D13*
X33918026Y-46618026D03*
D14*
G36*
X30849182Y-44821974D02*
G01*
X32121974Y-43549182D01*
X33394766Y-44821974D01*
X32121974Y-46094766D01*
X30849182Y-44821974D01*
G37*
D13*
X28838026Y-46618026D03*
D14*
G36*
X25769182Y-44821974D02*
G01*
X27041974Y-43549182D01*
X28314766Y-44821974D01*
X27041974Y-46094766D01*
X25769182Y-44821974D01*
G37*
D13*
X23758026Y-46618026D03*
D14*
G36*
X20689182Y-44821974D02*
G01*
X21961974Y-43549182D01*
X23234766Y-44821974D01*
X21961974Y-46094766D01*
X20689182Y-44821974D01*
G37*
D13*
X18678026Y-46618026D03*
D14*
G36*
X15609182Y-44821974D02*
G01*
X16881974Y-43549182D01*
X18154766Y-44821974D01*
X16881974Y-46094766D01*
X15609182Y-44821974D01*
G37*
D13*
X13598026Y-46618026D03*
D14*
G36*
X10529182Y-44821974D02*
G01*
X11801974Y-43549182D01*
X13074766Y-44821974D01*
X11801974Y-46094766D01*
X10529182Y-44821974D01*
G37*
D13*
X8518026Y-46618026D03*
D14*
G36*
X5449182Y-44821974D02*
G01*
X6721974Y-43549182D01*
X7994766Y-44821974D01*
X6721974Y-46094766D01*
X5449182Y-44821974D01*
G37*
D13*
X3438026Y-46618026D03*
D14*
G36*
X369182Y-44821974D02*
G01*
X1641974Y-43549182D01*
X2914766Y-44821974D01*
X1641974Y-46094766D01*
X369182Y-44821974D01*
G37*
D13*
X-1641974Y-46618026D03*
D14*
G36*
X-4710818Y-44821974D02*
G01*
X-3438026Y-43549182D01*
X-2165234Y-44821974D01*
X-3438026Y-46094766D01*
X-4710818Y-44821974D01*
G37*
D13*
X-6721974Y-46618026D03*
D14*
G36*
X-9790818Y-44821974D02*
G01*
X-8518026Y-43549182D01*
X-7245234Y-44821974D01*
X-8518026Y-46094766D01*
X-9790818Y-44821974D01*
G37*
D13*
X-11801974Y-46618026D03*
D14*
G36*
X-14870818Y-44821974D02*
G01*
X-13598026Y-43549182D01*
X-12325234Y-44821974D01*
X-13598026Y-46094766D01*
X-14870818Y-44821974D01*
G37*
D13*
X-16881974Y-46618026D03*
D14*
G36*
X-19950818Y-44821974D02*
G01*
X-18678026Y-43549182D01*
X-17405234Y-44821974D01*
X-18678026Y-46094766D01*
X-19950818Y-44821974D01*
G37*
D13*
X-21961974Y-46618026D03*
D14*
G36*
X-25030818Y-44821974D02*
G01*
X-23758026Y-43549182D01*
X-22485234Y-44821974D01*
X-23758026Y-46094766D01*
X-25030818Y-44821974D01*
G37*
D13*
X-27041974Y-46618026D03*
D14*
G36*
X-30110818Y-44821974D02*
G01*
X-28838026Y-43549182D01*
X-27565234Y-44821974D01*
X-28838026Y-46094766D01*
X-30110818Y-44821974D01*
G37*
D13*
X-32121974Y-46618026D03*
D14*
G36*
X-35190818Y-44821974D02*
G01*
X-33918026Y-43549182D01*
X-32645234Y-44821974D01*
X-33918026Y-46094766D01*
X-35190818Y-44821974D01*
G37*
D13*
X-37201974Y-46618026D03*
D14*
G36*
X-40270818Y-44821974D02*
G01*
X-38998026Y-43549182D01*
X-37725234Y-44821974D01*
X-38998026Y-46094766D01*
X-40270818Y-44821974D01*
G37*
D13*
X38998026Y-41538026D03*
D14*
G36*
X35929182Y-39741974D02*
G01*
X37201974Y-38469182D01*
X38474766Y-39741974D01*
X37201974Y-41014766D01*
X35929182Y-39741974D01*
G37*
D13*
X33918026Y-41538026D03*
D14*
G36*
X30849182Y-39741974D02*
G01*
X32121974Y-38469182D01*
X33394766Y-39741974D01*
X32121974Y-41014766D01*
X30849182Y-39741974D01*
G37*
D13*
X28838026Y-41538026D03*
D14*
G36*
X25769182Y-39741974D02*
G01*
X27041974Y-38469182D01*
X28314766Y-39741974D01*
X27041974Y-41014766D01*
X25769182Y-39741974D01*
G37*
D13*
X23758026Y-41538026D03*
D14*
G36*
X20689182Y-39741974D02*
G01*
X21961974Y-38469182D01*
X23234766Y-39741974D01*
X21961974Y-41014766D01*
X20689182Y-39741974D01*
G37*
D13*
X18678026Y-41538026D03*
D14*
G36*
X15609182Y-39741974D02*
G01*
X16881974Y-38469182D01*
X18154766Y-39741974D01*
X16881974Y-41014766D01*
X15609182Y-39741974D01*
G37*
D13*
X13598026Y-41538026D03*
D14*
G36*
X10529182Y-39741974D02*
G01*
X11801974Y-38469182D01*
X13074766Y-39741974D01*
X11801974Y-41014766D01*
X10529182Y-39741974D01*
G37*
D13*
X8518026Y-41538026D03*
D14*
G36*
X5449182Y-39741974D02*
G01*
X6721974Y-38469182D01*
X7994766Y-39741974D01*
X6721974Y-41014766D01*
X5449182Y-39741974D01*
G37*
D13*
X3438026Y-41538026D03*
D14*
G36*
X369182Y-39741974D02*
G01*
X1641974Y-38469182D01*
X2914766Y-39741974D01*
X1641974Y-41014766D01*
X369182Y-39741974D01*
G37*
D13*
X-1641974Y-41538026D03*
D14*
G36*
X-4710818Y-39741974D02*
G01*
X-3438026Y-38469182D01*
X-2165234Y-39741974D01*
X-3438026Y-41014766D01*
X-4710818Y-39741974D01*
G37*
D13*
X-6721974Y-41538026D03*
D14*
G36*
X-9790818Y-39741974D02*
G01*
X-8518026Y-38469182D01*
X-7245234Y-39741974D01*
X-8518026Y-41014766D01*
X-9790818Y-39741974D01*
G37*
D13*
X-11801974Y-41538026D03*
D14*
G36*
X-14870818Y-39741974D02*
G01*
X-13598026Y-38469182D01*
X-12325234Y-39741974D01*
X-13598026Y-41014766D01*
X-14870818Y-39741974D01*
G37*
D13*
X-16881974Y-41538026D03*
D14*
G36*
X-19950818Y-39741974D02*
G01*
X-18678026Y-38469182D01*
X-17405234Y-39741974D01*
X-18678026Y-41014766D01*
X-19950818Y-39741974D01*
G37*
D13*
X-21961974Y-41538026D03*
D14*
G36*
X-25030818Y-39741974D02*
G01*
X-23758026Y-38469182D01*
X-22485234Y-39741974D01*
X-23758026Y-41014766D01*
X-25030818Y-39741974D01*
G37*
D13*
X-27041974Y-41538026D03*
D14*
G36*
X-30110818Y-39741974D02*
G01*
X-28838026Y-38469182D01*
X-27565234Y-39741974D01*
X-28838026Y-41014766D01*
X-30110818Y-39741974D01*
G37*
D13*
X-32121974Y-41538026D03*
D14*
G36*
X-35190818Y-39741974D02*
G01*
X-33918026Y-38469182D01*
X-32645234Y-39741974D01*
X-33918026Y-41014766D01*
X-35190818Y-39741974D01*
G37*
D13*
X-37201974Y-41538026D03*
D14*
G36*
X-40270818Y-39741974D02*
G01*
X-38998026Y-38469182D01*
X-37725234Y-39741974D01*
X-38998026Y-41014766D01*
X-40270818Y-39741974D01*
G37*
D13*
X38998026Y-36458026D03*
D14*
G36*
X35929182Y-34661974D02*
G01*
X37201974Y-33389182D01*
X38474766Y-34661974D01*
X37201974Y-35934766D01*
X35929182Y-34661974D01*
G37*
D13*
X33918026Y-36458026D03*
D14*
G36*
X30849182Y-34661974D02*
G01*
X32121974Y-33389182D01*
X33394766Y-34661974D01*
X32121974Y-35934766D01*
X30849182Y-34661974D01*
G37*
D13*
X28838026Y-36458026D03*
D14*
G36*
X25769182Y-34661974D02*
G01*
X27041974Y-33389182D01*
X28314766Y-34661974D01*
X27041974Y-35934766D01*
X25769182Y-34661974D01*
G37*
D13*
X23758026Y-36458026D03*
D14*
G36*
X20689182Y-34661974D02*
G01*
X21961974Y-33389182D01*
X23234766Y-34661974D01*
X21961974Y-35934766D01*
X20689182Y-34661974D01*
G37*
D13*
X18678026Y-36458026D03*
D14*
G36*
X15609182Y-34661974D02*
G01*
X16881974Y-33389182D01*
X18154766Y-34661974D01*
X16881974Y-35934766D01*
X15609182Y-34661974D01*
G37*
D13*
X13598026Y-36458026D03*
D14*
G36*
X10529182Y-34661974D02*
G01*
X11801974Y-33389182D01*
X13074766Y-34661974D01*
X11801974Y-35934766D01*
X10529182Y-34661974D01*
G37*
D13*
X8518026Y-36458026D03*
D14*
G36*
X5449182Y-34661974D02*
G01*
X6721974Y-33389182D01*
X7994766Y-34661974D01*
X6721974Y-35934766D01*
X5449182Y-34661974D01*
G37*
D13*
X3438026Y-36458026D03*
D14*
G36*
X369182Y-34661974D02*
G01*
X1641974Y-33389182D01*
X2914766Y-34661974D01*
X1641974Y-35934766D01*
X369182Y-34661974D01*
G37*
D13*
X-1641974Y-36458026D03*
D14*
G36*
X-4710818Y-34661974D02*
G01*
X-3438026Y-33389182D01*
X-2165234Y-34661974D01*
X-3438026Y-35934766D01*
X-4710818Y-34661974D01*
G37*
D13*
X-6721974Y-36458026D03*
D14*
G36*
X-9790818Y-34661974D02*
G01*
X-8518026Y-33389182D01*
X-7245234Y-34661974D01*
X-8518026Y-35934766D01*
X-9790818Y-34661974D01*
G37*
D13*
X-11801974Y-36458026D03*
D14*
G36*
X-14870818Y-34661974D02*
G01*
X-13598026Y-33389182D01*
X-12325234Y-34661974D01*
X-13598026Y-35934766D01*
X-14870818Y-34661974D01*
G37*
D13*
X-16881974Y-36458026D03*
D14*
G36*
X-19950818Y-34661974D02*
G01*
X-18678026Y-33389182D01*
X-17405234Y-34661974D01*
X-18678026Y-35934766D01*
X-19950818Y-34661974D01*
G37*
D13*
X-21961974Y-36458026D03*
D14*
G36*
X-25030818Y-34661974D02*
G01*
X-23758026Y-33389182D01*
X-22485234Y-34661974D01*
X-23758026Y-35934766D01*
X-25030818Y-34661974D01*
G37*
D13*
X-27041974Y-36458026D03*
D14*
G36*
X-30110818Y-34661974D02*
G01*
X-28838026Y-33389182D01*
X-27565234Y-34661974D01*
X-28838026Y-35934766D01*
X-30110818Y-34661974D01*
G37*
D13*
X-32121974Y-36458026D03*
D14*
G36*
X-35190818Y-34661974D02*
G01*
X-33918026Y-33389182D01*
X-32645234Y-34661974D01*
X-33918026Y-35934766D01*
X-35190818Y-34661974D01*
G37*
D13*
X-37201974Y-36458026D03*
D14*
G36*
X-40270818Y-34661974D02*
G01*
X-38998026Y-33389182D01*
X-37725234Y-34661974D01*
X-38998026Y-35934766D01*
X-40270818Y-34661974D01*
G37*
D13*
X38998026Y-31378026D03*
D14*
G36*
X35929182Y-29581974D02*
G01*
X37201974Y-28309182D01*
X38474766Y-29581974D01*
X37201974Y-30854766D01*
X35929182Y-29581974D01*
G37*
D13*
X33918026Y-31378026D03*
D14*
G36*
X30849182Y-29581974D02*
G01*
X32121974Y-28309182D01*
X33394766Y-29581974D01*
X32121974Y-30854766D01*
X30849182Y-29581974D01*
G37*
D13*
X28838026Y-31378026D03*
D14*
G36*
X25769182Y-29581974D02*
G01*
X27041974Y-28309182D01*
X28314766Y-29581974D01*
X27041974Y-30854766D01*
X25769182Y-29581974D01*
G37*
D13*
X23758026Y-31378026D03*
D14*
G36*
X20689182Y-29581974D02*
G01*
X21961974Y-28309182D01*
X23234766Y-29581974D01*
X21961974Y-30854766D01*
X20689182Y-29581974D01*
G37*
D13*
X18678026Y-31378026D03*
D14*
G36*
X15609182Y-29581974D02*
G01*
X16881974Y-28309182D01*
X18154766Y-29581974D01*
X16881974Y-30854766D01*
X15609182Y-29581974D01*
G37*
D13*
X13598026Y-31378026D03*
D14*
G36*
X10529182Y-29581974D02*
G01*
X11801974Y-28309182D01*
X13074766Y-29581974D01*
X11801974Y-30854766D01*
X10529182Y-29581974D01*
G37*
D13*
X8518026Y-31378026D03*
D14*
G36*
X5449182Y-29581974D02*
G01*
X6721974Y-28309182D01*
X7994766Y-29581974D01*
X6721974Y-30854766D01*
X5449182Y-29581974D01*
G37*
D13*
X3438026Y-31378026D03*
D14*
G36*
X369182Y-29581974D02*
G01*
X1641974Y-28309182D01*
X2914766Y-29581974D01*
X1641974Y-30854766D01*
X369182Y-29581974D01*
G37*
D13*
X-1641974Y-31378026D03*
D14*
G36*
X-4710818Y-29581974D02*
G01*
X-3438026Y-28309182D01*
X-2165234Y-29581974D01*
X-3438026Y-30854766D01*
X-4710818Y-29581974D01*
G37*
D13*
X-6721974Y-31378026D03*
D14*
G36*
X-9790818Y-29581974D02*
G01*
X-8518026Y-28309182D01*
X-7245234Y-29581974D01*
X-8518026Y-30854766D01*
X-9790818Y-29581974D01*
G37*
D13*
X-11801974Y-31378026D03*
D14*
G36*
X-14870818Y-29581974D02*
G01*
X-13598026Y-28309182D01*
X-12325234Y-29581974D01*
X-13598026Y-30854766D01*
X-14870818Y-29581974D01*
G37*
D13*
X-16881974Y-31378026D03*
D14*
G36*
X-19950818Y-29581974D02*
G01*
X-18678026Y-28309182D01*
X-17405234Y-29581974D01*
X-18678026Y-30854766D01*
X-19950818Y-29581974D01*
G37*
D13*
X-21961974Y-31378026D03*
D14*
G36*
X-25030818Y-29581974D02*
G01*
X-23758026Y-28309182D01*
X-22485234Y-29581974D01*
X-23758026Y-30854766D01*
X-25030818Y-29581974D01*
G37*
D13*
X-27041974Y-31378026D03*
D14*
G36*
X-30110818Y-29581974D02*
G01*
X-28838026Y-28309182D01*
X-27565234Y-29581974D01*
X-28838026Y-30854766D01*
X-30110818Y-29581974D01*
G37*
D13*
X-32121974Y-31378026D03*
D14*
G36*
X-35190818Y-29581974D02*
G01*
X-33918026Y-28309182D01*
X-32645234Y-29581974D01*
X-33918026Y-30854766D01*
X-35190818Y-29581974D01*
G37*
D13*
X-37201974Y-31378026D03*
D14*
G36*
X-40270818Y-29581974D02*
G01*
X-38998026Y-28309182D01*
X-37725234Y-29581974D01*
X-38998026Y-30854766D01*
X-40270818Y-29581974D01*
G37*
D13*
X38998026Y-26298026D03*
D14*
G36*
X35929182Y-24501974D02*
G01*
X37201974Y-23229182D01*
X38474766Y-24501974D01*
X37201974Y-25774766D01*
X35929182Y-24501974D01*
G37*
D13*
X33918026Y-26298026D03*
D14*
G36*
X30849182Y-24501974D02*
G01*
X32121974Y-23229182D01*
X33394766Y-24501974D01*
X32121974Y-25774766D01*
X30849182Y-24501974D01*
G37*
D13*
X28838026Y-26298026D03*
D14*
G36*
X25769182Y-24501974D02*
G01*
X27041974Y-23229182D01*
X28314766Y-24501974D01*
X27041974Y-25774766D01*
X25769182Y-24501974D01*
G37*
D13*
X23758026Y-26298026D03*
D14*
G36*
X20689182Y-24501974D02*
G01*
X21961974Y-23229182D01*
X23234766Y-24501974D01*
X21961974Y-25774766D01*
X20689182Y-24501974D01*
G37*
D13*
X18678026Y-26298026D03*
D14*
G36*
X15609182Y-24501974D02*
G01*
X16881974Y-23229182D01*
X18154766Y-24501974D01*
X16881974Y-25774766D01*
X15609182Y-24501974D01*
G37*
D13*
X13598026Y-26298026D03*
D14*
G36*
X10529182Y-24501974D02*
G01*
X11801974Y-23229182D01*
X13074766Y-24501974D01*
X11801974Y-25774766D01*
X10529182Y-24501974D01*
G37*
D13*
X8518026Y-26298026D03*
D14*
G36*
X5449182Y-24501974D02*
G01*
X6721974Y-23229182D01*
X7994766Y-24501974D01*
X6721974Y-25774766D01*
X5449182Y-24501974D01*
G37*
D13*
X3438026Y-26298026D03*
D14*
G36*
X369182Y-24501974D02*
G01*
X1641974Y-23229182D01*
X2914766Y-24501974D01*
X1641974Y-25774766D01*
X369182Y-24501974D01*
G37*
D13*
X-1641974Y-26298026D03*
D14*
G36*
X-4710818Y-24501974D02*
G01*
X-3438026Y-23229182D01*
X-2165234Y-24501974D01*
X-3438026Y-25774766D01*
X-4710818Y-24501974D01*
G37*
D13*
X-6721974Y-26298026D03*
D14*
G36*
X-9790818Y-24501974D02*
G01*
X-8518026Y-23229182D01*
X-7245234Y-24501974D01*
X-8518026Y-25774766D01*
X-9790818Y-24501974D01*
G37*
D13*
X-11801974Y-26298026D03*
D14*
G36*
X-14870818Y-24501974D02*
G01*
X-13598026Y-23229182D01*
X-12325234Y-24501974D01*
X-13598026Y-25774766D01*
X-14870818Y-24501974D01*
G37*
D13*
X-16881974Y-26298026D03*
D14*
G36*
X-19950818Y-24501974D02*
G01*
X-18678026Y-23229182D01*
X-17405234Y-24501974D01*
X-18678026Y-25774766D01*
X-19950818Y-24501974D01*
G37*
D13*
X-21961974Y-26298026D03*
D14*
G36*
X-25030818Y-24501974D02*
G01*
X-23758026Y-23229182D01*
X-22485234Y-24501974D01*
X-23758026Y-25774766D01*
X-25030818Y-24501974D01*
G37*
D13*
X-27041974Y-26298026D03*
D14*
G36*
X-30110818Y-24501974D02*
G01*
X-28838026Y-23229182D01*
X-27565234Y-24501974D01*
X-28838026Y-25774766D01*
X-30110818Y-24501974D01*
G37*
D13*
X-32121974Y-26298026D03*
D14*
G36*
X-35190818Y-24501974D02*
G01*
X-33918026Y-23229182D01*
X-32645234Y-24501974D01*
X-33918026Y-25774766D01*
X-35190818Y-24501974D01*
G37*
D13*
X-37201974Y-26298026D03*
D14*
G36*
X-40270818Y-24501974D02*
G01*
X-38998026Y-23229182D01*
X-37725234Y-24501974D01*
X-38998026Y-25774766D01*
X-40270818Y-24501974D01*
G37*
D13*
X38998026Y-21218026D03*
D14*
G36*
X35929182Y-19421974D02*
G01*
X37201974Y-18149182D01*
X38474766Y-19421974D01*
X37201974Y-20694766D01*
X35929182Y-19421974D01*
G37*
D13*
X33918026Y-21218026D03*
D14*
G36*
X30849182Y-19421974D02*
G01*
X32121974Y-18149182D01*
X33394766Y-19421974D01*
X32121974Y-20694766D01*
X30849182Y-19421974D01*
G37*
D13*
X28838026Y-21218026D03*
D14*
G36*
X25769182Y-19421974D02*
G01*
X27041974Y-18149182D01*
X28314766Y-19421974D01*
X27041974Y-20694766D01*
X25769182Y-19421974D01*
G37*
D13*
X23758026Y-21218026D03*
D14*
G36*
X20689182Y-19421974D02*
G01*
X21961974Y-18149182D01*
X23234766Y-19421974D01*
X21961974Y-20694766D01*
X20689182Y-19421974D01*
G37*
D13*
X18678026Y-21218026D03*
D14*
G36*
X15609182Y-19421974D02*
G01*
X16881974Y-18149182D01*
X18154766Y-19421974D01*
X16881974Y-20694766D01*
X15609182Y-19421974D01*
G37*
D13*
X13598026Y-21218026D03*
D14*
G36*
X10529182Y-19421974D02*
G01*
X11801974Y-18149182D01*
X13074766Y-19421974D01*
X11801974Y-20694766D01*
X10529182Y-19421974D01*
G37*
D13*
X8518026Y-21218026D03*
D14*
G36*
X5449182Y-19421974D02*
G01*
X6721974Y-18149182D01*
X7994766Y-19421974D01*
X6721974Y-20694766D01*
X5449182Y-19421974D01*
G37*
D13*
X3438026Y-21218026D03*
D14*
G36*
X369182Y-19421974D02*
G01*
X1641974Y-18149182D01*
X2914766Y-19421974D01*
X1641974Y-20694766D01*
X369182Y-19421974D01*
G37*
D13*
X-1641974Y-21218026D03*
D14*
G36*
X-4710818Y-19421974D02*
G01*
X-3438026Y-18149182D01*
X-2165234Y-19421974D01*
X-3438026Y-20694766D01*
X-4710818Y-19421974D01*
G37*
D13*
X-6721974Y-21218026D03*
D14*
G36*
X-9790818Y-19421974D02*
G01*
X-8518026Y-18149182D01*
X-7245234Y-19421974D01*
X-8518026Y-20694766D01*
X-9790818Y-19421974D01*
G37*
D13*
X-11801974Y-21218026D03*
D14*
G36*
X-14870818Y-19421974D02*
G01*
X-13598026Y-18149182D01*
X-12325234Y-19421974D01*
X-13598026Y-20694766D01*
X-14870818Y-19421974D01*
G37*
D13*
X-16881974Y-21218026D03*
D14*
G36*
X-19950818Y-19421974D02*
G01*
X-18678026Y-18149182D01*
X-17405234Y-19421974D01*
X-18678026Y-20694766D01*
X-19950818Y-19421974D01*
G37*
D13*
X-21961974Y-21218026D03*
D14*
G36*
X-25030818Y-19421974D02*
G01*
X-23758026Y-18149182D01*
X-22485234Y-19421974D01*
X-23758026Y-20694766D01*
X-25030818Y-19421974D01*
G37*
D13*
X-27041974Y-21218026D03*
D14*
G36*
X-30110818Y-19421974D02*
G01*
X-28838026Y-18149182D01*
X-27565234Y-19421974D01*
X-28838026Y-20694766D01*
X-30110818Y-19421974D01*
G37*
D13*
X-32121974Y-21218026D03*
D14*
G36*
X-35190818Y-19421974D02*
G01*
X-33918026Y-18149182D01*
X-32645234Y-19421974D01*
X-33918026Y-20694766D01*
X-35190818Y-19421974D01*
G37*
D13*
X-37201974Y-21218026D03*
D14*
G36*
X-40270818Y-19421974D02*
G01*
X-38998026Y-18149182D01*
X-37725234Y-19421974D01*
X-38998026Y-20694766D01*
X-40270818Y-19421974D01*
G37*
D13*
X38998026Y-16138026D03*
D14*
G36*
X35929182Y-14341974D02*
G01*
X37201974Y-13069182D01*
X38474766Y-14341974D01*
X37201974Y-15614766D01*
X35929182Y-14341974D01*
G37*
D13*
X33918026Y-16138026D03*
D14*
G36*
X30849182Y-14341974D02*
G01*
X32121974Y-13069182D01*
X33394766Y-14341974D01*
X32121974Y-15614766D01*
X30849182Y-14341974D01*
G37*
D13*
X28838026Y-16138026D03*
D14*
G36*
X25769182Y-14341974D02*
G01*
X27041974Y-13069182D01*
X28314766Y-14341974D01*
X27041974Y-15614766D01*
X25769182Y-14341974D01*
G37*
D13*
X23758026Y-16138026D03*
D14*
G36*
X20689182Y-14341974D02*
G01*
X21961974Y-13069182D01*
X23234766Y-14341974D01*
X21961974Y-15614766D01*
X20689182Y-14341974D01*
G37*
D13*
X18678026Y-16138026D03*
D14*
G36*
X15609182Y-14341974D02*
G01*
X16881974Y-13069182D01*
X18154766Y-14341974D01*
X16881974Y-15614766D01*
X15609182Y-14341974D01*
G37*
D13*
X13598026Y-16138026D03*
D14*
G36*
X10529182Y-14341974D02*
G01*
X11801974Y-13069182D01*
X13074766Y-14341974D01*
X11801974Y-15614766D01*
X10529182Y-14341974D01*
G37*
D13*
X8518026Y-16138026D03*
D14*
G36*
X5449182Y-14341974D02*
G01*
X6721974Y-13069182D01*
X7994766Y-14341974D01*
X6721974Y-15614766D01*
X5449182Y-14341974D01*
G37*
D13*
X3438026Y-16138026D03*
D14*
G36*
X369182Y-14341974D02*
G01*
X1641974Y-13069182D01*
X2914766Y-14341974D01*
X1641974Y-15614766D01*
X369182Y-14341974D01*
G37*
D13*
X-1641974Y-16138026D03*
D14*
G36*
X-4710818Y-14341974D02*
G01*
X-3438026Y-13069182D01*
X-2165234Y-14341974D01*
X-3438026Y-15614766D01*
X-4710818Y-14341974D01*
G37*
D13*
X-6721974Y-16138026D03*
D14*
G36*
X-9790818Y-14341974D02*
G01*
X-8518026Y-13069182D01*
X-7245234Y-14341974D01*
X-8518026Y-15614766D01*
X-9790818Y-14341974D01*
G37*
D13*
X-11801974Y-16138026D03*
D14*
G36*
X-14870818Y-14341974D02*
G01*
X-13598026Y-13069182D01*
X-12325234Y-14341974D01*
X-13598026Y-15614766D01*
X-14870818Y-14341974D01*
G37*
D13*
X-16881974Y-16138026D03*
D14*
G36*
X-19950818Y-14341974D02*
G01*
X-18678026Y-13069182D01*
X-17405234Y-14341974D01*
X-18678026Y-15614766D01*
X-19950818Y-14341974D01*
G37*
D13*
X-21961974Y-16138026D03*
D14*
G36*
X-25030818Y-14341974D02*
G01*
X-23758026Y-13069182D01*
X-22485234Y-14341974D01*
X-23758026Y-15614766D01*
X-25030818Y-14341974D01*
G37*
D13*
X-27041974Y-16138026D03*
D14*
G36*
X-30110818Y-14341974D02*
G01*
X-28838026Y-13069182D01*
X-27565234Y-14341974D01*
X-28838026Y-15614766D01*
X-30110818Y-14341974D01*
G37*
D13*
X-32121974Y-16138026D03*
D14*
G36*
X-35190818Y-14341974D02*
G01*
X-33918026Y-13069182D01*
X-32645234Y-14341974D01*
X-33918026Y-15614766D01*
X-35190818Y-14341974D01*
G37*
D13*
X-37201974Y-16138026D03*
D14*
G36*
X-40270818Y-14341974D02*
G01*
X-38998026Y-13069182D01*
X-37725234Y-14341974D01*
X-38998026Y-15614766D01*
X-40270818Y-14341974D01*
G37*
D13*
X38998026Y-11058026D03*
D14*
G36*
X35929182Y-9261974D02*
G01*
X37201974Y-7989182D01*
X38474766Y-9261974D01*
X37201974Y-10534766D01*
X35929182Y-9261974D01*
G37*
D13*
X33918026Y-11058026D03*
D14*
G36*
X30849182Y-9261974D02*
G01*
X32121974Y-7989182D01*
X33394766Y-9261974D01*
X32121974Y-10534766D01*
X30849182Y-9261974D01*
G37*
D13*
X28838026Y-11058026D03*
D14*
G36*
X25769182Y-9261974D02*
G01*
X27041974Y-7989182D01*
X28314766Y-9261974D01*
X27041974Y-10534766D01*
X25769182Y-9261974D01*
G37*
D13*
X23758026Y-11058026D03*
D14*
G36*
X20689182Y-9261974D02*
G01*
X21961974Y-7989182D01*
X23234766Y-9261974D01*
X21961974Y-10534766D01*
X20689182Y-9261974D01*
G37*
D13*
X18678026Y-11058026D03*
D14*
G36*
X15609182Y-9261974D02*
G01*
X16881974Y-7989182D01*
X18154766Y-9261974D01*
X16881974Y-10534766D01*
X15609182Y-9261974D01*
G37*
D13*
X13598026Y-11058026D03*
D14*
G36*
X10529182Y-9261974D02*
G01*
X11801974Y-7989182D01*
X13074766Y-9261974D01*
X11801974Y-10534766D01*
X10529182Y-9261974D01*
G37*
D13*
X8518026Y-11058026D03*
D14*
G36*
X5449182Y-9261974D02*
G01*
X6721974Y-7989182D01*
X7994766Y-9261974D01*
X6721974Y-10534766D01*
X5449182Y-9261974D01*
G37*
D13*
X3438026Y-11058026D03*
D14*
G36*
X369182Y-9261974D02*
G01*
X1641974Y-7989182D01*
X2914766Y-9261974D01*
X1641974Y-10534766D01*
X369182Y-9261974D01*
G37*
D13*
X-1641974Y-11058026D03*
D14*
G36*
X-4710818Y-9261974D02*
G01*
X-3438026Y-7989182D01*
X-2165234Y-9261974D01*
X-3438026Y-10534766D01*
X-4710818Y-9261974D01*
G37*
D13*
X-6721974Y-11058026D03*
D14*
G36*
X-9790818Y-9261974D02*
G01*
X-8518026Y-7989182D01*
X-7245234Y-9261974D01*
X-8518026Y-10534766D01*
X-9790818Y-9261974D01*
G37*
D13*
X-11801974Y-11058026D03*
D14*
G36*
X-14870818Y-9261974D02*
G01*
X-13598026Y-7989182D01*
X-12325234Y-9261974D01*
X-13598026Y-10534766D01*
X-14870818Y-9261974D01*
G37*
D13*
X-16881974Y-11058026D03*
D14*
G36*
X-19950818Y-9261974D02*
G01*
X-18678026Y-7989182D01*
X-17405234Y-9261974D01*
X-18678026Y-10534766D01*
X-19950818Y-9261974D01*
G37*
D13*
X-21961974Y-11058026D03*
D14*
G36*
X-25030818Y-9261974D02*
G01*
X-23758026Y-7989182D01*
X-22485234Y-9261974D01*
X-23758026Y-10534766D01*
X-25030818Y-9261974D01*
G37*
D13*
X-27041974Y-11058026D03*
D14*
G36*
X-30110818Y-9261974D02*
G01*
X-28838026Y-7989182D01*
X-27565234Y-9261974D01*
X-28838026Y-10534766D01*
X-30110818Y-9261974D01*
G37*
D13*
X-32121974Y-11058026D03*
D14*
G36*
X-35190818Y-9261974D02*
G01*
X-33918026Y-7989182D01*
X-32645234Y-9261974D01*
X-33918026Y-10534766D01*
X-35190818Y-9261974D01*
G37*
D13*
X-37201974Y-11058026D03*
D14*
G36*
X-40270818Y-9261974D02*
G01*
X-38998026Y-7989182D01*
X-37725234Y-9261974D01*
X-38998026Y-10534766D01*
X-40270818Y-9261974D01*
G37*
D15*
X38100000Y-5080000D03*
D16*
X38100000Y-2540000D03*
D15*
X33020000Y-5080000D03*
D16*
X33020000Y-2540000D03*
D15*
X27940000Y-5080000D03*
D16*
X27940000Y-2540000D03*
D15*
X22860000Y-5080000D03*
D16*
X22860000Y-2540000D03*
D15*
X17780000Y-5080000D03*
D16*
X17780000Y-2540000D03*
D15*
X12700000Y-5080000D03*
D16*
X12700000Y-2540000D03*
D15*
X7620000Y-5080000D03*
D16*
X7620000Y-2540000D03*
D15*
X2540000Y-5080000D03*
D16*
X2540000Y-2540000D03*
D15*
X-2540000Y-5080000D03*
D16*
X-2540000Y-2540000D03*
D15*
X-7620000Y-5080000D03*
D16*
X-7620000Y-2540000D03*
D15*
X-12700000Y-5080000D03*
D16*
X-12700000Y-2540000D03*
D15*
X-17780000Y-5080000D03*
D16*
X-17780000Y-2540000D03*
D15*
X-22860000Y-5080000D03*
D16*
X-22860000Y-2540000D03*
D15*
X-27940000Y-5080000D03*
D16*
X-27940000Y-2540000D03*
D15*
X-33020000Y-5080000D03*
D16*
X-33020000Y-2540000D03*
D15*
X-38100000Y-5080000D03*
D16*
X-38100000Y-2540000D03*
D17*
X-27940000Y19050000D03*
D18*
X-27940000Y24130000D03*
D16*
X-10795000Y5160000D03*
X-10795000Y10160000D03*
X15875000Y5160000D03*
X15875000Y10160000D03*
D19*
X-38100000Y11430000D03*
X-15240000Y3810000D03*
X-35560000Y11430000D03*
X-17780000Y3810000D03*
X-33020000Y11430000D03*
X-20320000Y3810000D03*
X-30480000Y11430000D03*
X-22860000Y3810000D03*
X-27940000Y11430000D03*
X-25400000Y3810000D03*
X-25400000Y11430000D03*
X-27940000Y3810000D03*
X-22860000Y11430000D03*
X-30480000Y3810000D03*
X-20320000Y11430000D03*
X-33020000Y3810000D03*
X-17780000Y11430000D03*
X-35560000Y3810000D03*
X-15240000Y11430000D03*
D20*
X-38100000Y3810000D03*
D15*
X20320000Y11430000D03*
X38100000Y3810000D03*
X22860000Y11430000D03*
X35560000Y3810000D03*
X25400000Y11430000D03*
X33020000Y3810000D03*
X27940000Y11430000D03*
X30480000Y3810000D03*
X30480000Y11430000D03*
X27940000Y3810000D03*
X33020000Y11430000D03*
X25400000Y3810000D03*
X35560000Y11430000D03*
X22860000Y3810000D03*
X38100000Y11430000D03*
D21*
X20320000Y3810000D03*
D15*
X-6350000Y11430000D03*
X11430000Y3810000D03*
X-3810000Y11430000D03*
X8890000Y3810000D03*
X-1270000Y11430000D03*
X6350000Y3810000D03*
X1270000Y11430000D03*
X3810000Y3810000D03*
X3810000Y11430000D03*
X1270000Y3810000D03*
X6350000Y11430000D03*
X-1270000Y3810000D03*
X8890000Y11430000D03*
X-3810000Y3810000D03*
X11430000Y11430000D03*
D21*
X-6350000Y3810000D03*
D15*
X25400000Y35560000D03*
D16*
X25400000Y25400000D03*
D15*
X3810000Y25400000D03*
X-3810000Y17780000D03*
X3810000Y22860000D03*
X-3810000Y20320000D03*
X3810000Y20320000D03*
X-3810000Y22860000D03*
X3810000Y17780000D03*
D21*
X-3810000Y25400000D03*
D22*
X8890000Y25400000D03*
X8890000Y22860000D03*
X8890000Y20320000D03*
D23*
X8890000Y17780000D03*
D22*
X-8890000Y17780000D03*
X-8890000Y20320000D03*
X-8890000Y22860000D03*
D23*
X-8890000Y25400000D03*
D24*
X-22860000Y24915000D03*
X-18360000Y24915000D03*
X-22860000Y18415000D03*
X-18360000Y18415000D03*
D25*
X-42752944Y-42752944D03*
X-44450000Y-42050000D03*
X-46147056Y-42752944D03*
X-46850000Y-44450000D03*
X-46147056Y-46147056D03*
X-44450000Y-46850000D03*
X-42752944Y-46147056D03*
X-42050000Y-44450000D03*
D26*
X-44450000Y-44450000D03*
D25*
X46147056Y-42752944D03*
X44450000Y-42050000D03*
X42752944Y-42752944D03*
X42050000Y-44450000D03*
X42752944Y-46147056D03*
X44450000Y-46850000D03*
X46147056Y-46147056D03*
X46850000Y-44450000D03*
D26*
X44450000Y-44450000D03*
D25*
X46147056Y46147056D03*
X44450000Y46850000D03*
X42752944Y46147056D03*
X42050000Y44450000D03*
X42752944Y42752944D03*
X44450000Y42050000D03*
X46147056Y42752944D03*
X46850000Y44450000D03*
D26*
X44450000Y44450000D03*
D25*
X-42752944Y46147056D03*
X-44450000Y46850000D03*
X-46147056Y46147056D03*
X-46850000Y44450000D03*
X-46147056Y42752944D03*
X-44450000Y42050000D03*
X-42752944Y42752944D03*
X-42050000Y44450000D03*
D26*
X-44450000Y44450000D03*
D16*
X-24130000Y34250000D03*
D21*
X-24130000Y31750000D03*
D16*
X-44450000Y34250000D03*
D21*
X-44450000Y31750000D03*
D27*
X2340000Y31710000D03*
X-2540000Y31710000D03*
D28*
X-31750000Y29210000D03*
X-34290000Y29210000D03*
D29*
X-36830000Y29210000D03*
D30*
X-34290000Y45870000D03*
G36*
G01*
X-37770000Y16015000D02*
X-37770000Y17765000D01*
G75*
G02*
X-36895000Y18640000I875000J0D01*
G01*
X-35145000Y18640000D01*
G75*
G02*
X-34270000Y17765000I0J-875000D01*
G01*
X-34270000Y16015000D01*
G75*
G02*
X-35145000Y15140000I-875000J0D01*
G01*
X-36895000Y15140000D01*
G75*
G02*
X-37770000Y16015000I0J875000D01*
G01*
G37*
G36*
G01*
X-40520000Y20590000D02*
X-40520000Y22590000D01*
G75*
G02*
X-39770000Y23340000I750000J0D01*
G01*
X-38270000Y23340000D01*
G75*
G02*
X-37520000Y22590000I0J-750000D01*
G01*
X-37520000Y20590000D01*
G75*
G02*
X-38270000Y19840000I-750000J0D01*
G01*
X-39770000Y19840000D01*
G75*
G02*
X-40520000Y20590000I0J750000D01*
G01*
G37*
D31*
X-33020000Y21590000D03*
D32*
X35560000Y25400000D03*
X35560000Y27940000D03*
X35560000Y30480000D03*
X35560000Y33020000D03*
X35560000Y35560000D03*
X33020000Y25400000D03*
X33020000Y27940000D03*
X33020000Y30480000D03*
X33020000Y33020000D03*
G36*
G01*
X32170000Y34960000D02*
X32170000Y36160000D01*
G75*
G02*
X32420000Y36410000I250000J0D01*
G01*
X33620000Y36410000D01*
G75*
G02*
X33870000Y36160000I0J-250000D01*
G01*
X33870000Y34960000D01*
G75*
G02*
X33620000Y34710000I-250000J0D01*
G01*
X32420000Y34710000D01*
G75*
G02*
X32170000Y34960000I0J250000D01*
G01*
G37*
D16*
X17780000Y20400000D03*
X17780000Y25400000D03*
X8890000Y29250000D03*
X8890000Y34250000D03*
X-8890000Y29250000D03*
X-8890000Y34250000D03*
M02*
