M48
; DRILL file {KiCad (5.1.9)-1} date 04/11/21 14:42:21
; FORMAT={-:-/ absolute / metric / decimal}
; #@! TF.CreationDate,2021-04-11T14:42:21+02:00
; #@! TF.GenerationSoftware,Kicad,Pcbnew,(5.1.9)-1
; #@! TF.FileFunction,Plated,1,2,PTH
FMAT,2
METRIC
T1C0.400
T2C0.500
T3C0.800
T4C0.900
T5C1.000
T6C1.100
T7C1.200
T8C3.200
%
G90
G05
T1
X-38.1Y41.91
X-38.1Y39.37
X-38.1Y36.83
X-36.195Y40.64
X-36.195Y38.1
X-36.195Y35.56
X-35.56Y8.89
X-34.29Y41.91
X-34.29Y39.37
X-34.29Y36.83
X-33.02Y13.335
X-33.02Y7.62
X-32.385Y40.64
X-32.385Y38.1
X-32.385Y35.56
X-30.48Y41.91
X-30.48Y39.37
X-30.48Y36.83
X-22.86Y8.89
X-20.32Y15.24
X-19.685Y9.525
X-17.78Y6.35
X-12.7Y16.51
X-12.7Y6.35
X-8.255Y7.62
X-8.251Y15.63
X-4.445Y8.255
X-1.27Y13.28
X-0.635Y20.32
X-0.635Y15.63
X1.27Y17.78
X6.35Y22.86
X6.35Y15.24
X8.89Y8.255
X11.43Y14.82
X25.4Y30.48
X25.4Y14.82
X27.94Y17.78
X28.194Y22.86
X28.321Y27.686
X28.575Y36.957
X30.226Y18.034
X30.353Y35.56
X31.115Y22.86
X33.02Y21.844
T2
X-46.85Y44.45
X-46.85Y-44.45
X-46.147Y46.147
X-46.147Y42.753
X-46.147Y-42.753
X-46.147Y-46.147
X-44.45Y46.85
X-44.45Y42.05
X-44.45Y-42.05
X-44.45Y-46.85
X-42.753Y46.147
X-42.753Y42.753
X-42.753Y-42.753
X-42.753Y-46.147
X-42.05Y44.45
X-42.05Y-44.45
X42.05Y44.45
X42.05Y-44.45
X42.753Y46.147
X42.753Y42.753
X42.753Y-42.753
X42.753Y-46.147
X44.45Y46.85
X44.45Y42.05
X44.45Y-42.05
X44.45Y-46.85
X46.147Y46.147
X46.147Y42.753
X46.147Y-42.753
X46.147Y-46.147
X46.85Y44.45
X46.85Y-44.45
T3
X-44.45Y34.25
X-44.45Y31.75
X-38.1Y11.43
X-38.1Y3.81
X-38.1Y-2.54
X-38.1Y-5.08
X-35.56Y11.43
X-35.56Y3.81
X-33.02Y11.43
X-33.02Y3.81
X-33.02Y-2.54
X-33.02Y-5.08
X-30.48Y11.43
X-30.48Y3.81
X-27.94Y11.43
X-27.94Y3.81
X-27.94Y-2.54
X-27.94Y-5.08
X-25.4Y11.43
X-25.4Y3.81
X-24.13Y34.25
X-24.13Y31.75
X-22.86Y11.43
X-22.86Y3.81
X-22.86Y-2.54
X-22.86Y-5.08
X-20.32Y11.43
X-20.32Y3.81
X-17.78Y11.43
X-17.78Y3.81
X-17.78Y-2.54
X-17.78Y-5.08
X-15.24Y11.43
X-15.24Y3.81
X-12.7Y-2.54
X-12.7Y-5.08
X-10.795Y10.16
X-10.795Y5.16
X-8.89Y34.25
X-8.89Y29.25
X-7.62Y-2.54
X-7.62Y-5.08
X-6.35Y11.43
X-6.35Y3.81
X-3.81Y25.4
X-3.81Y22.86
X-3.81Y20.32
X-3.81Y17.78
X-3.81Y11.43
X-3.81Y3.81
X-2.54Y31.71
X-2.54Y-2.54
X-2.54Y-5.08
X-1.27Y11.43
X-1.27Y3.81
X1.27Y11.43
X1.27Y3.81
X2.34Y31.71
X2.54Y-2.54
X2.54Y-5.08
X3.81Y25.4
X3.81Y22.86
X3.81Y20.32
X3.81Y17.78
X3.81Y11.43
X3.81Y3.81
X6.35Y11.43
X6.35Y3.81
X7.62Y-2.54
X7.62Y-5.08
X8.89Y34.25
X8.89Y29.25
X8.89Y11.43
X8.89Y3.81
X11.43Y11.43
X11.43Y3.81
X12.7Y-2.54
X12.7Y-5.08
X15.875Y10.16
X15.875Y5.16
X17.78Y25.4
X17.78Y20.4
X17.78Y-2.54
X17.78Y-5.08
X20.32Y11.43
X20.32Y3.81
X22.86Y11.43
X22.86Y3.81
X22.86Y-2.54
X22.86Y-5.08
X25.4Y35.56
X25.4Y25.4
X25.4Y11.43
X25.4Y3.81
X27.94Y11.43
X27.94Y3.81
X27.94Y-2.54
X27.94Y-5.08
X30.48Y11.43
X30.48Y3.81
X33.02Y11.43
X33.02Y3.81
X33.02Y-2.54
X33.02Y-5.08
X35.56Y11.43
X35.56Y3.81
X38.1Y11.43
X38.1Y3.81
X38.1Y-2.54
X38.1Y-5.08
T4
X-38.998Y-9.262
X-38.998Y-14.342
X-38.998Y-19.422
X-38.998Y-24.502
X-38.998Y-29.582
X-38.998Y-34.662
X-38.998Y-39.742
X-38.998Y-44.822
X-37.202Y-11.058
X-37.202Y-16.138
X-37.202Y-21.218
X-37.202Y-26.298
X-37.202Y-31.378
X-37.202Y-36.458
X-37.202Y-41.538
X-37.202Y-46.618
X-33.918Y-9.262
X-33.918Y-14.342
X-33.918Y-19.422
X-33.918Y-24.502
X-33.918Y-29.582
X-33.918Y-34.662
X-33.918Y-39.742
X-33.918Y-44.822
X-32.122Y-11.058
X-32.122Y-16.138
X-32.122Y-21.218
X-32.122Y-26.298
X-32.122Y-31.378
X-32.122Y-36.458
X-32.122Y-41.538
X-32.122Y-46.618
X-28.838Y-9.262
X-28.838Y-14.342
X-28.838Y-19.422
X-28.838Y-24.502
X-28.838Y-29.582
X-28.838Y-34.662
X-28.838Y-39.742
X-28.838Y-44.822
X-27.042Y-11.058
X-27.042Y-16.138
X-27.042Y-21.218
X-27.042Y-26.298
X-27.042Y-31.378
X-27.042Y-36.458
X-27.042Y-41.538
X-27.042Y-46.618
X-23.758Y-9.262
X-23.758Y-14.342
X-23.758Y-19.422
X-23.758Y-24.502
X-23.758Y-29.582
X-23.758Y-34.662
X-23.758Y-39.742
X-23.758Y-44.822
X-21.962Y-11.058
X-21.962Y-16.138
X-21.962Y-21.218
X-21.962Y-26.298
X-21.962Y-31.378
X-21.962Y-36.458
X-21.962Y-41.538
X-21.962Y-46.618
X-18.678Y-9.262
X-18.678Y-14.342
X-18.678Y-19.422
X-18.678Y-24.502
X-18.678Y-29.582
X-18.678Y-34.662
X-18.678Y-39.742
X-18.678Y-44.822
X-16.882Y-11.058
X-16.882Y-16.138
X-16.882Y-21.218
X-16.882Y-26.298
X-16.882Y-31.378
X-16.882Y-36.458
X-16.882Y-41.538
X-16.882Y-46.618
X-13.598Y-9.262
X-13.598Y-14.342
X-13.598Y-19.422
X-13.598Y-24.502
X-13.598Y-29.582
X-13.598Y-34.662
X-13.598Y-39.742
X-13.598Y-44.822
X-11.802Y-11.058
X-11.802Y-16.138
X-11.802Y-21.218
X-11.802Y-26.298
X-11.802Y-31.378
X-11.802Y-36.458
X-11.802Y-41.538
X-11.802Y-46.618
X-8.518Y-9.262
X-8.518Y-14.342
X-8.518Y-19.422
X-8.518Y-24.502
X-8.518Y-29.582
X-8.518Y-34.662
X-8.518Y-39.742
X-8.518Y-44.822
X-6.722Y-11.058
X-6.722Y-16.138
X-6.722Y-21.218
X-6.722Y-26.298
X-6.722Y-31.378
X-6.722Y-36.458
X-6.722Y-41.538
X-6.722Y-46.618
X-3.438Y-9.262
X-3.438Y-14.342
X-3.438Y-19.422
X-3.438Y-24.502
X-3.438Y-29.582
X-3.438Y-34.662
X-3.438Y-39.742
X-3.438Y-44.822
X-1.642Y-11.058
X-1.642Y-16.138
X-1.642Y-21.218
X-1.642Y-26.298
X-1.642Y-31.378
X-1.642Y-36.458
X-1.642Y-41.538
X-1.642Y-46.618
X1.642Y-9.262
X1.642Y-14.342
X1.642Y-19.422
X1.642Y-24.502
X1.642Y-29.582
X1.642Y-34.662
X1.642Y-39.742
X1.642Y-44.822
X3.438Y-11.058
X3.438Y-16.138
X3.438Y-21.218
X3.438Y-26.298
X3.438Y-31.378
X3.438Y-36.458
X3.438Y-41.538
X3.438Y-46.618
X6.722Y-9.262
X6.722Y-14.342
X6.722Y-19.422
X6.722Y-24.502
X6.722Y-29.582
X6.722Y-34.662
X6.722Y-39.742
X6.722Y-44.822
X8.518Y-11.058
X8.518Y-16.138
X8.518Y-21.218
X8.518Y-26.298
X8.518Y-31.378
X8.518Y-36.458
X8.518Y-41.538
X8.518Y-46.618
X11.802Y-9.262
X11.802Y-14.342
X11.802Y-19.422
X11.802Y-24.502
X11.802Y-29.582
X11.802Y-34.662
X11.802Y-39.742
X11.802Y-44.822
X13.598Y-11.058
X13.598Y-16.138
X13.598Y-21.218
X13.598Y-26.298
X13.598Y-31.378
X13.598Y-36.458
X13.598Y-41.538
X13.598Y-46.618
X16.882Y-9.262
X16.882Y-14.342
X16.882Y-19.422
X16.882Y-24.502
X16.882Y-29.582
X16.882Y-34.662
X16.882Y-39.742
X16.882Y-44.822
X18.678Y-11.058
X18.678Y-16.138
X18.678Y-21.218
X18.678Y-26.298
X18.678Y-31.378
X18.678Y-36.458
X18.678Y-41.538
X18.678Y-46.618
X21.962Y-9.262
X21.962Y-14.342
X21.962Y-19.422
X21.962Y-24.502
X21.962Y-29.582
X21.962Y-34.662
X21.962Y-39.742
X21.962Y-44.822
X23.758Y-11.058
X23.758Y-16.138
X23.758Y-21.218
X23.758Y-26.298
X23.758Y-31.378
X23.758Y-36.458
X23.758Y-41.538
X23.758Y-46.618
X27.042Y-9.262
X27.042Y-14.342
X27.042Y-19.422
X27.042Y-24.502
X27.042Y-29.582
X27.042Y-34.662
X27.042Y-39.742
X27.042Y-44.822
X28.838Y-11.058
X28.838Y-16.138
X28.838Y-21.218
X28.838Y-26.298
X28.838Y-31.378
X28.838Y-36.458
X28.838Y-41.538
X28.838Y-46.618
X32.122Y-9.262
X32.122Y-14.342
X32.122Y-19.422
X32.122Y-24.502
X32.122Y-29.582
X32.122Y-34.662
X32.122Y-39.742
X32.122Y-44.822
X33.918Y-11.058
X33.918Y-16.138
X33.918Y-21.218
X33.918Y-26.298
X33.918Y-31.378
X33.918Y-36.458
X33.918Y-41.538
X33.918Y-46.618
X37.202Y-9.262
X37.202Y-14.342
X37.202Y-19.422
X37.202Y-24.502
X37.202Y-29.582
X37.202Y-34.662
X37.202Y-39.742
X37.202Y-44.822
X38.998Y-11.058
X38.998Y-16.138
X38.998Y-21.218
X38.998Y-26.298
X38.998Y-31.378
X38.998Y-36.458
X38.998Y-41.538
X38.998Y-46.618
T5
X-8.89Y25.4
X-8.89Y22.86
X-8.89Y20.32
X-8.89Y17.78
X8.89Y25.4
X8.89Y22.86
X8.89Y20.32
X8.89Y17.78
X33.02Y35.56
X33.02Y33.02
X33.02Y30.48
X33.02Y27.94
X33.02Y25.4
X35.56Y35.56
X35.56Y33.02
X35.56Y30.48
X35.56Y27.94
X35.56Y25.4
T6
X-36.83Y29.21
X-34.29Y29.21
X-31.75Y29.21
X-22.86Y24.915
X-22.86Y18.415
X-18.36Y24.915
X-18.36Y18.415
T7
X-27.94Y24.13
X-27.94Y19.05
T8
X-44.45Y44.45
X-44.45Y-44.45
X44.45Y44.45
X44.45Y-44.45
T5
X-39.02Y22.59G85X-39.02Y20.59
G05
X-37.02Y16.89G85X-35.02Y16.89
G05
X-33.02Y22.59G85X-33.02Y20.59
G05
T0
M30
