<?xml version="1.0" encoding="UTF-8" standalone="no"?>
<!DOCTYPE svg PUBLIC "-//W3C//DTD SVG 1.1//EN"
 "http://www.w3.org/Graphics/SVG/1.1/DTD/svg11.dtd">
<!-- Generated by graphviz version 4.0.0 (20220529.0937)
 -->
<!-- Title: finite_state_machine Pages: 1 -->
<svg width="1243pt" height="654pt"
 viewBox="0.00 0.00 1243.28 654.13" xmlns="http://www.w3.org/2000/svg" xmlns:xlink="http://www.w3.org/1999/xlink">
<g id="graph0" class="graph" transform="scale(1 1) rotate(0) translate(4 650.13)">
<title>finite_state_machine</title>
<polygon fill="white" stroke="transparent" points="-4,4 -4,-650.13 1239.28,-650.13 1239.28,4 -4,4"/>
<!-- RESET -->
<g id="node1" class="node">
<title>RESET</title>
<ellipse fill="black" stroke="black" cx="1.8" cy="-79.9" rx="1.8" ry="1.8"/>
</g>
<!-- start -->
<g id="node2" class="node">
<title>start</title>
<ellipse fill="none" stroke="black" cx="146.5" cy="-79.9" rx="79.81" ry="79.81"/>
<text text-anchor="start" x="134" y="-98.7" font-family="Times New Roman,serif" font-size="14.00">start</text>
<text text-anchor="start" x="114" y="-83.7" font-family="Times New Roman,serif" font-size="14.00">LED1=blue</text>
<text text-anchor="start" x="114" y="-68.7" font-family="Times New Roman,serif" font-size="14.00">LED2=blue</text>
<text text-anchor="start" x="98" y="-53.7" font-family="Times New Roman,serif" font-size="14.00">timer=rand(1, 5)s</text>
</g>
<!-- RESET&#45;&gt;start -->
<g id="edge1" class="edge">
<title>RESET&#45;&gt;start</title>
<path fill="none" stroke="black" d="M3.71,-79.9C8.41,-79.9 30.63,-79.9 56.13,-79.9"/>
<polygon fill="black" stroke="black" points="56.43,-83.4 66.43,-79.9 56.43,-76.4 56.43,-83.4"/>
<text text-anchor="middle" x="35.1" y="-83.7" font-family="Times New Roman,serif" font-size="14.00">reset</text>
</g>
<!-- wait -->
<g id="node3" class="node">
<title>wait</title>
<ellipse fill="none" stroke="black" cx="300.88" cy="-311.9" rx="37.45" ry="37.45"/>
<text text-anchor="start" x="289.38" y="-315.7" font-family="Times New Roman,serif" font-size="14.00">wait</text>
<text text-anchor="start" x="282.38" y="-300.7" font-family="Times New Roman,serif" font-size="14.00">timer&#45;&#45;</text>
</g>
<!-- start&#45;&gt;wait -->
<g id="edge2" class="edge">
<title>start&#45;&gt;wait</title>
<path fill="none" stroke="black" d="M191.17,-146.38C217.92,-187.12 251.27,-237.88 273.92,-272.38"/>
<polygon fill="black" stroke="black" points="271.02,-274.34 279.44,-280.78 276.88,-270.5 271.02,-274.34"/>
</g>
<!-- wait&#45;&gt;wait -->
<g id="edge3" class="edge">
<title>wait&#45;&gt;wait</title>
<path fill="none" stroke="black" d="M290.78,-348.19C291.08,-358.98 294.45,-367.38 300.88,-367.38 305.1,-367.38 308.01,-363.76 309.59,-358.22"/>
<polygon fill="black" stroke="black" points="313.07,-358.57 310.99,-348.19 306.14,-357.61 313.07,-358.57"/>
<text text-anchor="middle" x="300.88" y="-371.18" font-family="Times New Roman,serif" font-size="14.00">timer&gt;0</text>
</g>
<!-- led_change -->
<g id="node4" class="node">
<title>led_change</title>
<ellipse fill="none" stroke="black" cx="482.93" cy="-311.9" rx="56.64" ry="56.64"/>
<text text-anchor="start" x="450.93" y="-330.7" font-family="Times New Roman,serif" font-size="14.00">led_change</text>
<text text-anchor="start" x="453.93" y="-315.7" font-family="Times New Roman,serif" font-size="14.00">LED1=off</text>
<text text-anchor="start" x="453.93" y="-300.7" font-family="Times New Roman,serif" font-size="14.00">LED2=off</text>
<text text-anchor="start" x="458.43" y="-285.7" font-family="Times New Roman,serif" font-size="14.00">timer=5s</text>
</g>
<!-- wait&#45;&gt;led_change -->
<g id="edge4" class="edge">
<title>wait&#45;&gt;led_change</title>
<path fill="none" stroke="black" d="M338.75,-311.9C361,-311.9 390.01,-311.9 416.08,-311.9"/>
<polygon fill="black" stroke="black" points="416.29,-315.4 426.29,-311.9 416.29,-308.4 416.29,-315.4"/>
<text text-anchor="middle" x="382.36" y="-315.7" font-family="Times New Roman,serif" font-size="14.00">timer==0</text>
</g>
<!-- win_player1 -->
<g id="node5" class="node">
<title>win_player1</title>
<ellipse fill="none" stroke="black" cx="920.86" cy="-583.9" rx="62.45" ry="62.45"/>
<text text-anchor="start" x="886.86" y="-595.2" font-family="Times New Roman,serif" font-size="14.00">win_player1</text>
<text text-anchor="start" x="884.86" y="-580.2" font-family="Times New Roman,serif" font-size="14.00">LED1=green</text>
<text text-anchor="start" x="890.86" y="-565.2" font-family="Times New Roman,serif" font-size="14.00">LED2=red</text>
</g>
<!-- wait&#45;&gt;win_player1 -->
<g id="edge5" class="edge">
<title>wait&#45;&gt;win_player1</title>
<path fill="none" stroke="black" d="M324.23,-341.47C333.38,-352.27 344.58,-364 356.36,-372.9 383.96,-393.75 394.57,-393.28 426.36,-406.9 575.19,-470.68 755.47,-531.29 851.63,-562.34"/>
<polygon fill="black" stroke="black" points="850.65,-565.7 861.24,-565.43 852.79,-559.03 850.65,-565.7"/>
<text text-anchor="start" x="557.5" y="-487.7" font-family="Times New Roman,serif" font-size="14.00">button2==1</text>
</g>
<!-- win_player2 -->
<g id="node6" class="node">
<title>win_player2</title>
<ellipse fill="none" stroke="black" cx="920.86" cy="-157.9" rx="62.45" ry="62.45"/>
<text text-anchor="start" x="886.86" y="-169.2" font-family="Times New Roman,serif" font-size="14.00">win_player2</text>
<text text-anchor="start" x="890.86" y="-154.2" font-family="Times New Roman,serif" font-size="14.00">LED1=red</text>
<text text-anchor="start" x="884.86" y="-139.2" font-family="Times New Roman,serif" font-size="14.00">LED2=green</text>
</g>
<!-- wait&#45;&gt;win_player2 -->
<g id="edge6" class="edge">
<title>wait&#45;&gt;win_player2</title>
<path fill="none" stroke="black" d="M332.88,-291.96C357.35,-277.1 392.83,-257.46 426.36,-245.9 571.58,-195.84 751.14,-172.98 848.66,-163.61"/>
<polygon fill="black" stroke="black" points="849.07,-167.08 858.7,-162.66 848.42,-160.11 849.07,-167.08"/>
<text text-anchor="start" x="557.5" y="-212.7" font-family="Times New Roman,serif" font-size="14.00">button1==1</text>
</g>
<!-- win_nobody -->
<g id="node7" class="node">
<title>win_nobody</title>
<ellipse fill="none" stroke="black" cx="920.86" cy="-441.9" rx="61.54" ry="61.54"/>
<text text-anchor="start" x="885.36" y="-453.2" font-family="Times New Roman,serif" font-size="14.00">win_nobody</text>
<text text-anchor="start" x="890.86" y="-438.2" font-family="Times New Roman,serif" font-size="14.00">LED1=red</text>
<text text-anchor="start" x="890.86" y="-423.2" font-family="Times New Roman,serif" font-size="14.00">LED2=red</text>
</g>
<!-- wait&#45;&gt;win_nobody -->
<g id="edge7" class="edge">
<title>wait&#45;&gt;win_nobody</title>
<path fill="none" stroke="black" d="M332.8,-332.08C357.23,-347.07 392.69,-366.76 426.36,-377.9 571.33,-425.87 751.36,-438.11 848.93,-441.09"/>
<polygon fill="black" stroke="black" points="848.88,-444.59 858.98,-441.37 849.08,-437.59 848.88,-444.59"/>
<text text-anchor="start" x="557.5" y="-440.7" font-family="Times New Roman,serif" font-size="14.00">button1==1</text>
<text text-anchor="start" x="557.5" y="-425.7" font-family="Times New Roman,serif" font-size="14.00">button2==1</text>
</g>
<!-- player_wait -->
<g id="node8" class="node">
<title>player_wait</title>
<ellipse fill="none" stroke="black" cx="699.07" cy="-311.9" rx="56.64" ry="56.64"/>
<text text-anchor="start" x="667.07" y="-315.7" font-family="Times New Roman,serif" font-size="14.00">player_wait</text>
<text text-anchor="start" x="680.57" y="-300.7" font-family="Times New Roman,serif" font-size="14.00">timer&#45;&#45;</text>
</g>
<!-- led_change&#45;&gt;player_wait -->
<g id="edge8" class="edge">
<title>led_change&#45;&gt;player_wait</title>
<path fill="none" stroke="black" d="M539.63,-311.9C567.9,-311.9 602.43,-311.9 632.02,-311.9"/>
<polygon fill="black" stroke="black" points="632.27,-315.4 642.27,-311.9 632.27,-308.4 632.27,-315.4"/>
</g>
<!-- end -->
<g id="node10" class="node">
<title>end</title>
<ellipse fill="none" stroke="black" cx="1061.8" cy="-299.9" rx="41.94" ry="41.94"/>
<text text-anchor="start" x="1051.3" y="-303.7" font-family="Times New Roman,serif" font-size="14.00">end</text>
<text text-anchor="start" x="1040.3" y="-288.7" font-family="Times New Roman,serif" font-size="14.00">timer=2</text>
</g>
<!-- win_player1&#45;&gt;end -->
<g id="edge14" class="edge">
<title>win_player1&#45;&gt;end</title>
<path fill="none" stroke="black" d="M964.62,-539.16C971.35,-530.82 977.81,-521.89 983.08,-512.9 1013.65,-460.83 1035.49,-394.68 1048.09,-350.03"/>
<polygon fill="black" stroke="black" points="1051.49,-350.85 1050.79,-340.28 1044.74,-348.98 1051.49,-350.85"/>
</g>
<!-- win_player2&#45;&gt;end -->
<g id="edge15" class="edge">
<title>win_player2&#45;&gt;end</title>
<path fill="none" stroke="black" d="M965.06,-202.05C984.19,-221.6 1006.43,-244.34 1024.67,-262.97"/>
<polygon fill="black" stroke="black" points="1022.2,-265.46 1031.7,-270.16 1027.21,-260.56 1022.2,-265.46"/>
</g>
<!-- win_nobody&#45;&gt;end -->
<g id="edge17" class="edge">
<title>win_nobody&#45;&gt;end</title>
<path fill="none" stroke="black" d="M964.68,-398.14C983.97,-378.43 1006.49,-355.41 1024.88,-336.62"/>
<polygon fill="black" stroke="black" points="1027.47,-338.97 1031.97,-329.38 1022.47,-334.08 1027.47,-338.97"/>
</g>
<!-- player_wait&#45;&gt;win_player1 -->
<g id="edge11" class="edge">
<title>player_wait&#45;&gt;win_player1</title>
<path fill="none" stroke="black" d="M734.47,-356.66C766.23,-397.69 814.93,-459.93 858.63,-512.9 863.02,-518.22 867.63,-523.72 872.26,-529.19"/>
<polygon fill="black" stroke="black" points="869.91,-531.83 879.06,-537.17 875.24,-527.29 869.91,-531.83"/>
<text text-anchor="start" x="773.63" y="-490.7" font-family="Times New Roman,serif" font-size="14.00">button1==1</text>
</g>
<!-- player_wait&#45;&gt;win_player2 -->
<g id="edge12" class="edge">
<title>player_wait&#45;&gt;win_player2</title>
<path fill="none" stroke="black" d="M745.87,-279.81C779.3,-256.39 824.89,-224.44 861.02,-199.13"/>
<polygon fill="black" stroke="black" points="863.33,-201.79 869.51,-193.18 859.31,-196.05 863.33,-201.79"/>
<text text-anchor="start" x="773.63" y="-261.7" font-family="Times New Roman,serif" font-size="14.00">button2==1</text>
</g>
<!-- player_wait&#45;&gt;win_nobody -->
<g id="edge10" class="edge">
<title>player_wait&#45;&gt;win_nobody</title>
<path fill="none" stroke="black" d="M751.73,-332.98C790.96,-349.02 838.55,-368.58 840.63,-369.9 850.57,-376.2 860.44,-383.78 869.66,-391.62"/>
<polygon fill="black" stroke="black" points="867.41,-394.31 877.24,-398.26 872.02,-389.04 867.41,-394.31"/>
<text text-anchor="middle" x="807.13" y="-373.7" font-family="Times New Roman,serif" font-size="14.00">timer==0</text>
</g>
<!-- player_wait&#45;&gt;player_wait -->
<g id="edge9" class="edge">
<title>player_wait&#45;&gt;player_wait</title>
<path fill="none" stroke="black" d="M679.26,-365.19C680.97,-377.46 687.57,-386.47 699.07,-386.47 707.15,-386.47 712.81,-382.02 716.05,-375.11"/>
<polygon fill="black" stroke="black" points="719.51,-375.77 718.87,-365.19 712.77,-373.85 719.51,-375.77"/>
<text text-anchor="middle" x="699.07" y="-390.27" font-family="Times New Roman,serif" font-size="14.00">timer&gt;0</text>
</g>
<!-- win_both -->
<g id="node9" class="node">
<title>win_both</title>
<ellipse fill="none" stroke="black" cx="920.86" cy="-299.9" rx="62.45" ry="62.45"/>
<text text-anchor="start" x="894.36" y="-318.7" font-family="Times New Roman,serif" font-size="14.00">win_both</text>
<text text-anchor="start" x="886.86" y="-303.7" font-family="Times New Roman,serif" font-size="14.00">win_player1</text>
<text text-anchor="start" x="884.86" y="-288.7" font-family="Times New Roman,serif" font-size="14.00">LED1=green</text>
<text text-anchor="start" x="884.86" y="-273.7" font-family="Times New Roman,serif" font-size="14.00">LED2=green</text>
</g>
<!-- player_wait&#45;&gt;win_both -->
<g id="edge13" class="edge">
<title>player_wait&#45;&gt;win_both</title>
<path fill="none" stroke="black" d="M755.81,-308.86C783.92,-307.32 818.33,-305.45 848.36,-303.81"/>
<polygon fill="black" stroke="black" points="848.57,-307.3 858.37,-303.26 848.19,-300.31 848.57,-307.3"/>
<text text-anchor="start" x="773.63" y="-326.7" font-family="Times New Roman,serif" font-size="14.00">button1==1</text>
<text text-anchor="start" x="773.63" y="-311.7" font-family="Times New Roman,serif" font-size="14.00">button2==1</text>
</g>
<!-- win_both&#45;&gt;end -->
<g id="edge16" class="edge">
<title>win_both&#45;&gt;end</title>
<path fill="none" stroke="black" d="M983.21,-299.9C991.99,-299.9 1000.95,-299.9 1009.52,-299.9"/>
<polygon fill="black" stroke="black" points="1009.73,-303.4 1019.73,-299.9 1009.73,-296.4 1009.73,-303.4"/>
</g>
<!-- end_wait -->
<g id="node11" class="node">
<title>end_wait</title>
<ellipse fill="none" stroke="black" cx="1187.9" cy="-79.9" rx="47.25" ry="47.25"/>
<text text-anchor="start" x="1162.4" y="-83.7" font-family="Times New Roman,serif" font-size="14.00">end_wait</text>
<text text-anchor="start" x="1169.4" y="-68.7" font-family="Times New Roman,serif" font-size="14.00">timer&#45;&#45;</text>
</g>
<!-- end&#45;&gt;end_wait -->
<g id="edge18" class="edge">
<title>end&#45;&gt;end_wait</title>
<path fill="none" stroke="black" d="M1083.3,-263.57C1103.9,-227.04 1135.83,-170.44 1158.8,-129.73"/>
<polygon fill="black" stroke="black" points="1161.98,-131.21 1163.84,-120.78 1155.88,-127.77 1161.98,-131.21"/>
</g>
<!-- end_wait&#45;&gt;start -->
<g id="edge20" class="edge">
<title>end_wait&#45;&gt;start</title>
<path fill="none" stroke="black" d="M1140.74,-73.31C1117.43,-70.52 1088.67,-67.9 1062.8,-67.9 299.88,-67.9 299.88,-67.9 299.88,-67.9 279.24,-67.9 257.08,-69.01 236.23,-70.55"/>
<polygon fill="black" stroke="black" points="235.8,-67.08 226.11,-71.34 236.35,-74.05 235.8,-67.08"/>
<text text-anchor="middle" x="699.07" y="-71.7" font-family="Times New Roman,serif" font-size="14.00">timer==0</text>
</g>
<!-- end_wait&#45;&gt;end_wait -->
<g id="edge19" class="edge">
<title>end_wait&#45;&gt;end_wait</title>
<path fill="none" stroke="black" d="M1176.11,-126.03C1177.03,-137.09 1180.96,-145.28 1187.9,-145.28 1192.45,-145.28 1195.71,-141.75 1197.67,-136.2"/>
<polygon fill="black" stroke="black" points="1201.18,-136.52 1199.69,-126.03 1194.31,-135.16 1201.18,-136.52"/>
<text text-anchor="middle" x="1187.9" y="-149.08" font-family="Times New Roman,serif" font-size="14.00">timer&gt;0</text>
</g>
</g>
</svg>
