M48
; DRILL file {KiCad (5.1.8)-1} date 12/11/20 21:41:19
; FORMAT={-:-/ absolute / inch / decimal}
; #@! TF.CreationDate,2020-12-11T21:41:19+01:00
; #@! TF.GenerationSoftware,Kicad,Pcbnew,(5.1.8)-1
; #@! TF.FileFunction,Plated,1,2,PTH
FMAT,2
INCH
T1C0.0157
T2C0.0197
T3C0.0315
T4C0.0354
T5C0.0394
T6C0.0433
T7C0.0472
T8C0.1260
%
G90
G05
T1
X4.9Y-4.35
X5.15Y-4.3
X5.5Y-4.4
X6.0391Y-4.8521
X6.05Y-4.5
X6.6Y-4.4
X6.95Y-3.95
X6.95Y-4.4
X7.0Y-4.05
X7.0Y-4.5
X7.05Y-3.9
X7.05Y-4.3
T2
X3.9055Y-2.55
X3.9332Y-2.4832
X3.9332Y-2.6168
X4.0Y-2.4555
X4.0Y-2.6445
X4.0668Y-2.4832
X4.0668Y-2.6168
X4.0945Y-2.55
X7.4055Y-6.05
X7.4332Y-5.9832
X7.4332Y-6.1168
X7.5Y-5.9555
X7.5Y-6.1445
X7.5668Y-5.9832
X7.5668Y-6.1168
X7.5945Y-6.05
X3.9055Y-6.05
X3.9332Y-5.9832
X3.9332Y-6.1168
X4.0Y-5.9555
X4.0Y-6.1445
X4.0668Y-5.9832
X4.0668Y-6.1168
X4.0945Y-6.05
X7.4055Y-2.55
X7.4332Y-2.4832
X7.4332Y-2.6168
X7.5Y-2.4555
X7.5Y-2.6445
X7.5668Y-2.4832
X7.5668Y-2.6168
X7.5945Y-2.55
T3
X4.65Y-5.15
X4.65Y-5.3469
X6.1Y-3.3
X6.1Y-3.4969
X4.4Y-3.95
X4.4984Y-3.95
X5.4Y-3.3
X5.4Y-3.4969
X5.6531Y-3.65
X5.85Y-3.65
X4.0Y-3.95
X4.0984Y-3.95
X6.85Y-5.15
X6.85Y-5.3469
X5.65Y-3.4
X5.8421Y-3.4
X5.6Y-3.85
X5.6Y-3.95
X5.6Y-4.05
X5.6Y-4.15
X5.6Y-4.25
X5.6Y-4.35
X5.6Y-4.45
X5.6Y-4.55
X5.6Y-4.65
X5.6Y-4.75
X5.9Y-3.85
X5.9Y-3.95
X5.9Y-4.05
X5.9Y-4.15
X5.9Y-4.25
X5.9Y-4.35
X5.9Y-4.45
X5.9Y-4.55
X5.9Y-4.65
X5.9Y-4.75
T4
X5.7Y-3.1
X5.8Y-3.1
X5.275Y-5.925
X5.325Y-5.925
X5.375Y-5.925
X5.425Y-5.925
X6.075Y-5.925
X6.125Y-5.925
X6.175Y-5.925
X6.225Y-5.925
T5
X7.25Y-4.1
X7.25Y-4.2
X7.25Y-4.3
X7.25Y-4.4
X7.25Y-4.5
X7.35Y-4.1
X7.35Y-4.2
X7.35Y-4.3
X7.35Y-4.4
X7.35Y-4.5
X6.1Y-3.85
X6.1Y-3.95
X6.1Y-4.05
X6.1Y-4.15
X6.1Y-4.25
X6.1Y-4.35
X6.1Y-4.45
X6.1Y-4.55
X6.1Y-4.65
X6.1Y-4.75
X5.4Y-3.85
X5.4Y-3.95
X5.4Y-4.05
X5.4Y-4.15
X5.4Y-4.25
X5.4Y-4.35
X5.4Y-4.45
X5.4Y-4.55
X5.4Y-4.65
X5.4Y-4.75
T6
X4.15Y-3.65
X4.25Y-3.65
X4.35Y-3.65
X4.8441Y-5.84
X4.8441Y-6.0172
X5.1Y-5.84
X5.1Y-6.0172
X6.4Y-5.84
X6.4Y-6.0172
X6.6559Y-5.84
X6.6559Y-6.0172
T7
X4.25Y-4.2
X4.25Y-4.7
X5.9Y-4.95
X5.9Y-5.55
X6.15Y-4.95
X6.15Y-5.55
X4.8Y-3.1
X5.4Y-3.1
X6.4Y-4.95
X6.4Y-5.55
X5.1Y-4.95
X5.1Y-5.55
X6.65Y-4.95
X6.65Y-5.55
X5.6Y-4.95
X5.6Y-5.55
X4.85Y-4.95
X4.85Y-5.55
X6.1Y-3.1
X6.7Y-3.1
X5.35Y-4.95
X5.35Y-5.55
T8
X4.0Y-2.55
X7.5Y-6.05
X4.0Y-6.05
X7.5Y-2.55
T5
G00X4.2106Y-4.9138
M15
G01X4.2894Y-4.9138
M16
G05
G00X4.2106Y-5.15
M15
G01X4.2894Y-5.15
M16
G05
G00X4.435Y-5.0713
M15
G01X4.435Y-4.9925
M16
G05
T0
M30
