M48
; DRILL file {KiCad 7.0.10} date Thu Feb 15 20:22:20 2024
; FORMAT={-:-/ absolute / metric / decimal}
; #@! TF.CreationDate,2024-02-15T20:22:20+01:00
; #@! TF.GenerationSoftware,Kicad,Pcbnew,7.0.10
; #@! TF.FileFunction,Plated,1,2,PTH
FMAT,2
METRIC
; #@! TA.AperFunction,Plated,PTH,ViaDrill
T1C0.400
; #@! TA.AperFunction,Plated,PTH,ComponentDrill
T2C0.500
; #@! TA.AperFunction,Plated,PTH,ComponentDrill
T3C0.800
; #@! TA.AperFunction,Plated,PTH,ComponentDrill
T4C0.900
; #@! TA.AperFunction,Plated,PTH,ComponentDrill
T5C1.000
; #@! TA.AperFunction,Plated,PTH,ComponentDrill
T6C1.100
; #@! TA.AperFunction,Plated,PTH,ComponentDrill
T7C1.200
; #@! TA.AperFunction,Plated,PTH,ComponentDrill
T8C3.200
%
G90
G05
T1
X124.46Y-110.49
X130.81Y-109.22
X139.7Y-111.76
X153.392Y-123.244
X153.67Y-114.3
X167.64Y-111.76
X176.53Y-100.33
X176.53Y-111.76
X177.8Y-102.87
X177.8Y-114.3
X179.07Y-99.06
X179.07Y-109.22
T2
X99.2Y-64.77
X99.2Y-153.67
X99.903Y-63.073
X99.903Y-66.467
X99.903Y-151.973
X99.903Y-155.367
X101.6Y-62.37
X101.6Y-67.17
X101.6Y-151.27
X101.6Y-156.07
X103.297Y-63.073
X103.297Y-66.467
X103.297Y-151.973
X103.297Y-155.367
X104.0Y-64.77
X104.0Y-153.67
X188.1Y-64.77
X188.1Y-153.67
X188.803Y-63.073
X188.803Y-66.467
X188.803Y-151.973
X188.803Y-155.367
X190.5Y-62.37
X190.5Y-67.17
X190.5Y-151.27
X190.5Y-156.07
X192.197Y-63.073
X192.197Y-66.467
X192.197Y-151.973
X192.197Y-155.367
X192.9Y-64.77
X192.9Y-153.67
T3
X101.6Y-100.33
X104.1Y-100.33
X111.76Y-100.33
X114.26Y-100.33
X118.11Y-130.81
X118.11Y-135.81
X137.16Y-83.82
X137.16Y-88.82
X142.24Y-97.79
X142.24Y-100.33
X142.24Y-102.87
X142.24Y-105.41
X142.24Y-107.95
X142.24Y-110.49
X142.24Y-113.03
X142.24Y-115.57
X142.24Y-118.11
X142.24Y-120.65
X143.51Y-86.36
X143.59Y-92.71
X148.39Y-86.36
X148.59Y-92.71
X149.86Y-97.79
X149.86Y-100.33
X149.86Y-102.87
X149.86Y-105.41
X149.86Y-107.95
X149.86Y-110.49
X149.86Y-113.03
X149.86Y-115.57
X149.86Y-118.11
X149.86Y-120.65
X154.94Y-83.82
X154.94Y-88.82
X173.99Y-130.81
X173.99Y-135.81
T4
X133.985Y-150.495
X135.255Y-150.495
X136.525Y-150.495
X137.795Y-150.495
X144.78Y-78.74
X147.32Y-78.74
X154.305Y-150.495
X155.575Y-150.495
X156.845Y-150.495
X158.115Y-150.495
T5
X137.16Y-97.79
X137.16Y-100.33
X137.16Y-102.87
X137.16Y-105.41
X137.16Y-107.95
X137.16Y-110.49
X137.16Y-113.03
X137.16Y-115.57
X137.16Y-118.11
X137.16Y-120.65
X154.94Y-97.79
X154.94Y-100.33
X154.94Y-102.87
X154.94Y-105.41
X154.94Y-107.95
X154.94Y-110.49
X154.94Y-113.03
X154.94Y-115.57
X154.94Y-118.11
X154.94Y-120.65
X184.15Y-104.14
X184.15Y-106.68
X184.15Y-109.22
X184.15Y-111.76
X184.15Y-114.3
X186.69Y-104.14
X186.69Y-106.68
X186.69Y-109.22
X186.69Y-111.76
X186.69Y-114.3
T6
X105.41Y-92.71
X107.95Y-92.71
X110.49Y-92.71
X123.04Y-148.336
X123.04Y-152.836
X129.54Y-148.336
X129.54Y-152.836
X162.56Y-148.336
X162.56Y-152.836
X169.06Y-148.336
X169.06Y-152.836
T7
X107.95Y-106.68
X107.95Y-119.38
X121.92Y-78.74
X123.19Y-125.73
X123.19Y-140.97
X129.54Y-125.73
X129.54Y-140.97
X135.89Y-125.73
X135.89Y-140.97
X137.16Y-78.74
X142.24Y-125.73
X142.24Y-140.97
X149.86Y-125.73
X149.86Y-140.97
X154.94Y-78.74
X156.21Y-125.73
X156.21Y-140.97
X162.56Y-125.73
X162.56Y-140.97
X168.91Y-125.73
X168.91Y-140.97
X170.18Y-78.74
T8
X101.6Y-64.77
X101.6Y-153.67
X190.5Y-64.77
X190.5Y-153.67
T5
X106.95Y-124.81G85X108.95Y-124.81
G05
X106.95Y-130.81G85X108.95Y-130.81
G05
X112.65Y-128.81G85X112.65Y-126.81
G05
M30
