%TF.GenerationSoftware,KiCad,Pcbnew,7.0.10*%
%TF.CreationDate,2024-02-15T20:22:21+01:00*%
%TF.ProjectId,at90s1200,61743930-7331-4323-9030-2e6b69636164,V1.0*%
%TF.SameCoordinates,Original*%
%TF.FileFunction,Drillmap*%
%TF.FilePolarity,Positive*%
%FSLAX45Y45*%
G04 Gerber Fmt 4.5, Leading zero omitted, Abs format (unit mm)*
G04 Created by KiCad (PCBNEW 7.0.10) date 2024-02-15 20:22:21*
%MOMM*%
%LPD*%
G01*
G04 APERTURE LIST*
%ADD10C,0.050000*%
%ADD11C,0.200000*%
%ADD12C,0.100000*%
%ADD13C,0.110000*%
%ADD14C,0.120000*%
%ADD15C,0.320000*%
G04 APERTURE END LIST*
D10*
X9652000Y-15875000D02*
X9652000Y-5969000D01*
X19558000Y-5969000D02*
X19558000Y-15875000D01*
X9652000Y-5969000D02*
X19558000Y-5969000D01*
X19558000Y-15875000D02*
X9652000Y-15875000D01*
D11*
D12*
X12426000Y-11029000D02*
X12466000Y-11069000D01*
X12466000Y-11029000D02*
X12426000Y-11069000D01*
X13061000Y-10902000D02*
X13101000Y-10942000D01*
X13101000Y-10902000D02*
X13061000Y-10942000D01*
X13950000Y-11156000D02*
X13990000Y-11196000D01*
X13990000Y-11156000D02*
X13950000Y-11196000D01*
X15319219Y-12304437D02*
X15359219Y-12344437D01*
X15359219Y-12304437D02*
X15319219Y-12344437D01*
X15347000Y-11410000D02*
X15387000Y-11450000D01*
X15387000Y-11410000D02*
X15347000Y-11450000D01*
X16744000Y-11156000D02*
X16784000Y-11196000D01*
X16784000Y-11156000D02*
X16744000Y-11196000D01*
X17633000Y-10013000D02*
X17673000Y-10053000D01*
X17673000Y-10013000D02*
X17633000Y-10053000D01*
X17633000Y-11156000D02*
X17673000Y-11196000D01*
X17673000Y-11156000D02*
X17633000Y-11196000D01*
X17760000Y-10267000D02*
X17800000Y-10307000D01*
X17800000Y-10267000D02*
X17760000Y-10307000D01*
X17760000Y-11410000D02*
X17800000Y-11450000D01*
X17800000Y-11410000D02*
X17760000Y-11450000D01*
X17887000Y-9886000D02*
X17927000Y-9926000D01*
X17927000Y-9886000D02*
X17887000Y-9926000D01*
X17887000Y-10902000D02*
X17927000Y-10942000D01*
X17927000Y-10902000D02*
X17887000Y-10942000D01*
X9945000Y-6477000D02*
G75*
G03*
X9895000Y-6477000I-25000J0D01*
G01*
X9895000Y-6477000D02*
G75*
G03*
X9945000Y-6477000I25000J0D01*
G01*
X9945000Y-15367000D02*
G75*
G03*
X9895000Y-15367000I-25000J0D01*
G01*
X9895000Y-15367000D02*
G75*
G03*
X9945000Y-15367000I25000J0D01*
G01*
X10015294Y-6307294D02*
G75*
G03*
X9965294Y-6307294I-25000J0D01*
G01*
X9965294Y-6307294D02*
G75*
G03*
X10015294Y-6307294I25000J0D01*
G01*
X10015294Y-6646706D02*
G75*
G03*
X9965294Y-6646706I-25000J0D01*
G01*
X9965294Y-6646706D02*
G75*
G03*
X10015294Y-6646706I25000J0D01*
G01*
X10015294Y-15197294D02*
G75*
G03*
X9965294Y-15197294I-25000J0D01*
G01*
X9965294Y-15197294D02*
G75*
G03*
X10015294Y-15197294I25000J0D01*
G01*
X10015294Y-15536706D02*
G75*
G03*
X9965294Y-15536706I-25000J0D01*
G01*
X9965294Y-15536706D02*
G75*
G03*
X10015294Y-15536706I25000J0D01*
G01*
X10185000Y-6237000D02*
G75*
G03*
X10135000Y-6237000I-25000J0D01*
G01*
X10135000Y-6237000D02*
G75*
G03*
X10185000Y-6237000I25000J0D01*
G01*
X10185000Y-6717000D02*
G75*
G03*
X10135000Y-6717000I-25000J0D01*
G01*
X10135000Y-6717000D02*
G75*
G03*
X10185000Y-6717000I25000J0D01*
G01*
X10185000Y-15127000D02*
G75*
G03*
X10135000Y-15127000I-25000J0D01*
G01*
X10135000Y-15127000D02*
G75*
G03*
X10185000Y-15127000I25000J0D01*
G01*
X10185000Y-15607000D02*
G75*
G03*
X10135000Y-15607000I-25000J0D01*
G01*
X10135000Y-15607000D02*
G75*
G03*
X10185000Y-15607000I25000J0D01*
G01*
X10354706Y-6307294D02*
G75*
G03*
X10304706Y-6307294I-25000J0D01*
G01*
X10304706Y-6307294D02*
G75*
G03*
X10354706Y-6307294I25000J0D01*
G01*
X10354706Y-6646706D02*
G75*
G03*
X10304706Y-6646706I-25000J0D01*
G01*
X10304706Y-6646706D02*
G75*
G03*
X10354706Y-6646706I25000J0D01*
G01*
X10354706Y-15197294D02*
G75*
G03*
X10304706Y-15197294I-25000J0D01*
G01*
X10304706Y-15197294D02*
G75*
G03*
X10354706Y-15197294I25000J0D01*
G01*
X10354706Y-15536706D02*
G75*
G03*
X10304706Y-15536706I-25000J0D01*
G01*
X10304706Y-15536706D02*
G75*
G03*
X10354706Y-15536706I25000J0D01*
G01*
X10425000Y-6477000D02*
G75*
G03*
X10375000Y-6477000I-25000J0D01*
G01*
X10375000Y-6477000D02*
G75*
G03*
X10425000Y-6477000I25000J0D01*
G01*
X10425000Y-15367000D02*
G75*
G03*
X10375000Y-15367000I-25000J0D01*
G01*
X10375000Y-15367000D02*
G75*
G03*
X10425000Y-15367000I25000J0D01*
G01*
X18835000Y-6477000D02*
G75*
G03*
X18785000Y-6477000I-25000J0D01*
G01*
X18785000Y-6477000D02*
G75*
G03*
X18835000Y-6477000I25000J0D01*
G01*
X18835000Y-15367000D02*
G75*
G03*
X18785000Y-15367000I-25000J0D01*
G01*
X18785000Y-15367000D02*
G75*
G03*
X18835000Y-15367000I25000J0D01*
G01*
X18905294Y-6307294D02*
G75*
G03*
X18855294Y-6307294I-25000J0D01*
G01*
X18855294Y-6307294D02*
G75*
G03*
X18905294Y-6307294I25000J0D01*
G01*
X18905294Y-6646706D02*
G75*
G03*
X18855294Y-6646706I-25000J0D01*
G01*
X18855294Y-6646706D02*
G75*
G03*
X18905294Y-6646706I25000J0D01*
G01*
X18905294Y-15197294D02*
G75*
G03*
X18855294Y-15197294I-25000J0D01*
G01*
X18855294Y-15197294D02*
G75*
G03*
X18905294Y-15197294I25000J0D01*
G01*
X18905294Y-15536706D02*
G75*
G03*
X18855294Y-15536706I-25000J0D01*
G01*
X18855294Y-15536706D02*
G75*
G03*
X18905294Y-15536706I25000J0D01*
G01*
X19075000Y-6237000D02*
G75*
G03*
X19025000Y-6237000I-25000J0D01*
G01*
X19025000Y-6237000D02*
G75*
G03*
X19075000Y-6237000I25000J0D01*
G01*
X19075000Y-6717000D02*
G75*
G03*
X19025000Y-6717000I-25000J0D01*
G01*
X19025000Y-6717000D02*
G75*
G03*
X19075000Y-6717000I25000J0D01*
G01*
X19075000Y-15127000D02*
G75*
G03*
X19025000Y-15127000I-25000J0D01*
G01*
X19025000Y-15127000D02*
G75*
G03*
X19075000Y-15127000I25000J0D01*
G01*
X19075000Y-15607000D02*
G75*
G03*
X19025000Y-15607000I-25000J0D01*
G01*
X19025000Y-15607000D02*
G75*
G03*
X19075000Y-15607000I25000J0D01*
G01*
X19244706Y-6307294D02*
G75*
G03*
X19194706Y-6307294I-25000J0D01*
G01*
X19194706Y-6307294D02*
G75*
G03*
X19244706Y-6307294I25000J0D01*
G01*
X19244706Y-6646706D02*
G75*
G03*
X19194706Y-6646706I-25000J0D01*
G01*
X19194706Y-6646706D02*
G75*
G03*
X19244706Y-6646706I25000J0D01*
G01*
X19244706Y-15197294D02*
G75*
G03*
X19194706Y-15197294I-25000J0D01*
G01*
X19194706Y-15197294D02*
G75*
G03*
X19244706Y-15197294I25000J0D01*
G01*
X19244706Y-15536706D02*
G75*
G03*
X19194706Y-15536706I-25000J0D01*
G01*
X19194706Y-15536706D02*
G75*
G03*
X19244706Y-15536706I25000J0D01*
G01*
X19315000Y-6477000D02*
G75*
G03*
X19265000Y-6477000I-25000J0D01*
G01*
X19265000Y-6477000D02*
G75*
G03*
X19315000Y-6477000I25000J0D01*
G01*
X19315000Y-15367000D02*
G75*
G03*
X19265000Y-15367000I-25000J0D01*
G01*
X19265000Y-15367000D02*
G75*
G03*
X19315000Y-15367000I25000J0D01*
G01*
X10160000Y-9993000D02*
X10160000Y-10073000D01*
X10120000Y-10033000D02*
X10200000Y-10033000D01*
X10410000Y-9993000D02*
X10410000Y-10073000D01*
X10370000Y-10033000D02*
X10450000Y-10033000D01*
X11176000Y-9993000D02*
X11176000Y-10073000D01*
X11136000Y-10033000D02*
X11216000Y-10033000D01*
X11426000Y-9993000D02*
X11426000Y-10073000D01*
X11386000Y-10033000D02*
X11466000Y-10033000D01*
X11811000Y-13041000D02*
X11811000Y-13121000D01*
X11771000Y-13081000D02*
X11851000Y-13081000D01*
X11811000Y-13541000D02*
X11811000Y-13621000D01*
X11771000Y-13581000D02*
X11851000Y-13581000D01*
X13716000Y-8342000D02*
X13716000Y-8422000D01*
X13676000Y-8382000D02*
X13756000Y-8382000D01*
X13716000Y-8842000D02*
X13716000Y-8922000D01*
X13676000Y-8882000D02*
X13756000Y-8882000D01*
X14224000Y-9739000D02*
X14224000Y-9819000D01*
X14184000Y-9779000D02*
X14264000Y-9779000D01*
X14224000Y-9993000D02*
X14224000Y-10073000D01*
X14184000Y-10033000D02*
X14264000Y-10033000D01*
X14224000Y-10247000D02*
X14224000Y-10327000D01*
X14184000Y-10287000D02*
X14264000Y-10287000D01*
X14224000Y-10501000D02*
X14224000Y-10581000D01*
X14184000Y-10541000D02*
X14264000Y-10541000D01*
X14224000Y-10755000D02*
X14224000Y-10835000D01*
X14184000Y-10795000D02*
X14264000Y-10795000D01*
X14224000Y-11009000D02*
X14224000Y-11089000D01*
X14184000Y-11049000D02*
X14264000Y-11049000D01*
X14224000Y-11263000D02*
X14224000Y-11343000D01*
X14184000Y-11303000D02*
X14264000Y-11303000D01*
X14224000Y-11517000D02*
X14224000Y-11597000D01*
X14184000Y-11557000D02*
X14264000Y-11557000D01*
X14224000Y-11771000D02*
X14224000Y-11851000D01*
X14184000Y-11811000D02*
X14264000Y-11811000D01*
X14224000Y-12025000D02*
X14224000Y-12105000D01*
X14184000Y-12065000D02*
X14264000Y-12065000D01*
X14351000Y-8596000D02*
X14351000Y-8676000D01*
X14311000Y-8636000D02*
X14391000Y-8636000D01*
X14359000Y-9231000D02*
X14359000Y-9311000D01*
X14319000Y-9271000D02*
X14399000Y-9271000D01*
X14839000Y-8596000D02*
X14839000Y-8676000D01*
X14799000Y-8636000D02*
X14879000Y-8636000D01*
X14859000Y-9231000D02*
X14859000Y-9311000D01*
X14819000Y-9271000D02*
X14899000Y-9271000D01*
X14986000Y-9739000D02*
X14986000Y-9819000D01*
X14946000Y-9779000D02*
X15026000Y-9779000D01*
X14986000Y-9993000D02*
X14986000Y-10073000D01*
X14946000Y-10033000D02*
X15026000Y-10033000D01*
X14986000Y-10247000D02*
X14986000Y-10327000D01*
X14946000Y-10287000D02*
X15026000Y-10287000D01*
X14986000Y-10501000D02*
X14986000Y-10581000D01*
X14946000Y-10541000D02*
X15026000Y-10541000D01*
X14986000Y-10755000D02*
X14986000Y-10835000D01*
X14946000Y-10795000D02*
X15026000Y-10795000D01*
X14986000Y-11009000D02*
X14986000Y-11089000D01*
X14946000Y-11049000D02*
X15026000Y-11049000D01*
X14986000Y-11263000D02*
X14986000Y-11343000D01*
X14946000Y-11303000D02*
X15026000Y-11303000D01*
X14986000Y-11517000D02*
X14986000Y-11597000D01*
X14946000Y-11557000D02*
X15026000Y-11557000D01*
X14986000Y-11771000D02*
X14986000Y-11851000D01*
X14946000Y-11811000D02*
X15026000Y-11811000D01*
X14986000Y-12025000D02*
X14986000Y-12105000D01*
X14946000Y-12065000D02*
X15026000Y-12065000D01*
X15494000Y-8342000D02*
X15494000Y-8422000D01*
X15454000Y-8382000D02*
X15534000Y-8382000D01*
X15494000Y-8842000D02*
X15494000Y-8922000D01*
X15454000Y-8882000D02*
X15534000Y-8882000D01*
X17399000Y-13041000D02*
X17399000Y-13121000D01*
X17359000Y-13081000D02*
X17439000Y-13081000D01*
X17399000Y-13541000D02*
X17399000Y-13621000D01*
X17359000Y-13581000D02*
X17439000Y-13581000D01*
X13430320Y-15081320D02*
X13430320Y-15017680D01*
X13366680Y-15017680D01*
X13366680Y-15081320D01*
X13430320Y-15081320D01*
X13557320Y-15081320D02*
X13557320Y-15017680D01*
X13493680Y-15017680D01*
X13493680Y-15081320D01*
X13557320Y-15081320D01*
X13684320Y-15081320D02*
X13684320Y-15017680D01*
X13620680Y-15017680D01*
X13620680Y-15081320D01*
X13684320Y-15081320D01*
X13811320Y-15081320D02*
X13811320Y-15017680D01*
X13747680Y-15017680D01*
X13747680Y-15081320D01*
X13811320Y-15081320D01*
X14509820Y-7905820D02*
X14509820Y-7842180D01*
X14446180Y-7842180D01*
X14446180Y-7905820D01*
X14509820Y-7905820D01*
X14763820Y-7905820D02*
X14763820Y-7842180D01*
X14700180Y-7842180D01*
X14700180Y-7905820D01*
X14763820Y-7905820D01*
X15462320Y-15081320D02*
X15462320Y-15017680D01*
X15398680Y-15017680D01*
X15398680Y-15081320D01*
X15462320Y-15081320D01*
X15589320Y-15081320D02*
X15589320Y-15017680D01*
X15525680Y-15017680D01*
X15525680Y-15081320D01*
X15589320Y-15081320D01*
X15716320Y-15081320D02*
X15716320Y-15017680D01*
X15652680Y-15017680D01*
X15652680Y-15081320D01*
X15716320Y-15081320D01*
X15843320Y-15081320D02*
X15843320Y-15017680D01*
X15779680Y-15017680D01*
X15779680Y-15081320D01*
X15843320Y-15081320D01*
X10795000Y-12531000D02*
X10845000Y-12481000D01*
X10795000Y-12431000D01*
X10745000Y-12481000D01*
X10795000Y-12531000D01*
X10695000Y-12531000D02*
X10895000Y-12531000D01*
X10895000Y-12531000D02*
G75*
G03*
X10895000Y-12431000I0J50000D01*
G01*
X10895000Y-12431000D02*
X10695000Y-12431000D01*
X10695000Y-12431000D02*
G75*
G03*
X10695000Y-12531000I0J-50000D01*
G01*
X10795000Y-13131000D02*
X10845000Y-13081000D01*
X10795000Y-13031000D01*
X10745000Y-13081000D01*
X10795000Y-13131000D01*
X10695000Y-13131000D02*
X10895000Y-13131000D01*
X10895000Y-13131000D02*
G75*
G03*
X10895000Y-13031000I0J50000D01*
G01*
X10895000Y-13031000D02*
X10695000Y-13031000D01*
X10695000Y-13031000D02*
G75*
G03*
X10695000Y-13131000I0J-50000D01*
G01*
X11265000Y-12831000D02*
X11315000Y-12781000D01*
X11265000Y-12731000D01*
X11215000Y-12781000D01*
X11265000Y-12831000D01*
X11315000Y-12881000D02*
X11315000Y-12681000D01*
X11315000Y-12681000D02*
G75*
G03*
X11215000Y-12681000I-50000J0D01*
G01*
X11215000Y-12681000D02*
X11215000Y-12881000D01*
X11215000Y-12881000D02*
G75*
G03*
X11315000Y-12881000I50000J0D01*
G01*
X13716000Y-9829000D02*
X13766000Y-9779000D01*
X13716000Y-9729000D01*
X13666000Y-9779000D01*
X13716000Y-9829000D01*
X13716000Y-10083000D02*
X13766000Y-10033000D01*
X13716000Y-9983000D01*
X13666000Y-10033000D01*
X13716000Y-10083000D01*
X13716000Y-10337000D02*
X13766000Y-10287000D01*
X13716000Y-10237000D01*
X13666000Y-10287000D01*
X13716000Y-10337000D01*
X13716000Y-10591000D02*
X13766000Y-10541000D01*
X13716000Y-10491000D01*
X13666000Y-10541000D01*
X13716000Y-10591000D01*
X13716000Y-10845000D02*
X13766000Y-10795000D01*
X13716000Y-10745000D01*
X13666000Y-10795000D01*
X13716000Y-10845000D01*
X13716000Y-11099000D02*
X13766000Y-11049000D01*
X13716000Y-10999000D01*
X13666000Y-11049000D01*
X13716000Y-11099000D01*
X13716000Y-11353000D02*
X13766000Y-11303000D01*
X13716000Y-11253000D01*
X13666000Y-11303000D01*
X13716000Y-11353000D01*
X13716000Y-11607000D02*
X13766000Y-11557000D01*
X13716000Y-11507000D01*
X13666000Y-11557000D01*
X13716000Y-11607000D01*
X13716000Y-11861000D02*
X13766000Y-11811000D01*
X13716000Y-11761000D01*
X13666000Y-11811000D01*
X13716000Y-11861000D01*
X13716000Y-12115000D02*
X13766000Y-12065000D01*
X13716000Y-12015000D01*
X13666000Y-12065000D01*
X13716000Y-12115000D01*
X15494000Y-9829000D02*
X15544000Y-9779000D01*
X15494000Y-9729000D01*
X15444000Y-9779000D01*
X15494000Y-9829000D01*
X15494000Y-10083000D02*
X15544000Y-10033000D01*
X15494000Y-9983000D01*
X15444000Y-10033000D01*
X15494000Y-10083000D01*
X15494000Y-10337000D02*
X15544000Y-10287000D01*
X15494000Y-10237000D01*
X15444000Y-10287000D01*
X15494000Y-10337000D01*
X15494000Y-10591000D02*
X15544000Y-10541000D01*
X15494000Y-10491000D01*
X15444000Y-10541000D01*
X15494000Y-10591000D01*
X15494000Y-10845000D02*
X15544000Y-10795000D01*
X15494000Y-10745000D01*
X15444000Y-10795000D01*
X15494000Y-10845000D01*
X15494000Y-11099000D02*
X15544000Y-11049000D01*
X15494000Y-10999000D01*
X15444000Y-11049000D01*
X15494000Y-11099000D01*
X15494000Y-11353000D02*
X15544000Y-11303000D01*
X15494000Y-11253000D01*
X15444000Y-11303000D01*
X15494000Y-11353000D01*
X15494000Y-11607000D02*
X15544000Y-11557000D01*
X15494000Y-11507000D01*
X15444000Y-11557000D01*
X15494000Y-11607000D01*
X15494000Y-11861000D02*
X15544000Y-11811000D01*
X15494000Y-11761000D01*
X15444000Y-11811000D01*
X15494000Y-11861000D01*
X15494000Y-12115000D02*
X15544000Y-12065000D01*
X15494000Y-12015000D01*
X15444000Y-12065000D01*
X15494000Y-12115000D01*
X18415000Y-10464000D02*
X18465000Y-10414000D01*
X18415000Y-10364000D01*
X18365000Y-10414000D01*
X18415000Y-10464000D01*
X18415000Y-10718000D02*
X18465000Y-10668000D01*
X18415000Y-10618000D01*
X18365000Y-10668000D01*
X18415000Y-10718000D01*
X18415000Y-10972000D02*
X18465000Y-10922000D01*
X18415000Y-10872000D01*
X18365000Y-10922000D01*
X18415000Y-10972000D01*
X18415000Y-11226000D02*
X18465000Y-11176000D01*
X18415000Y-11126000D01*
X18365000Y-11176000D01*
X18415000Y-11226000D01*
X18415000Y-11480000D02*
X18465000Y-11430000D01*
X18415000Y-11380000D01*
X18365000Y-11430000D01*
X18415000Y-11480000D01*
X18669000Y-10464000D02*
X18719000Y-10414000D01*
X18669000Y-10364000D01*
X18619000Y-10414000D01*
X18669000Y-10464000D01*
X18669000Y-10718000D02*
X18719000Y-10668000D01*
X18669000Y-10618000D01*
X18619000Y-10668000D01*
X18669000Y-10718000D01*
X18669000Y-10972000D02*
X18719000Y-10922000D01*
X18669000Y-10872000D01*
X18619000Y-10922000D01*
X18669000Y-10972000D01*
X18669000Y-11226000D02*
X18719000Y-11176000D01*
X18669000Y-11126000D01*
X18619000Y-11176000D01*
X18669000Y-11226000D01*
X18669000Y-11480000D02*
X18719000Y-11430000D01*
X18669000Y-11380000D01*
X18619000Y-11430000D01*
X18669000Y-11480000D01*
D13*
X10486000Y-9216000D02*
X10596000Y-9326000D01*
X10596000Y-9216000D02*
X10486000Y-9326000D01*
X10596000Y-9271000D02*
G75*
G03*
X10486000Y-9271000I-55000J0D01*
G01*
X10486000Y-9271000D02*
G75*
G03*
X10596000Y-9271000I55000J0D01*
G01*
X10740000Y-9216000D02*
X10850000Y-9326000D01*
X10850000Y-9216000D02*
X10740000Y-9326000D01*
X10850000Y-9271000D02*
G75*
G03*
X10740000Y-9271000I-55000J0D01*
G01*
X10740000Y-9271000D02*
G75*
G03*
X10850000Y-9271000I55000J0D01*
G01*
X10994000Y-9216000D02*
X11104000Y-9326000D01*
X11104000Y-9216000D02*
X10994000Y-9326000D01*
X11104000Y-9271000D02*
G75*
G03*
X10994000Y-9271000I-55000J0D01*
G01*
X10994000Y-9271000D02*
G75*
G03*
X11104000Y-9271000I55000J0D01*
G01*
X12249000Y-14778600D02*
X12359000Y-14888600D01*
X12359000Y-14778600D02*
X12249000Y-14888600D01*
X12359000Y-14833600D02*
G75*
G03*
X12249000Y-14833600I-55000J0D01*
G01*
X12249000Y-14833600D02*
G75*
G03*
X12359000Y-14833600I55000J0D01*
G01*
X12249000Y-15228600D02*
X12359000Y-15338600D01*
X12359000Y-15228600D02*
X12249000Y-15338600D01*
X12359000Y-15283600D02*
G75*
G03*
X12249000Y-15283600I-55000J0D01*
G01*
X12249000Y-15283600D02*
G75*
G03*
X12359000Y-15283600I55000J0D01*
G01*
X12899000Y-14778600D02*
X13009000Y-14888600D01*
X13009000Y-14778600D02*
X12899000Y-14888600D01*
X13009000Y-14833600D02*
G75*
G03*
X12899000Y-14833600I-55000J0D01*
G01*
X12899000Y-14833600D02*
G75*
G03*
X13009000Y-14833600I55000J0D01*
G01*
X12899000Y-15228600D02*
X13009000Y-15338600D01*
X13009000Y-15228600D02*
X12899000Y-15338600D01*
X13009000Y-15283600D02*
G75*
G03*
X12899000Y-15283600I-55000J0D01*
G01*
X12899000Y-15283600D02*
G75*
G03*
X13009000Y-15283600I55000J0D01*
G01*
X16201000Y-14778600D02*
X16311000Y-14888600D01*
X16311000Y-14778600D02*
X16201000Y-14888600D01*
X16311000Y-14833600D02*
G75*
G03*
X16201000Y-14833600I-55000J0D01*
G01*
X16201000Y-14833600D02*
G75*
G03*
X16311000Y-14833600I55000J0D01*
G01*
X16201000Y-15228600D02*
X16311000Y-15338600D01*
X16311000Y-15228600D02*
X16201000Y-15338600D01*
X16311000Y-15283600D02*
G75*
G03*
X16201000Y-15283600I-55000J0D01*
G01*
X16201000Y-15283600D02*
G75*
G03*
X16311000Y-15283600I55000J0D01*
G01*
X16851000Y-14778600D02*
X16961000Y-14888600D01*
X16961000Y-14778600D02*
X16851000Y-14888600D01*
X16961000Y-14833600D02*
G75*
G03*
X16851000Y-14833600I-55000J0D01*
G01*
X16851000Y-14833600D02*
G75*
G03*
X16961000Y-14833600I55000J0D01*
G01*
X16851000Y-15228600D02*
X16961000Y-15338600D01*
X16961000Y-15228600D02*
X16851000Y-15338600D01*
X16961000Y-15283600D02*
G75*
G03*
X16851000Y-15283600I-55000J0D01*
G01*
X16851000Y-15283600D02*
G75*
G03*
X16961000Y-15283600I55000J0D01*
G01*
D14*
X10735000Y-10608000D02*
X10855000Y-10728000D01*
X10855000Y-10608000D02*
X10735000Y-10728000D01*
X10795000Y-10608000D02*
X10795000Y-10728000D01*
X10735000Y-10668000D02*
X10855000Y-10668000D01*
X10735000Y-11878000D02*
X10855000Y-11998000D01*
X10855000Y-11878000D02*
X10735000Y-11998000D01*
X10795000Y-11878000D02*
X10795000Y-11998000D01*
X10735000Y-11938000D02*
X10855000Y-11938000D01*
X12132000Y-7814000D02*
X12252000Y-7934000D01*
X12252000Y-7814000D02*
X12132000Y-7934000D01*
X12192000Y-7814000D02*
X12192000Y-7934000D01*
X12132000Y-7874000D02*
X12252000Y-7874000D01*
X12259000Y-12513000D02*
X12379000Y-12633000D01*
X12379000Y-12513000D02*
X12259000Y-12633000D01*
X12319000Y-12513000D02*
X12319000Y-12633000D01*
X12259000Y-12573000D02*
X12379000Y-12573000D01*
X12259000Y-14037000D02*
X12379000Y-14157000D01*
X12379000Y-14037000D02*
X12259000Y-14157000D01*
X12319000Y-14037000D02*
X12319000Y-14157000D01*
X12259000Y-14097000D02*
X12379000Y-14097000D01*
X12894000Y-12513000D02*
X13014000Y-12633000D01*
X13014000Y-12513000D02*
X12894000Y-12633000D01*
X12954000Y-12513000D02*
X12954000Y-12633000D01*
X12894000Y-12573000D02*
X13014000Y-12573000D01*
X12894000Y-14037000D02*
X13014000Y-14157000D01*
X13014000Y-14037000D02*
X12894000Y-14157000D01*
X12954000Y-14037000D02*
X12954000Y-14157000D01*
X12894000Y-14097000D02*
X13014000Y-14097000D01*
X13529000Y-12513000D02*
X13649000Y-12633000D01*
X13649000Y-12513000D02*
X13529000Y-12633000D01*
X13589000Y-12513000D02*
X13589000Y-12633000D01*
X13529000Y-12573000D02*
X13649000Y-12573000D01*
X13529000Y-14037000D02*
X13649000Y-14157000D01*
X13649000Y-14037000D02*
X13529000Y-14157000D01*
X13589000Y-14037000D02*
X13589000Y-14157000D01*
X13529000Y-14097000D02*
X13649000Y-14097000D01*
X13656000Y-7814000D02*
X13776000Y-7934000D01*
X13776000Y-7814000D02*
X13656000Y-7934000D01*
X13716000Y-7814000D02*
X13716000Y-7934000D01*
X13656000Y-7874000D02*
X13776000Y-7874000D01*
X14164000Y-12513000D02*
X14284000Y-12633000D01*
X14284000Y-12513000D02*
X14164000Y-12633000D01*
X14224000Y-12513000D02*
X14224000Y-12633000D01*
X14164000Y-12573000D02*
X14284000Y-12573000D01*
X14164000Y-14037000D02*
X14284000Y-14157000D01*
X14284000Y-14037000D02*
X14164000Y-14157000D01*
X14224000Y-14037000D02*
X14224000Y-14157000D01*
X14164000Y-14097000D02*
X14284000Y-14097000D01*
X14926000Y-12513000D02*
X15046000Y-12633000D01*
X15046000Y-12513000D02*
X14926000Y-12633000D01*
X14986000Y-12513000D02*
X14986000Y-12633000D01*
X14926000Y-12573000D02*
X15046000Y-12573000D01*
X14926000Y-14037000D02*
X15046000Y-14157000D01*
X15046000Y-14037000D02*
X14926000Y-14157000D01*
X14986000Y-14037000D02*
X14986000Y-14157000D01*
X14926000Y-14097000D02*
X15046000Y-14097000D01*
X15434000Y-7814000D02*
X15554000Y-7934000D01*
X15554000Y-7814000D02*
X15434000Y-7934000D01*
X15494000Y-7814000D02*
X15494000Y-7934000D01*
X15434000Y-7874000D02*
X15554000Y-7874000D01*
X15561000Y-12513000D02*
X15681000Y-12633000D01*
X15681000Y-12513000D02*
X15561000Y-12633000D01*
X15621000Y-12513000D02*
X15621000Y-12633000D01*
X15561000Y-12573000D02*
X15681000Y-12573000D01*
X15561000Y-14037000D02*
X15681000Y-14157000D01*
X15681000Y-14037000D02*
X15561000Y-14157000D01*
X15621000Y-14037000D02*
X15621000Y-14157000D01*
X15561000Y-14097000D02*
X15681000Y-14097000D01*
X16196000Y-12513000D02*
X16316000Y-12633000D01*
X16316000Y-12513000D02*
X16196000Y-12633000D01*
X16256000Y-12513000D02*
X16256000Y-12633000D01*
X16196000Y-12573000D02*
X16316000Y-12573000D01*
X16196000Y-14037000D02*
X16316000Y-14157000D01*
X16316000Y-14037000D02*
X16196000Y-14157000D01*
X16256000Y-14037000D02*
X16256000Y-14157000D01*
X16196000Y-14097000D02*
X16316000Y-14097000D01*
X16831000Y-12513000D02*
X16951000Y-12633000D01*
X16951000Y-12513000D02*
X16831000Y-12633000D01*
X16891000Y-12513000D02*
X16891000Y-12633000D01*
X16831000Y-12573000D02*
X16951000Y-12573000D01*
X16831000Y-14037000D02*
X16951000Y-14157000D01*
X16951000Y-14037000D02*
X16831000Y-14157000D01*
X16891000Y-14037000D02*
X16891000Y-14157000D01*
X16831000Y-14097000D02*
X16951000Y-14097000D01*
X16958000Y-7814000D02*
X17078000Y-7934000D01*
X17078000Y-7814000D02*
X16958000Y-7934000D01*
X17018000Y-7814000D02*
X17018000Y-7934000D01*
X16958000Y-7874000D02*
X17078000Y-7874000D01*
D15*
X10000000Y-6317000D02*
X10320000Y-6637000D01*
X10320000Y-6317000D02*
X10000000Y-6637000D01*
X10273138Y-6590138D02*
X10273138Y-6363862D01*
X10046862Y-6363862D01*
X10046862Y-6590138D01*
X10273138Y-6590138D01*
X10000000Y-15207000D02*
X10320000Y-15527000D01*
X10320000Y-15207000D02*
X10000000Y-15527000D01*
X10273138Y-15480138D02*
X10273138Y-15253862D01*
X10046862Y-15253862D01*
X10046862Y-15480138D01*
X10273138Y-15480138D01*
X18890000Y-6317000D02*
X19210000Y-6637000D01*
X19210000Y-6317000D02*
X18890000Y-6637000D01*
X19163138Y-6590138D02*
X19163138Y-6363862D01*
X18936862Y-6363862D01*
X18936862Y-6590138D01*
X19163138Y-6590138D01*
X18890000Y-15207000D02*
X19210000Y-15527000D01*
X19210000Y-15207000D02*
X18890000Y-15527000D01*
X19163138Y-15480138D02*
X19163138Y-15253862D01*
X18936862Y-15253862D01*
X18936862Y-15480138D01*
X19163138Y-15480138D01*
D11*
X9910277Y-16188984D02*
X9910277Y-15988984D01*
X9910277Y-15988984D02*
X9957896Y-15988984D01*
X9957896Y-15988984D02*
X9986467Y-15998508D01*
X9986467Y-15998508D02*
X10005515Y-16017555D01*
X10005515Y-16017555D02*
X10015039Y-16036603D01*
X10015039Y-16036603D02*
X10024563Y-16074698D01*
X10024563Y-16074698D02*
X10024563Y-16103269D01*
X10024563Y-16103269D02*
X10015039Y-16141365D01*
X10015039Y-16141365D02*
X10005515Y-16160412D01*
X10005515Y-16160412D02*
X9986467Y-16179460D01*
X9986467Y-16179460D02*
X9957896Y-16188984D01*
X9957896Y-16188984D02*
X9910277Y-16188984D01*
X10110277Y-16188984D02*
X10110277Y-16055650D01*
X10110277Y-16093746D02*
X10119801Y-16074698D01*
X10119801Y-16074698D02*
X10129324Y-16065174D01*
X10129324Y-16065174D02*
X10148372Y-16055650D01*
X10148372Y-16055650D02*
X10167420Y-16055650D01*
X10234086Y-16188984D02*
X10234086Y-16055650D01*
X10234086Y-15988984D02*
X10224563Y-15998508D01*
X10224563Y-15998508D02*
X10234086Y-16008031D01*
X10234086Y-16008031D02*
X10243610Y-15998508D01*
X10243610Y-15998508D02*
X10234086Y-15988984D01*
X10234086Y-15988984D02*
X10234086Y-16008031D01*
X10357896Y-16188984D02*
X10338848Y-16179460D01*
X10338848Y-16179460D02*
X10329324Y-16160412D01*
X10329324Y-16160412D02*
X10329324Y-15988984D01*
X10462658Y-16188984D02*
X10443610Y-16179460D01*
X10443610Y-16179460D02*
X10434086Y-16160412D01*
X10434086Y-16160412D02*
X10434086Y-15988984D01*
X10691229Y-16188984D02*
X10691229Y-15988984D01*
X10691229Y-15988984D02*
X10757896Y-16131841D01*
X10757896Y-16131841D02*
X10824563Y-15988984D01*
X10824563Y-15988984D02*
X10824563Y-16188984D01*
X11005515Y-16188984D02*
X11005515Y-16084222D01*
X11005515Y-16084222D02*
X10995991Y-16065174D01*
X10995991Y-16065174D02*
X10976944Y-16055650D01*
X10976944Y-16055650D02*
X10938848Y-16055650D01*
X10938848Y-16055650D02*
X10919801Y-16065174D01*
X11005515Y-16179460D02*
X10986467Y-16188984D01*
X10986467Y-16188984D02*
X10938848Y-16188984D01*
X10938848Y-16188984D02*
X10919801Y-16179460D01*
X10919801Y-16179460D02*
X10910277Y-16160412D01*
X10910277Y-16160412D02*
X10910277Y-16141365D01*
X10910277Y-16141365D02*
X10919801Y-16122317D01*
X10919801Y-16122317D02*
X10938848Y-16112793D01*
X10938848Y-16112793D02*
X10986467Y-16112793D01*
X10986467Y-16112793D02*
X11005515Y-16103269D01*
X11100753Y-16055650D02*
X11100753Y-16255650D01*
X11100753Y-16065174D02*
X11119801Y-16055650D01*
X11119801Y-16055650D02*
X11157896Y-16055650D01*
X11157896Y-16055650D02*
X11176944Y-16065174D01*
X11176944Y-16065174D02*
X11186467Y-16074698D01*
X11186467Y-16074698D02*
X11195991Y-16093746D01*
X11195991Y-16093746D02*
X11195991Y-16150888D01*
X11195991Y-16150888D02*
X11186467Y-16169936D01*
X11186467Y-16169936D02*
X11176944Y-16179460D01*
X11176944Y-16179460D02*
X11157896Y-16188984D01*
X11157896Y-16188984D02*
X11119801Y-16188984D01*
X11119801Y-16188984D02*
X11100753Y-16179460D01*
X11281705Y-16169936D02*
X11291229Y-16179460D01*
X11291229Y-16179460D02*
X11281705Y-16188984D01*
X11281705Y-16188984D02*
X11272182Y-16179460D01*
X11272182Y-16179460D02*
X11281705Y-16169936D01*
X11281705Y-16169936D02*
X11281705Y-16188984D01*
X11281705Y-16065174D02*
X11291229Y-16074698D01*
X11291229Y-16074698D02*
X11281705Y-16084222D01*
X11281705Y-16084222D02*
X11272182Y-16074698D01*
X11272182Y-16074698D02*
X11281705Y-16065174D01*
X11281705Y-16065174D02*
X11281705Y-16084222D01*
D12*
X9609500Y-16497500D02*
X9649500Y-16537500D01*
X9649500Y-16497500D02*
X9609500Y-16537500D01*
D11*
X9948372Y-16408984D02*
X9967420Y-16408984D01*
X9967420Y-16408984D02*
X9986467Y-16418508D01*
X9986467Y-16418508D02*
X9995991Y-16428031D01*
X9995991Y-16428031D02*
X10005515Y-16447079D01*
X10005515Y-16447079D02*
X10015039Y-16485174D01*
X10015039Y-16485174D02*
X10015039Y-16532793D01*
X10015039Y-16532793D02*
X10005515Y-16570888D01*
X10005515Y-16570888D02*
X9995991Y-16589936D01*
X9995991Y-16589936D02*
X9986467Y-16599460D01*
X9986467Y-16599460D02*
X9967420Y-16608984D01*
X9967420Y-16608984D02*
X9948372Y-16608984D01*
X9948372Y-16608984D02*
X9929324Y-16599460D01*
X9929324Y-16599460D02*
X9919801Y-16589936D01*
X9919801Y-16589936D02*
X9910277Y-16570888D01*
X9910277Y-16570888D02*
X9900753Y-16532793D01*
X9900753Y-16532793D02*
X9900753Y-16485174D01*
X9900753Y-16485174D02*
X9910277Y-16447079D01*
X9910277Y-16447079D02*
X9919801Y-16428031D01*
X9919801Y-16428031D02*
X9929324Y-16418508D01*
X9929324Y-16418508D02*
X9948372Y-16408984D01*
X10100753Y-16589936D02*
X10110277Y-16599460D01*
X10110277Y-16599460D02*
X10100753Y-16608984D01*
X10100753Y-16608984D02*
X10091229Y-16599460D01*
X10091229Y-16599460D02*
X10100753Y-16589936D01*
X10100753Y-16589936D02*
X10100753Y-16608984D01*
X10281705Y-16475650D02*
X10281705Y-16608984D01*
X10234086Y-16399460D02*
X10186467Y-16542317D01*
X10186467Y-16542317D02*
X10310277Y-16542317D01*
X10424563Y-16408984D02*
X10443610Y-16408984D01*
X10443610Y-16408984D02*
X10462658Y-16418508D01*
X10462658Y-16418508D02*
X10472182Y-16428031D01*
X10472182Y-16428031D02*
X10481705Y-16447079D01*
X10481705Y-16447079D02*
X10491229Y-16485174D01*
X10491229Y-16485174D02*
X10491229Y-16532793D01*
X10491229Y-16532793D02*
X10481705Y-16570888D01*
X10481705Y-16570888D02*
X10472182Y-16589936D01*
X10472182Y-16589936D02*
X10462658Y-16599460D01*
X10462658Y-16599460D02*
X10443610Y-16608984D01*
X10443610Y-16608984D02*
X10424563Y-16608984D01*
X10424563Y-16608984D02*
X10405515Y-16599460D01*
X10405515Y-16599460D02*
X10395991Y-16589936D01*
X10395991Y-16589936D02*
X10386467Y-16570888D01*
X10386467Y-16570888D02*
X10376944Y-16532793D01*
X10376944Y-16532793D02*
X10376944Y-16485174D01*
X10376944Y-16485174D02*
X10386467Y-16447079D01*
X10386467Y-16447079D02*
X10395991Y-16428031D01*
X10395991Y-16428031D02*
X10405515Y-16418508D01*
X10405515Y-16418508D02*
X10424563Y-16408984D01*
X10615039Y-16408984D02*
X10634086Y-16408984D01*
X10634086Y-16408984D02*
X10653134Y-16418508D01*
X10653134Y-16418508D02*
X10662658Y-16428031D01*
X10662658Y-16428031D02*
X10672182Y-16447079D01*
X10672182Y-16447079D02*
X10681705Y-16485174D01*
X10681705Y-16485174D02*
X10681705Y-16532793D01*
X10681705Y-16532793D02*
X10672182Y-16570888D01*
X10672182Y-16570888D02*
X10662658Y-16589936D01*
X10662658Y-16589936D02*
X10653134Y-16599460D01*
X10653134Y-16599460D02*
X10634086Y-16608984D01*
X10634086Y-16608984D02*
X10615039Y-16608984D01*
X10615039Y-16608984D02*
X10595991Y-16599460D01*
X10595991Y-16599460D02*
X10586467Y-16589936D01*
X10586467Y-16589936D02*
X10576944Y-16570888D01*
X10576944Y-16570888D02*
X10567420Y-16532793D01*
X10567420Y-16532793D02*
X10567420Y-16485174D01*
X10567420Y-16485174D02*
X10576944Y-16447079D01*
X10576944Y-16447079D02*
X10586467Y-16428031D01*
X10586467Y-16428031D02*
X10595991Y-16418508D01*
X10595991Y-16418508D02*
X10615039Y-16408984D01*
X10767420Y-16608984D02*
X10767420Y-16475650D01*
X10767420Y-16494698D02*
X10776944Y-16485174D01*
X10776944Y-16485174D02*
X10795991Y-16475650D01*
X10795991Y-16475650D02*
X10824563Y-16475650D01*
X10824563Y-16475650D02*
X10843610Y-16485174D01*
X10843610Y-16485174D02*
X10853134Y-16504222D01*
X10853134Y-16504222D02*
X10853134Y-16608984D01*
X10853134Y-16504222D02*
X10862658Y-16485174D01*
X10862658Y-16485174D02*
X10881705Y-16475650D01*
X10881705Y-16475650D02*
X10910277Y-16475650D01*
X10910277Y-16475650D02*
X10929325Y-16485174D01*
X10929325Y-16485174D02*
X10938848Y-16504222D01*
X10938848Y-16504222D02*
X10938848Y-16608984D01*
X11034086Y-16608984D02*
X11034086Y-16475650D01*
X11034086Y-16494698D02*
X11043610Y-16485174D01*
X11043610Y-16485174D02*
X11062658Y-16475650D01*
X11062658Y-16475650D02*
X11091229Y-16475650D01*
X11091229Y-16475650D02*
X11110277Y-16485174D01*
X11110277Y-16485174D02*
X11119801Y-16504222D01*
X11119801Y-16504222D02*
X11119801Y-16608984D01*
X11119801Y-16504222D02*
X11129325Y-16485174D01*
X11129325Y-16485174D02*
X11148372Y-16475650D01*
X11148372Y-16475650D02*
X11176944Y-16475650D01*
X11176944Y-16475650D02*
X11195991Y-16485174D01*
X11195991Y-16485174D02*
X11205515Y-16504222D01*
X11205515Y-16504222D02*
X11205515Y-16608984D01*
X11595991Y-16399460D02*
X11424563Y-16656603D01*
X11853134Y-16408984D02*
X11872182Y-16408984D01*
X11872182Y-16408984D02*
X11891229Y-16418508D01*
X11891229Y-16418508D02*
X11900753Y-16428031D01*
X11900753Y-16428031D02*
X11910277Y-16447079D01*
X11910277Y-16447079D02*
X11919801Y-16485174D01*
X11919801Y-16485174D02*
X11919801Y-16532793D01*
X11919801Y-16532793D02*
X11910277Y-16570888D01*
X11910277Y-16570888D02*
X11900753Y-16589936D01*
X11900753Y-16589936D02*
X11891229Y-16599460D01*
X11891229Y-16599460D02*
X11872182Y-16608984D01*
X11872182Y-16608984D02*
X11853134Y-16608984D01*
X11853134Y-16608984D02*
X11834086Y-16599460D01*
X11834086Y-16599460D02*
X11824563Y-16589936D01*
X11824563Y-16589936D02*
X11815039Y-16570888D01*
X11815039Y-16570888D02*
X11805515Y-16532793D01*
X11805515Y-16532793D02*
X11805515Y-16485174D01*
X11805515Y-16485174D02*
X11815039Y-16447079D01*
X11815039Y-16447079D02*
X11824563Y-16428031D01*
X11824563Y-16428031D02*
X11834086Y-16418508D01*
X11834086Y-16418508D02*
X11853134Y-16408984D01*
X12005515Y-16589936D02*
X12015039Y-16599460D01*
X12015039Y-16599460D02*
X12005515Y-16608984D01*
X12005515Y-16608984D02*
X11995991Y-16599460D01*
X11995991Y-16599460D02*
X12005515Y-16589936D01*
X12005515Y-16589936D02*
X12005515Y-16608984D01*
X12138848Y-16408984D02*
X12157896Y-16408984D01*
X12157896Y-16408984D02*
X12176944Y-16418508D01*
X12176944Y-16418508D02*
X12186467Y-16428031D01*
X12186467Y-16428031D02*
X12195991Y-16447079D01*
X12195991Y-16447079D02*
X12205515Y-16485174D01*
X12205515Y-16485174D02*
X12205515Y-16532793D01*
X12205515Y-16532793D02*
X12195991Y-16570888D01*
X12195991Y-16570888D02*
X12186467Y-16589936D01*
X12186467Y-16589936D02*
X12176944Y-16599460D01*
X12176944Y-16599460D02*
X12157896Y-16608984D01*
X12157896Y-16608984D02*
X12138848Y-16608984D01*
X12138848Y-16608984D02*
X12119801Y-16599460D01*
X12119801Y-16599460D02*
X12110277Y-16589936D01*
X12110277Y-16589936D02*
X12100753Y-16570888D01*
X12100753Y-16570888D02*
X12091229Y-16532793D01*
X12091229Y-16532793D02*
X12091229Y-16485174D01*
X12091229Y-16485174D02*
X12100753Y-16447079D01*
X12100753Y-16447079D02*
X12110277Y-16428031D01*
X12110277Y-16428031D02*
X12119801Y-16418508D01*
X12119801Y-16418508D02*
X12138848Y-16408984D01*
X12395991Y-16608984D02*
X12281706Y-16608984D01*
X12338848Y-16608984D02*
X12338848Y-16408984D01*
X12338848Y-16408984D02*
X12319801Y-16437555D01*
X12319801Y-16437555D02*
X12300753Y-16456603D01*
X12300753Y-16456603D02*
X12281706Y-16466127D01*
X12576944Y-16408984D02*
X12481706Y-16408984D01*
X12481706Y-16408984D02*
X12472182Y-16504222D01*
X12472182Y-16504222D02*
X12481706Y-16494698D01*
X12481706Y-16494698D02*
X12500753Y-16485174D01*
X12500753Y-16485174D02*
X12548372Y-16485174D01*
X12548372Y-16485174D02*
X12567420Y-16494698D01*
X12567420Y-16494698D02*
X12576944Y-16504222D01*
X12576944Y-16504222D02*
X12586467Y-16523269D01*
X12586467Y-16523269D02*
X12586467Y-16570888D01*
X12586467Y-16570888D02*
X12576944Y-16589936D01*
X12576944Y-16589936D02*
X12567420Y-16599460D01*
X12567420Y-16599460D02*
X12548372Y-16608984D01*
X12548372Y-16608984D02*
X12500753Y-16608984D01*
X12500753Y-16608984D02*
X12481706Y-16599460D01*
X12481706Y-16599460D02*
X12472182Y-16589936D01*
X12653134Y-16408984D02*
X12786467Y-16408984D01*
X12786467Y-16408984D02*
X12700753Y-16608984D01*
X12853134Y-16408984D02*
X12853134Y-16447079D01*
X12929325Y-16408984D02*
X12929325Y-16447079D01*
X13224563Y-16685174D02*
X13215039Y-16675650D01*
X13215039Y-16675650D02*
X13195991Y-16647079D01*
X13195991Y-16647079D02*
X13186468Y-16628031D01*
X13186468Y-16628031D02*
X13176944Y-16599460D01*
X13176944Y-16599460D02*
X13167420Y-16551841D01*
X13167420Y-16551841D02*
X13167420Y-16513746D01*
X13167420Y-16513746D02*
X13176944Y-16466127D01*
X13176944Y-16466127D02*
X13186468Y-16437555D01*
X13186468Y-16437555D02*
X13195991Y-16418508D01*
X13195991Y-16418508D02*
X13215039Y-16389936D01*
X13215039Y-16389936D02*
X13224563Y-16380412D01*
X13405515Y-16608984D02*
X13291229Y-16608984D01*
X13348372Y-16608984D02*
X13348372Y-16408984D01*
X13348372Y-16408984D02*
X13329325Y-16437555D01*
X13329325Y-16437555D02*
X13310277Y-16456603D01*
X13310277Y-16456603D02*
X13291229Y-16466127D01*
X13481706Y-16428031D02*
X13491229Y-16418508D01*
X13491229Y-16418508D02*
X13510277Y-16408984D01*
X13510277Y-16408984D02*
X13557896Y-16408984D01*
X13557896Y-16408984D02*
X13576944Y-16418508D01*
X13576944Y-16418508D02*
X13586468Y-16428031D01*
X13586468Y-16428031D02*
X13595991Y-16447079D01*
X13595991Y-16447079D02*
X13595991Y-16466127D01*
X13595991Y-16466127D02*
X13586468Y-16494698D01*
X13586468Y-16494698D02*
X13472182Y-16608984D01*
X13472182Y-16608984D02*
X13595991Y-16608984D01*
X13834087Y-16608984D02*
X13834087Y-16408984D01*
X13919801Y-16608984D02*
X13919801Y-16504222D01*
X13919801Y-16504222D02*
X13910277Y-16485174D01*
X13910277Y-16485174D02*
X13891230Y-16475650D01*
X13891230Y-16475650D02*
X13862658Y-16475650D01*
X13862658Y-16475650D02*
X13843610Y-16485174D01*
X13843610Y-16485174D02*
X13834087Y-16494698D01*
X14043610Y-16608984D02*
X14024563Y-16599460D01*
X14024563Y-16599460D02*
X14015039Y-16589936D01*
X14015039Y-16589936D02*
X14005515Y-16570888D01*
X14005515Y-16570888D02*
X14005515Y-16513746D01*
X14005515Y-16513746D02*
X14015039Y-16494698D01*
X14015039Y-16494698D02*
X14024563Y-16485174D01*
X14024563Y-16485174D02*
X14043610Y-16475650D01*
X14043610Y-16475650D02*
X14072182Y-16475650D01*
X14072182Y-16475650D02*
X14091230Y-16485174D01*
X14091230Y-16485174D02*
X14100753Y-16494698D01*
X14100753Y-16494698D02*
X14110277Y-16513746D01*
X14110277Y-16513746D02*
X14110277Y-16570888D01*
X14110277Y-16570888D02*
X14100753Y-16589936D01*
X14100753Y-16589936D02*
X14091230Y-16599460D01*
X14091230Y-16599460D02*
X14072182Y-16608984D01*
X14072182Y-16608984D02*
X14043610Y-16608984D01*
X14224563Y-16608984D02*
X14205515Y-16599460D01*
X14205515Y-16599460D02*
X14195991Y-16580412D01*
X14195991Y-16580412D02*
X14195991Y-16408984D01*
X14376944Y-16599460D02*
X14357896Y-16608984D01*
X14357896Y-16608984D02*
X14319801Y-16608984D01*
X14319801Y-16608984D02*
X14300753Y-16599460D01*
X14300753Y-16599460D02*
X14291230Y-16580412D01*
X14291230Y-16580412D02*
X14291230Y-16504222D01*
X14291230Y-16504222D02*
X14300753Y-16485174D01*
X14300753Y-16485174D02*
X14319801Y-16475650D01*
X14319801Y-16475650D02*
X14357896Y-16475650D01*
X14357896Y-16475650D02*
X14376944Y-16485174D01*
X14376944Y-16485174D02*
X14386468Y-16504222D01*
X14386468Y-16504222D02*
X14386468Y-16523269D01*
X14386468Y-16523269D02*
X14291230Y-16542317D01*
X14462658Y-16599460D02*
X14481706Y-16608984D01*
X14481706Y-16608984D02*
X14519801Y-16608984D01*
X14519801Y-16608984D02*
X14538849Y-16599460D01*
X14538849Y-16599460D02*
X14548372Y-16580412D01*
X14548372Y-16580412D02*
X14548372Y-16570888D01*
X14548372Y-16570888D02*
X14538849Y-16551841D01*
X14538849Y-16551841D02*
X14519801Y-16542317D01*
X14519801Y-16542317D02*
X14491230Y-16542317D01*
X14491230Y-16542317D02*
X14472182Y-16532793D01*
X14472182Y-16532793D02*
X14462658Y-16513746D01*
X14462658Y-16513746D02*
X14462658Y-16504222D01*
X14462658Y-16504222D02*
X14472182Y-16485174D01*
X14472182Y-16485174D02*
X14491230Y-16475650D01*
X14491230Y-16475650D02*
X14519801Y-16475650D01*
X14519801Y-16475650D02*
X14538849Y-16485174D01*
X14615039Y-16685174D02*
X14624563Y-16675650D01*
X14624563Y-16675650D02*
X14643611Y-16647079D01*
X14643611Y-16647079D02*
X14653134Y-16628031D01*
X14653134Y-16628031D02*
X14662658Y-16599460D01*
X14662658Y-16599460D02*
X14672182Y-16551841D01*
X14672182Y-16551841D02*
X14672182Y-16513746D01*
X14672182Y-16513746D02*
X14662658Y-16466127D01*
X14662658Y-16466127D02*
X14653134Y-16437555D01*
X14653134Y-16437555D02*
X14643611Y-16418508D01*
X14643611Y-16418508D02*
X14624563Y-16389936D01*
X14624563Y-16389936D02*
X14615039Y-16380412D01*
D12*
X9649500Y-16781500D02*
G75*
G03*
X9599500Y-16781500I-25000J0D01*
G01*
X9599500Y-16781500D02*
G75*
G03*
X9649500Y-16781500I25000J0D01*
G01*
D11*
X9948372Y-16672984D02*
X9967420Y-16672984D01*
X9967420Y-16672984D02*
X9986467Y-16682508D01*
X9986467Y-16682508D02*
X9995991Y-16692031D01*
X9995991Y-16692031D02*
X10005515Y-16711079D01*
X10005515Y-16711079D02*
X10015039Y-16749174D01*
X10015039Y-16749174D02*
X10015039Y-16796793D01*
X10015039Y-16796793D02*
X10005515Y-16834889D01*
X10005515Y-16834889D02*
X9995991Y-16853936D01*
X9995991Y-16853936D02*
X9986467Y-16863460D01*
X9986467Y-16863460D02*
X9967420Y-16872984D01*
X9967420Y-16872984D02*
X9948372Y-16872984D01*
X9948372Y-16872984D02*
X9929324Y-16863460D01*
X9929324Y-16863460D02*
X9919801Y-16853936D01*
X9919801Y-16853936D02*
X9910277Y-16834889D01*
X9910277Y-16834889D02*
X9900753Y-16796793D01*
X9900753Y-16796793D02*
X9900753Y-16749174D01*
X9900753Y-16749174D02*
X9910277Y-16711079D01*
X9910277Y-16711079D02*
X9919801Y-16692031D01*
X9919801Y-16692031D02*
X9929324Y-16682508D01*
X9929324Y-16682508D02*
X9948372Y-16672984D01*
X10100753Y-16853936D02*
X10110277Y-16863460D01*
X10110277Y-16863460D02*
X10100753Y-16872984D01*
X10100753Y-16872984D02*
X10091229Y-16863460D01*
X10091229Y-16863460D02*
X10100753Y-16853936D01*
X10100753Y-16853936D02*
X10100753Y-16872984D01*
X10291229Y-16672984D02*
X10195991Y-16672984D01*
X10195991Y-16672984D02*
X10186467Y-16768222D01*
X10186467Y-16768222D02*
X10195991Y-16758698D01*
X10195991Y-16758698D02*
X10215039Y-16749174D01*
X10215039Y-16749174D02*
X10262658Y-16749174D01*
X10262658Y-16749174D02*
X10281705Y-16758698D01*
X10281705Y-16758698D02*
X10291229Y-16768222D01*
X10291229Y-16768222D02*
X10300753Y-16787270D01*
X10300753Y-16787270D02*
X10300753Y-16834889D01*
X10300753Y-16834889D02*
X10291229Y-16853936D01*
X10291229Y-16853936D02*
X10281705Y-16863460D01*
X10281705Y-16863460D02*
X10262658Y-16872984D01*
X10262658Y-16872984D02*
X10215039Y-16872984D01*
X10215039Y-16872984D02*
X10195991Y-16863460D01*
X10195991Y-16863460D02*
X10186467Y-16853936D01*
X10424563Y-16672984D02*
X10443610Y-16672984D01*
X10443610Y-16672984D02*
X10462658Y-16682508D01*
X10462658Y-16682508D02*
X10472182Y-16692031D01*
X10472182Y-16692031D02*
X10481705Y-16711079D01*
X10481705Y-16711079D02*
X10491229Y-16749174D01*
X10491229Y-16749174D02*
X10491229Y-16796793D01*
X10491229Y-16796793D02*
X10481705Y-16834889D01*
X10481705Y-16834889D02*
X10472182Y-16853936D01*
X10472182Y-16853936D02*
X10462658Y-16863460D01*
X10462658Y-16863460D02*
X10443610Y-16872984D01*
X10443610Y-16872984D02*
X10424563Y-16872984D01*
X10424563Y-16872984D02*
X10405515Y-16863460D01*
X10405515Y-16863460D02*
X10395991Y-16853936D01*
X10395991Y-16853936D02*
X10386467Y-16834889D01*
X10386467Y-16834889D02*
X10376944Y-16796793D01*
X10376944Y-16796793D02*
X10376944Y-16749174D01*
X10376944Y-16749174D02*
X10386467Y-16711079D01*
X10386467Y-16711079D02*
X10395991Y-16692031D01*
X10395991Y-16692031D02*
X10405515Y-16682508D01*
X10405515Y-16682508D02*
X10424563Y-16672984D01*
X10615039Y-16672984D02*
X10634086Y-16672984D01*
X10634086Y-16672984D02*
X10653134Y-16682508D01*
X10653134Y-16682508D02*
X10662658Y-16692031D01*
X10662658Y-16692031D02*
X10672182Y-16711079D01*
X10672182Y-16711079D02*
X10681705Y-16749174D01*
X10681705Y-16749174D02*
X10681705Y-16796793D01*
X10681705Y-16796793D02*
X10672182Y-16834889D01*
X10672182Y-16834889D02*
X10662658Y-16853936D01*
X10662658Y-16853936D02*
X10653134Y-16863460D01*
X10653134Y-16863460D02*
X10634086Y-16872984D01*
X10634086Y-16872984D02*
X10615039Y-16872984D01*
X10615039Y-16872984D02*
X10595991Y-16863460D01*
X10595991Y-16863460D02*
X10586467Y-16853936D01*
X10586467Y-16853936D02*
X10576944Y-16834889D01*
X10576944Y-16834889D02*
X10567420Y-16796793D01*
X10567420Y-16796793D02*
X10567420Y-16749174D01*
X10567420Y-16749174D02*
X10576944Y-16711079D01*
X10576944Y-16711079D02*
X10586467Y-16692031D01*
X10586467Y-16692031D02*
X10595991Y-16682508D01*
X10595991Y-16682508D02*
X10615039Y-16672984D01*
X10767420Y-16872984D02*
X10767420Y-16739650D01*
X10767420Y-16758698D02*
X10776944Y-16749174D01*
X10776944Y-16749174D02*
X10795991Y-16739650D01*
X10795991Y-16739650D02*
X10824563Y-16739650D01*
X10824563Y-16739650D02*
X10843610Y-16749174D01*
X10843610Y-16749174D02*
X10853134Y-16768222D01*
X10853134Y-16768222D02*
X10853134Y-16872984D01*
X10853134Y-16768222D02*
X10862658Y-16749174D01*
X10862658Y-16749174D02*
X10881705Y-16739650D01*
X10881705Y-16739650D02*
X10910277Y-16739650D01*
X10910277Y-16739650D02*
X10929325Y-16749174D01*
X10929325Y-16749174D02*
X10938848Y-16768222D01*
X10938848Y-16768222D02*
X10938848Y-16872984D01*
X11034086Y-16872984D02*
X11034086Y-16739650D01*
X11034086Y-16758698D02*
X11043610Y-16749174D01*
X11043610Y-16749174D02*
X11062658Y-16739650D01*
X11062658Y-16739650D02*
X11091229Y-16739650D01*
X11091229Y-16739650D02*
X11110277Y-16749174D01*
X11110277Y-16749174D02*
X11119801Y-16768222D01*
X11119801Y-16768222D02*
X11119801Y-16872984D01*
X11119801Y-16768222D02*
X11129325Y-16749174D01*
X11129325Y-16749174D02*
X11148372Y-16739650D01*
X11148372Y-16739650D02*
X11176944Y-16739650D01*
X11176944Y-16739650D02*
X11195991Y-16749174D01*
X11195991Y-16749174D02*
X11205515Y-16768222D01*
X11205515Y-16768222D02*
X11205515Y-16872984D01*
X11595991Y-16663460D02*
X11424563Y-16920603D01*
X11853134Y-16672984D02*
X11872182Y-16672984D01*
X11872182Y-16672984D02*
X11891229Y-16682508D01*
X11891229Y-16682508D02*
X11900753Y-16692031D01*
X11900753Y-16692031D02*
X11910277Y-16711079D01*
X11910277Y-16711079D02*
X11919801Y-16749174D01*
X11919801Y-16749174D02*
X11919801Y-16796793D01*
X11919801Y-16796793D02*
X11910277Y-16834889D01*
X11910277Y-16834889D02*
X11900753Y-16853936D01*
X11900753Y-16853936D02*
X11891229Y-16863460D01*
X11891229Y-16863460D02*
X11872182Y-16872984D01*
X11872182Y-16872984D02*
X11853134Y-16872984D01*
X11853134Y-16872984D02*
X11834086Y-16863460D01*
X11834086Y-16863460D02*
X11824563Y-16853936D01*
X11824563Y-16853936D02*
X11815039Y-16834889D01*
X11815039Y-16834889D02*
X11805515Y-16796793D01*
X11805515Y-16796793D02*
X11805515Y-16749174D01*
X11805515Y-16749174D02*
X11815039Y-16711079D01*
X11815039Y-16711079D02*
X11824563Y-16692031D01*
X11824563Y-16692031D02*
X11834086Y-16682508D01*
X11834086Y-16682508D02*
X11853134Y-16672984D01*
X12005515Y-16853936D02*
X12015039Y-16863460D01*
X12015039Y-16863460D02*
X12005515Y-16872984D01*
X12005515Y-16872984D02*
X11995991Y-16863460D01*
X11995991Y-16863460D02*
X12005515Y-16853936D01*
X12005515Y-16853936D02*
X12005515Y-16872984D01*
X12138848Y-16672984D02*
X12157896Y-16672984D01*
X12157896Y-16672984D02*
X12176944Y-16682508D01*
X12176944Y-16682508D02*
X12186467Y-16692031D01*
X12186467Y-16692031D02*
X12195991Y-16711079D01*
X12195991Y-16711079D02*
X12205515Y-16749174D01*
X12205515Y-16749174D02*
X12205515Y-16796793D01*
X12205515Y-16796793D02*
X12195991Y-16834889D01*
X12195991Y-16834889D02*
X12186467Y-16853936D01*
X12186467Y-16853936D02*
X12176944Y-16863460D01*
X12176944Y-16863460D02*
X12157896Y-16872984D01*
X12157896Y-16872984D02*
X12138848Y-16872984D01*
X12138848Y-16872984D02*
X12119801Y-16863460D01*
X12119801Y-16863460D02*
X12110277Y-16853936D01*
X12110277Y-16853936D02*
X12100753Y-16834889D01*
X12100753Y-16834889D02*
X12091229Y-16796793D01*
X12091229Y-16796793D02*
X12091229Y-16749174D01*
X12091229Y-16749174D02*
X12100753Y-16711079D01*
X12100753Y-16711079D02*
X12110277Y-16692031D01*
X12110277Y-16692031D02*
X12119801Y-16682508D01*
X12119801Y-16682508D02*
X12138848Y-16672984D01*
X12395991Y-16872984D02*
X12281706Y-16872984D01*
X12338848Y-16872984D02*
X12338848Y-16672984D01*
X12338848Y-16672984D02*
X12319801Y-16701555D01*
X12319801Y-16701555D02*
X12300753Y-16720603D01*
X12300753Y-16720603D02*
X12281706Y-16730127D01*
X12491229Y-16872984D02*
X12529325Y-16872984D01*
X12529325Y-16872984D02*
X12548372Y-16863460D01*
X12548372Y-16863460D02*
X12557896Y-16853936D01*
X12557896Y-16853936D02*
X12576944Y-16825365D01*
X12576944Y-16825365D02*
X12586467Y-16787270D01*
X12586467Y-16787270D02*
X12586467Y-16711079D01*
X12586467Y-16711079D02*
X12576944Y-16692031D01*
X12576944Y-16692031D02*
X12567420Y-16682508D01*
X12567420Y-16682508D02*
X12548372Y-16672984D01*
X12548372Y-16672984D02*
X12510277Y-16672984D01*
X12510277Y-16672984D02*
X12491229Y-16682508D01*
X12491229Y-16682508D02*
X12481706Y-16692031D01*
X12481706Y-16692031D02*
X12472182Y-16711079D01*
X12472182Y-16711079D02*
X12472182Y-16758698D01*
X12472182Y-16758698D02*
X12481706Y-16777746D01*
X12481706Y-16777746D02*
X12491229Y-16787270D01*
X12491229Y-16787270D02*
X12510277Y-16796793D01*
X12510277Y-16796793D02*
X12548372Y-16796793D01*
X12548372Y-16796793D02*
X12567420Y-16787270D01*
X12567420Y-16787270D02*
X12576944Y-16777746D01*
X12576944Y-16777746D02*
X12586467Y-16758698D01*
X12653134Y-16672984D02*
X12786467Y-16672984D01*
X12786467Y-16672984D02*
X12700753Y-16872984D01*
X12853134Y-16672984D02*
X12853134Y-16711079D01*
X12929325Y-16672984D02*
X12929325Y-16711079D01*
X13224563Y-16949174D02*
X13215039Y-16939650D01*
X13215039Y-16939650D02*
X13195991Y-16911079D01*
X13195991Y-16911079D02*
X13186468Y-16892031D01*
X13186468Y-16892031D02*
X13176944Y-16863460D01*
X13176944Y-16863460D02*
X13167420Y-16815841D01*
X13167420Y-16815841D02*
X13167420Y-16777746D01*
X13167420Y-16777746D02*
X13176944Y-16730127D01*
X13176944Y-16730127D02*
X13186468Y-16701555D01*
X13186468Y-16701555D02*
X13195991Y-16682508D01*
X13195991Y-16682508D02*
X13215039Y-16653936D01*
X13215039Y-16653936D02*
X13224563Y-16644412D01*
X13281706Y-16672984D02*
X13405515Y-16672984D01*
X13405515Y-16672984D02*
X13338848Y-16749174D01*
X13338848Y-16749174D02*
X13367420Y-16749174D01*
X13367420Y-16749174D02*
X13386468Y-16758698D01*
X13386468Y-16758698D02*
X13395991Y-16768222D01*
X13395991Y-16768222D02*
X13405515Y-16787270D01*
X13405515Y-16787270D02*
X13405515Y-16834889D01*
X13405515Y-16834889D02*
X13395991Y-16853936D01*
X13395991Y-16853936D02*
X13386468Y-16863460D01*
X13386468Y-16863460D02*
X13367420Y-16872984D01*
X13367420Y-16872984D02*
X13310277Y-16872984D01*
X13310277Y-16872984D02*
X13291229Y-16863460D01*
X13291229Y-16863460D02*
X13281706Y-16853936D01*
X13481706Y-16692031D02*
X13491229Y-16682508D01*
X13491229Y-16682508D02*
X13510277Y-16672984D01*
X13510277Y-16672984D02*
X13557896Y-16672984D01*
X13557896Y-16672984D02*
X13576944Y-16682508D01*
X13576944Y-16682508D02*
X13586468Y-16692031D01*
X13586468Y-16692031D02*
X13595991Y-16711079D01*
X13595991Y-16711079D02*
X13595991Y-16730127D01*
X13595991Y-16730127D02*
X13586468Y-16758698D01*
X13586468Y-16758698D02*
X13472182Y-16872984D01*
X13472182Y-16872984D02*
X13595991Y-16872984D01*
X13834087Y-16872984D02*
X13834087Y-16672984D01*
X13919801Y-16872984D02*
X13919801Y-16768222D01*
X13919801Y-16768222D02*
X13910277Y-16749174D01*
X13910277Y-16749174D02*
X13891230Y-16739650D01*
X13891230Y-16739650D02*
X13862658Y-16739650D01*
X13862658Y-16739650D02*
X13843610Y-16749174D01*
X13843610Y-16749174D02*
X13834087Y-16758698D01*
X14043610Y-16872984D02*
X14024563Y-16863460D01*
X14024563Y-16863460D02*
X14015039Y-16853936D01*
X14015039Y-16853936D02*
X14005515Y-16834889D01*
X14005515Y-16834889D02*
X14005515Y-16777746D01*
X14005515Y-16777746D02*
X14015039Y-16758698D01*
X14015039Y-16758698D02*
X14024563Y-16749174D01*
X14024563Y-16749174D02*
X14043610Y-16739650D01*
X14043610Y-16739650D02*
X14072182Y-16739650D01*
X14072182Y-16739650D02*
X14091230Y-16749174D01*
X14091230Y-16749174D02*
X14100753Y-16758698D01*
X14100753Y-16758698D02*
X14110277Y-16777746D01*
X14110277Y-16777746D02*
X14110277Y-16834889D01*
X14110277Y-16834889D02*
X14100753Y-16853936D01*
X14100753Y-16853936D02*
X14091230Y-16863460D01*
X14091230Y-16863460D02*
X14072182Y-16872984D01*
X14072182Y-16872984D02*
X14043610Y-16872984D01*
X14224563Y-16872984D02*
X14205515Y-16863460D01*
X14205515Y-16863460D02*
X14195991Y-16844412D01*
X14195991Y-16844412D02*
X14195991Y-16672984D01*
X14376944Y-16863460D02*
X14357896Y-16872984D01*
X14357896Y-16872984D02*
X14319801Y-16872984D01*
X14319801Y-16872984D02*
X14300753Y-16863460D01*
X14300753Y-16863460D02*
X14291230Y-16844412D01*
X14291230Y-16844412D02*
X14291230Y-16768222D01*
X14291230Y-16768222D02*
X14300753Y-16749174D01*
X14300753Y-16749174D02*
X14319801Y-16739650D01*
X14319801Y-16739650D02*
X14357896Y-16739650D01*
X14357896Y-16739650D02*
X14376944Y-16749174D01*
X14376944Y-16749174D02*
X14386468Y-16768222D01*
X14386468Y-16768222D02*
X14386468Y-16787270D01*
X14386468Y-16787270D02*
X14291230Y-16806317D01*
X14462658Y-16863460D02*
X14481706Y-16872984D01*
X14481706Y-16872984D02*
X14519801Y-16872984D01*
X14519801Y-16872984D02*
X14538849Y-16863460D01*
X14538849Y-16863460D02*
X14548372Y-16844412D01*
X14548372Y-16844412D02*
X14548372Y-16834889D01*
X14548372Y-16834889D02*
X14538849Y-16815841D01*
X14538849Y-16815841D02*
X14519801Y-16806317D01*
X14519801Y-16806317D02*
X14491230Y-16806317D01*
X14491230Y-16806317D02*
X14472182Y-16796793D01*
X14472182Y-16796793D02*
X14462658Y-16777746D01*
X14462658Y-16777746D02*
X14462658Y-16768222D01*
X14462658Y-16768222D02*
X14472182Y-16749174D01*
X14472182Y-16749174D02*
X14491230Y-16739650D01*
X14491230Y-16739650D02*
X14519801Y-16739650D01*
X14519801Y-16739650D02*
X14538849Y-16749174D01*
X14615039Y-16949174D02*
X14624563Y-16939650D01*
X14624563Y-16939650D02*
X14643611Y-16911079D01*
X14643611Y-16911079D02*
X14653134Y-16892031D01*
X14653134Y-16892031D02*
X14662658Y-16863460D01*
X14662658Y-16863460D02*
X14672182Y-16815841D01*
X14672182Y-16815841D02*
X14672182Y-16777746D01*
X14672182Y-16777746D02*
X14662658Y-16730127D01*
X14662658Y-16730127D02*
X14653134Y-16701555D01*
X14653134Y-16701555D02*
X14643611Y-16682508D01*
X14643611Y-16682508D02*
X14624563Y-16653936D01*
X14624563Y-16653936D02*
X14615039Y-16644412D01*
D12*
X9609500Y-17005500D02*
X9609500Y-17085500D01*
X9569500Y-17045500D02*
X9649500Y-17045500D01*
D11*
X9948372Y-16936984D02*
X9967420Y-16936984D01*
X9967420Y-16936984D02*
X9986467Y-16946508D01*
X9986467Y-16946508D02*
X9995991Y-16956031D01*
X9995991Y-16956031D02*
X10005515Y-16975079D01*
X10005515Y-16975079D02*
X10015039Y-17013174D01*
X10015039Y-17013174D02*
X10015039Y-17060793D01*
X10015039Y-17060793D02*
X10005515Y-17098889D01*
X10005515Y-17098889D02*
X9995991Y-17117936D01*
X9995991Y-17117936D02*
X9986467Y-17127460D01*
X9986467Y-17127460D02*
X9967420Y-17136984D01*
X9967420Y-17136984D02*
X9948372Y-17136984D01*
X9948372Y-17136984D02*
X9929324Y-17127460D01*
X9929324Y-17127460D02*
X9919801Y-17117936D01*
X9919801Y-17117936D02*
X9910277Y-17098889D01*
X9910277Y-17098889D02*
X9900753Y-17060793D01*
X9900753Y-17060793D02*
X9900753Y-17013174D01*
X9900753Y-17013174D02*
X9910277Y-16975079D01*
X9910277Y-16975079D02*
X9919801Y-16956031D01*
X9919801Y-16956031D02*
X9929324Y-16946508D01*
X9929324Y-16946508D02*
X9948372Y-16936984D01*
X10100753Y-17117936D02*
X10110277Y-17127460D01*
X10110277Y-17127460D02*
X10100753Y-17136984D01*
X10100753Y-17136984D02*
X10091229Y-17127460D01*
X10091229Y-17127460D02*
X10100753Y-17117936D01*
X10100753Y-17117936D02*
X10100753Y-17136984D01*
X10224563Y-17022698D02*
X10205515Y-17013174D01*
X10205515Y-17013174D02*
X10195991Y-17003650D01*
X10195991Y-17003650D02*
X10186467Y-16984603D01*
X10186467Y-16984603D02*
X10186467Y-16975079D01*
X10186467Y-16975079D02*
X10195991Y-16956031D01*
X10195991Y-16956031D02*
X10205515Y-16946508D01*
X10205515Y-16946508D02*
X10224563Y-16936984D01*
X10224563Y-16936984D02*
X10262658Y-16936984D01*
X10262658Y-16936984D02*
X10281705Y-16946508D01*
X10281705Y-16946508D02*
X10291229Y-16956031D01*
X10291229Y-16956031D02*
X10300753Y-16975079D01*
X10300753Y-16975079D02*
X10300753Y-16984603D01*
X10300753Y-16984603D02*
X10291229Y-17003650D01*
X10291229Y-17003650D02*
X10281705Y-17013174D01*
X10281705Y-17013174D02*
X10262658Y-17022698D01*
X10262658Y-17022698D02*
X10224563Y-17022698D01*
X10224563Y-17022698D02*
X10205515Y-17032222D01*
X10205515Y-17032222D02*
X10195991Y-17041746D01*
X10195991Y-17041746D02*
X10186467Y-17060793D01*
X10186467Y-17060793D02*
X10186467Y-17098889D01*
X10186467Y-17098889D02*
X10195991Y-17117936D01*
X10195991Y-17117936D02*
X10205515Y-17127460D01*
X10205515Y-17127460D02*
X10224563Y-17136984D01*
X10224563Y-17136984D02*
X10262658Y-17136984D01*
X10262658Y-17136984D02*
X10281705Y-17127460D01*
X10281705Y-17127460D02*
X10291229Y-17117936D01*
X10291229Y-17117936D02*
X10300753Y-17098889D01*
X10300753Y-17098889D02*
X10300753Y-17060793D01*
X10300753Y-17060793D02*
X10291229Y-17041746D01*
X10291229Y-17041746D02*
X10281705Y-17032222D01*
X10281705Y-17032222D02*
X10262658Y-17022698D01*
X10424563Y-16936984D02*
X10443610Y-16936984D01*
X10443610Y-16936984D02*
X10462658Y-16946508D01*
X10462658Y-16946508D02*
X10472182Y-16956031D01*
X10472182Y-16956031D02*
X10481705Y-16975079D01*
X10481705Y-16975079D02*
X10491229Y-17013174D01*
X10491229Y-17013174D02*
X10491229Y-17060793D01*
X10491229Y-17060793D02*
X10481705Y-17098889D01*
X10481705Y-17098889D02*
X10472182Y-17117936D01*
X10472182Y-17117936D02*
X10462658Y-17127460D01*
X10462658Y-17127460D02*
X10443610Y-17136984D01*
X10443610Y-17136984D02*
X10424563Y-17136984D01*
X10424563Y-17136984D02*
X10405515Y-17127460D01*
X10405515Y-17127460D02*
X10395991Y-17117936D01*
X10395991Y-17117936D02*
X10386467Y-17098889D01*
X10386467Y-17098889D02*
X10376944Y-17060793D01*
X10376944Y-17060793D02*
X10376944Y-17013174D01*
X10376944Y-17013174D02*
X10386467Y-16975079D01*
X10386467Y-16975079D02*
X10395991Y-16956031D01*
X10395991Y-16956031D02*
X10405515Y-16946508D01*
X10405515Y-16946508D02*
X10424563Y-16936984D01*
X10615039Y-16936984D02*
X10634086Y-16936984D01*
X10634086Y-16936984D02*
X10653134Y-16946508D01*
X10653134Y-16946508D02*
X10662658Y-16956031D01*
X10662658Y-16956031D02*
X10672182Y-16975079D01*
X10672182Y-16975079D02*
X10681705Y-17013174D01*
X10681705Y-17013174D02*
X10681705Y-17060793D01*
X10681705Y-17060793D02*
X10672182Y-17098889D01*
X10672182Y-17098889D02*
X10662658Y-17117936D01*
X10662658Y-17117936D02*
X10653134Y-17127460D01*
X10653134Y-17127460D02*
X10634086Y-17136984D01*
X10634086Y-17136984D02*
X10615039Y-17136984D01*
X10615039Y-17136984D02*
X10595991Y-17127460D01*
X10595991Y-17127460D02*
X10586467Y-17117936D01*
X10586467Y-17117936D02*
X10576944Y-17098889D01*
X10576944Y-17098889D02*
X10567420Y-17060793D01*
X10567420Y-17060793D02*
X10567420Y-17013174D01*
X10567420Y-17013174D02*
X10576944Y-16975079D01*
X10576944Y-16975079D02*
X10586467Y-16956031D01*
X10586467Y-16956031D02*
X10595991Y-16946508D01*
X10595991Y-16946508D02*
X10615039Y-16936984D01*
X10767420Y-17136984D02*
X10767420Y-17003650D01*
X10767420Y-17022698D02*
X10776944Y-17013174D01*
X10776944Y-17013174D02*
X10795991Y-17003650D01*
X10795991Y-17003650D02*
X10824563Y-17003650D01*
X10824563Y-17003650D02*
X10843610Y-17013174D01*
X10843610Y-17013174D02*
X10853134Y-17032222D01*
X10853134Y-17032222D02*
X10853134Y-17136984D01*
X10853134Y-17032222D02*
X10862658Y-17013174D01*
X10862658Y-17013174D02*
X10881705Y-17003650D01*
X10881705Y-17003650D02*
X10910277Y-17003650D01*
X10910277Y-17003650D02*
X10929325Y-17013174D01*
X10929325Y-17013174D02*
X10938848Y-17032222D01*
X10938848Y-17032222D02*
X10938848Y-17136984D01*
X11034086Y-17136984D02*
X11034086Y-17003650D01*
X11034086Y-17022698D02*
X11043610Y-17013174D01*
X11043610Y-17013174D02*
X11062658Y-17003650D01*
X11062658Y-17003650D02*
X11091229Y-17003650D01*
X11091229Y-17003650D02*
X11110277Y-17013174D01*
X11110277Y-17013174D02*
X11119801Y-17032222D01*
X11119801Y-17032222D02*
X11119801Y-17136984D01*
X11119801Y-17032222D02*
X11129325Y-17013174D01*
X11129325Y-17013174D02*
X11148372Y-17003650D01*
X11148372Y-17003650D02*
X11176944Y-17003650D01*
X11176944Y-17003650D02*
X11195991Y-17013174D01*
X11195991Y-17013174D02*
X11205515Y-17032222D01*
X11205515Y-17032222D02*
X11205515Y-17136984D01*
X11595991Y-16927460D02*
X11424563Y-17184603D01*
X11853134Y-16936984D02*
X11872182Y-16936984D01*
X11872182Y-16936984D02*
X11891229Y-16946508D01*
X11891229Y-16946508D02*
X11900753Y-16956031D01*
X11900753Y-16956031D02*
X11910277Y-16975079D01*
X11910277Y-16975079D02*
X11919801Y-17013174D01*
X11919801Y-17013174D02*
X11919801Y-17060793D01*
X11919801Y-17060793D02*
X11910277Y-17098889D01*
X11910277Y-17098889D02*
X11900753Y-17117936D01*
X11900753Y-17117936D02*
X11891229Y-17127460D01*
X11891229Y-17127460D02*
X11872182Y-17136984D01*
X11872182Y-17136984D02*
X11853134Y-17136984D01*
X11853134Y-17136984D02*
X11834086Y-17127460D01*
X11834086Y-17127460D02*
X11824563Y-17117936D01*
X11824563Y-17117936D02*
X11815039Y-17098889D01*
X11815039Y-17098889D02*
X11805515Y-17060793D01*
X11805515Y-17060793D02*
X11805515Y-17013174D01*
X11805515Y-17013174D02*
X11815039Y-16975079D01*
X11815039Y-16975079D02*
X11824563Y-16956031D01*
X11824563Y-16956031D02*
X11834086Y-16946508D01*
X11834086Y-16946508D02*
X11853134Y-16936984D01*
X12005515Y-17117936D02*
X12015039Y-17127460D01*
X12015039Y-17127460D02*
X12005515Y-17136984D01*
X12005515Y-17136984D02*
X11995991Y-17127460D01*
X11995991Y-17127460D02*
X12005515Y-17117936D01*
X12005515Y-17117936D02*
X12005515Y-17136984D01*
X12138848Y-16936984D02*
X12157896Y-16936984D01*
X12157896Y-16936984D02*
X12176944Y-16946508D01*
X12176944Y-16946508D02*
X12186467Y-16956031D01*
X12186467Y-16956031D02*
X12195991Y-16975079D01*
X12195991Y-16975079D02*
X12205515Y-17013174D01*
X12205515Y-17013174D02*
X12205515Y-17060793D01*
X12205515Y-17060793D02*
X12195991Y-17098889D01*
X12195991Y-17098889D02*
X12186467Y-17117936D01*
X12186467Y-17117936D02*
X12176944Y-17127460D01*
X12176944Y-17127460D02*
X12157896Y-17136984D01*
X12157896Y-17136984D02*
X12138848Y-17136984D01*
X12138848Y-17136984D02*
X12119801Y-17127460D01*
X12119801Y-17127460D02*
X12110277Y-17117936D01*
X12110277Y-17117936D02*
X12100753Y-17098889D01*
X12100753Y-17098889D02*
X12091229Y-17060793D01*
X12091229Y-17060793D02*
X12091229Y-17013174D01*
X12091229Y-17013174D02*
X12100753Y-16975079D01*
X12100753Y-16975079D02*
X12110277Y-16956031D01*
X12110277Y-16956031D02*
X12119801Y-16946508D01*
X12119801Y-16946508D02*
X12138848Y-16936984D01*
X12272182Y-16936984D02*
X12395991Y-16936984D01*
X12395991Y-16936984D02*
X12329325Y-17013174D01*
X12329325Y-17013174D02*
X12357896Y-17013174D01*
X12357896Y-17013174D02*
X12376944Y-17022698D01*
X12376944Y-17022698D02*
X12386467Y-17032222D01*
X12386467Y-17032222D02*
X12395991Y-17051270D01*
X12395991Y-17051270D02*
X12395991Y-17098889D01*
X12395991Y-17098889D02*
X12386467Y-17117936D01*
X12386467Y-17117936D02*
X12376944Y-17127460D01*
X12376944Y-17127460D02*
X12357896Y-17136984D01*
X12357896Y-17136984D02*
X12300753Y-17136984D01*
X12300753Y-17136984D02*
X12281706Y-17127460D01*
X12281706Y-17127460D02*
X12272182Y-17117936D01*
X12586467Y-17136984D02*
X12472182Y-17136984D01*
X12529325Y-17136984D02*
X12529325Y-16936984D01*
X12529325Y-16936984D02*
X12510277Y-16965555D01*
X12510277Y-16965555D02*
X12491229Y-16984603D01*
X12491229Y-16984603D02*
X12472182Y-16994127D01*
X12767420Y-16936984D02*
X12672182Y-16936984D01*
X12672182Y-16936984D02*
X12662658Y-17032222D01*
X12662658Y-17032222D02*
X12672182Y-17022698D01*
X12672182Y-17022698D02*
X12691229Y-17013174D01*
X12691229Y-17013174D02*
X12738848Y-17013174D01*
X12738848Y-17013174D02*
X12757896Y-17022698D01*
X12757896Y-17022698D02*
X12767420Y-17032222D01*
X12767420Y-17032222D02*
X12776944Y-17051270D01*
X12776944Y-17051270D02*
X12776944Y-17098889D01*
X12776944Y-17098889D02*
X12767420Y-17117936D01*
X12767420Y-17117936D02*
X12757896Y-17127460D01*
X12757896Y-17127460D02*
X12738848Y-17136984D01*
X12738848Y-17136984D02*
X12691229Y-17136984D01*
X12691229Y-17136984D02*
X12672182Y-17127460D01*
X12672182Y-17127460D02*
X12662658Y-17117936D01*
X12853134Y-16936984D02*
X12853134Y-16975079D01*
X12929325Y-16936984D02*
X12929325Y-16975079D01*
X13224563Y-17213174D02*
X13215039Y-17203650D01*
X13215039Y-17203650D02*
X13195991Y-17175079D01*
X13195991Y-17175079D02*
X13186468Y-17156031D01*
X13186468Y-17156031D02*
X13176944Y-17127460D01*
X13176944Y-17127460D02*
X13167420Y-17079841D01*
X13167420Y-17079841D02*
X13167420Y-17041746D01*
X13167420Y-17041746D02*
X13176944Y-16994127D01*
X13176944Y-16994127D02*
X13186468Y-16965555D01*
X13186468Y-16965555D02*
X13195991Y-16946508D01*
X13195991Y-16946508D02*
X13215039Y-16917936D01*
X13215039Y-16917936D02*
X13224563Y-16908412D01*
X13281706Y-16936984D02*
X13405515Y-16936984D01*
X13405515Y-16936984D02*
X13338848Y-17013174D01*
X13338848Y-17013174D02*
X13367420Y-17013174D01*
X13367420Y-17013174D02*
X13386468Y-17022698D01*
X13386468Y-17022698D02*
X13395991Y-17032222D01*
X13395991Y-17032222D02*
X13405515Y-17051270D01*
X13405515Y-17051270D02*
X13405515Y-17098889D01*
X13405515Y-17098889D02*
X13395991Y-17117936D01*
X13395991Y-17117936D02*
X13386468Y-17127460D01*
X13386468Y-17127460D02*
X13367420Y-17136984D01*
X13367420Y-17136984D02*
X13310277Y-17136984D01*
X13310277Y-17136984D02*
X13291229Y-17127460D01*
X13291229Y-17127460D02*
X13281706Y-17117936D01*
X13576944Y-16936984D02*
X13538848Y-16936984D01*
X13538848Y-16936984D02*
X13519801Y-16946508D01*
X13519801Y-16946508D02*
X13510277Y-16956031D01*
X13510277Y-16956031D02*
X13491229Y-16984603D01*
X13491229Y-16984603D02*
X13481706Y-17022698D01*
X13481706Y-17022698D02*
X13481706Y-17098889D01*
X13481706Y-17098889D02*
X13491229Y-17117936D01*
X13491229Y-17117936D02*
X13500753Y-17127460D01*
X13500753Y-17127460D02*
X13519801Y-17136984D01*
X13519801Y-17136984D02*
X13557896Y-17136984D01*
X13557896Y-17136984D02*
X13576944Y-17127460D01*
X13576944Y-17127460D02*
X13586468Y-17117936D01*
X13586468Y-17117936D02*
X13595991Y-17098889D01*
X13595991Y-17098889D02*
X13595991Y-17051270D01*
X13595991Y-17051270D02*
X13586468Y-17032222D01*
X13586468Y-17032222D02*
X13576944Y-17022698D01*
X13576944Y-17022698D02*
X13557896Y-17013174D01*
X13557896Y-17013174D02*
X13519801Y-17013174D01*
X13519801Y-17013174D02*
X13500753Y-17022698D01*
X13500753Y-17022698D02*
X13491229Y-17032222D01*
X13491229Y-17032222D02*
X13481706Y-17051270D01*
X13834087Y-17136984D02*
X13834087Y-16936984D01*
X13919801Y-17136984D02*
X13919801Y-17032222D01*
X13919801Y-17032222D02*
X13910277Y-17013174D01*
X13910277Y-17013174D02*
X13891230Y-17003650D01*
X13891230Y-17003650D02*
X13862658Y-17003650D01*
X13862658Y-17003650D02*
X13843610Y-17013174D01*
X13843610Y-17013174D02*
X13834087Y-17022698D01*
X14043610Y-17136984D02*
X14024563Y-17127460D01*
X14024563Y-17127460D02*
X14015039Y-17117936D01*
X14015039Y-17117936D02*
X14005515Y-17098889D01*
X14005515Y-17098889D02*
X14005515Y-17041746D01*
X14005515Y-17041746D02*
X14015039Y-17022698D01*
X14015039Y-17022698D02*
X14024563Y-17013174D01*
X14024563Y-17013174D02*
X14043610Y-17003650D01*
X14043610Y-17003650D02*
X14072182Y-17003650D01*
X14072182Y-17003650D02*
X14091230Y-17013174D01*
X14091230Y-17013174D02*
X14100753Y-17022698D01*
X14100753Y-17022698D02*
X14110277Y-17041746D01*
X14110277Y-17041746D02*
X14110277Y-17098889D01*
X14110277Y-17098889D02*
X14100753Y-17117936D01*
X14100753Y-17117936D02*
X14091230Y-17127460D01*
X14091230Y-17127460D02*
X14072182Y-17136984D01*
X14072182Y-17136984D02*
X14043610Y-17136984D01*
X14224563Y-17136984D02*
X14205515Y-17127460D01*
X14205515Y-17127460D02*
X14195991Y-17108412D01*
X14195991Y-17108412D02*
X14195991Y-16936984D01*
X14376944Y-17127460D02*
X14357896Y-17136984D01*
X14357896Y-17136984D02*
X14319801Y-17136984D01*
X14319801Y-17136984D02*
X14300753Y-17127460D01*
X14300753Y-17127460D02*
X14291230Y-17108412D01*
X14291230Y-17108412D02*
X14291230Y-17032222D01*
X14291230Y-17032222D02*
X14300753Y-17013174D01*
X14300753Y-17013174D02*
X14319801Y-17003650D01*
X14319801Y-17003650D02*
X14357896Y-17003650D01*
X14357896Y-17003650D02*
X14376944Y-17013174D01*
X14376944Y-17013174D02*
X14386468Y-17032222D01*
X14386468Y-17032222D02*
X14386468Y-17051270D01*
X14386468Y-17051270D02*
X14291230Y-17070317D01*
X14462658Y-17127460D02*
X14481706Y-17136984D01*
X14481706Y-17136984D02*
X14519801Y-17136984D01*
X14519801Y-17136984D02*
X14538849Y-17127460D01*
X14538849Y-17127460D02*
X14548372Y-17108412D01*
X14548372Y-17108412D02*
X14548372Y-17098889D01*
X14548372Y-17098889D02*
X14538849Y-17079841D01*
X14538849Y-17079841D02*
X14519801Y-17070317D01*
X14519801Y-17070317D02*
X14491230Y-17070317D01*
X14491230Y-17070317D02*
X14472182Y-17060793D01*
X14472182Y-17060793D02*
X14462658Y-17041746D01*
X14462658Y-17041746D02*
X14462658Y-17032222D01*
X14462658Y-17032222D02*
X14472182Y-17013174D01*
X14472182Y-17013174D02*
X14491230Y-17003650D01*
X14491230Y-17003650D02*
X14519801Y-17003650D01*
X14519801Y-17003650D02*
X14538849Y-17013174D01*
X14615039Y-17213174D02*
X14624563Y-17203650D01*
X14624563Y-17203650D02*
X14643611Y-17175079D01*
X14643611Y-17175079D02*
X14653134Y-17156031D01*
X14653134Y-17156031D02*
X14662658Y-17127460D01*
X14662658Y-17127460D02*
X14672182Y-17079841D01*
X14672182Y-17079841D02*
X14672182Y-17041746D01*
X14672182Y-17041746D02*
X14662658Y-16994127D01*
X14662658Y-16994127D02*
X14653134Y-16965555D01*
X14653134Y-16965555D02*
X14643611Y-16946508D01*
X14643611Y-16946508D02*
X14624563Y-16917936D01*
X14624563Y-16917936D02*
X14615039Y-16908412D01*
D12*
X9636320Y-17341320D02*
X9636320Y-17277680D01*
X9572680Y-17277680D01*
X9572680Y-17341320D01*
X9636320Y-17341320D01*
D11*
X9948372Y-17200984D02*
X9967420Y-17200984D01*
X9967420Y-17200984D02*
X9986467Y-17210508D01*
X9986467Y-17210508D02*
X9995991Y-17220031D01*
X9995991Y-17220031D02*
X10005515Y-17239079D01*
X10005515Y-17239079D02*
X10015039Y-17277174D01*
X10015039Y-17277174D02*
X10015039Y-17324793D01*
X10015039Y-17324793D02*
X10005515Y-17362889D01*
X10005515Y-17362889D02*
X9995991Y-17381936D01*
X9995991Y-17381936D02*
X9986467Y-17391460D01*
X9986467Y-17391460D02*
X9967420Y-17400984D01*
X9967420Y-17400984D02*
X9948372Y-17400984D01*
X9948372Y-17400984D02*
X9929324Y-17391460D01*
X9929324Y-17391460D02*
X9919801Y-17381936D01*
X9919801Y-17381936D02*
X9910277Y-17362889D01*
X9910277Y-17362889D02*
X9900753Y-17324793D01*
X9900753Y-17324793D02*
X9900753Y-17277174D01*
X9900753Y-17277174D02*
X9910277Y-17239079D01*
X9910277Y-17239079D02*
X9919801Y-17220031D01*
X9919801Y-17220031D02*
X9929324Y-17210508D01*
X9929324Y-17210508D02*
X9948372Y-17200984D01*
X10100753Y-17381936D02*
X10110277Y-17391460D01*
X10110277Y-17391460D02*
X10100753Y-17400984D01*
X10100753Y-17400984D02*
X10091229Y-17391460D01*
X10091229Y-17391460D02*
X10100753Y-17381936D01*
X10100753Y-17381936D02*
X10100753Y-17400984D01*
X10205515Y-17400984D02*
X10243610Y-17400984D01*
X10243610Y-17400984D02*
X10262658Y-17391460D01*
X10262658Y-17391460D02*
X10272182Y-17381936D01*
X10272182Y-17381936D02*
X10291229Y-17353365D01*
X10291229Y-17353365D02*
X10300753Y-17315270D01*
X10300753Y-17315270D02*
X10300753Y-17239079D01*
X10300753Y-17239079D02*
X10291229Y-17220031D01*
X10291229Y-17220031D02*
X10281705Y-17210508D01*
X10281705Y-17210508D02*
X10262658Y-17200984D01*
X10262658Y-17200984D02*
X10224563Y-17200984D01*
X10224563Y-17200984D02*
X10205515Y-17210508D01*
X10205515Y-17210508D02*
X10195991Y-17220031D01*
X10195991Y-17220031D02*
X10186467Y-17239079D01*
X10186467Y-17239079D02*
X10186467Y-17286698D01*
X10186467Y-17286698D02*
X10195991Y-17305746D01*
X10195991Y-17305746D02*
X10205515Y-17315270D01*
X10205515Y-17315270D02*
X10224563Y-17324793D01*
X10224563Y-17324793D02*
X10262658Y-17324793D01*
X10262658Y-17324793D02*
X10281705Y-17315270D01*
X10281705Y-17315270D02*
X10291229Y-17305746D01*
X10291229Y-17305746D02*
X10300753Y-17286698D01*
X10424563Y-17200984D02*
X10443610Y-17200984D01*
X10443610Y-17200984D02*
X10462658Y-17210508D01*
X10462658Y-17210508D02*
X10472182Y-17220031D01*
X10472182Y-17220031D02*
X10481705Y-17239079D01*
X10481705Y-17239079D02*
X10491229Y-17277174D01*
X10491229Y-17277174D02*
X10491229Y-17324793D01*
X10491229Y-17324793D02*
X10481705Y-17362889D01*
X10481705Y-17362889D02*
X10472182Y-17381936D01*
X10472182Y-17381936D02*
X10462658Y-17391460D01*
X10462658Y-17391460D02*
X10443610Y-17400984D01*
X10443610Y-17400984D02*
X10424563Y-17400984D01*
X10424563Y-17400984D02*
X10405515Y-17391460D01*
X10405515Y-17391460D02*
X10395991Y-17381936D01*
X10395991Y-17381936D02*
X10386467Y-17362889D01*
X10386467Y-17362889D02*
X10376944Y-17324793D01*
X10376944Y-17324793D02*
X10376944Y-17277174D01*
X10376944Y-17277174D02*
X10386467Y-17239079D01*
X10386467Y-17239079D02*
X10395991Y-17220031D01*
X10395991Y-17220031D02*
X10405515Y-17210508D01*
X10405515Y-17210508D02*
X10424563Y-17200984D01*
X10615039Y-17200984D02*
X10634086Y-17200984D01*
X10634086Y-17200984D02*
X10653134Y-17210508D01*
X10653134Y-17210508D02*
X10662658Y-17220031D01*
X10662658Y-17220031D02*
X10672182Y-17239079D01*
X10672182Y-17239079D02*
X10681705Y-17277174D01*
X10681705Y-17277174D02*
X10681705Y-17324793D01*
X10681705Y-17324793D02*
X10672182Y-17362889D01*
X10672182Y-17362889D02*
X10662658Y-17381936D01*
X10662658Y-17381936D02*
X10653134Y-17391460D01*
X10653134Y-17391460D02*
X10634086Y-17400984D01*
X10634086Y-17400984D02*
X10615039Y-17400984D01*
X10615039Y-17400984D02*
X10595991Y-17391460D01*
X10595991Y-17391460D02*
X10586467Y-17381936D01*
X10586467Y-17381936D02*
X10576944Y-17362889D01*
X10576944Y-17362889D02*
X10567420Y-17324793D01*
X10567420Y-17324793D02*
X10567420Y-17277174D01*
X10567420Y-17277174D02*
X10576944Y-17239079D01*
X10576944Y-17239079D02*
X10586467Y-17220031D01*
X10586467Y-17220031D02*
X10595991Y-17210508D01*
X10595991Y-17210508D02*
X10615039Y-17200984D01*
X10767420Y-17400984D02*
X10767420Y-17267650D01*
X10767420Y-17286698D02*
X10776944Y-17277174D01*
X10776944Y-17277174D02*
X10795991Y-17267650D01*
X10795991Y-17267650D02*
X10824563Y-17267650D01*
X10824563Y-17267650D02*
X10843610Y-17277174D01*
X10843610Y-17277174D02*
X10853134Y-17296222D01*
X10853134Y-17296222D02*
X10853134Y-17400984D01*
X10853134Y-17296222D02*
X10862658Y-17277174D01*
X10862658Y-17277174D02*
X10881705Y-17267650D01*
X10881705Y-17267650D02*
X10910277Y-17267650D01*
X10910277Y-17267650D02*
X10929325Y-17277174D01*
X10929325Y-17277174D02*
X10938848Y-17296222D01*
X10938848Y-17296222D02*
X10938848Y-17400984D01*
X11034086Y-17400984D02*
X11034086Y-17267650D01*
X11034086Y-17286698D02*
X11043610Y-17277174D01*
X11043610Y-17277174D02*
X11062658Y-17267650D01*
X11062658Y-17267650D02*
X11091229Y-17267650D01*
X11091229Y-17267650D02*
X11110277Y-17277174D01*
X11110277Y-17277174D02*
X11119801Y-17296222D01*
X11119801Y-17296222D02*
X11119801Y-17400984D01*
X11119801Y-17296222D02*
X11129325Y-17277174D01*
X11129325Y-17277174D02*
X11148372Y-17267650D01*
X11148372Y-17267650D02*
X11176944Y-17267650D01*
X11176944Y-17267650D02*
X11195991Y-17277174D01*
X11195991Y-17277174D02*
X11205515Y-17296222D01*
X11205515Y-17296222D02*
X11205515Y-17400984D01*
X11595991Y-17191460D02*
X11424563Y-17448603D01*
X11853134Y-17200984D02*
X11872182Y-17200984D01*
X11872182Y-17200984D02*
X11891229Y-17210508D01*
X11891229Y-17210508D02*
X11900753Y-17220031D01*
X11900753Y-17220031D02*
X11910277Y-17239079D01*
X11910277Y-17239079D02*
X11919801Y-17277174D01*
X11919801Y-17277174D02*
X11919801Y-17324793D01*
X11919801Y-17324793D02*
X11910277Y-17362889D01*
X11910277Y-17362889D02*
X11900753Y-17381936D01*
X11900753Y-17381936D02*
X11891229Y-17391460D01*
X11891229Y-17391460D02*
X11872182Y-17400984D01*
X11872182Y-17400984D02*
X11853134Y-17400984D01*
X11853134Y-17400984D02*
X11834086Y-17391460D01*
X11834086Y-17391460D02*
X11824563Y-17381936D01*
X11824563Y-17381936D02*
X11815039Y-17362889D01*
X11815039Y-17362889D02*
X11805515Y-17324793D01*
X11805515Y-17324793D02*
X11805515Y-17277174D01*
X11805515Y-17277174D02*
X11815039Y-17239079D01*
X11815039Y-17239079D02*
X11824563Y-17220031D01*
X11824563Y-17220031D02*
X11834086Y-17210508D01*
X11834086Y-17210508D02*
X11853134Y-17200984D01*
X12005515Y-17381936D02*
X12015039Y-17391460D01*
X12015039Y-17391460D02*
X12005515Y-17400984D01*
X12005515Y-17400984D02*
X11995991Y-17391460D01*
X11995991Y-17391460D02*
X12005515Y-17381936D01*
X12005515Y-17381936D02*
X12005515Y-17400984D01*
X12138848Y-17200984D02*
X12157896Y-17200984D01*
X12157896Y-17200984D02*
X12176944Y-17210508D01*
X12176944Y-17210508D02*
X12186467Y-17220031D01*
X12186467Y-17220031D02*
X12195991Y-17239079D01*
X12195991Y-17239079D02*
X12205515Y-17277174D01*
X12205515Y-17277174D02*
X12205515Y-17324793D01*
X12205515Y-17324793D02*
X12195991Y-17362889D01*
X12195991Y-17362889D02*
X12186467Y-17381936D01*
X12186467Y-17381936D02*
X12176944Y-17391460D01*
X12176944Y-17391460D02*
X12157896Y-17400984D01*
X12157896Y-17400984D02*
X12138848Y-17400984D01*
X12138848Y-17400984D02*
X12119801Y-17391460D01*
X12119801Y-17391460D02*
X12110277Y-17381936D01*
X12110277Y-17381936D02*
X12100753Y-17362889D01*
X12100753Y-17362889D02*
X12091229Y-17324793D01*
X12091229Y-17324793D02*
X12091229Y-17277174D01*
X12091229Y-17277174D02*
X12100753Y-17239079D01*
X12100753Y-17239079D02*
X12110277Y-17220031D01*
X12110277Y-17220031D02*
X12119801Y-17210508D01*
X12119801Y-17210508D02*
X12138848Y-17200984D01*
X12272182Y-17200984D02*
X12395991Y-17200984D01*
X12395991Y-17200984D02*
X12329325Y-17277174D01*
X12329325Y-17277174D02*
X12357896Y-17277174D01*
X12357896Y-17277174D02*
X12376944Y-17286698D01*
X12376944Y-17286698D02*
X12386467Y-17296222D01*
X12386467Y-17296222D02*
X12395991Y-17315270D01*
X12395991Y-17315270D02*
X12395991Y-17362889D01*
X12395991Y-17362889D02*
X12386467Y-17381936D01*
X12386467Y-17381936D02*
X12376944Y-17391460D01*
X12376944Y-17391460D02*
X12357896Y-17400984D01*
X12357896Y-17400984D02*
X12300753Y-17400984D01*
X12300753Y-17400984D02*
X12281706Y-17391460D01*
X12281706Y-17391460D02*
X12272182Y-17381936D01*
X12576944Y-17200984D02*
X12481706Y-17200984D01*
X12481706Y-17200984D02*
X12472182Y-17296222D01*
X12472182Y-17296222D02*
X12481706Y-17286698D01*
X12481706Y-17286698D02*
X12500753Y-17277174D01*
X12500753Y-17277174D02*
X12548372Y-17277174D01*
X12548372Y-17277174D02*
X12567420Y-17286698D01*
X12567420Y-17286698D02*
X12576944Y-17296222D01*
X12576944Y-17296222D02*
X12586467Y-17315270D01*
X12586467Y-17315270D02*
X12586467Y-17362889D01*
X12586467Y-17362889D02*
X12576944Y-17381936D01*
X12576944Y-17381936D02*
X12567420Y-17391460D01*
X12567420Y-17391460D02*
X12548372Y-17400984D01*
X12548372Y-17400984D02*
X12500753Y-17400984D01*
X12500753Y-17400984D02*
X12481706Y-17391460D01*
X12481706Y-17391460D02*
X12472182Y-17381936D01*
X12757896Y-17267650D02*
X12757896Y-17400984D01*
X12710277Y-17191460D02*
X12662658Y-17334317D01*
X12662658Y-17334317D02*
X12786467Y-17334317D01*
X12853134Y-17200984D02*
X12853134Y-17239079D01*
X12929325Y-17200984D02*
X12929325Y-17239079D01*
X13224563Y-17477174D02*
X13215039Y-17467650D01*
X13215039Y-17467650D02*
X13195991Y-17439079D01*
X13195991Y-17439079D02*
X13186468Y-17420031D01*
X13186468Y-17420031D02*
X13176944Y-17391460D01*
X13176944Y-17391460D02*
X13167420Y-17343841D01*
X13167420Y-17343841D02*
X13167420Y-17305746D01*
X13167420Y-17305746D02*
X13176944Y-17258127D01*
X13176944Y-17258127D02*
X13186468Y-17229555D01*
X13186468Y-17229555D02*
X13195991Y-17210508D01*
X13195991Y-17210508D02*
X13215039Y-17181936D01*
X13215039Y-17181936D02*
X13224563Y-17172412D01*
X13405515Y-17400984D02*
X13291229Y-17400984D01*
X13348372Y-17400984D02*
X13348372Y-17200984D01*
X13348372Y-17200984D02*
X13329325Y-17229555D01*
X13329325Y-17229555D02*
X13310277Y-17248603D01*
X13310277Y-17248603D02*
X13291229Y-17258127D01*
X13529325Y-17200984D02*
X13548372Y-17200984D01*
X13548372Y-17200984D02*
X13567420Y-17210508D01*
X13567420Y-17210508D02*
X13576944Y-17220031D01*
X13576944Y-17220031D02*
X13586468Y-17239079D01*
X13586468Y-17239079D02*
X13595991Y-17277174D01*
X13595991Y-17277174D02*
X13595991Y-17324793D01*
X13595991Y-17324793D02*
X13586468Y-17362889D01*
X13586468Y-17362889D02*
X13576944Y-17381936D01*
X13576944Y-17381936D02*
X13567420Y-17391460D01*
X13567420Y-17391460D02*
X13548372Y-17400984D01*
X13548372Y-17400984D02*
X13529325Y-17400984D01*
X13529325Y-17400984D02*
X13510277Y-17391460D01*
X13510277Y-17391460D02*
X13500753Y-17381936D01*
X13500753Y-17381936D02*
X13491229Y-17362889D01*
X13491229Y-17362889D02*
X13481706Y-17324793D01*
X13481706Y-17324793D02*
X13481706Y-17277174D01*
X13481706Y-17277174D02*
X13491229Y-17239079D01*
X13491229Y-17239079D02*
X13500753Y-17220031D01*
X13500753Y-17220031D02*
X13510277Y-17210508D01*
X13510277Y-17210508D02*
X13529325Y-17200984D01*
X13834087Y-17400984D02*
X13834087Y-17200984D01*
X13919801Y-17400984D02*
X13919801Y-17296222D01*
X13919801Y-17296222D02*
X13910277Y-17277174D01*
X13910277Y-17277174D02*
X13891230Y-17267650D01*
X13891230Y-17267650D02*
X13862658Y-17267650D01*
X13862658Y-17267650D02*
X13843610Y-17277174D01*
X13843610Y-17277174D02*
X13834087Y-17286698D01*
X14043610Y-17400984D02*
X14024563Y-17391460D01*
X14024563Y-17391460D02*
X14015039Y-17381936D01*
X14015039Y-17381936D02*
X14005515Y-17362889D01*
X14005515Y-17362889D02*
X14005515Y-17305746D01*
X14005515Y-17305746D02*
X14015039Y-17286698D01*
X14015039Y-17286698D02*
X14024563Y-17277174D01*
X14024563Y-17277174D02*
X14043610Y-17267650D01*
X14043610Y-17267650D02*
X14072182Y-17267650D01*
X14072182Y-17267650D02*
X14091230Y-17277174D01*
X14091230Y-17277174D02*
X14100753Y-17286698D01*
X14100753Y-17286698D02*
X14110277Y-17305746D01*
X14110277Y-17305746D02*
X14110277Y-17362889D01*
X14110277Y-17362889D02*
X14100753Y-17381936D01*
X14100753Y-17381936D02*
X14091230Y-17391460D01*
X14091230Y-17391460D02*
X14072182Y-17400984D01*
X14072182Y-17400984D02*
X14043610Y-17400984D01*
X14224563Y-17400984D02*
X14205515Y-17391460D01*
X14205515Y-17391460D02*
X14195991Y-17372412D01*
X14195991Y-17372412D02*
X14195991Y-17200984D01*
X14376944Y-17391460D02*
X14357896Y-17400984D01*
X14357896Y-17400984D02*
X14319801Y-17400984D01*
X14319801Y-17400984D02*
X14300753Y-17391460D01*
X14300753Y-17391460D02*
X14291230Y-17372412D01*
X14291230Y-17372412D02*
X14291230Y-17296222D01*
X14291230Y-17296222D02*
X14300753Y-17277174D01*
X14300753Y-17277174D02*
X14319801Y-17267650D01*
X14319801Y-17267650D02*
X14357896Y-17267650D01*
X14357896Y-17267650D02*
X14376944Y-17277174D01*
X14376944Y-17277174D02*
X14386468Y-17296222D01*
X14386468Y-17296222D02*
X14386468Y-17315270D01*
X14386468Y-17315270D02*
X14291230Y-17334317D01*
X14462658Y-17391460D02*
X14481706Y-17400984D01*
X14481706Y-17400984D02*
X14519801Y-17400984D01*
X14519801Y-17400984D02*
X14538849Y-17391460D01*
X14538849Y-17391460D02*
X14548372Y-17372412D01*
X14548372Y-17372412D02*
X14548372Y-17362889D01*
X14548372Y-17362889D02*
X14538849Y-17343841D01*
X14538849Y-17343841D02*
X14519801Y-17334317D01*
X14519801Y-17334317D02*
X14491230Y-17334317D01*
X14491230Y-17334317D02*
X14472182Y-17324793D01*
X14472182Y-17324793D02*
X14462658Y-17305746D01*
X14462658Y-17305746D02*
X14462658Y-17296222D01*
X14462658Y-17296222D02*
X14472182Y-17277174D01*
X14472182Y-17277174D02*
X14491230Y-17267650D01*
X14491230Y-17267650D02*
X14519801Y-17267650D01*
X14519801Y-17267650D02*
X14538849Y-17277174D01*
X14615039Y-17477174D02*
X14624563Y-17467650D01*
X14624563Y-17467650D02*
X14643611Y-17439079D01*
X14643611Y-17439079D02*
X14653134Y-17420031D01*
X14653134Y-17420031D02*
X14662658Y-17391460D01*
X14662658Y-17391460D02*
X14672182Y-17343841D01*
X14672182Y-17343841D02*
X14672182Y-17305746D01*
X14672182Y-17305746D02*
X14662658Y-17258127D01*
X14662658Y-17258127D02*
X14653134Y-17229555D01*
X14653134Y-17229555D02*
X14643611Y-17210508D01*
X14643611Y-17210508D02*
X14624563Y-17181936D01*
X14624563Y-17181936D02*
X14615039Y-17172412D01*
D12*
X9599500Y-17623500D02*
X9649500Y-17573500D01*
X9599500Y-17523500D01*
X9549500Y-17573500D01*
X9599500Y-17623500D01*
D11*
X10015039Y-17664984D02*
X9900753Y-17664984D01*
X9957896Y-17664984D02*
X9957896Y-17464984D01*
X9957896Y-17464984D02*
X9938848Y-17493555D01*
X9938848Y-17493555D02*
X9919801Y-17512603D01*
X9919801Y-17512603D02*
X9900753Y-17522127D01*
X10100753Y-17645936D02*
X10110277Y-17655460D01*
X10110277Y-17655460D02*
X10100753Y-17664984D01*
X10100753Y-17664984D02*
X10091229Y-17655460D01*
X10091229Y-17655460D02*
X10100753Y-17645936D01*
X10100753Y-17645936D02*
X10100753Y-17664984D01*
X10234086Y-17464984D02*
X10253134Y-17464984D01*
X10253134Y-17464984D02*
X10272182Y-17474508D01*
X10272182Y-17474508D02*
X10281705Y-17484031D01*
X10281705Y-17484031D02*
X10291229Y-17503079D01*
X10291229Y-17503079D02*
X10300753Y-17541174D01*
X10300753Y-17541174D02*
X10300753Y-17588793D01*
X10300753Y-17588793D02*
X10291229Y-17626889D01*
X10291229Y-17626889D02*
X10281705Y-17645936D01*
X10281705Y-17645936D02*
X10272182Y-17655460D01*
X10272182Y-17655460D02*
X10253134Y-17664984D01*
X10253134Y-17664984D02*
X10234086Y-17664984D01*
X10234086Y-17664984D02*
X10215039Y-17655460D01*
X10215039Y-17655460D02*
X10205515Y-17645936D01*
X10205515Y-17645936D02*
X10195991Y-17626889D01*
X10195991Y-17626889D02*
X10186467Y-17588793D01*
X10186467Y-17588793D02*
X10186467Y-17541174D01*
X10186467Y-17541174D02*
X10195991Y-17503079D01*
X10195991Y-17503079D02*
X10205515Y-17484031D01*
X10205515Y-17484031D02*
X10215039Y-17474508D01*
X10215039Y-17474508D02*
X10234086Y-17464984D01*
X10424563Y-17464984D02*
X10443610Y-17464984D01*
X10443610Y-17464984D02*
X10462658Y-17474508D01*
X10462658Y-17474508D02*
X10472182Y-17484031D01*
X10472182Y-17484031D02*
X10481705Y-17503079D01*
X10481705Y-17503079D02*
X10491229Y-17541174D01*
X10491229Y-17541174D02*
X10491229Y-17588793D01*
X10491229Y-17588793D02*
X10481705Y-17626889D01*
X10481705Y-17626889D02*
X10472182Y-17645936D01*
X10472182Y-17645936D02*
X10462658Y-17655460D01*
X10462658Y-17655460D02*
X10443610Y-17664984D01*
X10443610Y-17664984D02*
X10424563Y-17664984D01*
X10424563Y-17664984D02*
X10405515Y-17655460D01*
X10405515Y-17655460D02*
X10395991Y-17645936D01*
X10395991Y-17645936D02*
X10386467Y-17626889D01*
X10386467Y-17626889D02*
X10376944Y-17588793D01*
X10376944Y-17588793D02*
X10376944Y-17541174D01*
X10376944Y-17541174D02*
X10386467Y-17503079D01*
X10386467Y-17503079D02*
X10395991Y-17484031D01*
X10395991Y-17484031D02*
X10405515Y-17474508D01*
X10405515Y-17474508D02*
X10424563Y-17464984D01*
X10615039Y-17464984D02*
X10634086Y-17464984D01*
X10634086Y-17464984D02*
X10653134Y-17474508D01*
X10653134Y-17474508D02*
X10662658Y-17484031D01*
X10662658Y-17484031D02*
X10672182Y-17503079D01*
X10672182Y-17503079D02*
X10681705Y-17541174D01*
X10681705Y-17541174D02*
X10681705Y-17588793D01*
X10681705Y-17588793D02*
X10672182Y-17626889D01*
X10672182Y-17626889D02*
X10662658Y-17645936D01*
X10662658Y-17645936D02*
X10653134Y-17655460D01*
X10653134Y-17655460D02*
X10634086Y-17664984D01*
X10634086Y-17664984D02*
X10615039Y-17664984D01*
X10615039Y-17664984D02*
X10595991Y-17655460D01*
X10595991Y-17655460D02*
X10586467Y-17645936D01*
X10586467Y-17645936D02*
X10576944Y-17626889D01*
X10576944Y-17626889D02*
X10567420Y-17588793D01*
X10567420Y-17588793D02*
X10567420Y-17541174D01*
X10567420Y-17541174D02*
X10576944Y-17503079D01*
X10576944Y-17503079D02*
X10586467Y-17484031D01*
X10586467Y-17484031D02*
X10595991Y-17474508D01*
X10595991Y-17474508D02*
X10615039Y-17464984D01*
X10767420Y-17664984D02*
X10767420Y-17531650D01*
X10767420Y-17550698D02*
X10776944Y-17541174D01*
X10776944Y-17541174D02*
X10795991Y-17531650D01*
X10795991Y-17531650D02*
X10824563Y-17531650D01*
X10824563Y-17531650D02*
X10843610Y-17541174D01*
X10843610Y-17541174D02*
X10853134Y-17560222D01*
X10853134Y-17560222D02*
X10853134Y-17664984D01*
X10853134Y-17560222D02*
X10862658Y-17541174D01*
X10862658Y-17541174D02*
X10881705Y-17531650D01*
X10881705Y-17531650D02*
X10910277Y-17531650D01*
X10910277Y-17531650D02*
X10929325Y-17541174D01*
X10929325Y-17541174D02*
X10938848Y-17560222D01*
X10938848Y-17560222D02*
X10938848Y-17664984D01*
X11034086Y-17664984D02*
X11034086Y-17531650D01*
X11034086Y-17550698D02*
X11043610Y-17541174D01*
X11043610Y-17541174D02*
X11062658Y-17531650D01*
X11062658Y-17531650D02*
X11091229Y-17531650D01*
X11091229Y-17531650D02*
X11110277Y-17541174D01*
X11110277Y-17541174D02*
X11119801Y-17560222D01*
X11119801Y-17560222D02*
X11119801Y-17664984D01*
X11119801Y-17560222D02*
X11129325Y-17541174D01*
X11129325Y-17541174D02*
X11148372Y-17531650D01*
X11148372Y-17531650D02*
X11176944Y-17531650D01*
X11176944Y-17531650D02*
X11195991Y-17541174D01*
X11195991Y-17541174D02*
X11205515Y-17560222D01*
X11205515Y-17560222D02*
X11205515Y-17664984D01*
X11595991Y-17455460D02*
X11424563Y-17712603D01*
X11853134Y-17464984D02*
X11872182Y-17464984D01*
X11872182Y-17464984D02*
X11891229Y-17474508D01*
X11891229Y-17474508D02*
X11900753Y-17484031D01*
X11900753Y-17484031D02*
X11910277Y-17503079D01*
X11910277Y-17503079D02*
X11919801Y-17541174D01*
X11919801Y-17541174D02*
X11919801Y-17588793D01*
X11919801Y-17588793D02*
X11910277Y-17626889D01*
X11910277Y-17626889D02*
X11900753Y-17645936D01*
X11900753Y-17645936D02*
X11891229Y-17655460D01*
X11891229Y-17655460D02*
X11872182Y-17664984D01*
X11872182Y-17664984D02*
X11853134Y-17664984D01*
X11853134Y-17664984D02*
X11834086Y-17655460D01*
X11834086Y-17655460D02*
X11824563Y-17645936D01*
X11824563Y-17645936D02*
X11815039Y-17626889D01*
X11815039Y-17626889D02*
X11805515Y-17588793D01*
X11805515Y-17588793D02*
X11805515Y-17541174D01*
X11805515Y-17541174D02*
X11815039Y-17503079D01*
X11815039Y-17503079D02*
X11824563Y-17484031D01*
X11824563Y-17484031D02*
X11834086Y-17474508D01*
X11834086Y-17474508D02*
X11853134Y-17464984D01*
X12005515Y-17645936D02*
X12015039Y-17655460D01*
X12015039Y-17655460D02*
X12005515Y-17664984D01*
X12005515Y-17664984D02*
X11995991Y-17655460D01*
X11995991Y-17655460D02*
X12005515Y-17645936D01*
X12005515Y-17645936D02*
X12005515Y-17664984D01*
X12138848Y-17464984D02*
X12157896Y-17464984D01*
X12157896Y-17464984D02*
X12176944Y-17474508D01*
X12176944Y-17474508D02*
X12186467Y-17484031D01*
X12186467Y-17484031D02*
X12195991Y-17503079D01*
X12195991Y-17503079D02*
X12205515Y-17541174D01*
X12205515Y-17541174D02*
X12205515Y-17588793D01*
X12205515Y-17588793D02*
X12195991Y-17626889D01*
X12195991Y-17626889D02*
X12186467Y-17645936D01*
X12186467Y-17645936D02*
X12176944Y-17655460D01*
X12176944Y-17655460D02*
X12157896Y-17664984D01*
X12157896Y-17664984D02*
X12138848Y-17664984D01*
X12138848Y-17664984D02*
X12119801Y-17655460D01*
X12119801Y-17655460D02*
X12110277Y-17645936D01*
X12110277Y-17645936D02*
X12100753Y-17626889D01*
X12100753Y-17626889D02*
X12091229Y-17588793D01*
X12091229Y-17588793D02*
X12091229Y-17541174D01*
X12091229Y-17541174D02*
X12100753Y-17503079D01*
X12100753Y-17503079D02*
X12110277Y-17484031D01*
X12110277Y-17484031D02*
X12119801Y-17474508D01*
X12119801Y-17474508D02*
X12138848Y-17464984D01*
X12272182Y-17464984D02*
X12395991Y-17464984D01*
X12395991Y-17464984D02*
X12329325Y-17541174D01*
X12329325Y-17541174D02*
X12357896Y-17541174D01*
X12357896Y-17541174D02*
X12376944Y-17550698D01*
X12376944Y-17550698D02*
X12386467Y-17560222D01*
X12386467Y-17560222D02*
X12395991Y-17579270D01*
X12395991Y-17579270D02*
X12395991Y-17626889D01*
X12395991Y-17626889D02*
X12386467Y-17645936D01*
X12386467Y-17645936D02*
X12376944Y-17655460D01*
X12376944Y-17655460D02*
X12357896Y-17664984D01*
X12357896Y-17664984D02*
X12300753Y-17664984D01*
X12300753Y-17664984D02*
X12281706Y-17655460D01*
X12281706Y-17655460D02*
X12272182Y-17645936D01*
X12491229Y-17664984D02*
X12529325Y-17664984D01*
X12529325Y-17664984D02*
X12548372Y-17655460D01*
X12548372Y-17655460D02*
X12557896Y-17645936D01*
X12557896Y-17645936D02*
X12576944Y-17617365D01*
X12576944Y-17617365D02*
X12586467Y-17579270D01*
X12586467Y-17579270D02*
X12586467Y-17503079D01*
X12586467Y-17503079D02*
X12576944Y-17484031D01*
X12576944Y-17484031D02*
X12567420Y-17474508D01*
X12567420Y-17474508D02*
X12548372Y-17464984D01*
X12548372Y-17464984D02*
X12510277Y-17464984D01*
X12510277Y-17464984D02*
X12491229Y-17474508D01*
X12491229Y-17474508D02*
X12481706Y-17484031D01*
X12481706Y-17484031D02*
X12472182Y-17503079D01*
X12472182Y-17503079D02*
X12472182Y-17550698D01*
X12472182Y-17550698D02*
X12481706Y-17569746D01*
X12481706Y-17569746D02*
X12491229Y-17579270D01*
X12491229Y-17579270D02*
X12510277Y-17588793D01*
X12510277Y-17588793D02*
X12548372Y-17588793D01*
X12548372Y-17588793D02*
X12567420Y-17579270D01*
X12567420Y-17579270D02*
X12576944Y-17569746D01*
X12576944Y-17569746D02*
X12586467Y-17550698D01*
X12757896Y-17531650D02*
X12757896Y-17664984D01*
X12710277Y-17455460D02*
X12662658Y-17598317D01*
X12662658Y-17598317D02*
X12786467Y-17598317D01*
X12853134Y-17464984D02*
X12853134Y-17503079D01*
X12929325Y-17464984D02*
X12929325Y-17503079D01*
X13224563Y-17741174D02*
X13215039Y-17731650D01*
X13215039Y-17731650D02*
X13195991Y-17703079D01*
X13195991Y-17703079D02*
X13186468Y-17684031D01*
X13186468Y-17684031D02*
X13176944Y-17655460D01*
X13176944Y-17655460D02*
X13167420Y-17607841D01*
X13167420Y-17607841D02*
X13167420Y-17569746D01*
X13167420Y-17569746D02*
X13176944Y-17522127D01*
X13176944Y-17522127D02*
X13186468Y-17493555D01*
X13186468Y-17493555D02*
X13195991Y-17474508D01*
X13195991Y-17474508D02*
X13215039Y-17445936D01*
X13215039Y-17445936D02*
X13224563Y-17436412D01*
X13281706Y-17464984D02*
X13405515Y-17464984D01*
X13405515Y-17464984D02*
X13338848Y-17541174D01*
X13338848Y-17541174D02*
X13367420Y-17541174D01*
X13367420Y-17541174D02*
X13386468Y-17550698D01*
X13386468Y-17550698D02*
X13395991Y-17560222D01*
X13395991Y-17560222D02*
X13405515Y-17579270D01*
X13405515Y-17579270D02*
X13405515Y-17626889D01*
X13405515Y-17626889D02*
X13395991Y-17645936D01*
X13395991Y-17645936D02*
X13386468Y-17655460D01*
X13386468Y-17655460D02*
X13367420Y-17664984D01*
X13367420Y-17664984D02*
X13310277Y-17664984D01*
X13310277Y-17664984D02*
X13291229Y-17655460D01*
X13291229Y-17655460D02*
X13281706Y-17645936D01*
X13529325Y-17464984D02*
X13548372Y-17464984D01*
X13548372Y-17464984D02*
X13567420Y-17474508D01*
X13567420Y-17474508D02*
X13576944Y-17484031D01*
X13576944Y-17484031D02*
X13586468Y-17503079D01*
X13586468Y-17503079D02*
X13595991Y-17541174D01*
X13595991Y-17541174D02*
X13595991Y-17588793D01*
X13595991Y-17588793D02*
X13586468Y-17626889D01*
X13586468Y-17626889D02*
X13576944Y-17645936D01*
X13576944Y-17645936D02*
X13567420Y-17655460D01*
X13567420Y-17655460D02*
X13548372Y-17664984D01*
X13548372Y-17664984D02*
X13529325Y-17664984D01*
X13529325Y-17664984D02*
X13510277Y-17655460D01*
X13510277Y-17655460D02*
X13500753Y-17645936D01*
X13500753Y-17645936D02*
X13491229Y-17626889D01*
X13491229Y-17626889D02*
X13481706Y-17588793D01*
X13481706Y-17588793D02*
X13481706Y-17541174D01*
X13481706Y-17541174D02*
X13491229Y-17503079D01*
X13491229Y-17503079D02*
X13500753Y-17484031D01*
X13500753Y-17484031D02*
X13510277Y-17474508D01*
X13510277Y-17474508D02*
X13529325Y-17464984D01*
X13834087Y-17664984D02*
X13834087Y-17464984D01*
X13919801Y-17664984D02*
X13919801Y-17560222D01*
X13919801Y-17560222D02*
X13910277Y-17541174D01*
X13910277Y-17541174D02*
X13891230Y-17531650D01*
X13891230Y-17531650D02*
X13862658Y-17531650D01*
X13862658Y-17531650D02*
X13843610Y-17541174D01*
X13843610Y-17541174D02*
X13834087Y-17550698D01*
X14043610Y-17664984D02*
X14024563Y-17655460D01*
X14024563Y-17655460D02*
X14015039Y-17645936D01*
X14015039Y-17645936D02*
X14005515Y-17626889D01*
X14005515Y-17626889D02*
X14005515Y-17569746D01*
X14005515Y-17569746D02*
X14015039Y-17550698D01*
X14015039Y-17550698D02*
X14024563Y-17541174D01*
X14024563Y-17541174D02*
X14043610Y-17531650D01*
X14043610Y-17531650D02*
X14072182Y-17531650D01*
X14072182Y-17531650D02*
X14091230Y-17541174D01*
X14091230Y-17541174D02*
X14100753Y-17550698D01*
X14100753Y-17550698D02*
X14110277Y-17569746D01*
X14110277Y-17569746D02*
X14110277Y-17626889D01*
X14110277Y-17626889D02*
X14100753Y-17645936D01*
X14100753Y-17645936D02*
X14091230Y-17655460D01*
X14091230Y-17655460D02*
X14072182Y-17664984D01*
X14072182Y-17664984D02*
X14043610Y-17664984D01*
X14224563Y-17664984D02*
X14205515Y-17655460D01*
X14205515Y-17655460D02*
X14195991Y-17636412D01*
X14195991Y-17636412D02*
X14195991Y-17464984D01*
X14376944Y-17655460D02*
X14357896Y-17664984D01*
X14357896Y-17664984D02*
X14319801Y-17664984D01*
X14319801Y-17664984D02*
X14300753Y-17655460D01*
X14300753Y-17655460D02*
X14291230Y-17636412D01*
X14291230Y-17636412D02*
X14291230Y-17560222D01*
X14291230Y-17560222D02*
X14300753Y-17541174D01*
X14300753Y-17541174D02*
X14319801Y-17531650D01*
X14319801Y-17531650D02*
X14357896Y-17531650D01*
X14357896Y-17531650D02*
X14376944Y-17541174D01*
X14376944Y-17541174D02*
X14386468Y-17560222D01*
X14386468Y-17560222D02*
X14386468Y-17579270D01*
X14386468Y-17579270D02*
X14291230Y-17598317D01*
X14462658Y-17655460D02*
X14481706Y-17664984D01*
X14481706Y-17664984D02*
X14519801Y-17664984D01*
X14519801Y-17664984D02*
X14538849Y-17655460D01*
X14538849Y-17655460D02*
X14548372Y-17636412D01*
X14548372Y-17636412D02*
X14548372Y-17626889D01*
X14548372Y-17626889D02*
X14538849Y-17607841D01*
X14538849Y-17607841D02*
X14519801Y-17598317D01*
X14519801Y-17598317D02*
X14491230Y-17598317D01*
X14491230Y-17598317D02*
X14472182Y-17588793D01*
X14472182Y-17588793D02*
X14462658Y-17569746D01*
X14462658Y-17569746D02*
X14462658Y-17560222D01*
X14462658Y-17560222D02*
X14472182Y-17541174D01*
X14472182Y-17541174D02*
X14491230Y-17531650D01*
X14491230Y-17531650D02*
X14519801Y-17531650D01*
X14519801Y-17531650D02*
X14538849Y-17541174D01*
X14786468Y-17588793D02*
X14938849Y-17588793D01*
X14862658Y-17664984D02*
X14862658Y-17512603D01*
X15167420Y-17464984D02*
X15291230Y-17464984D01*
X15291230Y-17464984D02*
X15224563Y-17541174D01*
X15224563Y-17541174D02*
X15253134Y-17541174D01*
X15253134Y-17541174D02*
X15272182Y-17550698D01*
X15272182Y-17550698D02*
X15281706Y-17560222D01*
X15281706Y-17560222D02*
X15291230Y-17579270D01*
X15291230Y-17579270D02*
X15291230Y-17626889D01*
X15291230Y-17626889D02*
X15281706Y-17645936D01*
X15281706Y-17645936D02*
X15272182Y-17655460D01*
X15272182Y-17655460D02*
X15253134Y-17664984D01*
X15253134Y-17664984D02*
X15195992Y-17664984D01*
X15195992Y-17664984D02*
X15176944Y-17655460D01*
X15176944Y-17655460D02*
X15167420Y-17645936D01*
X15519801Y-17655460D02*
X15538849Y-17664984D01*
X15538849Y-17664984D02*
X15576944Y-17664984D01*
X15576944Y-17664984D02*
X15595992Y-17655460D01*
X15595992Y-17655460D02*
X15605515Y-17636412D01*
X15605515Y-17636412D02*
X15605515Y-17626889D01*
X15605515Y-17626889D02*
X15595992Y-17607841D01*
X15595992Y-17607841D02*
X15576944Y-17598317D01*
X15576944Y-17598317D02*
X15548373Y-17598317D01*
X15548373Y-17598317D02*
X15529325Y-17588793D01*
X15529325Y-17588793D02*
X15519801Y-17569746D01*
X15519801Y-17569746D02*
X15519801Y-17560222D01*
X15519801Y-17560222D02*
X15529325Y-17541174D01*
X15529325Y-17541174D02*
X15548373Y-17531650D01*
X15548373Y-17531650D02*
X15576944Y-17531650D01*
X15576944Y-17531650D02*
X15595992Y-17541174D01*
X15719801Y-17664984D02*
X15700754Y-17655460D01*
X15700754Y-17655460D02*
X15691230Y-17636412D01*
X15691230Y-17636412D02*
X15691230Y-17464984D01*
X15824563Y-17664984D02*
X15805515Y-17655460D01*
X15805515Y-17655460D02*
X15795992Y-17645936D01*
X15795992Y-17645936D02*
X15786468Y-17626889D01*
X15786468Y-17626889D02*
X15786468Y-17569746D01*
X15786468Y-17569746D02*
X15795992Y-17550698D01*
X15795992Y-17550698D02*
X15805515Y-17541174D01*
X15805515Y-17541174D02*
X15824563Y-17531650D01*
X15824563Y-17531650D02*
X15853135Y-17531650D01*
X15853135Y-17531650D02*
X15872182Y-17541174D01*
X15872182Y-17541174D02*
X15881706Y-17550698D01*
X15881706Y-17550698D02*
X15891230Y-17569746D01*
X15891230Y-17569746D02*
X15891230Y-17626889D01*
X15891230Y-17626889D02*
X15881706Y-17645936D01*
X15881706Y-17645936D02*
X15872182Y-17655460D01*
X15872182Y-17655460D02*
X15853135Y-17664984D01*
X15853135Y-17664984D02*
X15824563Y-17664984D01*
X15948373Y-17531650D02*
X16024563Y-17531650D01*
X15976944Y-17464984D02*
X15976944Y-17636412D01*
X15976944Y-17636412D02*
X15986468Y-17655460D01*
X15986468Y-17655460D02*
X16005515Y-17664984D01*
X16005515Y-17664984D02*
X16024563Y-17664984D01*
X16081706Y-17655460D02*
X16100754Y-17664984D01*
X16100754Y-17664984D02*
X16138849Y-17664984D01*
X16138849Y-17664984D02*
X16157896Y-17655460D01*
X16157896Y-17655460D02*
X16167420Y-17636412D01*
X16167420Y-17636412D02*
X16167420Y-17626889D01*
X16167420Y-17626889D02*
X16157896Y-17607841D01*
X16157896Y-17607841D02*
X16138849Y-17598317D01*
X16138849Y-17598317D02*
X16110277Y-17598317D01*
X16110277Y-17598317D02*
X16091230Y-17588793D01*
X16091230Y-17588793D02*
X16081706Y-17569746D01*
X16081706Y-17569746D02*
X16081706Y-17560222D01*
X16081706Y-17560222D02*
X16091230Y-17541174D01*
X16091230Y-17541174D02*
X16110277Y-17531650D01*
X16110277Y-17531650D02*
X16138849Y-17531650D01*
X16138849Y-17531650D02*
X16157896Y-17541174D01*
X16234087Y-17741174D02*
X16243611Y-17731650D01*
X16243611Y-17731650D02*
X16262658Y-17703079D01*
X16262658Y-17703079D02*
X16272182Y-17684031D01*
X16272182Y-17684031D02*
X16281706Y-17655460D01*
X16281706Y-17655460D02*
X16291230Y-17607841D01*
X16291230Y-17607841D02*
X16291230Y-17569746D01*
X16291230Y-17569746D02*
X16281706Y-17522127D01*
X16281706Y-17522127D02*
X16272182Y-17493555D01*
X16272182Y-17493555D02*
X16262658Y-17474508D01*
X16262658Y-17474508D02*
X16243611Y-17445936D01*
X16243611Y-17445936D02*
X16234087Y-17436412D01*
D13*
X9539500Y-17782500D02*
X9649500Y-17892500D01*
X9649500Y-17782500D02*
X9539500Y-17892500D01*
X9649500Y-17837500D02*
G75*
G03*
X9539500Y-17837500I-55000J0D01*
G01*
X9539500Y-17837500D02*
G75*
G03*
X9649500Y-17837500I55000J0D01*
G01*
D11*
X10015039Y-17928984D02*
X9900753Y-17928984D01*
X9957896Y-17928984D02*
X9957896Y-17728984D01*
X9957896Y-17728984D02*
X9938848Y-17757555D01*
X9938848Y-17757555D02*
X9919801Y-17776603D01*
X9919801Y-17776603D02*
X9900753Y-17786127D01*
X10100753Y-17909936D02*
X10110277Y-17919460D01*
X10110277Y-17919460D02*
X10100753Y-17928984D01*
X10100753Y-17928984D02*
X10091229Y-17919460D01*
X10091229Y-17919460D02*
X10100753Y-17909936D01*
X10100753Y-17909936D02*
X10100753Y-17928984D01*
X10300753Y-17928984D02*
X10186467Y-17928984D01*
X10243610Y-17928984D02*
X10243610Y-17728984D01*
X10243610Y-17728984D02*
X10224563Y-17757555D01*
X10224563Y-17757555D02*
X10205515Y-17776603D01*
X10205515Y-17776603D02*
X10186467Y-17786127D01*
X10424563Y-17728984D02*
X10443610Y-17728984D01*
X10443610Y-17728984D02*
X10462658Y-17738508D01*
X10462658Y-17738508D02*
X10472182Y-17748031D01*
X10472182Y-17748031D02*
X10481705Y-17767079D01*
X10481705Y-17767079D02*
X10491229Y-17805174D01*
X10491229Y-17805174D02*
X10491229Y-17852793D01*
X10491229Y-17852793D02*
X10481705Y-17890889D01*
X10481705Y-17890889D02*
X10472182Y-17909936D01*
X10472182Y-17909936D02*
X10462658Y-17919460D01*
X10462658Y-17919460D02*
X10443610Y-17928984D01*
X10443610Y-17928984D02*
X10424563Y-17928984D01*
X10424563Y-17928984D02*
X10405515Y-17919460D01*
X10405515Y-17919460D02*
X10395991Y-17909936D01*
X10395991Y-17909936D02*
X10386467Y-17890889D01*
X10386467Y-17890889D02*
X10376944Y-17852793D01*
X10376944Y-17852793D02*
X10376944Y-17805174D01*
X10376944Y-17805174D02*
X10386467Y-17767079D01*
X10386467Y-17767079D02*
X10395991Y-17748031D01*
X10395991Y-17748031D02*
X10405515Y-17738508D01*
X10405515Y-17738508D02*
X10424563Y-17728984D01*
X10615039Y-17728984D02*
X10634086Y-17728984D01*
X10634086Y-17728984D02*
X10653134Y-17738508D01*
X10653134Y-17738508D02*
X10662658Y-17748031D01*
X10662658Y-17748031D02*
X10672182Y-17767079D01*
X10672182Y-17767079D02*
X10681705Y-17805174D01*
X10681705Y-17805174D02*
X10681705Y-17852793D01*
X10681705Y-17852793D02*
X10672182Y-17890889D01*
X10672182Y-17890889D02*
X10662658Y-17909936D01*
X10662658Y-17909936D02*
X10653134Y-17919460D01*
X10653134Y-17919460D02*
X10634086Y-17928984D01*
X10634086Y-17928984D02*
X10615039Y-17928984D01*
X10615039Y-17928984D02*
X10595991Y-17919460D01*
X10595991Y-17919460D02*
X10586467Y-17909936D01*
X10586467Y-17909936D02*
X10576944Y-17890889D01*
X10576944Y-17890889D02*
X10567420Y-17852793D01*
X10567420Y-17852793D02*
X10567420Y-17805174D01*
X10567420Y-17805174D02*
X10576944Y-17767079D01*
X10576944Y-17767079D02*
X10586467Y-17748031D01*
X10586467Y-17748031D02*
X10595991Y-17738508D01*
X10595991Y-17738508D02*
X10615039Y-17728984D01*
X10767420Y-17928984D02*
X10767420Y-17795650D01*
X10767420Y-17814698D02*
X10776944Y-17805174D01*
X10776944Y-17805174D02*
X10795991Y-17795650D01*
X10795991Y-17795650D02*
X10824563Y-17795650D01*
X10824563Y-17795650D02*
X10843610Y-17805174D01*
X10843610Y-17805174D02*
X10853134Y-17824222D01*
X10853134Y-17824222D02*
X10853134Y-17928984D01*
X10853134Y-17824222D02*
X10862658Y-17805174D01*
X10862658Y-17805174D02*
X10881705Y-17795650D01*
X10881705Y-17795650D02*
X10910277Y-17795650D01*
X10910277Y-17795650D02*
X10929325Y-17805174D01*
X10929325Y-17805174D02*
X10938848Y-17824222D01*
X10938848Y-17824222D02*
X10938848Y-17928984D01*
X11034086Y-17928984D02*
X11034086Y-17795650D01*
X11034086Y-17814698D02*
X11043610Y-17805174D01*
X11043610Y-17805174D02*
X11062658Y-17795650D01*
X11062658Y-17795650D02*
X11091229Y-17795650D01*
X11091229Y-17795650D02*
X11110277Y-17805174D01*
X11110277Y-17805174D02*
X11119801Y-17824222D01*
X11119801Y-17824222D02*
X11119801Y-17928984D01*
X11119801Y-17824222D02*
X11129325Y-17805174D01*
X11129325Y-17805174D02*
X11148372Y-17795650D01*
X11148372Y-17795650D02*
X11176944Y-17795650D01*
X11176944Y-17795650D02*
X11195991Y-17805174D01*
X11195991Y-17805174D02*
X11205515Y-17824222D01*
X11205515Y-17824222D02*
X11205515Y-17928984D01*
X11595991Y-17719460D02*
X11424563Y-17976603D01*
X11853134Y-17728984D02*
X11872182Y-17728984D01*
X11872182Y-17728984D02*
X11891229Y-17738508D01*
X11891229Y-17738508D02*
X11900753Y-17748031D01*
X11900753Y-17748031D02*
X11910277Y-17767079D01*
X11910277Y-17767079D02*
X11919801Y-17805174D01*
X11919801Y-17805174D02*
X11919801Y-17852793D01*
X11919801Y-17852793D02*
X11910277Y-17890889D01*
X11910277Y-17890889D02*
X11900753Y-17909936D01*
X11900753Y-17909936D02*
X11891229Y-17919460D01*
X11891229Y-17919460D02*
X11872182Y-17928984D01*
X11872182Y-17928984D02*
X11853134Y-17928984D01*
X11853134Y-17928984D02*
X11834086Y-17919460D01*
X11834086Y-17919460D02*
X11824563Y-17909936D01*
X11824563Y-17909936D02*
X11815039Y-17890889D01*
X11815039Y-17890889D02*
X11805515Y-17852793D01*
X11805515Y-17852793D02*
X11805515Y-17805174D01*
X11805515Y-17805174D02*
X11815039Y-17767079D01*
X11815039Y-17767079D02*
X11824563Y-17748031D01*
X11824563Y-17748031D02*
X11834086Y-17738508D01*
X11834086Y-17738508D02*
X11853134Y-17728984D01*
X12005515Y-17909936D02*
X12015039Y-17919460D01*
X12015039Y-17919460D02*
X12005515Y-17928984D01*
X12005515Y-17928984D02*
X11995991Y-17919460D01*
X11995991Y-17919460D02*
X12005515Y-17909936D01*
X12005515Y-17909936D02*
X12005515Y-17928984D01*
X12138848Y-17728984D02*
X12157896Y-17728984D01*
X12157896Y-17728984D02*
X12176944Y-17738508D01*
X12176944Y-17738508D02*
X12186467Y-17748031D01*
X12186467Y-17748031D02*
X12195991Y-17767079D01*
X12195991Y-17767079D02*
X12205515Y-17805174D01*
X12205515Y-17805174D02*
X12205515Y-17852793D01*
X12205515Y-17852793D02*
X12195991Y-17890889D01*
X12195991Y-17890889D02*
X12186467Y-17909936D01*
X12186467Y-17909936D02*
X12176944Y-17919460D01*
X12176944Y-17919460D02*
X12157896Y-17928984D01*
X12157896Y-17928984D02*
X12138848Y-17928984D01*
X12138848Y-17928984D02*
X12119801Y-17919460D01*
X12119801Y-17919460D02*
X12110277Y-17909936D01*
X12110277Y-17909936D02*
X12100753Y-17890889D01*
X12100753Y-17890889D02*
X12091229Y-17852793D01*
X12091229Y-17852793D02*
X12091229Y-17805174D01*
X12091229Y-17805174D02*
X12100753Y-17767079D01*
X12100753Y-17767079D02*
X12110277Y-17748031D01*
X12110277Y-17748031D02*
X12119801Y-17738508D01*
X12119801Y-17738508D02*
X12138848Y-17728984D01*
X12376944Y-17795650D02*
X12376944Y-17928984D01*
X12329325Y-17719460D02*
X12281706Y-17862317D01*
X12281706Y-17862317D02*
X12405515Y-17862317D01*
X12462658Y-17728984D02*
X12586467Y-17728984D01*
X12586467Y-17728984D02*
X12519801Y-17805174D01*
X12519801Y-17805174D02*
X12548372Y-17805174D01*
X12548372Y-17805174D02*
X12567420Y-17814698D01*
X12567420Y-17814698D02*
X12576944Y-17824222D01*
X12576944Y-17824222D02*
X12586467Y-17843270D01*
X12586467Y-17843270D02*
X12586467Y-17890889D01*
X12586467Y-17890889D02*
X12576944Y-17909936D01*
X12576944Y-17909936D02*
X12567420Y-17919460D01*
X12567420Y-17919460D02*
X12548372Y-17928984D01*
X12548372Y-17928984D02*
X12491229Y-17928984D01*
X12491229Y-17928984D02*
X12472182Y-17919460D01*
X12472182Y-17919460D02*
X12462658Y-17909936D01*
X12653134Y-17728984D02*
X12776944Y-17728984D01*
X12776944Y-17728984D02*
X12710277Y-17805174D01*
X12710277Y-17805174D02*
X12738848Y-17805174D01*
X12738848Y-17805174D02*
X12757896Y-17814698D01*
X12757896Y-17814698D02*
X12767420Y-17824222D01*
X12767420Y-17824222D02*
X12776944Y-17843270D01*
X12776944Y-17843270D02*
X12776944Y-17890889D01*
X12776944Y-17890889D02*
X12767420Y-17909936D01*
X12767420Y-17909936D02*
X12757896Y-17919460D01*
X12757896Y-17919460D02*
X12738848Y-17928984D01*
X12738848Y-17928984D02*
X12681706Y-17928984D01*
X12681706Y-17928984D02*
X12662658Y-17919460D01*
X12662658Y-17919460D02*
X12653134Y-17909936D01*
X12853134Y-17728984D02*
X12853134Y-17767079D01*
X12929325Y-17728984D02*
X12929325Y-17767079D01*
X13224563Y-18005174D02*
X13215039Y-17995650D01*
X13215039Y-17995650D02*
X13195991Y-17967079D01*
X13195991Y-17967079D02*
X13186468Y-17948031D01*
X13186468Y-17948031D02*
X13176944Y-17919460D01*
X13176944Y-17919460D02*
X13167420Y-17871841D01*
X13167420Y-17871841D02*
X13167420Y-17833746D01*
X13167420Y-17833746D02*
X13176944Y-17786127D01*
X13176944Y-17786127D02*
X13186468Y-17757555D01*
X13186468Y-17757555D02*
X13195991Y-17738508D01*
X13195991Y-17738508D02*
X13215039Y-17709936D01*
X13215039Y-17709936D02*
X13224563Y-17700412D01*
X13405515Y-17928984D02*
X13291229Y-17928984D01*
X13348372Y-17928984D02*
X13348372Y-17728984D01*
X13348372Y-17728984D02*
X13329325Y-17757555D01*
X13329325Y-17757555D02*
X13310277Y-17776603D01*
X13310277Y-17776603D02*
X13291229Y-17786127D01*
X13595991Y-17928984D02*
X13481706Y-17928984D01*
X13538848Y-17928984D02*
X13538848Y-17728984D01*
X13538848Y-17728984D02*
X13519801Y-17757555D01*
X13519801Y-17757555D02*
X13500753Y-17776603D01*
X13500753Y-17776603D02*
X13481706Y-17786127D01*
X13834087Y-17928984D02*
X13834087Y-17728984D01*
X13919801Y-17928984D02*
X13919801Y-17824222D01*
X13919801Y-17824222D02*
X13910277Y-17805174D01*
X13910277Y-17805174D02*
X13891230Y-17795650D01*
X13891230Y-17795650D02*
X13862658Y-17795650D01*
X13862658Y-17795650D02*
X13843610Y-17805174D01*
X13843610Y-17805174D02*
X13834087Y-17814698D01*
X14043610Y-17928984D02*
X14024563Y-17919460D01*
X14024563Y-17919460D02*
X14015039Y-17909936D01*
X14015039Y-17909936D02*
X14005515Y-17890889D01*
X14005515Y-17890889D02*
X14005515Y-17833746D01*
X14005515Y-17833746D02*
X14015039Y-17814698D01*
X14015039Y-17814698D02*
X14024563Y-17805174D01*
X14024563Y-17805174D02*
X14043610Y-17795650D01*
X14043610Y-17795650D02*
X14072182Y-17795650D01*
X14072182Y-17795650D02*
X14091230Y-17805174D01*
X14091230Y-17805174D02*
X14100753Y-17814698D01*
X14100753Y-17814698D02*
X14110277Y-17833746D01*
X14110277Y-17833746D02*
X14110277Y-17890889D01*
X14110277Y-17890889D02*
X14100753Y-17909936D01*
X14100753Y-17909936D02*
X14091230Y-17919460D01*
X14091230Y-17919460D02*
X14072182Y-17928984D01*
X14072182Y-17928984D02*
X14043610Y-17928984D01*
X14224563Y-17928984D02*
X14205515Y-17919460D01*
X14205515Y-17919460D02*
X14195991Y-17900412D01*
X14195991Y-17900412D02*
X14195991Y-17728984D01*
X14376944Y-17919460D02*
X14357896Y-17928984D01*
X14357896Y-17928984D02*
X14319801Y-17928984D01*
X14319801Y-17928984D02*
X14300753Y-17919460D01*
X14300753Y-17919460D02*
X14291230Y-17900412D01*
X14291230Y-17900412D02*
X14291230Y-17824222D01*
X14291230Y-17824222D02*
X14300753Y-17805174D01*
X14300753Y-17805174D02*
X14319801Y-17795650D01*
X14319801Y-17795650D02*
X14357896Y-17795650D01*
X14357896Y-17795650D02*
X14376944Y-17805174D01*
X14376944Y-17805174D02*
X14386468Y-17824222D01*
X14386468Y-17824222D02*
X14386468Y-17843270D01*
X14386468Y-17843270D02*
X14291230Y-17862317D01*
X14462658Y-17919460D02*
X14481706Y-17928984D01*
X14481706Y-17928984D02*
X14519801Y-17928984D01*
X14519801Y-17928984D02*
X14538849Y-17919460D01*
X14538849Y-17919460D02*
X14548372Y-17900412D01*
X14548372Y-17900412D02*
X14548372Y-17890889D01*
X14548372Y-17890889D02*
X14538849Y-17871841D01*
X14538849Y-17871841D02*
X14519801Y-17862317D01*
X14519801Y-17862317D02*
X14491230Y-17862317D01*
X14491230Y-17862317D02*
X14472182Y-17852793D01*
X14472182Y-17852793D02*
X14462658Y-17833746D01*
X14462658Y-17833746D02*
X14462658Y-17824222D01*
X14462658Y-17824222D02*
X14472182Y-17805174D01*
X14472182Y-17805174D02*
X14491230Y-17795650D01*
X14491230Y-17795650D02*
X14519801Y-17795650D01*
X14519801Y-17795650D02*
X14538849Y-17805174D01*
X14615039Y-18005174D02*
X14624563Y-17995650D01*
X14624563Y-17995650D02*
X14643611Y-17967079D01*
X14643611Y-17967079D02*
X14653134Y-17948031D01*
X14653134Y-17948031D02*
X14662658Y-17919460D01*
X14662658Y-17919460D02*
X14672182Y-17871841D01*
X14672182Y-17871841D02*
X14672182Y-17833746D01*
X14672182Y-17833746D02*
X14662658Y-17786127D01*
X14662658Y-17786127D02*
X14653134Y-17757555D01*
X14653134Y-17757555D02*
X14643611Y-17738508D01*
X14643611Y-17738508D02*
X14624563Y-17709936D01*
X14624563Y-17709936D02*
X14615039Y-17700412D01*
D14*
X9529500Y-18041500D02*
X9649500Y-18161500D01*
X9649500Y-18041500D02*
X9529500Y-18161500D01*
X9589500Y-18041500D02*
X9589500Y-18161500D01*
X9529500Y-18101500D02*
X9649500Y-18101500D01*
D11*
X10015039Y-18192984D02*
X9900753Y-18192984D01*
X9957896Y-18192984D02*
X9957896Y-17992984D01*
X9957896Y-17992984D02*
X9938848Y-18021555D01*
X9938848Y-18021555D02*
X9919801Y-18040603D01*
X9919801Y-18040603D02*
X9900753Y-18050127D01*
X10100753Y-18173936D02*
X10110277Y-18183460D01*
X10110277Y-18183460D02*
X10100753Y-18192984D01*
X10100753Y-18192984D02*
X10091229Y-18183460D01*
X10091229Y-18183460D02*
X10100753Y-18173936D01*
X10100753Y-18173936D02*
X10100753Y-18192984D01*
X10186467Y-18012031D02*
X10195991Y-18002508D01*
X10195991Y-18002508D02*
X10215039Y-17992984D01*
X10215039Y-17992984D02*
X10262658Y-17992984D01*
X10262658Y-17992984D02*
X10281705Y-18002508D01*
X10281705Y-18002508D02*
X10291229Y-18012031D01*
X10291229Y-18012031D02*
X10300753Y-18031079D01*
X10300753Y-18031079D02*
X10300753Y-18050127D01*
X10300753Y-18050127D02*
X10291229Y-18078698D01*
X10291229Y-18078698D02*
X10176944Y-18192984D01*
X10176944Y-18192984D02*
X10300753Y-18192984D01*
X10424563Y-17992984D02*
X10443610Y-17992984D01*
X10443610Y-17992984D02*
X10462658Y-18002508D01*
X10462658Y-18002508D02*
X10472182Y-18012031D01*
X10472182Y-18012031D02*
X10481705Y-18031079D01*
X10481705Y-18031079D02*
X10491229Y-18069174D01*
X10491229Y-18069174D02*
X10491229Y-18116793D01*
X10491229Y-18116793D02*
X10481705Y-18154889D01*
X10481705Y-18154889D02*
X10472182Y-18173936D01*
X10472182Y-18173936D02*
X10462658Y-18183460D01*
X10462658Y-18183460D02*
X10443610Y-18192984D01*
X10443610Y-18192984D02*
X10424563Y-18192984D01*
X10424563Y-18192984D02*
X10405515Y-18183460D01*
X10405515Y-18183460D02*
X10395991Y-18173936D01*
X10395991Y-18173936D02*
X10386467Y-18154889D01*
X10386467Y-18154889D02*
X10376944Y-18116793D01*
X10376944Y-18116793D02*
X10376944Y-18069174D01*
X10376944Y-18069174D02*
X10386467Y-18031079D01*
X10386467Y-18031079D02*
X10395991Y-18012031D01*
X10395991Y-18012031D02*
X10405515Y-18002508D01*
X10405515Y-18002508D02*
X10424563Y-17992984D01*
X10615039Y-17992984D02*
X10634086Y-17992984D01*
X10634086Y-17992984D02*
X10653134Y-18002508D01*
X10653134Y-18002508D02*
X10662658Y-18012031D01*
X10662658Y-18012031D02*
X10672182Y-18031079D01*
X10672182Y-18031079D02*
X10681705Y-18069174D01*
X10681705Y-18069174D02*
X10681705Y-18116793D01*
X10681705Y-18116793D02*
X10672182Y-18154889D01*
X10672182Y-18154889D02*
X10662658Y-18173936D01*
X10662658Y-18173936D02*
X10653134Y-18183460D01*
X10653134Y-18183460D02*
X10634086Y-18192984D01*
X10634086Y-18192984D02*
X10615039Y-18192984D01*
X10615039Y-18192984D02*
X10595991Y-18183460D01*
X10595991Y-18183460D02*
X10586467Y-18173936D01*
X10586467Y-18173936D02*
X10576944Y-18154889D01*
X10576944Y-18154889D02*
X10567420Y-18116793D01*
X10567420Y-18116793D02*
X10567420Y-18069174D01*
X10567420Y-18069174D02*
X10576944Y-18031079D01*
X10576944Y-18031079D02*
X10586467Y-18012031D01*
X10586467Y-18012031D02*
X10595991Y-18002508D01*
X10595991Y-18002508D02*
X10615039Y-17992984D01*
X10767420Y-18192984D02*
X10767420Y-18059650D01*
X10767420Y-18078698D02*
X10776944Y-18069174D01*
X10776944Y-18069174D02*
X10795991Y-18059650D01*
X10795991Y-18059650D02*
X10824563Y-18059650D01*
X10824563Y-18059650D02*
X10843610Y-18069174D01*
X10843610Y-18069174D02*
X10853134Y-18088222D01*
X10853134Y-18088222D02*
X10853134Y-18192984D01*
X10853134Y-18088222D02*
X10862658Y-18069174D01*
X10862658Y-18069174D02*
X10881705Y-18059650D01*
X10881705Y-18059650D02*
X10910277Y-18059650D01*
X10910277Y-18059650D02*
X10929325Y-18069174D01*
X10929325Y-18069174D02*
X10938848Y-18088222D01*
X10938848Y-18088222D02*
X10938848Y-18192984D01*
X11034086Y-18192984D02*
X11034086Y-18059650D01*
X11034086Y-18078698D02*
X11043610Y-18069174D01*
X11043610Y-18069174D02*
X11062658Y-18059650D01*
X11062658Y-18059650D02*
X11091229Y-18059650D01*
X11091229Y-18059650D02*
X11110277Y-18069174D01*
X11110277Y-18069174D02*
X11119801Y-18088222D01*
X11119801Y-18088222D02*
X11119801Y-18192984D01*
X11119801Y-18088222D02*
X11129325Y-18069174D01*
X11129325Y-18069174D02*
X11148372Y-18059650D01*
X11148372Y-18059650D02*
X11176944Y-18059650D01*
X11176944Y-18059650D02*
X11195991Y-18069174D01*
X11195991Y-18069174D02*
X11205515Y-18088222D01*
X11205515Y-18088222D02*
X11205515Y-18192984D01*
X11595991Y-17983460D02*
X11424563Y-18240603D01*
X11853134Y-17992984D02*
X11872182Y-17992984D01*
X11872182Y-17992984D02*
X11891229Y-18002508D01*
X11891229Y-18002508D02*
X11900753Y-18012031D01*
X11900753Y-18012031D02*
X11910277Y-18031079D01*
X11910277Y-18031079D02*
X11919801Y-18069174D01*
X11919801Y-18069174D02*
X11919801Y-18116793D01*
X11919801Y-18116793D02*
X11910277Y-18154889D01*
X11910277Y-18154889D02*
X11900753Y-18173936D01*
X11900753Y-18173936D02*
X11891229Y-18183460D01*
X11891229Y-18183460D02*
X11872182Y-18192984D01*
X11872182Y-18192984D02*
X11853134Y-18192984D01*
X11853134Y-18192984D02*
X11834086Y-18183460D01*
X11834086Y-18183460D02*
X11824563Y-18173936D01*
X11824563Y-18173936D02*
X11815039Y-18154889D01*
X11815039Y-18154889D02*
X11805515Y-18116793D01*
X11805515Y-18116793D02*
X11805515Y-18069174D01*
X11805515Y-18069174D02*
X11815039Y-18031079D01*
X11815039Y-18031079D02*
X11824563Y-18012031D01*
X11824563Y-18012031D02*
X11834086Y-18002508D01*
X11834086Y-18002508D02*
X11853134Y-17992984D01*
X12005515Y-18173936D02*
X12015039Y-18183460D01*
X12015039Y-18183460D02*
X12005515Y-18192984D01*
X12005515Y-18192984D02*
X11995991Y-18183460D01*
X11995991Y-18183460D02*
X12005515Y-18173936D01*
X12005515Y-18173936D02*
X12005515Y-18192984D01*
X12138848Y-17992984D02*
X12157896Y-17992984D01*
X12157896Y-17992984D02*
X12176944Y-18002508D01*
X12176944Y-18002508D02*
X12186467Y-18012031D01*
X12186467Y-18012031D02*
X12195991Y-18031079D01*
X12195991Y-18031079D02*
X12205515Y-18069174D01*
X12205515Y-18069174D02*
X12205515Y-18116793D01*
X12205515Y-18116793D02*
X12195991Y-18154889D01*
X12195991Y-18154889D02*
X12186467Y-18173936D01*
X12186467Y-18173936D02*
X12176944Y-18183460D01*
X12176944Y-18183460D02*
X12157896Y-18192984D01*
X12157896Y-18192984D02*
X12138848Y-18192984D01*
X12138848Y-18192984D02*
X12119801Y-18183460D01*
X12119801Y-18183460D02*
X12110277Y-18173936D01*
X12110277Y-18173936D02*
X12100753Y-18154889D01*
X12100753Y-18154889D02*
X12091229Y-18116793D01*
X12091229Y-18116793D02*
X12091229Y-18069174D01*
X12091229Y-18069174D02*
X12100753Y-18031079D01*
X12100753Y-18031079D02*
X12110277Y-18012031D01*
X12110277Y-18012031D02*
X12119801Y-18002508D01*
X12119801Y-18002508D02*
X12138848Y-17992984D01*
X12376944Y-18059650D02*
X12376944Y-18192984D01*
X12329325Y-17983460D02*
X12281706Y-18126317D01*
X12281706Y-18126317D02*
X12405515Y-18126317D01*
X12462658Y-17992984D02*
X12595991Y-17992984D01*
X12595991Y-17992984D02*
X12510277Y-18192984D01*
X12662658Y-18012031D02*
X12672182Y-18002508D01*
X12672182Y-18002508D02*
X12691229Y-17992984D01*
X12691229Y-17992984D02*
X12738848Y-17992984D01*
X12738848Y-17992984D02*
X12757896Y-18002508D01*
X12757896Y-18002508D02*
X12767420Y-18012031D01*
X12767420Y-18012031D02*
X12776944Y-18031079D01*
X12776944Y-18031079D02*
X12776944Y-18050127D01*
X12776944Y-18050127D02*
X12767420Y-18078698D01*
X12767420Y-18078698D02*
X12653134Y-18192984D01*
X12653134Y-18192984D02*
X12776944Y-18192984D01*
X12853134Y-17992984D02*
X12853134Y-18031079D01*
X12929325Y-17992984D02*
X12929325Y-18031079D01*
X13224563Y-18269174D02*
X13215039Y-18259650D01*
X13215039Y-18259650D02*
X13195991Y-18231079D01*
X13195991Y-18231079D02*
X13186468Y-18212031D01*
X13186468Y-18212031D02*
X13176944Y-18183460D01*
X13176944Y-18183460D02*
X13167420Y-18135841D01*
X13167420Y-18135841D02*
X13167420Y-18097746D01*
X13167420Y-18097746D02*
X13176944Y-18050127D01*
X13176944Y-18050127D02*
X13186468Y-18021555D01*
X13186468Y-18021555D02*
X13195991Y-18002508D01*
X13195991Y-18002508D02*
X13215039Y-17973936D01*
X13215039Y-17973936D02*
X13224563Y-17964412D01*
X13291229Y-18012031D02*
X13300753Y-18002508D01*
X13300753Y-18002508D02*
X13319801Y-17992984D01*
X13319801Y-17992984D02*
X13367420Y-17992984D01*
X13367420Y-17992984D02*
X13386468Y-18002508D01*
X13386468Y-18002508D02*
X13395991Y-18012031D01*
X13395991Y-18012031D02*
X13405515Y-18031079D01*
X13405515Y-18031079D02*
X13405515Y-18050127D01*
X13405515Y-18050127D02*
X13395991Y-18078698D01*
X13395991Y-18078698D02*
X13281706Y-18192984D01*
X13281706Y-18192984D02*
X13405515Y-18192984D01*
X13481706Y-18012031D02*
X13491229Y-18002508D01*
X13491229Y-18002508D02*
X13510277Y-17992984D01*
X13510277Y-17992984D02*
X13557896Y-17992984D01*
X13557896Y-17992984D02*
X13576944Y-18002508D01*
X13576944Y-18002508D02*
X13586468Y-18012031D01*
X13586468Y-18012031D02*
X13595991Y-18031079D01*
X13595991Y-18031079D02*
X13595991Y-18050127D01*
X13595991Y-18050127D02*
X13586468Y-18078698D01*
X13586468Y-18078698D02*
X13472182Y-18192984D01*
X13472182Y-18192984D02*
X13595991Y-18192984D01*
X13834087Y-18192984D02*
X13834087Y-17992984D01*
X13919801Y-18192984D02*
X13919801Y-18088222D01*
X13919801Y-18088222D02*
X13910277Y-18069174D01*
X13910277Y-18069174D02*
X13891230Y-18059650D01*
X13891230Y-18059650D02*
X13862658Y-18059650D01*
X13862658Y-18059650D02*
X13843610Y-18069174D01*
X13843610Y-18069174D02*
X13834087Y-18078698D01*
X14043610Y-18192984D02*
X14024563Y-18183460D01*
X14024563Y-18183460D02*
X14015039Y-18173936D01*
X14015039Y-18173936D02*
X14005515Y-18154889D01*
X14005515Y-18154889D02*
X14005515Y-18097746D01*
X14005515Y-18097746D02*
X14015039Y-18078698D01*
X14015039Y-18078698D02*
X14024563Y-18069174D01*
X14024563Y-18069174D02*
X14043610Y-18059650D01*
X14043610Y-18059650D02*
X14072182Y-18059650D01*
X14072182Y-18059650D02*
X14091230Y-18069174D01*
X14091230Y-18069174D02*
X14100753Y-18078698D01*
X14100753Y-18078698D02*
X14110277Y-18097746D01*
X14110277Y-18097746D02*
X14110277Y-18154889D01*
X14110277Y-18154889D02*
X14100753Y-18173936D01*
X14100753Y-18173936D02*
X14091230Y-18183460D01*
X14091230Y-18183460D02*
X14072182Y-18192984D01*
X14072182Y-18192984D02*
X14043610Y-18192984D01*
X14224563Y-18192984D02*
X14205515Y-18183460D01*
X14205515Y-18183460D02*
X14195991Y-18164412D01*
X14195991Y-18164412D02*
X14195991Y-17992984D01*
X14376944Y-18183460D02*
X14357896Y-18192984D01*
X14357896Y-18192984D02*
X14319801Y-18192984D01*
X14319801Y-18192984D02*
X14300753Y-18183460D01*
X14300753Y-18183460D02*
X14291230Y-18164412D01*
X14291230Y-18164412D02*
X14291230Y-18088222D01*
X14291230Y-18088222D02*
X14300753Y-18069174D01*
X14300753Y-18069174D02*
X14319801Y-18059650D01*
X14319801Y-18059650D02*
X14357896Y-18059650D01*
X14357896Y-18059650D02*
X14376944Y-18069174D01*
X14376944Y-18069174D02*
X14386468Y-18088222D01*
X14386468Y-18088222D02*
X14386468Y-18107270D01*
X14386468Y-18107270D02*
X14291230Y-18126317D01*
X14462658Y-18183460D02*
X14481706Y-18192984D01*
X14481706Y-18192984D02*
X14519801Y-18192984D01*
X14519801Y-18192984D02*
X14538849Y-18183460D01*
X14538849Y-18183460D02*
X14548372Y-18164412D01*
X14548372Y-18164412D02*
X14548372Y-18154889D01*
X14548372Y-18154889D02*
X14538849Y-18135841D01*
X14538849Y-18135841D02*
X14519801Y-18126317D01*
X14519801Y-18126317D02*
X14491230Y-18126317D01*
X14491230Y-18126317D02*
X14472182Y-18116793D01*
X14472182Y-18116793D02*
X14462658Y-18097746D01*
X14462658Y-18097746D02*
X14462658Y-18088222D01*
X14462658Y-18088222D02*
X14472182Y-18069174D01*
X14472182Y-18069174D02*
X14491230Y-18059650D01*
X14491230Y-18059650D02*
X14519801Y-18059650D01*
X14519801Y-18059650D02*
X14538849Y-18069174D01*
X14615039Y-18269174D02*
X14624563Y-18259650D01*
X14624563Y-18259650D02*
X14643611Y-18231079D01*
X14643611Y-18231079D02*
X14653134Y-18212031D01*
X14653134Y-18212031D02*
X14662658Y-18183460D01*
X14662658Y-18183460D02*
X14672182Y-18135841D01*
X14672182Y-18135841D02*
X14672182Y-18097746D01*
X14672182Y-18097746D02*
X14662658Y-18050127D01*
X14662658Y-18050127D02*
X14653134Y-18021555D01*
X14653134Y-18021555D02*
X14643611Y-18002508D01*
X14643611Y-18002508D02*
X14624563Y-17973936D01*
X14624563Y-17973936D02*
X14615039Y-17964412D01*
X9449500Y-18265500D02*
X9649500Y-18465500D01*
X9649500Y-18265500D02*
X9449500Y-18465500D01*
X9620211Y-18436211D02*
X9620211Y-18294789D01*
X9478789Y-18294789D01*
X9478789Y-18436211D01*
X9620211Y-18436211D01*
X9891229Y-18256984D02*
X10015039Y-18256984D01*
X10015039Y-18256984D02*
X9948372Y-18333174D01*
X9948372Y-18333174D02*
X9976944Y-18333174D01*
X9976944Y-18333174D02*
X9995991Y-18342698D01*
X9995991Y-18342698D02*
X10005515Y-18352222D01*
X10005515Y-18352222D02*
X10015039Y-18371270D01*
X10015039Y-18371270D02*
X10015039Y-18418889D01*
X10015039Y-18418889D02*
X10005515Y-18437936D01*
X10005515Y-18437936D02*
X9995991Y-18447460D01*
X9995991Y-18447460D02*
X9976944Y-18456984D01*
X9976944Y-18456984D02*
X9919801Y-18456984D01*
X9919801Y-18456984D02*
X9900753Y-18447460D01*
X9900753Y-18447460D02*
X9891229Y-18437936D01*
X10100753Y-18437936D02*
X10110277Y-18447460D01*
X10110277Y-18447460D02*
X10100753Y-18456984D01*
X10100753Y-18456984D02*
X10091229Y-18447460D01*
X10091229Y-18447460D02*
X10100753Y-18437936D01*
X10100753Y-18437936D02*
X10100753Y-18456984D01*
X10186467Y-18276031D02*
X10195991Y-18266508D01*
X10195991Y-18266508D02*
X10215039Y-18256984D01*
X10215039Y-18256984D02*
X10262658Y-18256984D01*
X10262658Y-18256984D02*
X10281705Y-18266508D01*
X10281705Y-18266508D02*
X10291229Y-18276031D01*
X10291229Y-18276031D02*
X10300753Y-18295079D01*
X10300753Y-18295079D02*
X10300753Y-18314127D01*
X10300753Y-18314127D02*
X10291229Y-18342698D01*
X10291229Y-18342698D02*
X10176944Y-18456984D01*
X10176944Y-18456984D02*
X10300753Y-18456984D01*
X10424563Y-18256984D02*
X10443610Y-18256984D01*
X10443610Y-18256984D02*
X10462658Y-18266508D01*
X10462658Y-18266508D02*
X10472182Y-18276031D01*
X10472182Y-18276031D02*
X10481705Y-18295079D01*
X10481705Y-18295079D02*
X10491229Y-18333174D01*
X10491229Y-18333174D02*
X10491229Y-18380793D01*
X10491229Y-18380793D02*
X10481705Y-18418889D01*
X10481705Y-18418889D02*
X10472182Y-18437936D01*
X10472182Y-18437936D02*
X10462658Y-18447460D01*
X10462658Y-18447460D02*
X10443610Y-18456984D01*
X10443610Y-18456984D02*
X10424563Y-18456984D01*
X10424563Y-18456984D02*
X10405515Y-18447460D01*
X10405515Y-18447460D02*
X10395991Y-18437936D01*
X10395991Y-18437936D02*
X10386467Y-18418889D01*
X10386467Y-18418889D02*
X10376944Y-18380793D01*
X10376944Y-18380793D02*
X10376944Y-18333174D01*
X10376944Y-18333174D02*
X10386467Y-18295079D01*
X10386467Y-18295079D02*
X10395991Y-18276031D01*
X10395991Y-18276031D02*
X10405515Y-18266508D01*
X10405515Y-18266508D02*
X10424563Y-18256984D01*
X10615039Y-18256984D02*
X10634086Y-18256984D01*
X10634086Y-18256984D02*
X10653134Y-18266508D01*
X10653134Y-18266508D02*
X10662658Y-18276031D01*
X10662658Y-18276031D02*
X10672182Y-18295079D01*
X10672182Y-18295079D02*
X10681705Y-18333174D01*
X10681705Y-18333174D02*
X10681705Y-18380793D01*
X10681705Y-18380793D02*
X10672182Y-18418889D01*
X10672182Y-18418889D02*
X10662658Y-18437936D01*
X10662658Y-18437936D02*
X10653134Y-18447460D01*
X10653134Y-18447460D02*
X10634086Y-18456984D01*
X10634086Y-18456984D02*
X10615039Y-18456984D01*
X10615039Y-18456984D02*
X10595991Y-18447460D01*
X10595991Y-18447460D02*
X10586467Y-18437936D01*
X10586467Y-18437936D02*
X10576944Y-18418889D01*
X10576944Y-18418889D02*
X10567420Y-18380793D01*
X10567420Y-18380793D02*
X10567420Y-18333174D01*
X10567420Y-18333174D02*
X10576944Y-18295079D01*
X10576944Y-18295079D02*
X10586467Y-18276031D01*
X10586467Y-18276031D02*
X10595991Y-18266508D01*
X10595991Y-18266508D02*
X10615039Y-18256984D01*
X10767420Y-18456984D02*
X10767420Y-18323650D01*
X10767420Y-18342698D02*
X10776944Y-18333174D01*
X10776944Y-18333174D02*
X10795991Y-18323650D01*
X10795991Y-18323650D02*
X10824563Y-18323650D01*
X10824563Y-18323650D02*
X10843610Y-18333174D01*
X10843610Y-18333174D02*
X10853134Y-18352222D01*
X10853134Y-18352222D02*
X10853134Y-18456984D01*
X10853134Y-18352222D02*
X10862658Y-18333174D01*
X10862658Y-18333174D02*
X10881705Y-18323650D01*
X10881705Y-18323650D02*
X10910277Y-18323650D01*
X10910277Y-18323650D02*
X10929325Y-18333174D01*
X10929325Y-18333174D02*
X10938848Y-18352222D01*
X10938848Y-18352222D02*
X10938848Y-18456984D01*
X11034086Y-18456984D02*
X11034086Y-18323650D01*
X11034086Y-18342698D02*
X11043610Y-18333174D01*
X11043610Y-18333174D02*
X11062658Y-18323650D01*
X11062658Y-18323650D02*
X11091229Y-18323650D01*
X11091229Y-18323650D02*
X11110277Y-18333174D01*
X11110277Y-18333174D02*
X11119801Y-18352222D01*
X11119801Y-18352222D02*
X11119801Y-18456984D01*
X11119801Y-18352222D02*
X11129325Y-18333174D01*
X11129325Y-18333174D02*
X11148372Y-18323650D01*
X11148372Y-18323650D02*
X11176944Y-18323650D01*
X11176944Y-18323650D02*
X11195991Y-18333174D01*
X11195991Y-18333174D02*
X11205515Y-18352222D01*
X11205515Y-18352222D02*
X11205515Y-18456984D01*
X11595991Y-18247460D02*
X11424563Y-18504603D01*
X11853134Y-18256984D02*
X11872182Y-18256984D01*
X11872182Y-18256984D02*
X11891229Y-18266508D01*
X11891229Y-18266508D02*
X11900753Y-18276031D01*
X11900753Y-18276031D02*
X11910277Y-18295079D01*
X11910277Y-18295079D02*
X11919801Y-18333174D01*
X11919801Y-18333174D02*
X11919801Y-18380793D01*
X11919801Y-18380793D02*
X11910277Y-18418889D01*
X11910277Y-18418889D02*
X11900753Y-18437936D01*
X11900753Y-18437936D02*
X11891229Y-18447460D01*
X11891229Y-18447460D02*
X11872182Y-18456984D01*
X11872182Y-18456984D02*
X11853134Y-18456984D01*
X11853134Y-18456984D02*
X11834086Y-18447460D01*
X11834086Y-18447460D02*
X11824563Y-18437936D01*
X11824563Y-18437936D02*
X11815039Y-18418889D01*
X11815039Y-18418889D02*
X11805515Y-18380793D01*
X11805515Y-18380793D02*
X11805515Y-18333174D01*
X11805515Y-18333174D02*
X11815039Y-18295079D01*
X11815039Y-18295079D02*
X11824563Y-18276031D01*
X11824563Y-18276031D02*
X11834086Y-18266508D01*
X11834086Y-18266508D02*
X11853134Y-18256984D01*
X12005515Y-18437936D02*
X12015039Y-18447460D01*
X12015039Y-18447460D02*
X12005515Y-18456984D01*
X12005515Y-18456984D02*
X11995991Y-18447460D01*
X11995991Y-18447460D02*
X12005515Y-18437936D01*
X12005515Y-18437936D02*
X12005515Y-18456984D01*
X12205515Y-18456984D02*
X12091229Y-18456984D01*
X12148372Y-18456984D02*
X12148372Y-18256984D01*
X12148372Y-18256984D02*
X12129325Y-18285555D01*
X12129325Y-18285555D02*
X12110277Y-18304603D01*
X12110277Y-18304603D02*
X12091229Y-18314127D01*
X12281706Y-18276031D02*
X12291229Y-18266508D01*
X12291229Y-18266508D02*
X12310277Y-18256984D01*
X12310277Y-18256984D02*
X12357896Y-18256984D01*
X12357896Y-18256984D02*
X12376944Y-18266508D01*
X12376944Y-18266508D02*
X12386467Y-18276031D01*
X12386467Y-18276031D02*
X12395991Y-18295079D01*
X12395991Y-18295079D02*
X12395991Y-18314127D01*
X12395991Y-18314127D02*
X12386467Y-18342698D01*
X12386467Y-18342698D02*
X12272182Y-18456984D01*
X12272182Y-18456984D02*
X12395991Y-18456984D01*
X12567420Y-18256984D02*
X12529325Y-18256984D01*
X12529325Y-18256984D02*
X12510277Y-18266508D01*
X12510277Y-18266508D02*
X12500753Y-18276031D01*
X12500753Y-18276031D02*
X12481706Y-18304603D01*
X12481706Y-18304603D02*
X12472182Y-18342698D01*
X12472182Y-18342698D02*
X12472182Y-18418889D01*
X12472182Y-18418889D02*
X12481706Y-18437936D01*
X12481706Y-18437936D02*
X12491229Y-18447460D01*
X12491229Y-18447460D02*
X12510277Y-18456984D01*
X12510277Y-18456984D02*
X12548372Y-18456984D01*
X12548372Y-18456984D02*
X12567420Y-18447460D01*
X12567420Y-18447460D02*
X12576944Y-18437936D01*
X12576944Y-18437936D02*
X12586467Y-18418889D01*
X12586467Y-18418889D02*
X12586467Y-18371270D01*
X12586467Y-18371270D02*
X12576944Y-18352222D01*
X12576944Y-18352222D02*
X12567420Y-18342698D01*
X12567420Y-18342698D02*
X12548372Y-18333174D01*
X12548372Y-18333174D02*
X12510277Y-18333174D01*
X12510277Y-18333174D02*
X12491229Y-18342698D01*
X12491229Y-18342698D02*
X12481706Y-18352222D01*
X12481706Y-18352222D02*
X12472182Y-18371270D01*
X12710277Y-18256984D02*
X12729325Y-18256984D01*
X12729325Y-18256984D02*
X12748372Y-18266508D01*
X12748372Y-18266508D02*
X12757896Y-18276031D01*
X12757896Y-18276031D02*
X12767420Y-18295079D01*
X12767420Y-18295079D02*
X12776944Y-18333174D01*
X12776944Y-18333174D02*
X12776944Y-18380793D01*
X12776944Y-18380793D02*
X12767420Y-18418889D01*
X12767420Y-18418889D02*
X12757896Y-18437936D01*
X12757896Y-18437936D02*
X12748372Y-18447460D01*
X12748372Y-18447460D02*
X12729325Y-18456984D01*
X12729325Y-18456984D02*
X12710277Y-18456984D01*
X12710277Y-18456984D02*
X12691229Y-18447460D01*
X12691229Y-18447460D02*
X12681706Y-18437936D01*
X12681706Y-18437936D02*
X12672182Y-18418889D01*
X12672182Y-18418889D02*
X12662658Y-18380793D01*
X12662658Y-18380793D02*
X12662658Y-18333174D01*
X12662658Y-18333174D02*
X12672182Y-18295079D01*
X12672182Y-18295079D02*
X12681706Y-18276031D01*
X12681706Y-18276031D02*
X12691229Y-18266508D01*
X12691229Y-18266508D02*
X12710277Y-18256984D01*
X12853134Y-18256984D02*
X12853134Y-18295079D01*
X12929325Y-18256984D02*
X12929325Y-18295079D01*
X13224563Y-18533174D02*
X13215039Y-18523650D01*
X13215039Y-18523650D02*
X13195991Y-18495079D01*
X13195991Y-18495079D02*
X13186468Y-18476031D01*
X13186468Y-18476031D02*
X13176944Y-18447460D01*
X13176944Y-18447460D02*
X13167420Y-18399841D01*
X13167420Y-18399841D02*
X13167420Y-18361746D01*
X13167420Y-18361746D02*
X13176944Y-18314127D01*
X13176944Y-18314127D02*
X13186468Y-18285555D01*
X13186468Y-18285555D02*
X13195991Y-18266508D01*
X13195991Y-18266508D02*
X13215039Y-18237936D01*
X13215039Y-18237936D02*
X13224563Y-18228412D01*
X13386468Y-18323650D02*
X13386468Y-18456984D01*
X13338848Y-18247460D02*
X13291229Y-18390317D01*
X13291229Y-18390317D02*
X13415039Y-18390317D01*
X13643610Y-18456984D02*
X13643610Y-18256984D01*
X13729325Y-18456984D02*
X13729325Y-18352222D01*
X13729325Y-18352222D02*
X13719801Y-18333174D01*
X13719801Y-18333174D02*
X13700753Y-18323650D01*
X13700753Y-18323650D02*
X13672182Y-18323650D01*
X13672182Y-18323650D02*
X13653134Y-18333174D01*
X13653134Y-18333174D02*
X13643610Y-18342698D01*
X13853134Y-18456984D02*
X13834087Y-18447460D01*
X13834087Y-18447460D02*
X13824563Y-18437936D01*
X13824563Y-18437936D02*
X13815039Y-18418889D01*
X13815039Y-18418889D02*
X13815039Y-18361746D01*
X13815039Y-18361746D02*
X13824563Y-18342698D01*
X13824563Y-18342698D02*
X13834087Y-18333174D01*
X13834087Y-18333174D02*
X13853134Y-18323650D01*
X13853134Y-18323650D02*
X13881706Y-18323650D01*
X13881706Y-18323650D02*
X13900753Y-18333174D01*
X13900753Y-18333174D02*
X13910277Y-18342698D01*
X13910277Y-18342698D02*
X13919801Y-18361746D01*
X13919801Y-18361746D02*
X13919801Y-18418889D01*
X13919801Y-18418889D02*
X13910277Y-18437936D01*
X13910277Y-18437936D02*
X13900753Y-18447460D01*
X13900753Y-18447460D02*
X13881706Y-18456984D01*
X13881706Y-18456984D02*
X13853134Y-18456984D01*
X14034087Y-18456984D02*
X14015039Y-18447460D01*
X14015039Y-18447460D02*
X14005515Y-18428412D01*
X14005515Y-18428412D02*
X14005515Y-18256984D01*
X14186468Y-18447460D02*
X14167420Y-18456984D01*
X14167420Y-18456984D02*
X14129325Y-18456984D01*
X14129325Y-18456984D02*
X14110277Y-18447460D01*
X14110277Y-18447460D02*
X14100753Y-18428412D01*
X14100753Y-18428412D02*
X14100753Y-18352222D01*
X14100753Y-18352222D02*
X14110277Y-18333174D01*
X14110277Y-18333174D02*
X14129325Y-18323650D01*
X14129325Y-18323650D02*
X14167420Y-18323650D01*
X14167420Y-18323650D02*
X14186468Y-18333174D01*
X14186468Y-18333174D02*
X14195991Y-18352222D01*
X14195991Y-18352222D02*
X14195991Y-18371270D01*
X14195991Y-18371270D02*
X14100753Y-18390317D01*
X14272182Y-18447460D02*
X14291230Y-18456984D01*
X14291230Y-18456984D02*
X14329325Y-18456984D01*
X14329325Y-18456984D02*
X14348372Y-18447460D01*
X14348372Y-18447460D02*
X14357896Y-18428412D01*
X14357896Y-18428412D02*
X14357896Y-18418889D01*
X14357896Y-18418889D02*
X14348372Y-18399841D01*
X14348372Y-18399841D02*
X14329325Y-18390317D01*
X14329325Y-18390317D02*
X14300753Y-18390317D01*
X14300753Y-18390317D02*
X14281706Y-18380793D01*
X14281706Y-18380793D02*
X14272182Y-18361746D01*
X14272182Y-18361746D02*
X14272182Y-18352222D01*
X14272182Y-18352222D02*
X14281706Y-18333174D01*
X14281706Y-18333174D02*
X14300753Y-18323650D01*
X14300753Y-18323650D02*
X14329325Y-18323650D01*
X14329325Y-18323650D02*
X14348372Y-18333174D01*
X14424563Y-18533174D02*
X14434087Y-18523650D01*
X14434087Y-18523650D02*
X14453134Y-18495079D01*
X14453134Y-18495079D02*
X14462658Y-18476031D01*
X14462658Y-18476031D02*
X14472182Y-18447460D01*
X14472182Y-18447460D02*
X14481706Y-18399841D01*
X14481706Y-18399841D02*
X14481706Y-18361746D01*
X14481706Y-18361746D02*
X14472182Y-18314127D01*
X14472182Y-18314127D02*
X14462658Y-18285555D01*
X14462658Y-18285555D02*
X14453134Y-18266508D01*
X14453134Y-18266508D02*
X14434087Y-18237936D01*
X14434087Y-18237936D02*
X14424563Y-18228412D01*
M02*
